{
  "error_message": "'file_Path'",
  "traceback": "Traceback (most recent call last):\n  File \"E:\\ruanjian\\猫\\doubao_ai_tool.py\", line 8224, in _jianying_export_worker\n    meta_info = self._create_jianying_meta_info(project_name, total_duration_us, draft_content, draft_path, draft_id)\n                ^^^^^^^^^^^^^^^^^^^^^^^^^^^^^^^^^^^^^^^^^^^^^^^^^^^^^^^^^^^^^^^^^^^^^^^^^^^^^^^^^^^^^^^^^^^^^^^^^^^^^\n  File \"E:\\ruanjian\\猫\\doubao_ai_tool.py\", line 8938, in _create_jianying_meta_info\n    cover_path = draft_content['materials']['videos'][0]['file_Path']\n                 ~~~~~~~~~~~~~~~~~~~~~~~~~~~~~~~~~~~~~~~^^^^^^^^^^^^^\nKeyError: 'file_Path'\n",
  "generated_draft_content": {
    "id": "114410DA-5170-4910-9F21-802C9336FAA2",
    "materials": {
      "audios": [],
      "canvases": [],
      "images": [],
      "videos": [
        {
          "duration": 0,
          "id": "27A78478-8B6E-4861-9223-0AE6BE46C62B",
          "name": "00001_00001_HTXE_1.mp4",
          "path": "./00001_00001_HTXE_1.mp4",
          "type": "video",
          "metety": {
            "width": 1080,
            "height": 1080
          }
        },
        {
          "duration": 0,
          "id": "641D9B85-D935-423F-BA8C-6C4024D39DDE",
          "name": "00002_00002_HTXE_1.mp4",
          "path": "./00002_00002_HTXE_1.mp4",
          "type": "video",
          "metety": {
            "width": 1080,
            "height": 1080
          }
        },
        {
          "duration": 0,
          "id": "F43950ED-5349-49F7-95C8-BFCE6E42EE11",
          "name": "00003_00003_HTXE_1.mp4",
          "path": "./00003_00003_HTXE_1.mp4",
          "type": "video",
          "metety": {
            "width": 1080,
            "height": 1080
          }
        },
        {
          "duration": 0,
          "id": "7B6C6810-7FB3-4C6C-9793-A8B364134FB8",
          "name": "00004_00004_HTXE_1.mp4",
          "path": "./00004_00004_HTXE_1.mp4",
          "type": "video",
          "metety": {
            "width": 1080,
            "height": 1080
          }
        },
        {
          "duration": 0,
          "id": "B865F945-F022-4F51-B7A4-97CA5F6EA492",
          "name": "00005_00006_HTXE_1.mp4",
          "path": "./00005_00006_HTXE_1.mp4",
          "type": "video",
          "metety": {
            "width": 1080,
            "height": 1080
          }
        },
        {
          "duration": 0,
          "id": "825070CC-32AA-4375-9268-47AB589A1106",
          "name": "00006_00007_HTXE_1.mp4",
          "path": "./00006_00007_HTXE_1.mp4",
          "type": "video",
          "metety": {
            "width": 1080,
            "height": 1080
          }
        },
        {
          "duration": 0,
          "id": "BC3F6DB0-3181-41AB-816E-B3D9AE409EA8",
          "name": "00007_00008_HTXE_1.mp4",
          "path": "./00007_00008_HTXE_1.mp4",
          "type": "video",
          "metety": {
            "width": 1080,
            "height": 1080
          }
        },
        {
          "duration": 0,
          "id": "DB760288-E167-4754-BB9F-BD987FD58697",
          "name": "00008_00009_HTXE_1.mp4",
          "path": "./00008_00009_HTXE_1.mp4",
          "type": "video",
          "metety": {
            "width": 1080,
            "height": 1080
          }
        },
        {
          "duration": 0,
          "id": "CE2F5312-A6B2-4B3F-BFE9-7F4CABD64736",
          "name": "00009_00011_HTXE_1.mp4",
          "path": "./00009_00011_HTXE_1.mp4",
          "type": "video",
          "metety": {
            "width": 1440,
            "height": 1440
          }
        },
        {
          "duration": 0,
          "id": "5402B9F3-AFEA-44C7-894F-816FCA2521C2",
          "name": "00010_00012_HTXE_1.mp4",
          "path": "./00010_00012_HTXE_1.mp4",
          "type": "video",
          "metety": {
            "width": 1440,
            "height": 1440
          }
        },
        {
          "duration": 5038730,
          "id": "77F2D2D2-AF0E-453F-8996-605ABCEAA5A0",
          "name": "00011_00013_HTXE_1.mp4",
          "path": "./00011_00013_HTXE_1.mp4",
          "type": "video",
          "metety": {
            "width": 960,
            "height": 960
          }
        },
        {
          "duration": 5038730,
          "id": "DB4759E1-17A3-44B5-AD74-B6E2E0EFAB3C",
          "name": "00012_00014_HTXE_1.mp4",
          "path": "./00012_00014_HTXE_1.mp4",
          "type": "video",
          "metety": {
            "width": 960,
            "height": 960
          }
        },
        {
          "duration": 5038730,
          "id": "B1F8A7FB-F90C-46B3-8845-0A685C1A0D22",
          "name": "00013_00015_HTXE_1.mp4",
          "path": "./00013_00015_HTXE_1.mp4",
          "type": "video",
          "metety": {
            "width": 960,
            "height": 960
          }
        },
        {
          "duration": 5038730,
          "id": "B1FEAF59-0C11-47A0-AB9E-D502D7F184C4",
          "name": "00014_00016_HTXE_1.mp4",
          "path": "./00014_00016_HTXE_1.mp4",
          "type": "video",
          "metety": {
            "width": 960,
            "height": 960
          }
        },
        {
          "duration": 5038730,
          "id": "5CC97748-52BC-4707-9BC0-2F8CD89B8E42",
          "name": "00015_00017_HTXE_1.mp4",
          "path": "./00015_00017_HTXE_1.mp4",
          "type": "video",
          "metety": {
            "width": 960,
            "height": 960
          }
        },
        {
          "duration": 5038730,
          "id": "C3410C49-6583-4399-B59E-E026AD423802",
          "name": "00016_00018_HTXE_1.mp4",
          "path": "./00016_00018_HTXE_1.mp4",
          "type": "video",
          "metety": {
            "width": 960,
            "height": 960
          }
        },
        {
          "duration": 5038730,
          "id": "C7BAFE9F-8919-49FA-8E6F-C892B15EF5E9",
          "name": "00017_00019_HTXE_1.mp4",
          "path": "./00017_00019_HTXE_1.mp4",
          "type": "video",
          "metety": {
            "width": 960,
            "height": 960
          }
        },
        {
          "duration": 5038730,
          "id": "34ED0871-630F-48B5-B2F9-2F001B706EEA",
          "name": "00018_00020_HTXE_1.mp4",
          "path": "./00018_00020_HTXE_1.mp4",
          "type": "video",
          "metety": {
            "width": 960,
            "height": 960
          }
        },
        {
          "duration": 5038730,
          "id": "17FAA02E-092D-423A-8CD7-7511F598556D",
          "name": "00019_00021_HTXE_1.mp4",
          "path": "./00019_00021_HTXE_1.mp4",
          "type": "video",
          "metety": {
            "width": 960,
            "height": 960
          }
        },
        {
          "duration": 5038730,
          "id": "45E979C1-DFA6-4C60-8CF8-63048974B48F",
          "name": "00020_00022_HTXE_1.mp4",
          "path": "./00020_00022_HTXE_1.mp4",
          "type": "video",
          "metety": {
            "width": 960,
            "height": 960
          }
        },
        {
          "duration": 5038730,
          "id": "8F463D41-CD0D-45E7-AEA6-63B4CC6C2A2B",
          "name": "00021_00023_HTXE_1.mp4",
          "path": "./00021_00023_HTXE_1.mp4",
          "type": "video",
          "metety": {
            "width": 960,
            "height": 960
          }
        },
        {
          "duration": 5038730,
          "id": "DCFB193F-8759-442C-99B1-E7D98C38DBEE",
          "name": "00022_00024_HTXE_1.mp4",
          "path": "./00022_00024_HTXE_1.mp4",
          "type": "video",
          "metety": {
            "width": 960,
            "height": 960
          }
        },
        {
          "duration": 5038730,
          "id": "FDA6C9B6-1A23-4FBB-8DA8-64AA70A9F1BA",
          "name": "00023_00025_HTXE_1.mp4",
          "path": "./00023_00025_HTXE_1.mp4",
          "type": "video",
          "metety": {
            "width": 960,
            "height": 960
          }
        },
        {
          "duration": 5038730,
          "id": "9A64DE58-DD96-4A08-BFA8-84B94767DCB6",
          "name": "00024_00026_HTXE_1.mp4",
          "path": "./00024_00026_HTXE_1.mp4",
          "type": "video",
          "metety": {
            "width": 960,
            "height": 960
          }
        },
        {
          "duration": 5038730,
          "id": "B9033D44-44E9-4BE1-B0B4-6604FC96291C",
          "name": "00025_00027_HTXE_1.mp4",
          "path": "./00025_00027_HTXE_1.mp4",
          "type": "video",
          "metety": {
            "width": 960,
            "height": 960
          }
        },
        {
          "duration": 5038730,
          "id": "4725CBD8-9383-4D6C-8D03-C16D0F22A778",
          "name": "00026_00028_HTXE_1.mp4",
          "path": "./00026_00028_HTXE_1.mp4",
          "type": "video",
          "metety": {
            "width": 960,
            "height": 960
          }
        },
        {
          "duration": 5038730,
          "id": "07A3C90B-9A21-4CBC-941B-C151CD84D871",
          "name": "00027_00029_HTXE_1.mp4",
          "path": "./00027_00029_HTXE_1.mp4",
          "type": "video",
          "metety": {
            "width": 960,
            "height": 960
          }
        },
        {
          "duration": 5038730,
          "id": "317BFF8B-9163-49CD-985B-30CF07085E4F",
          "name": "00028_00030_HTXE_1.mp4",
          "path": "./00028_00030_HTXE_1.mp4",
          "type": "video",
          "metety": {
            "width": 960,
            "height": 960
          }
        },
        {
          "duration": 5038730,
          "id": "93C30957-3586-4CA5-ABDB-5D41D7361C64",
          "name": "00029_00031_HTXE_1.mp4",
          "path": "./00029_00031_HTXE_1.mp4",
          "type": "video",
          "metety": {
            "width": 960,
            "height": 960
          }
        },
        {
          "duration": 5038730,
          "id": "5E2985C0-8CFE-4412-B167-0C2457BA30D5",
          "name": "00030_00032_HTXE_1.mp4",
          "path": "./00030_00032_HTXE_1.mp4",
          "type": "video",
          "metety": {
            "width": 960,
            "height": 960
          }
        },
        {
          "duration": 5038730,
          "id": "08C47708-3458-4C29-B24E-7D1C81AC2CA6",
          "name": "00031_00033_HTXE_1.mp4",
          "path": "./00031_00033_HTXE_1.mp4",
          "type": "video",
          "metety": {
            "width": 960,
            "height": 960
          }
        },
        {
          "duration": 5038730,
          "id": "62F35DD1-51C8-4ED4-9285-6AE1E56AF51B",
          "name": "00032_00034_HTXE_1.mp4",
          "path": "./00032_00034_HTXE_1.mp4",
          "type": "video",
          "metety": {
            "width": 960,
            "height": 960
          }
        },
        {
          "duration": 5038730,
          "id": "74B29483-8314-4E62-ACB2-0B31C16D97E1",
          "name": "00033_00035_HTXE_1.mp4",
          "path": "./00033_00035_HTXE_1.mp4",
          "type": "video",
          "metety": {
            "width": 960,
            "height": 960
          }
        },
        {
          "duration": 5038730,
          "id": "9B8BDCEB-79DE-4631-9175-35C4E0927EA4",
          "name": "00034_00036_HTXE_1.mp4",
          "path": "./00034_00036_HTXE_1.mp4",
          "type": "video",
          "metety": {
            "width": 960,
            "height": 960
          }
        },
        {
          "duration": 5038730,
          "id": "DDF87366-D81E-4961-84CC-101855CAA5DF",
          "name": "00035_00037_HTXE_1.mp4",
          "path": "./00035_00037_HTXE_1.mp4",
          "type": "video",
          "metety": {
            "width": 960,
            "height": 960
          }
        },
        {
          "duration": 5038730,
          "id": "8F738B92-1CEA-46C5-9FD4-E538849349CC",
          "name": "00036_00038_HTXE_1.mp4",
          "path": "./00036_00038_HTXE_1.mp4",
          "type": "video",
          "metety": {
            "width": 960,
            "height": 960
          }
        },
        {
          "duration": 5038730,
          "id": "54757459-8318-481A-8894-2B9E5F5586CD",
          "name": "00037_00039_HTXE_1.mp4",
          "path": "./00037_00039_HTXE_1.mp4",
          "type": "video",
          "metety": {
            "width": 960,
            "height": 960
          }
        },
        {
          "duration": 5038730,
          "id": "1FABDCB2-2584-4EAC-B98A-5916FBCD8FFD",
          "name": "00038_00040_HTXE_1.mp4",
          "path": "./00038_00040_HTXE_1.mp4",
          "type": "video",
          "metety": {
            "width": 960,
            "height": 960
          }
        },
        {
          "duration": 5038730,
          "id": "EF98D0D4-5C62-41FD-BBA9-19268BA1BDD6",
          "name": "00039_00041_HTXE_1.mp4",
          "path": "./00039_00041_HTXE_1.mp4",
          "type": "video",
          "metety": {
            "width": 960,
            "height": 960
          }
        },
        {
          "duration": 5038730,
          "id": "972CF309-2F29-4DB2-9334-F95462939B5B",
          "name": "00040_00042_HTXE_1.mp4",
          "path": "./00040_00042_HTXE_1.mp4",
          "type": "video",
          "metety": {
            "width": 960,
            "height": 960
          }
        },
        {
          "duration": 5038730,
          "id": "D0047599-9BC0-4659-8607-43E3D1F62F7E",
          "name": "00041_00043_HTXE_1.mp4",
          "path": "./00041_00043_HTXE_1.mp4",
          "type": "video",
          "metety": {
            "width": 960,
            "height": 960
          }
        },
        {
          "duration": 5038730,
          "id": "33121EB7-5E4F-4671-82D3-FD752816F016",
          "name": "00042_00044_HTXE_1.mp4",
          "path": "./00042_00044_HTXE_1.mp4",
          "type": "video",
          "metety": {
            "width": 960,
            "height": 960
          }
        },
        {
          "duration": 5038730,
          "id": "ABEFCD7B-9122-4A3B-B5CF-0411AF1E2FE1",
          "name": "00043_00045_HTXE_1.mp4",
          "path": "./00043_00045_HTXE_1.mp4",
          "type": "video",
          "metety": {
            "width": 960,
            "height": 960
          }
        },
        {
          "duration": 5038730,
          "id": "23FE55CD-4727-414D-BE7D-56C5D3DE6755",
          "name": "00044_00046_HTXE_1.mp4",
          "path": "./00044_00046_HTXE_1.mp4",
          "type": "video",
          "metety": {
            "width": 960,
            "height": 960
          }
        },
        {
          "duration": 5038730,
          "id": "C5A8213B-B3F0-4D91-8949-87CC585EE9A2",
          "name": "00045_00047_HTXE_1.mp4",
          "path": "./00045_00047_HTXE_1.mp4",
          "type": "video",
          "metety": {
            "width": 960,
            "height": 960
          }
        },
        {
          "duration": 5038730,
          "id": "C9B4B704-7111-49F5-8A21-B0E94CCF8CF5",
          "name": "00046_00048_HTXE_1.mp4",
          "path": "./00046_00048_HTXE_1.mp4",
          "type": "video",
          "metety": {
            "width": 960,
            "height": 960
          }
        },
        {
          "duration": 5038730,
          "id": "61BFAE8E-34CA-4294-AAE2-9906EC15DBB7",
          "name": "00047_00049_HTXE_1.mp4",
          "path": "./00047_00049_HTXE_1.mp4",
          "type": "video",
          "metety": {
            "width": 960,
            "height": 960
          }
        },
        {
          "duration": 5038730,
          "id": "012E0BED-4BED-4BC5-948D-BBBA9CFEDA67",
          "name": "00048_00050_HTXE_1.mp4",
          "path": "./00048_00050_HTXE_1.mp4",
          "type": "video",
          "metety": {
            "width": 960,
            "height": 960
          }
        },
        {
          "duration": 5038730,
          "id": "B0855148-0219-4994-A62B-D522CDCD0E7E",
          "name": "00049_00051_HTXE_1.mp4",
          "path": "./00049_00051_HTXE_1.mp4",
          "type": "video",
          "metety": {
            "width": 960,
            "height": 960
          }
        },
        {
          "duration": 5038730,
          "id": "220193BD-18F3-42E7-A69E-28102CA9644F",
          "name": "00050_00052_HTXE_1.mp4",
          "path": "./00050_00052_HTXE_1.mp4",
          "type": "video",
          "metety": {
            "width": 960,
            "height": 960
          }
        },
        {
          "duration": 5038730,
          "id": "31B051F4-1A14-4B2A-B1A0-8BF5F6F980DC",
          "name": "00051_00053_HTXE_1.mp4",
          "path": "./00051_00053_HTXE_1.mp4",
          "type": "video",
          "metety": {
            "width": 960,
            "height": 960
          }
        },
        {
          "duration": 5038730,
          "id": "1D0C2E50-8ADF-4216-AB66-618F4997E91A",
          "name": "00052_00054_HTXE_1.mp4",
          "path": "./00052_00054_HTXE_1.mp4",
          "type": "video",
          "metety": {
            "width": 960,
            "height": 960
          }
        },
        {
          "duration": 5038730,
          "id": "3CFC0C3A-339C-4C68-B3EC-EC2A61CA9EC0",
          "name": "00053_00055_HTXE_1.mp4",
          "path": "./00053_00055_HTXE_1.mp4",
          "type": "video",
          "metety": {
            "width": 960,
            "height": 960
          }
        },
        {
          "duration": 5038730,
          "id": "56F0EDAB-F312-4C84-B63D-EA5ED57BE9C3",
          "name": "00054_00056_HTXE_1.mp4",
          "path": "./00054_00056_HTXE_1.mp4",
          "type": "video",
          "metety": {
            "width": 960,
            "height": 960
          }
        },
        {
          "duration": 5038730,
          "id": "D578FAC5-DD9D-4452-BF73-7020A1051083",
          "name": "00055_00057_HTXE_1.mp4",
          "path": "./00055_00057_HTXE_1.mp4",
          "type": "video",
          "metety": {
            "width": 960,
            "height": 960
          }
        },
        {
          "duration": 5038730,
          "id": "8E79CED3-CAD7-4EF7-8D9A-9C302215FAF4",
          "name": "00056_00058_HTXE_1.mp4",
          "path": "./00056_00058_HTXE_1.mp4",
          "type": "video",
          "metety": {
            "width": 960,
            "height": 960
          }
        },
        {
          "duration": 5038730,
          "id": "0A38353D-59FC-4513-82FF-2077C231BCAE",
          "name": "00057_00059_HTXE_1.mp4",
          "path": "./00057_00059_HTXE_1.mp4",
          "type": "video",
          "metety": {
            "width": 960,
            "height": 960
          }
        },
        {
          "duration": 5038730,
          "id": "6C75B888-31CB-4081-ACBE-F8208455371C",
          "name": "00058_00060_HTXE_1.mp4",
          "path": "./00058_00060_HTXE_1.mp4",
          "type": "video",
          "metety": {
            "width": 960,
            "height": 960
          }
        },
        {
          "duration": 5038730,
          "id": "FC51F304-1838-452D-A1AC-0ED18E355E18",
          "name": "00059_00061_HTXE_1.mp4",
          "path": "./00059_00061_HTXE_1.mp4",
          "type": "video",
          "metety": {
            "width": 960,
            "height": 960
          }
        },
        {
          "duration": 5038730,
          "id": "61206C52-9CFA-454D-A44B-DECB1735D070",
          "name": "00060_00062_HTXE_1.mp4",
          "path": "./00060_00062_HTXE_1.mp4",
          "type": "video",
          "metety": {
            "width": 960,
            "height": 960
          }
        },
        {
          "duration": 5038730,
          "id": "30681623-E1EF-4E6E-BD2D-5DFE19FC6F1B",
          "name": "00061_00063_HTXE_1.mp4",
          "path": "./00061_00063_HTXE_1.mp4",
          "type": "video",
          "metety": {
            "width": 960,
            "height": 960
          }
        },
        {
          "duration": 5038730,
          "id": "6D319A16-45D8-4032-BEAD-463964A7F4A9",
          "name": "00062_00064_HTXE_1.mp4",
          "path": "./00062_00064_HTXE_1.mp4",
          "type": "video",
          "metety": {
            "width": 960,
            "height": 960
          }
        },
        {
          "duration": 5038730,
          "id": "14D0BEDB-D48B-4A2B-9C67-432E62585E8B",
          "name": "00063_00065_HTXE_1.mp4",
          "path": "./00063_00065_HTXE_1.mp4",
          "type": "video",
          "metety": {
            "width": 960,
            "height": 960
          }
        },
        {
          "duration": 5038730,
          "id": "E08D6603-C263-4A9E-88E3-769ACF18847D",
          "name": "00064_00066_HTXE_1.mp4",
          "path": "./00064_00066_HTXE_1.mp4",
          "type": "video",
          "metety": {
            "width": 960,
            "height": 960
          }
        },
        {
          "duration": 5038730,
          "id": "37CD25F9-25BA-4D08-B4C2-78DF84C6E137",
          "name": "00065_00067_HTXE_1.mp4",
          "path": "./00065_00067_HTXE_1.mp4",
          "type": "video",
          "metety": {
            "width": 960,
            "height": 960
          }
        },
        {
          "duration": 5038730,
          "id": "2A90BE54-DCBD-46E3-B930-024FCAAF024D",
          "name": "00066_00068_HTXE_1.mp4",
          "path": "./00066_00068_HTXE_1.mp4",
          "type": "video",
          "metety": {
            "width": 960,
            "height": 960
          }
        },
        {
          "duration": 5038730,
          "id": "1C02BC7F-FF6F-4607-9054-4436B742599A",
          "name": "00067_00069_HTXE_1.mp4",
          "path": "./00067_00069_HTXE_1.mp4",
          "type": "video",
          "metety": {
            "width": 960,
            "height": 960
          }
        },
        {
          "duration": 5038730,
          "id": "4D07BDF4-D444-49B0-9119-E51DDBDD4072",
          "name": "00068_00070_HTXE_1.mp4",
          "path": "./00068_00070_HTXE_1.mp4",
          "type": "video",
          "metety": {
            "width": 960,
            "height": 960
          }
        },
        {
          "duration": 5038730,
          "id": "D40DA117-394D-4B64-8EE6-AC00E9B53DFB",
          "name": "00069_00071_HTXE_1.mp4",
          "path": "./00069_00071_HTXE_1.mp4",
          "type": "video",
          "metety": {
            "width": 960,
            "height": 960
          }
        },
        {
          "duration": 5038730,
          "id": "1154F022-E093-42B7-9526-9BD3B7A16E5A",
          "name": "00070_00072_HTXE_1.mp4",
          "path": "./00070_00072_HTXE_1.mp4",
          "type": "video",
          "metety": {
            "width": 960,
            "height": 960
          }
        },
        {
          "duration": 5038730,
          "id": "F419856E-1066-4504-A432-D6B2DA93452B",
          "name": "00071_00073_HTXE_1.mp4",
          "path": "./00071_00073_HTXE_1.mp4",
          "type": "video",
          "metety": {
            "width": 960,
            "height": 960
          }
        },
        {
          "duration": 5038730,
          "id": "1E054ED8-7A02-4509-8A82-702F5D7894F1",
          "name": "00072_00074_HTXE_1.mp4",
          "path": "./00072_00074_HTXE_1.mp4",
          "type": "video",
          "metety": {
            "width": 960,
            "height": 960
          }
        },
        {
          "duration": 5038730,
          "id": "4E344EF4-4710-4536-A959-C5D97F64C37C",
          "name": "00073_00075_HTXE_1.mp4",
          "path": "./00073_00075_HTXE_1.mp4",
          "type": "video",
          "metety": {
            "width": 960,
            "height": 960
          }
        },
        {
          "duration": 5038730,
          "id": "296AC592-8313-4DE0-9D41-EFCDEBE8DCBC",
          "name": "00074_00076_HTXE_1.mp4",
          "path": "./00074_00076_HTXE_1.mp4",
          "type": "video",
          "metety": {
            "width": 960,
            "height": 960
          }
        },
        {
          "duration": 5038730,
          "id": "3A6A5CDE-C771-44D0-A9E6-E100DB8CB9D8",
          "name": "00075_00077_HTXE_1.mp4",
          "path": "./00075_00077_HTXE_1.mp4",
          "type": "video",
          "metety": {
            "width": 960,
            "height": 960
          }
        },
        {
          "duration": 5038730,
          "id": "73E14569-D3EF-4068-801C-7A9EC3E33A8E",
          "name": "00076_00078_HTXE_1.mp4",
          "path": "./00076_00078_HTXE_1.mp4",
          "type": "video",
          "metety": {
            "width": 960,
            "height": 960
          }
        },
        {
          "duration": 5038730,
          "id": "18908D7C-DAE2-4F06-B4D2-635D536FA50C",
          "name": "00077_00079_HTXE_1.mp4",
          "path": "./00077_00079_HTXE_1.mp4",
          "type": "video",
          "metety": {
            "width": 960,
            "height": 960
          }
        },
        {
          "duration": 5038730,
          "id": "0034A0DC-94B0-4B21-9FCA-0F0583DE34DE",
          "name": "00078_00080_HTXE_1.mp4",
          "path": "./00078_00080_HTXE_1.mp4",
          "type": "video",
          "metety": {
            "width": 960,
            "height": 960
          }
        },
        {
          "duration": 5038730,
          "id": "0988BF6C-43F6-422C-B23D-C68BA4BBC3AD",
          "name": "00079_00081_HTXE_1.mp4",
          "path": "./00079_00081_HTXE_1.mp4",
          "type": "video",
          "metety": {
            "width": 960,
            "height": 960
          }
        },
        {
          "duration": 5038730,
          "id": "DCCF33D5-D51F-43D5-95F9-57EC1A77B47F",
          "name": "00080_00082_HTXE_1.mp4",
          "path": "./00080_00082_HTXE_1.mp4",
          "type": "video",
          "metety": {
            "width": 960,
            "height": 960
          }
        },
        {
          "duration": 5038730,
          "id": "FEEE161B-0FC0-44BA-BD4F-C2C6A891D9CF",
          "name": "00081_00083_HTXE_1.mp4",
          "path": "./00081_00083_HTXE_1.mp4",
          "type": "video",
          "metety": {
            "width": 960,
            "height": 960
          }
        },
        {
          "duration": 5038730,
          "id": "E0121166-7837-4C3B-B57C-E2112DD9DF03",
          "name": "00082_00084_HTXE_1.mp4",
          "path": "./00082_00084_HTXE_1.mp4",
          "type": "video",
          "metety": {
            "width": 960,
            "height": 960
          }
        },
        {
          "duration": 5038730,
          "id": "9E8813F2-92FE-4266-B106-DBAD029BB6EA",
          "name": "00083_00085_HTXE_1.mp4",
          "path": "./00083_00085_HTXE_1.mp4",
          "type": "video",
          "metety": {
            "width": 960,
            "height": 960
          }
        },
        {
          "duration": 5038730,
          "id": "1A08DF99-30CE-4B2C-A39C-A58F40358A58",
          "name": "00084_00086_HTXE_1.mp4",
          "path": "./00084_00086_HTXE_1.mp4",
          "type": "video",
          "metety": {
            "width": 960,
            "height": 960
          }
        },
        {
          "duration": 5038730,
          "id": "D803F81F-38D8-499A-956B-E883DE68985B",
          "name": "00085_00087_HTXE_1.mp4",
          "path": "./00085_00087_HTXE_1.mp4",
          "type": "video",
          "metety": {
            "width": 960,
            "height": 960
          }
        },
        {
          "duration": 5038730,
          "id": "61DC72CA-3500-4F8F-BEE8-3793B17111C6",
          "name": "00086_00088_HTXE_1.mp4",
          "path": "./00086_00088_HTXE_1.mp4",
          "type": "video",
          "metety": {
            "width": 960,
            "height": 960
          }
        },
        {
          "duration": 5038730,
          "id": "5619F2A9-5C2B-4492-A94A-B04723A5E836",
          "name": "00087_00089_HTXE_1.mp4",
          "path": "./00087_00089_HTXE_1.mp4",
          "type": "video",
          "metety": {
            "width": 960,
            "height": 960
          }
        },
        {
          "duration": 5038730,
          "id": "37A691A6-5CC5-48B7-9D7B-52475EC7A8BE",
          "name": "00088_00090_HTXE_1.mp4",
          "path": "./00088_00090_HTXE_1.mp4",
          "type": "video",
          "metety": {
            "width": 960,
            "height": 960
          }
        },
        {
          "duration": 5038730,
          "id": "C4361796-AB44-4F62-8348-DD417FA98D5C",
          "name": "00089_00091_HTXE_1.mp4",
          "path": "./00089_00091_HTXE_1.mp4",
          "type": "video",
          "metety": {
            "width": 960,
            "height": 960
          }
        },
        {
          "duration": 5038730,
          "id": "77F2BAE4-04DA-4BFE-B3E4-B0FB40B5E58F",
          "name": "00090_00092_HTXE_1.mp4",
          "path": "./00090_00092_HTXE_1.mp4",
          "type": "video",
          "metety": {
            "width": 960,
            "height": 960
          }
        },
        {
          "duration": 5038730,
          "id": "E5DE74B3-E96F-4FB0-B16E-863B1484EFBD",
          "name": "00091_00093_HTXE_1.mp4",
          "path": "./00091_00093_HTXE_1.mp4",
          "type": "video",
          "metety": {
            "width": 960,
            "height": 960
          }
        },
        {
          "duration": 5038730,
          "id": "74FDCEE3-BAA8-4E85-9C46-F36AD960645B",
          "name": "00092_00094_HTXE_1.mp4",
          "path": "./00092_00094_HTXE_1.mp4",
          "type": "video",
          "metety": {
            "width": 960,
            "height": 960
          }
        },
        {
          "duration": 5038730,
          "id": "D36894D1-24F2-4204-BC70-14BCFD14F027",
          "name": "00093_00095_HTXE_1.mp4",
          "path": "./00093_00095_HTXE_1.mp4",
          "type": "video",
          "metety": {
            "width": 960,
            "height": 960
          }
        },
        {
          "duration": 5038730,
          "id": "D25EF648-C0FA-4F7D-B69F-E6B69D537677",
          "name": "00094_00096_HTXE_1.mp4",
          "path": "./00094_00096_HTXE_1.mp4",
          "type": "video",
          "metety": {
            "width": 960,
            "height": 960
          }
        },
        {
          "duration": 5038730,
          "id": "886A56AB-80BD-4365-9BDD-05A2372F230B",
          "name": "00095_00097_HTXE_1.mp4",
          "path": "./00095_00097_HTXE_1.mp4",
          "type": "video",
          "metety": {
            "width": 960,
            "height": 960
          }
        },
        {
          "duration": 5038730,
          "id": "FED8E521-B52E-4B26-BFFA-7AC6641A0540",
          "name": "00096_00098_HTXE_1.mp4",
          "path": "./00096_00098_HTXE_1.mp4",
          "type": "video",
          "metety": {
            "width": 960,
            "height": 960
          }
        },
        {
          "duration": 5038730,
          "id": "ED1D4F49-3FC3-434D-BFDD-40EC2CB22F7B",
          "name": "00097_00099_HTXE_1.mp4",
          "path": "./00097_00099_HTXE_1.mp4",
          "type": "video",
          "metety": {
            "width": 960,
            "height": 960
          }
        },
        {
          "duration": 5038730,
          "id": "F8F903A3-13FB-45C3-B574-89DD63DAB518",
          "name": "00098_00100_HTXE_1.mp4",
          "path": "./00098_00100_HTXE_1.mp4",
          "type": "video",
          "metety": {
            "width": 960,
            "height": 960
          }
        },
        {
          "duration": 5038730,
          "id": "58955E86-944B-48CE-98A0-6DDDB4A500D4",
          "name": "00099_00101_HTXE_1.mp4",
          "path": "./00099_00101_HTXE_1.mp4",
          "type": "video",
          "metety": {
            "width": 960,
            "height": 960
          }
        },
        {
          "duration": 5038730,
          "id": "18FD5525-DAE0-4217-AEE4-E0E55E8F0310",
          "name": "00100_00102_HTXE_1.mp4",
          "path": "./00100_00102_HTXE_1.mp4",
          "type": "video",
          "metety": {
            "width": 960,
            "height": 960
          }
        },
        {
          "duration": 5038730,
          "id": "0A3C16D0-3601-44C3-B2F0-81F6FF4078D7",
          "name": "00101_00103_HTXE_1.mp4",
          "path": "./00101_00103_HTXE_1.mp4",
          "type": "video",
          "metety": {
            "width": 960,
            "height": 960
          }
        },
        {
          "duration": 5038730,
          "id": "9745CB03-7A0B-4583-8582-5A9D244D1E3D",
          "name": "00102_00104_HTXE_1.mp4",
          "path": "./00102_00104_HTXE_1.mp4",
          "type": "video",
          "metety": {
            "width": 960,
            "height": 960
          }
        },
        {
          "duration": 5038730,
          "id": "F12DBF08-02AE-486D-BA14-8FB89482361F",
          "name": "00103_00105_HTXE_1.mp4",
          "path": "./00103_00105_HTXE_1.mp4",
          "type": "video",
          "metety": {
            "width": 960,
            "height": 960
          }
        },
        {
          "duration": 5038730,
          "id": "776E911E-0FAC-4930-A82F-FE0209523E61",
          "name": "00104_00106_HTXE_1.mp4",
          "path": "./00104_00106_HTXE_1.mp4",
          "type": "video",
          "metety": {
            "width": 960,
            "height": 960
          }
        },
        {
          "duration": 5038730,
          "id": "8CAC43A2-A9EF-4C51-BC2C-C5347A950C9D",
          "name": "00105_00107_HTXE_1.mp4",
          "path": "./00105_00107_HTXE_1.mp4",
          "type": "video",
          "metety": {
            "width": 960,
            "height": 960
          }
        },
        {
          "duration": 5038730,
          "id": "EF53FDBF-129D-4315-AF80-9A86758C1B88",
          "name": "00106_00108_HTXE_1.mp4",
          "path": "./00106_00108_HTXE_1.mp4",
          "type": "video",
          "metety": {
            "width": 960,
            "height": 960
          }
        },
        {
          "duration": 5038730,
          "id": "0E6472A8-7C89-4FED-B5CD-E07BD8483969",
          "name": "00107_00109_HTXE_1.mp4",
          "path": "./00107_00109_HTXE_1.mp4",
          "type": "video",
          "metety": {
            "width": 960,
            "height": 960
          }
        },
        {
          "duration": 5038730,
          "id": "7529D954-4E22-4336-80BC-74FFD2BE2EE7",
          "name": "00108_00110_HTXE_1.mp4",
          "path": "./00108_00110_HTXE_1.mp4",
          "type": "video",
          "metety": {
            "width": 960,
            "height": 960
          }
        },
        {
          "duration": 5038730,
          "id": "262D0B21-AF89-4AD9-BC5F-42EA50B574ED",
          "name": "00109_00111_HTXE_1.mp4",
          "path": "./00109_00111_HTXE_1.mp4",
          "type": "video",
          "metety": {
            "width": 960,
            "height": 960
          }
        },
        {
          "duration": 5038730,
          "id": "78AD5FEE-6E56-4F10-8D2F-198B570017E4",
          "name": "00110_00112_HTXE_1.mp4",
          "path": "./00110_00112_HTXE_1.mp4",
          "type": "video",
          "metety": {
            "width": 960,
            "height": 960
          }
        },
        {
          "duration": 5038730,
          "id": "45E964E3-64C3-4638-AF90-9BEEFC8BC465",
          "name": "00111_00113_HTXE_1.mp4",
          "path": "./00111_00113_HTXE_1.mp4",
          "type": "video",
          "metety": {
            "width": 960,
            "height": 960
          }
        },
        {
          "duration": 5038730,
          "id": "FF8175F7-CD21-4C3F-AAE6-A732248E4DB9",
          "name": "00112_00114_HTXE_1.mp4",
          "path": "./00112_00114_HTXE_1.mp4",
          "type": "video",
          "metety": {
            "width": 960,
            "height": 960
          }
        },
        {
          "duration": 5038730,
          "id": "BC7D071C-2DFF-4C6D-B431-634FCB2A9F00",
          "name": "00113_00115_HTXE_1.mp4",
          "path": "./00113_00115_HTXE_1.mp4",
          "type": "video",
          "metety": {
            "width": 960,
            "height": 960
          }
        },
        {
          "duration": 5038730,
          "id": "5727CAAB-E127-4B31-B84D-DF583193CC5E",
          "name": "00114_00116_HTXE_1.mp4",
          "path": "./00114_00116_HTXE_1.mp4",
          "type": "video",
          "metety": {
            "width": 960,
            "height": 960
          }
        },
        {
          "duration": 5038730,
          "id": "81FEB9E2-FB88-4ADE-A809-45E409FB6F7F",
          "name": "00115_00117_HTXE_1.mp4",
          "path": "./00115_00117_HTXE_1.mp4",
          "type": "video",
          "metety": {
            "width": 960,
            "height": 960
          }
        },
        {
          "duration": 5038730,
          "id": "3E9457D3-5749-49E3-ACFD-CE70205E0AF1",
          "name": "00116_00118_HTXE_1.mp4",
          "path": "./00116_00118_HTXE_1.mp4",
          "type": "video",
          "metety": {
            "width": 960,
            "height": 960
          }
        },
        {
          "duration": 5038730,
          "id": "4902B9AE-0F5F-41D6-A973-4B4B6E4EAEA1",
          "name": "00117_00119_HTXE_1.mp4",
          "path": "./00117_00119_HTXE_1.mp4",
          "type": "video",
          "metety": {
            "width": 960,
            "height": 960
          }
        },
        {
          "duration": 5038730,
          "id": "05073BF1-59A5-4B70-B9B7-05058756ED50",
          "name": "00118_00120_HTXE_1.mp4",
          "path": "./00118_00120_HTXE_1.mp4",
          "type": "video",
          "metety": {
            "width": 960,
            "height": 960
          }
        },
        {
          "duration": 5038730,
          "id": "B050A466-1B96-4C53-99FF-C83391F90505",
          "name": "00119_00121_HTXE_1.mp4",
          "path": "./00119_00121_HTXE_1.mp4",
          "type": "video",
          "metety": {
            "width": 960,
            "height": 960
          }
        },
        {
          "duration": 5038730,
          "id": "AC313C20-2342-4220-A6B2-D7A419389CD6",
          "name": "00120_00122_HTXE_1.mp4",
          "path": "./00120_00122_HTXE_1.mp4",
          "type": "video",
          "metety": {
            "width": 960,
            "height": 960
          }
        },
        {
          "duration": 5038730,
          "id": "1FCB30AC-ABB0-475D-8948-58DF97ECE9E2",
          "name": "00121_00123_HTXE_1.mp4",
          "path": "./00121_00123_HTXE_1.mp4",
          "type": "video",
          "metety": {
            "width": 960,
            "height": 960
          }
        },
        {
          "duration": 5038730,
          "id": "F008DD2D-FC90-4E0F-9932-2430CC0D2D3B",
          "name": "00122_00124_HTXE_1.mp4",
          "path": "./00122_00124_HTXE_1.mp4",
          "type": "video",
          "metety": {
            "width": 960,
            "height": 960
          }
        },
        {
          "duration": 5038730,
          "id": "99AEE1B3-3434-435C-B3AE-E48A1C4EC58F",
          "name": "00123_00125_HTXE_1.mp4",
          "path": "./00123_00125_HTXE_1.mp4",
          "type": "video",
          "metety": {
            "width": 960,
            "height": 960
          }
        },
        {
          "duration": 5038730,
          "id": "CF96FD97-FF80-42DF-AC7F-AB0AA7B826FC",
          "name": "00124_00126_HTXE_1.mp4",
          "path": "./00124_00126_HTXE_1.mp4",
          "type": "video",
          "metety": {
            "width": 960,
            "height": 960
          }
        },
        {
          "duration": 5038730,
          "id": "35FF9ADC-2A8A-4DF2-9B46-4DB532A96766",
          "name": "00125_00127_HTXE_1.mp4",
          "path": "./00125_00127_HTXE_1.mp4",
          "type": "video",
          "metety": {
            "width": 960,
            "height": 960
          }
        },
        {
          "duration": 5038730,
          "id": "87ACAC3F-F1F2-4F19-B542-ED328EC29DB7",
          "name": "00126_00128_HTXE_1.mp4",
          "path": "./00126_00128_HTXE_1.mp4",
          "type": "video",
          "metety": {
            "width": 960,
            "height": 960
          }
        },
        {
          "duration": 5038730,
          "id": "C42AA4E6-7185-42F4-A727-8FAB7ED9B84C",
          "name": "00127_00129_HTXE_1.mp4",
          "path": "./00127_00129_HTXE_1.mp4",
          "type": "video",
          "metety": {
            "width": 960,
            "height": 960
          }
        },
        {
          "duration": 5038730,
          "id": "1E887069-F413-423B-B01E-8B5557F8D6D6",
          "name": "00128_00130_HTXE_1.mp4",
          "path": "./00128_00130_HTXE_1.mp4",
          "type": "video",
          "metety": {
            "width": 960,
            "height": 960
          }
        },
        {
          "duration": 5038730,
          "id": "47041E6C-7C9B-429B-AB2A-C7A0E3258A80",
          "name": "00129_00131_HTXE_1.mp4",
          "path": "./00129_00131_HTXE_1.mp4",
          "type": "video",
          "metety": {
            "width": 960,
            "height": 960
          }
        },
        {
          "duration": 5038730,
          "id": "B85D7713-C763-44EF-AB55-D742A6F988BD",
          "name": "00130_00132_HTXE_1.mp4",
          "path": "./00130_00132_HTXE_1.mp4",
          "type": "video",
          "metety": {
            "width": 960,
            "height": 960
          }
        },
        {
          "duration": 5038730,
          "id": "17044C58-6A3A-42EE-B569-4C44FB970C86",
          "name": "00131_00133_HTXE_1.mp4",
          "path": "./00131_00133_HTXE_1.mp4",
          "type": "video",
          "metety": {
            "width": 960,
            "height": 960
          }
        },
        {
          "duration": 5038730,
          "id": "B9C5FFB2-03B1-4621-BC36-E47170623DF2",
          "name": "00132_00134_HTXE_1.mp4",
          "path": "./00132_00134_HTXE_1.mp4",
          "type": "video",
          "metety": {
            "width": 960,
            "height": 960
          }
        },
        {
          "duration": 5038730,
          "id": "C254CE1B-054A-40F6-B949-00E4E196D3DA",
          "name": "00133_00135_HTXE_1.mp4",
          "path": "./00133_00135_HTXE_1.mp4",
          "type": "video",
          "metety": {
            "width": 960,
            "height": 960
          }
        },
        {
          "duration": 5038730,
          "id": "5F8A4B56-7F67-4271-ABAB-1CE1A44C96CF",
          "name": "00134_00136_HTXE_1.mp4",
          "path": "./00134_00136_HTXE_1.mp4",
          "type": "video",
          "metety": {
            "width": 960,
            "height": 960
          }
        },
        {
          "duration": 5038730,
          "id": "4A670DC4-D1F2-462D-92AE-EE0A95D45C5A",
          "name": "00135_00137_HTXE_1.mp4",
          "path": "./00135_00137_HTXE_1.mp4",
          "type": "video",
          "metety": {
            "width": 960,
            "height": 960
          }
        },
        {
          "duration": 5038730,
          "id": "872C5379-5FA1-4829-B4BC-DC03DD3DFFB8",
          "name": "00136_00138_HTXE_1.mp4",
          "path": "./00136_00138_HTXE_1.mp4",
          "type": "video",
          "metety": {
            "width": 960,
            "height": 960
          }
        },
        {
          "duration": 5038730,
          "id": "E8DEA538-A583-4660-A2FF-DEF1C6071161",
          "name": "00137_00139_HTXE_1.mp4",
          "path": "./00137_00139_HTXE_1.mp4",
          "type": "video",
          "metety": {
            "width": 960,
            "height": 960
          }
        },
        {
          "duration": 5038730,
          "id": "D98CC1A5-529D-4305-BF42-659DB926EB1C",
          "name": "00138_00140_HTXE_1.mp4",
          "path": "./00138_00140_HTXE_1.mp4",
          "type": "video",
          "metety": {
            "width": 960,
            "height": 960
          }
        },
        {
          "duration": 5038730,
          "id": "5D5F81D8-1CD9-4C83-A7BA-27E7738E436C",
          "name": "00139_00141_HTXE_1.mp4",
          "path": "./00139_00141_HTXE_1.mp4",
          "type": "video",
          "metety": {
            "width": 960,
            "height": 960
          }
        },
        {
          "duration": 5038730,
          "id": "EC49F548-B829-4C59-B2EB-5D042E7D75FB",
          "name": "00140_00142_HTXE_1.mp4",
          "path": "./00140_00142_HTXE_1.mp4",
          "type": "video",
          "metety": {
            "width": 960,
            "height": 960
          }
        },
        {
          "duration": 5038730,
          "id": "816A2B20-9CE5-4734-98B6-DD1CC082A4FB",
          "name": "00141_00143_HTXE_1.mp4",
          "path": "./00141_00143_HTXE_1.mp4",
          "type": "video",
          "metety": {
            "width": 960,
            "height": 960
          }
        },
        {
          "duration": 5038730,
          "id": "C7D47D4B-52FD-4B99-94FD-62062D7A77AF",
          "name": "00142_00144_HTXE_1.mp4",
          "path": "./00142_00144_HTXE_1.mp4",
          "type": "video",
          "metety": {
            "width": 960,
            "height": 960
          }
        },
        {
          "duration": 5038730,
          "id": "C6E92BB3-164D-4077-8F9F-15736768107D",
          "name": "00143_00145_HTXE_1.mp4",
          "path": "./00143_00145_HTXE_1.mp4",
          "type": "video",
          "metety": {
            "width": 960,
            "height": 960
          }
        },
        {
          "duration": 5038730,
          "id": "42D4017A-AAAA-4D5A-B324-B891E3C38406",
          "name": "00144_00146_HTXE_1.mp4",
          "path": "./00144_00146_HTXE_1.mp4",
          "type": "video",
          "metety": {
            "width": 960,
            "height": 960
          }
        },
        {
          "duration": 5038730,
          "id": "6F8BD393-F87B-4762-A868-1248600DF2F7",
          "name": "00145_00147_HTXE_1.mp4",
          "path": "./00145_00147_HTXE_1.mp4",
          "type": "video",
          "metety": {
            "width": 960,
            "height": 960
          }
        },
        {
          "duration": 5038730,
          "id": "6D3B9A8C-424C-4A7C-BD2E-4EA5473BBD5E",
          "name": "00146_00148_HTXE_1.mp4",
          "path": "./00146_00148_HTXE_1.mp4",
          "type": "video",
          "metety": {
            "width": 960,
            "height": 960
          }
        },
        {
          "duration": 5038730,
          "id": "04DBA1B6-426F-4675-BD91-615E1873B25D",
          "name": "00147_00149_HTXE_1.mp4",
          "path": "./00147_00149_HTXE_1.mp4",
          "type": "video",
          "metety": {
            "width": 960,
            "height": 960
          }
        },
        {
          "duration": 5038730,
          "id": "002F9397-B736-4D7B-9EDB-29D50474979D",
          "name": "00148_00150_HTXE_1.mp4",
          "path": "./00148_00150_HTXE_1.mp4",
          "type": "video",
          "metety": {
            "width": 960,
            "height": 960
          }
        },
        {
          "duration": 5038730,
          "id": "420E3443-FE0F-4D56-ADD4-D5B20D714851",
          "name": "00149_00151_HTXE_1.mp4",
          "path": "./00149_00151_HTXE_1.mp4",
          "type": "video",
          "metety": {
            "width": 960,
            "height": 960
          }
        },
        {
          "duration": 5038730,
          "id": "7DE4E079-6BC3-45C2-9453-5D45A663DF1D",
          "name": "00150_00152_HTXE_1.mp4",
          "path": "./00150_00152_HTXE_1.mp4",
          "type": "video",
          "metety": {
            "width": 960,
            "height": 960
          }
        },
        {
          "duration": 5038730,
          "id": "D39068CB-E445-4827-8920-54DC3127E028",
          "name": "00151_00153_HTXE_1.mp4",
          "path": "./00151_00153_HTXE_1.mp4",
          "type": "video",
          "metety": {
            "width": 960,
            "height": 960
          }
        },
        {
          "duration": 5038730,
          "id": "98172ACD-EE9B-415C-937F-30A2280811EF",
          "name": "00152_00154_HTXE_1.mp4",
          "path": "./00152_00154_HTXE_1.mp4",
          "type": "video",
          "metety": {
            "width": 960,
            "height": 960
          }
        },
        {
          "duration": 5038730,
          "id": "3147D9A3-613C-41AC-B588-3477C502FF8D",
          "name": "00153_00155_HTXE_1.mp4",
          "path": "./00153_00155_HTXE_1.mp4",
          "type": "video",
          "metety": {
            "width": 960,
            "height": 960
          }
        },
        {
          "duration": 5038730,
          "id": "36784349-FB5C-459F-A85D-DDD5DB1CB551",
          "name": "00154_00156_HTXE_1.mp4",
          "path": "./00154_00156_HTXE_1.mp4",
          "type": "video",
          "metety": {
            "width": 960,
            "height": 960
          }
        },
        {
          "duration": 5038730,
          "id": "B4FEE159-F74B-4568-B82A-CC0484BBE42B",
          "name": "00155_00157_HTXE_1.mp4",
          "path": "./00155_00157_HTXE_1.mp4",
          "type": "video",
          "metety": {
            "width": 960,
            "height": 960
          }
        },
        {
          "duration": 5038730,
          "id": "81633970-6459-48A3-9010-DBC0BBD209E1",
          "name": "00156_00158_HTXE_1.mp4",
          "path": "./00156_00158_HTXE_1.mp4",
          "type": "video",
          "metety": {
            "width": 960,
            "height": 960
          }
        },
        {
          "duration": 5038730,
          "id": "A5619CE0-7AA9-4621-BC37-A85906F6B21E",
          "name": "00157_00159_HTXE_1.mp4",
          "path": "./00157_00159_HTXE_1.mp4",
          "type": "video",
          "metety": {
            "width": 960,
            "height": 960
          }
        },
        {
          "duration": 5038730,
          "id": "8E2F2497-5708-4FC4-BD94-264E913BF95A",
          "name": "00158_00160_HTXE_1.mp4",
          "path": "./00158_00160_HTXE_1.mp4",
          "type": "video",
          "metety": {
            "width": 960,
            "height": 960
          }
        },
        {
          "duration": 5038730,
          "id": "7EB2CEA9-278E-46E3-B38F-6B551F2FDF7F",
          "name": "00159_00161_HTXE_1.mp4",
          "path": "./00159_00161_HTXE_1.mp4",
          "type": "video",
          "metety": {
            "width": 960,
            "height": 960
          }
        },
        {
          "duration": 5038730,
          "id": "A9B4675E-38CE-4452-B442-3F40A24A130A",
          "name": "00160_00162_HTXE_1.mp4",
          "path": "./00160_00162_HTXE_1.mp4",
          "type": "video",
          "metety": {
            "width": 960,
            "height": 960
          }
        },
        {
          "duration": 5038730,
          "id": "805D8CE6-456E-4B29-9C27-6E7EC6A52E9E",
          "name": "00161_00163_HTXE_1.mp4",
          "path": "./00161_00163_HTXE_1.mp4",
          "type": "video",
          "metety": {
            "width": 960,
            "height": 960
          }
        },
        {
          "duration": 5038730,
          "id": "1D84B362-9250-4ADA-8D07-95A987B02A05",
          "name": "00162_00164_HTXE_1.mp4",
          "path": "./00162_00164_HTXE_1.mp4",
          "type": "video",
          "metety": {
            "width": 960,
            "height": 960
          }
        },
        {
          "duration": 5038730,
          "id": "FE85CEF5-A6F8-45B6-9B80-03476881A6B0",
          "name": "00163_00165_HTXE_1.mp4",
          "path": "./00163_00165_HTXE_1.mp4",
          "type": "video",
          "metety": {
            "width": 960,
            "height": 960
          }
        },
        {
          "duration": 5038730,
          "id": "0FCE82BF-75C6-45BF-A7EA-3BE7D85F05EE",
          "name": "00164_00166_HTXE_1.mp4",
          "path": "./00164_00166_HTXE_1.mp4",
          "type": "video",
          "metety": {
            "width": 960,
            "height": 960
          }
        },
        {
          "duration": 5038730,
          "id": "FB139138-40D8-4BBA-B888-28ABA06B15BE",
          "name": "00165_00167_HTXE_1.mp4",
          "path": "./00165_00167_HTXE_1.mp4",
          "type": "video",
          "metety": {
            "width": 960,
            "height": 960
          }
        },
        {
          "duration": 5038730,
          "id": "31921A3C-C3F6-4FD7-BC50-96FE51524809",
          "name": "00166_00168_HTXE_1.mp4",
          "path": "./00166_00168_HTXE_1.mp4",
          "type": "video",
          "metety": {
            "width": 960,
            "height": 960
          }
        },
        {
          "duration": 5038730,
          "id": "E3B28011-39A7-4274-A1A6-9B6018ADC01A",
          "name": "00167_00169_HTXE_1.mp4",
          "path": "./00167_00169_HTXE_1.mp4",
          "type": "video",
          "metety": {
            "width": 960,
            "height": 960
          }
        },
        {
          "duration": 5038730,
          "id": "33ACB4AF-49A8-463D-9B5B-5DBB57CFC74C",
          "name": "00168_00170_HTXE_1.mp4",
          "path": "./00168_00170_HTXE_1.mp4",
          "type": "video",
          "metety": {
            "width": 960,
            "height": 960
          }
        },
        {
          "duration": 5038730,
          "id": "82448D98-1077-4B21-8B24-2D006554927F",
          "name": "00169_00171_HTXE_1.mp4",
          "path": "./00169_00171_HTXE_1.mp4",
          "type": "video",
          "metety": {
            "width": 960,
            "height": 960
          }
        },
        {
          "duration": 5038730,
          "id": "B9F78786-70B6-4718-BADD-EA1D2DA2B557",
          "name": "00170_00172_HTXE_1.mp4",
          "path": "./00170_00172_HTXE_1.mp4",
          "type": "video",
          "metety": {
            "width": 960,
            "height": 960
          }
        },
        {
          "duration": 5038730,
          "id": "1B505B1E-4E44-4EB2-9A34-46A6ABDBCF19",
          "name": "00171_00173_HTXE_1.mp4",
          "path": "./00171_00173_HTXE_1.mp4",
          "type": "video",
          "metety": {
            "width": 960,
            "height": 960
          }
        },
        {
          "duration": 5038730,
          "id": "CC317E60-AB3C-498B-8FAF-1997CF77374C",
          "name": "00172_00174_HTXE_1.mp4",
          "path": "./00172_00174_HTXE_1.mp4",
          "type": "video",
          "metety": {
            "width": 960,
            "height": 960
          }
        },
        {
          "duration": 5038730,
          "id": "6FE35A39-4CE4-4B27-9752-29A19EBF03EC",
          "name": "00173_00175_HTXE_1.mp4",
          "path": "./00173_00175_HTXE_1.mp4",
          "type": "video",
          "metety": {
            "width": 960,
            "height": 960
          }
        },
        {
          "duration": 5038730,
          "id": "F0538D22-FF1D-4ADF-9E03-C0BAC7F96082",
          "name": "00174_00176_HTXE_1.mp4",
          "path": "./00174_00176_HTXE_1.mp4",
          "type": "video",
          "metety": {
            "width": 960,
            "height": 960
          }
        },
        {
          "duration": 5038730,
          "id": "FF0706E4-8605-40D4-9C78-D4A6496B090F",
          "name": "00175_00177_HTXE_1.mp4",
          "path": "./00175_00177_HTXE_1.mp4",
          "type": "video",
          "metety": {
            "width": 960,
            "height": 960
          }
        }
      ],
      "texts": [
        {
          "content": "<font id=\"\" face=\"\">老太太还没死</font>",
          "id": "04C65D17-A84C-4EFC-ACA8-51D58194558F",
          "name": "",
          "type": "text"
        },
        {
          "content": "<font id=\"\" face=\"\">儿子们就要把她埋了</font>",
          "id": "60AB0E10-296E-4956-8F9F-448B2315DFAF",
          "name": "",
          "type": "text"
        },
        {
          "content": "<font id=\"\" face=\"\">甚至孙子埋怨着</font>",
          "id": "10DF608E-56C2-49D7-8E57-088977B31E1D",
          "name": "",
          "type": "text"
        },
        {
          "content": "<font id=\"\" face=\"\">老太婆直接用烂席子埋了就行</font>",
          "id": "27DB0CDA-9465-42DD-B5C3-DD17577581BB",
          "name": "",
          "type": "text"
        },
        {
          "content": "<font id=\"\" face=\"\">竟要把她准备好的棺材</font>",
          "id": "63668E4F-402A-4A85-97C6-B1266B987DBD",
          "name": "",
          "type": "text"
        },
        {
          "content": "<font id=\"\" face=\"\">买了换娶媳妇的彩礼钱</font>",
          "id": "3E56E09D-4E58-4448-A4B8-5FAAFBC75197",
          "name": "",
          "type": "text"
        },
        {
          "content": "<font id=\"\" face=\"\">其实也不怪谁</font>",
          "id": "E632037F-0AA6-440B-AA9A-701674551199",
          "name": "",
          "type": "text"
        },
        {
          "content": "<font id=\"\" face=\"\">只怪老太太的性格古怪</font>",
          "id": "9327ADCD-3232-41B7-9755-B58574746DE7",
          "name": "",
          "type": "text"
        },
        {
          "content": "<font id=\"\" face=\"\">又喜欢作死</font>",
          "id": "F14CB958-E58A-4986-B4C5-6483E035355F",
          "name": "",
          "type": "text"
        },
        {
          "content": "<font id=\"\" face=\"\">关键人缘也差</font>",
          "id": "A589B60C-6286-493D-9918-E40269369BA5",
          "name": "",
          "type": "text"
        },
        {
          "content": "<font id=\"\" face=\"\">这会都宣传出死讯了</font>",
          "id": "EB1DD71F-23EB-46E7-AC8B-ABE1D3B5AC54",
          "name": "",
          "type": "text"
        },
        {
          "content": "<font id=\"\" face=\"\">村里人也不见有人帮忙</font>",
          "id": "70787A68-7040-4902-9A40-436604B34C6C",
          "name": "",
          "type": "text"
        },
        {
          "content": "<font id=\"\" face=\"\">众儿子看见娘亲这样也纷纷躲开等着咽气</font>",
          "id": "633AF6AD-EECF-4BFF-8877-FF11B62BC02E",
          "name": "",
          "type": "text"
        },
        {
          "content": "<font id=\"\" face=\"\">可这时大儿子却守在了老太太身边</font>",
          "id": "14BA47AD-51A6-4888-BAB7-364B4A0D8776",
          "name": "",
          "type": "text"
        },
        {
          "content": "<font id=\"\" face=\"\">原以为是大儿子孝顺</font>",
          "id": "534478F9-3CA3-4049-B12A-A982D4B98467",
          "name": "",
          "type": "text"
        },
        {
          "content": "<font id=\"\" face=\"\">谁知竟是在老太太身边翻找着东西</font>",
          "id": "254CE528-2C7A-4A07-97B4-CD4A3685A2E6",
          "name": "",
          "type": "text"
        },
        {
          "content": "<font id=\"\" face=\"\">边找还边骂骂咧咧的</font>",
          "id": "72D98823-950A-4654-97E5-087A93DEA906",
          "name": "",
          "type": "text"
        },
        {
          "content": "<font id=\"\" face=\"\">也不知道这死女人到底把家底藏哪里了</font>",
          "id": "FDA05E07-60DD-434A-82E9-C8F75175458A",
          "name": "",
          "type": "text"
        },
        {
          "content": "<font id=\"\" face=\"\">这十几年都没有从她嘴里套出来</font>",
          "id": "08927FF1-A69E-4854-B19A-65CB5B06C0BD",
          "name": "",
          "type": "text"
        },
        {
          "content": "<font id=\"\" face=\"\">要是真让她带进棺材去了</font>",
          "id": "14459A27-7D7B-46C1-8B01-C51EA8E645E3",
          "name": "",
          "type": "text"
        },
        {
          "content": "<font id=\"\" face=\"\">白瞎了我这十几年的低声下气</font>",
          "id": "279375E7-FFAA-49B8-AAE2-80D037CB7522",
          "name": "",
          "type": "text"
        },
        {
          "content": "<font id=\"\" face=\"\">就在这时老太太突然人清醒了过来</font>",
          "id": "9475E6B2-EB4D-4349-8825-CDC0861F6E6D",
          "name": "",
          "type": "text"
        },
        {
          "content": "<font id=\"\" face=\"\">柯慕青醒来听到的第一句话</font>",
          "id": "A7BBF792-69C9-4A2F-8F82-4F929B38A963",
          "name": "",
          "type": "text"
        },
        {
          "content": "<font id=\"\" face=\"\">就是要把她埋了</font>",
          "id": "FA0F8458-15F0-40B5-B754-0D20E2440FFE",
          "name": "",
          "type": "text"
        },
        {
          "content": "<font id=\"\" face=\"\">她摸了摸被开了瓢的后脑</font>",
          "id": "A9BE8249-E334-4756-B65C-896C0B0C2C9B",
          "name": "",
          "type": "text"
        },
        {
          "content": "<font id=\"\" face=\"\">疼得暗暗龇牙</font>",
          "id": "A3289DCC-6E80-4C58-AB8B-F6B8D686EF81",
          "name": "",
          "type": "text"
        },
        {
          "content": "<font id=\"\" face=\"\">柯慕青才睁眼又一耳朵死</font>",
          "id": "731130FD-E667-477B-9AEC-F029CA4C396F",
          "name": "",
          "type": "text"
        },
        {
          "content": "<font id=\"\" face=\"\">女人再一耳朵死老太婆的</font>",
          "id": "089441BC-4322-4FBD-879A-0CF899774029",
          "name": "",
          "type": "text"
        },
        {
          "content": "<font id=\"\" face=\"\">顿时冷笑</font>",
          "id": "9A7BEA76-7E9C-40E8-A5D9-A33971FAB79D",
          "name": "",
          "type": "text"
        },
        {
          "content": "<font id=\"\" face=\"\">翻着原主的记忆</font>",
          "id": "180CAE23-5C3D-4176-9E8A-CE82792946BD",
          "name": "",
          "type": "text"
        },
        {
          "content": "<font id=\"\" face=\"\">柯慕青心里一阵骂</font>",
          "id": "5F62B857-D0BA-41E9-8416-7805B33CECAC",
          "name": "",
          "type": "text"
        },
        {
          "content": "<font id=\"\" face=\"\">这原主是什么极品老太</font>",
          "id": "2A33BE85-4F75-4E4A-8942-748FD282F896",
          "name": "",
          "type": "text"
        },
        {
          "content": "<font id=\"\" face=\"\">事实上原主命不该绝</font>",
          "id": "70A609B3-660C-4C52-8BF7-A71B6A8D957E",
          "name": "",
          "type": "text"
        },
        {
          "content": "<font id=\"\" face=\"\">这次不过是暂时闭过气了</font>",
          "id": "6D8CD532-9EC6-48FA-A195-6E7156825067",
          "name": "",
          "type": "text"
        },
        {
          "content": "<font id=\"\" face=\"\">柯慕青摸了摸后脑的伤口</font>",
          "id": "D9453421-8078-44ED-83B9-ADDA8CA6293C",
          "name": "",
          "type": "text"
        },
        {
          "content": "<font id=\"\" face=\"\">好在没再流血</font>",
          "id": "C84A469B-751D-4AC3-991F-3408AAE84FED",
          "name": "",
          "type": "text"
        },
        {
          "content": "<font id=\"\" face=\"\">但不用照镜子也知道</font>",
          "id": "B1D857B4-987C-4593-A6A0-1F6091AEDE07",
          "name": "",
          "type": "text"
        },
        {
          "content": "<font id=\"\" face=\"\">看看原主身上这衣服</font>",
          "id": "21DA7986-225B-4729-82C7-F78B2101AC82",
          "name": "",
          "type": "text"
        },
        {
          "content": "<font id=\"\" face=\"\">铁定是一脑和一身的血</font>",
          "id": "BC72094E-4D2F-4703-88F2-FC59F1DF8558",
          "name": "",
          "type": "text"
        },
        {
          "content": "<font id=\"\" face=\"\">屋里没镜子</font>",
          "id": "EC6E3D04-6193-425F-B0AD-ABF9E2700052",
          "name": "",
          "type": "text"
        },
        {
          "content": "<font id=\"\" face=\"\">柯慕青也懒得照</font>",
          "id": "9E8AB6CC-335F-4260-A263-4C833C123ADE",
          "name": "",
          "type": "text"
        },
        {
          "content": "<font id=\"\" face=\"\">原主是四十岁的农妇</font>",
          "id": "E91EBE14-281A-4D17-823B-FD20B3566EB7",
          "name": "",
          "type": "text"
        },
        {
          "content": "<font id=\"\" face=\"\">都是当阿奶的人了</font>",
          "id": "2A35A584-E88A-4EFF-9E69-B7ECABD913B1",
          "name": "",
          "type": "text"
        },
        {
          "content": "<font id=\"\" face=\"\">自然漂亮不到哪去</font>",
          "id": "2A9B1664-0821-43F3-8C63-CA27694FBCB0",
          "name": "",
          "type": "text"
        },
        {
          "content": "<font id=\"\" face=\"\">想到现在的处境</font>",
          "id": "7E94C5F7-D73D-4BFD-AE79-04169F1B554D",
          "name": "",
          "type": "text"
        },
        {
          "content": "<font id=\"\" face=\"\">柯慕青没时间想别的</font>",
          "id": "50A783B7-0CEC-4FCF-98F8-122D51C5F970",
          "name": "",
          "type": "text"
        },
        {
          "content": "<font id=\"\" face=\"\">起身开门</font>",
          "id": "25D80C78-29EE-493B-B7EB-24BFD793956E",
          "name": "",
          "type": "text"
        },
        {
          "content": "<font id=\"\" face=\"\">用两腿弄出明显是从屋里爬出来的痕迹</font>",
          "id": "6B3485E0-163D-4CA1-9D3B-9793A9BAEDD4",
          "name": "",
          "type": "text"
        },
        {
          "content": "<font id=\"\" face=\"\">一直拖到大门口</font>",
          "id": "5FD5C65F-C044-4345-B5E0-DBB57B56660E",
          "name": "",
          "type": "text"
        },
        {
          "content": "<font id=\"\" face=\"\">柯慕青一点不嫌地上脏</font>",
          "id": "7529C77F-7CEC-4E26-92B9-49749A2C1D9E",
          "name": "",
          "type": "text"
        },
        {
          "content": "<font id=\"\" face=\"\">直接趴下</font>",
          "id": "5A6869F7-E1D4-4AC7-8864-6C8FA9EF6E23",
          "name": "",
          "type": "text"
        },
        {
          "content": "<font id=\"\" face=\"\">然后一路往有人的地方爬</font>",
          "id": "DEDB3149-4E32-4027-96CB-34AE384DCE48",
          "name": "",
          "type": "text"
        },
        {
          "content": "<font id=\"\" face=\"\">一边爬一边扯着嗓子喊</font>",
          "id": "9C539A87-729B-43C6-93FA-11796EA4855A",
          "name": "",
          "type": "text"
        },
        {
          "content": "<font id=\"\" face=\"\">救命啊</font>",
          "id": "F5C8826A-6969-479B-9C3E-F97676813BB3",
          "name": "",
          "type": "text"
        },
        {
          "content": "<font id=\"\" face=\"\">杀人啦</font>",
          "id": "289D0EBF-4D4E-4CBA-9743-A2F350B9A981",
          "name": "",
          "type": "text"
        },
        {
          "content": "<font id=\"\" face=\"\">救命啊</font>",
          "id": "B2B857D4-3F12-4C29-8023-6D66AEB03F48",
          "name": "",
          "type": "text"
        },
        {
          "content": "<font id=\"\" face=\"\">杀人啦</font>",
          "id": "6DAF5E26-6F61-4E82-824A-EC91094E08A4",
          "name": "",
          "type": "text"
        },
        {
          "content": "<font id=\"\" face=\"\">她的叫声太过凄惨</font>",
          "id": "676C506D-3EA4-41C3-BE69-910431352851",
          "name": "",
          "type": "text"
        },
        {
          "content": "<font id=\"\" face=\"\">加上杨文孝早前也喊过类似的话</font>",
          "id": "0433ED6E-14D3-4C5E-8FD7-F9FD359850A1",
          "name": "",
          "type": "text"
        },
        {
          "content": "<font id=\"\" face=\"\">之前没打算管闲事的邻居们终于</font>",
          "id": "F93E91BD-F42E-4327-9AAD-15865E25A9C3",
          "name": "",
          "type": "text"
        },
        {
          "content": "<font id=\"\" face=\"\">忍不住跑到大门口看热闹</font>",
          "id": "7E5A24D1-B411-4059-9702-B551C7E68B35",
          "name": "",
          "type": "text"
        },
        {
          "content": "<font id=\"\" face=\"\">我滴个娘耶</font>",
          "id": "72748447-8D06-4974-AC69-AD032C877FA1",
          "name": "",
          "type": "text"
        },
        {
          "content": "<font id=\"\" face=\"\">大白天见鬼啦</font>",
          "id": "683547BC-CB60-4456-9853-E6082DCC9960",
          "name": "",
          "type": "text"
        },
        {
          "content": "<font id=\"\" face=\"\">我滴天爷</font>",
          "id": "C1C58DE7-9F75-47AE-8438-AA4559600CC5",
          "name": "",
          "type": "text"
        },
        {
          "content": "<font id=\"\" face=\"\">这是谁啊</font>",
          "id": "1C1DD24E-58BA-4245-9D0C-FA3110AB48CA",
          "name": "",
          "type": "text"
        },
        {
          "content": "<font id=\"\" face=\"\">邻居被地上爬的红色血人吓了一大跳</font>",
          "id": "CA8491B1-3B4A-4B05-B16E-A2938403D2F8",
          "name": "",
          "type": "text"
        },
        {
          "content": "<font id=\"\" face=\"\">胆小的孩童直接吓得哇哇大哭</font>",
          "id": "18B7BAA3-B882-48C0-9F9B-D71799C87D12",
          "name": "",
          "type": "text"
        },
        {
          "content": "<font id=\"\" face=\"\">这是隔壁杨继业他娘吧</font>",
          "id": "C31D80C2-1E7D-409C-8571-9AB78C1586F7",
          "name": "",
          "type": "text"
        },
        {
          "content": "<font id=\"\" face=\"\">是柯婆子没错吧</font>",
          "id": "7C883E0F-2C55-43E7-9167-11797B3A966B",
          "name": "",
          "type": "text"
        },
        {
          "content": "<font id=\"\" face=\"\">终于有人认出了柯慕青</font>",
          "id": "23EC03A7-6D32-4AA6-AA62-BBDABC57D799",
          "name": "",
          "type": "text"
        },
        {
          "content": "<font id=\"\" face=\"\">但大家只是站着看</font>",
          "id": "F0FE3755-D7AF-4DBF-8267-B5020CFF8D07",
          "name": "",
          "type": "text"
        },
        {
          "content": "<font id=\"\" face=\"\">没人敢上前扶</font>",
          "id": "EF643BE0-DA16-4EA4-8B78-8DC3E8F44C01",
          "name": "",
          "type": "text"
        },
        {
          "content": "<font id=\"\" face=\"\">都怕被讹</font>",
          "id": "849B4A28-3566-48BC-9AAD-6D7346C7D1D2",
          "name": "",
          "type": "text"
        },
        {
          "content": "<font id=\"\" face=\"\">毕竟全村人都知道这婆娘不讲理还死爱钱</font>",
          "id": "D8C269DC-1DC8-4199-B9A5-F96B217DB944",
          "name": "",
          "type": "text"
        },
        {
          "content": "<font id=\"\" face=\"\">连两岁的孩子都知道得</font>",
          "id": "8CCE2DD7-73B6-47C3-BA7B-FE6C7001EDED",
          "name": "",
          "type": "text"
        },
        {
          "content": "<font id=\"\" face=\"\">离这个柯婆婆远远的</font>",
          "id": "0C40B79B-CA38-41C4-8BAD-4F3568E6A7E4",
          "name": "",
          "type": "text"
        },
        {
          "content": "<font id=\"\" face=\"\">原主造的孽啊</font>",
          "id": "EEC65C7D-347F-4173-A4AD-87098C9B3302",
          "name": "",
          "type": "text"
        },
        {
          "content": "<font id=\"\" face=\"\">柯慕青伸出手</font>",
          "id": "9866A511-EBED-4391-981E-8D9DD8966EEC",
          "name": "",
          "type": "text"
        },
        {
          "content": "<font id=\"\" face=\"\">想先拽住一个人再说狗娃他娘</font>",
          "id": "81F5144E-22B5-42D1-A695-0D555DB02C03",
          "name": "",
          "type": "text"
        },
        {
          "content": "<font id=\"\" face=\"\">救命</font>",
          "id": "4BF9157C-BCF0-4C6C-9F8D-F9A8C3173BF9",
          "name": "",
          "type": "text"
        },
        {
          "content": "<font id=\"\" face=\"\">话没说完</font>",
          "id": "486C463C-BE61-40CC-B206-DDA8C8D90931",
          "name": "",
          "type": "text"
        },
        {
          "content": "<font id=\"\" face=\"\">那妇人像避瘟疫似的猛地后躲</font>",
          "id": "FE7D5218-7704-4B2F-B9DD-8CC1512239FD",
          "name": "",
          "type": "text"
        },
        {
          "content": "<font id=\"\" face=\"\">嘴里还小声念叨</font>",
          "id": "17E3C9D3-AC75-4D74-AE31-BDF22812AB23",
          "name": "",
          "type": "text"
        },
        {
          "content": "<font id=\"\" face=\"\">别叫我</font>",
          "id": "6AB4C2EF-AD2D-4A84-AB87-AF21F2FB3651",
          "name": "",
          "type": "text"
        },
        {
          "content": "<font id=\"\" face=\"\">我可不想沾你家的事</font>",
          "id": "2C903454-7080-4739-A393-4B1DFA3613BC",
          "name": "",
          "type": "text"
        },
        {
          "content": "<font id=\"\" face=\"\">谁沾谁倒八辈子霉</font>",
          "id": "EB158C0D-57C6-4993-B5FE-B865AB3B3DFF",
          "name": "",
          "type": "text"
        },
        {
          "content": "<font id=\"\" face=\"\">柯慕青瞬间无语</font>",
          "id": "D72AB4C6-D9C2-463E-8C80-6EE0BA6F0E05",
          "name": "",
          "type": "text"
        },
        {
          "content": "<font id=\"\" face=\"\">她演得够惨了</font>",
          "id": "D3D37E03-D885-4EB5-97CB-CA50DC2465B1",
          "name": "",
          "type": "text"
        },
        {
          "content": "<font id=\"\" face=\"\">但围观的这么多人</font>",
          "id": "78D72CAF-CFE8-4733-B8F7-BDE14623F985",
          "name": "",
          "type": "text"
        },
        {
          "content": "<font id=\"\" face=\"\">愣是没一个愿意帮忙</font>",
          "id": "29EB46D6-A1A0-4816-BF0C-12047CF2FFE2",
          "name": "",
          "type": "text"
        },
        {
          "content": "<font id=\"\" face=\"\">眼看要演不下去了</font>",
          "id": "968E3B00-EDB6-4C8D-837E-DDA218FAAB48",
          "name": "",
          "type": "text"
        },
        {
          "content": "<font id=\"\" face=\"\">好在这时刘郎中带着杨里正等人过来了</font>",
          "id": "F816EB37-3A76-472B-B205-2CCFAED36A86",
          "name": "",
          "type": "text"
        },
        {
          "content": "<font id=\"\" face=\"\">杨里正五十几岁</font>",
          "id": "3035A39E-57FC-4FAA-9593-76E525799208",
          "name": "",
          "type": "text"
        },
        {
          "content": "<font id=\"\" face=\"\">身体还算健硕</font>",
          "id": "13228223-0786-4F9A-BD5A-35A5112A417F",
          "name": "",
          "type": "text"
        },
        {
          "content": "<font id=\"\" face=\"\">从步子里能看出是个性子急的人都散开</font>",
          "id": "EE21DAFC-5A08-4566-A4F3-344AAB701C3E",
          "name": "",
          "type": "text"
        },
        {
          "content": "<font id=\"\" face=\"\">怎么都围在这</font>",
          "id": "7E96EBC2-BB98-482A-9416-D60F643197CD",
          "name": "",
          "type": "text"
        },
        {
          "content": "<font id=\"\" face=\"\">里正快步走来却被人群拦住</font>",
          "id": "0BAA7FC4-1B97-4374-97DB-68091DEA0E7F",
          "name": "",
          "type": "text"
        },
        {
          "content": "<font id=\"\" face=\"\">心里记着刘郎中说柯慕青死了的事</font>",
          "id": "0D05690B-B224-4FD6-8164-FE2020ECE3A6",
          "name": "",
          "type": "text"
        },
        {
          "content": "<font id=\"\" face=\"\">没心思管这群人</font>",
          "id": "67E97123-0783-46C4-87D9-F4ABF50217C4",
          "name": "",
          "type": "text"
        },
        {
          "content": "<font id=\"\" face=\"\">只想赶紧去杨家看看</font>",
          "id": "D4403E30-ADE7-4728-917A-5912EA4AA618",
          "name": "",
          "type": "text"
        },
        {
          "content": "<font id=\"\" face=\"\">没想到人群一散</font>",
          "id": "3D7FB6C8-5405-41D5-AE62-773123E2219C",
          "name": "",
          "type": "text"
        },
        {
          "content": "<font id=\"\" face=\"\">竟看到一个人趴在地上</font>",
          "id": "D4198A81-3103-4F39-8F8A-E21C22CA7E53",
          "name": "",
          "type": "text"
        },
        {
          "content": "<font id=\"\" face=\"\">模样吓人</font>",
          "id": "8567E00F-2576-48BB-9A7C-0487AD28755D",
          "name": "",
          "type": "text"
        },
        {
          "content": "<font id=\"\" face=\"\">但被吓得最不轻的却是刘郎中</font>",
          "id": "7BCCB4DE-5FE6-48BE-836C-75D0A323905C",
          "name": "",
          "type": "text"
        },
        {
          "content": "<font id=\"\" face=\"\">谁把死人拖到这的</font>",
          "id": "8AF0259D-3C79-4463-AE6D-A2D84E4FD914",
          "name": "",
          "type": "text"
        },
        {
          "content": "<font id=\"\" face=\"\">这事干得太毒了</font>",
          "id": "AEA427CF-ABDE-4C96-9328-E2F3882E221E",
          "name": "",
          "type": "text"
        },
        {
          "content": "<font id=\"\" face=\"\">刘郎中原地跳脚</font>",
          "id": "91EBDB2E-3465-4657-9639-7A3CFCFEBEF8",
          "name": "",
          "type": "text"
        },
        {
          "content": "<font id=\"\" face=\"\">也不怕人半夜从底下爬上来报仇</font>",
          "id": "F1B11C4E-D1C5-4F60-B9D9-DF15848D9466",
          "name": "",
          "type": "text"
        },
        {
          "content": "<font id=\"\" face=\"\">狗娃他娘忙喊</font>",
          "id": "D6687047-A349-4C08-B6FD-99180B377E95",
          "name": "",
          "type": "text"
        },
        {
          "content": "<font id=\"\" face=\"\">刘郎中</font>",
          "id": "2A00B2DD-6226-40F4-A499-4837CEB29D4A",
          "name": "",
          "type": "text"
        },
        {
          "content": "<font id=\"\" face=\"\">人这不是还活着吗</font>",
          "id": "1FB9D64B-81BA-49AA-9BD4-F38F9DD0E0F5",
          "name": "",
          "type": "text"
        },
        {
          "content": "<font id=\"\" face=\"\">你看</font>",
          "id": "676E500E-1D5D-4DD1-A98D-DC2DFDE2746F",
          "name": "",
          "type": "text"
        },
        {
          "content": "<font id=\"\" face=\"\">还喘着气</font>",
          "id": "9BAEF05D-DA65-42A3-A42C-B31D53CBBDA8",
          "name": "",
          "type": "text"
        },
        {
          "content": "<font id=\"\" face=\"\">刚才还说话呢</font>",
          "id": "F7E464CE-861A-425F-91EA-74D8DEA850BF",
          "name": "",
          "type": "text"
        },
        {
          "content": "<font id=\"\" face=\"\">你怎么说是死人</font>",
          "id": "C130339A-D11E-47B0-86F6-DD58D8B0EB6D",
          "name": "",
          "type": "text"
        },
        {
          "content": "<font id=\"\" face=\"\">就是</font>",
          "id": "F06F0B0F-A84B-4AF7-8A71-E4369C2DD4B6",
          "name": "",
          "type": "text"
        },
        {
          "content": "<font id=\"\" face=\"\">我们亲眼看见继业他娘自己从</font>",
          "id": "EC762BB5-0CAF-4259-8EF1-B69166AA3EC3",
          "name": "",
          "type": "text"
        },
        {
          "content": "<font id=\"\" face=\"\">杨家院子爬出来的有人附和</font>",
          "id": "7D513A74-52D9-446D-B3BF-49927AFBF6B3",
          "name": "",
          "type": "text"
        },
        {
          "content": "<font id=\"\" face=\"\">杨里正能当上里正</font>",
          "id": "7F983A38-588E-4E48-AC12-0F935A3A6AF8",
          "name": "",
          "type": "text"
        },
        {
          "content": "<font id=\"\" face=\"\">自然不笨</font>",
          "id": "114B9A74-A24D-424E-8387-84F03F33B776",
          "name": "",
          "type": "text"
        },
        {
          "content": "<font id=\"\" face=\"\">他眼神往杨家大门口一扫</font>",
          "id": "C6601FF6-5FB2-4A92-948C-3D27067C7534",
          "name": "",
          "type": "text"
        },
        {
          "content": "<font id=\"\" face=\"\">看到那一路爬过来的痕迹</font>",
          "id": "9D19D037-5FA8-4C93-8520-DFECEA360F6F",
          "name": "",
          "type": "text"
        },
        {
          "content": "<font id=\"\" face=\"\">就知道不是假的</font>",
          "id": "E15FA46B-7D43-4CEB-A8A0-E7E66C1FD5A0",
          "name": "",
          "type": "text"
        },
        {
          "content": "<font id=\"\" face=\"\">他转头看刘郎中</font>",
          "id": "9A493551-584F-421B-A999-2EDA39FA3EB4",
          "name": "",
          "type": "text"
        },
        {
          "content": "<font id=\"\" face=\"\">质问</font>",
          "id": "24778150-2A4E-4F73-A98E-42C3DF787513",
          "name": "",
          "type": "text"
        },
        {
          "content": "<font id=\"\" face=\"\">你不是说人死了</font>",
          "id": "5C1C8100-6B88-4FC2-89D8-755FF85E4737",
          "name": "",
          "type": "text"
        },
        {
          "content": "<font id=\"\" face=\"\">刘郎中擦着额汗解释</font>",
          "id": "45397CDA-BB9F-4561-93CE-E474BD465BEF",
          "name": "",
          "type": "text"
        },
        {
          "content": "<font id=\"\" face=\"\">杨文孝把我背过来看那会儿</font>",
          "id": "B2441733-1C13-4903-9B4F-582227B554B9",
          "name": "",
          "type": "text"
        },
        {
          "content": "<font id=\"\" face=\"\">人确实没气儿了</font>",
          "id": "CFA847B6-74B4-4362-AA28-971AA8CE408D",
          "name": "",
          "type": "text"
        },
        {
          "content": "<font id=\"\" face=\"\">脉搏都停了</font>",
          "id": "3F3C081B-76A2-4BDE-B7D8-0CECC808DB48",
          "name": "",
          "type": "text"
        },
        {
          "content": "<font id=\"\" face=\"\">流了一地血</font>",
          "id": "CE2011B2-EFAC-41DA-8D25-38E653DB3316",
          "name": "",
          "type": "text"
        },
        {
          "content": "<font id=\"\" face=\"\">后脑被开了那么大的口</font>",
          "id": "2F20E086-1589-4197-AACC-095D1388B54F",
          "name": "",
          "type": "text"
        },
        {
          "content": "<font id=\"\" face=\"\">他抬手比划着</font>",
          "id": "8D11CF7A-1CAF-4662-8EEF-E929DEE93A64",
          "name": "",
          "type": "text"
        },
        {
          "content": "<font id=\"\" face=\"\">又干巴巴地补充</font>",
          "id": "4DD753EC-81A0-44B8-A864-2D11E018AD3B",
          "name": "",
          "type": "text"
        },
        {
          "content": "<font id=\"\" face=\"\">想来是流血过多闭过气儿了</font>",
          "id": "F2B04EB5-BA78-4D38-BF1E-10CB9DAAB72A",
          "name": "",
          "type": "text"
        },
        {
          "content": "<font id=\"\" face=\"\">流血多这话杨里正是信的</font>",
          "id": "84E8A173-326B-4DFC-93F0-07FA76A6FF8E",
          "name": "",
          "type": "text"
        },
        {
          "content": "<font id=\"\" face=\"\">毕竟地上趴着的人一身衣裳都变了</font>",
          "id": "B1AD6936-FB1F-42C0-ADD5-A8A95DC62E45",
          "name": "",
          "type": "text"
        },
        {
          "content": "<font id=\"\" face=\"\">色想着刘郎中也就那半吊子医术</font>",
          "id": "B231D6F7-1E69-441E-8F24-4D2E5E99E18F",
          "name": "",
          "type": "text"
        },
        {
          "content": "<font id=\"\" face=\"\">杨里正便没再多问</font>",
          "id": "953297CD-FA17-4016-855C-F31AC0ACE14E",
          "name": "",
          "type": "text"
        },
        {
          "content": "<font id=\"\" face=\"\">柯慕青一看来了能主事的</font>",
          "id": "58696A5B-18F4-4EC8-BE6A-6F976B24AE2D",
          "name": "",
          "type": "text"
        },
        {
          "content": "<font id=\"\" face=\"\">伸手就拽住里正的裤子</font>",
          "id": "1401D011-3CB1-4C2C-9903-0F81594520C4",
          "name": "",
          "type": "text"
        },
        {
          "content": "<font id=\"\" face=\"\">她哭着说</font>",
          "id": "DDB8B972-5400-4ACE-8DB2-F2202E869F55",
          "name": "",
          "type": "text"
        },
        {
          "content": "<font id=\"\" face=\"\">叔公啊</font>",
          "id": "6EBB9688-CC19-45B3-A851-DC90AF71F482",
          "name": "",
          "type": "text"
        },
        {
          "content": "<font id=\"\" face=\"\">我是真死了</font>",
          "id": "4CAB3F8A-D682-4C83-AEC0-2BE93ADB569E",
          "name": "",
          "type": "text"
        },
        {
          "content": "<font id=\"\" face=\"\">我都见着阎王爷和我家大牛了</font>",
          "id": "BC498963-DD17-4F5D-9B68-604E8BB607AC",
          "name": "",
          "type": "text"
        },
        {
          "content": "<font id=\"\" face=\"\">我家大牛嫌我死得窝囊冤枉</font>",
          "id": "4058FAF4-382E-4A15-886A-633A8300986B",
          "name": "",
          "type": "text"
        },
        {
          "content": "<font id=\"\" face=\"\">替我和阎王爷求了情</font>",
          "id": "812518C4-3912-4C71-9B33-568A4DA4584A",
          "name": "",
          "type": "text"
        },
        {
          "content": "<font id=\"\" face=\"\">阎王爷这才又把我踢回来</font>",
          "id": "52BD8E7A-81F8-4A59-830A-0A6AE0EC564C",
          "name": "",
          "type": "text"
        },
        {
          "content": "<font id=\"\" face=\"\">柯慕青口里的我家大牛是</font>",
          "id": "77CE0A58-6004-448B-8D7C-40142BFD53D5",
          "name": "",
          "type": "text"
        },
        {
          "content": "<font id=\"\" face=\"\">原主早死的前夫杨大牛</font>",
          "id": "5247A4A3-A999-494F-8922-F87E49C9C991",
          "name": "",
          "type": "text"
        },
        {
          "content": "<font id=\"\" face=\"\">她一边哭一边骂</font>",
          "id": "53793733-EBCD-4C8C-985F-2450191EC6A9",
          "name": "",
          "type": "text"
        },
        {
          "content": "<font id=\"\" face=\"\">天杀的</font>",
          "id": "865E1255-2227-4D1A-9029-784E59F4185B",
          "name": "",
          "type": "text"
        },
        {
          "content": "<font id=\"\" face=\"\">孙老大</font>",
          "id": "CA5A2E44-6AF7-420A-ADF0-9B26F7BAF7C0",
          "name": "",
          "type": "text"
        },
        {
          "content": "<font id=\"\" face=\"\">还有孙黑娃</font>",
          "id": "6575A9F8-0F9E-4C4F-90D6-E6FE5653C02A",
          "name": "",
          "type": "text"
        },
        {
          "content": "<font id=\"\" face=\"\">孙全有他们不当人啊</font>",
          "id": "E799C6A2-3D18-4BB5-8A37-A203CB1D0306",
          "name": "",
          "type": "text"
        },
        {
          "content": "<font id=\"\" face=\"\">我嫁给孙老大十几年</font>",
          "id": "3F191367-83FC-448B-AEFF-55496A8734B3",
          "name": "",
          "type": "text"
        },
        {
          "content": "<font id=\"\" face=\"\">把孙家几个孩子当亲生的带大</font>",
          "id": "EA154F12-AF32-4762-92D1-C9F0B20999F2",
          "name": "",
          "type": "text"
        },
        {
          "content": "<font id=\"\" face=\"\">他们三父子却为了钱杀我啊</font>",
          "id": "46FC7CE2-646A-4ADF-8423-045DCEFD9C51",
          "name": "",
          "type": "text"
        },
        {
          "content": "<font id=\"\" face=\"\">戏要做全套</font>",
          "id": "12173387-EF03-4A3E-8A57-3B2CE3097716",
          "name": "",
          "type": "text"
        },
        {
          "content": "<font id=\"\" face=\"\">柯慕青一副气若游丝随时</font>",
          "id": "F80768DF-3E88-4484-A8F5-EFA396521071",
          "name": "",
          "type": "text"
        },
        {
          "content": "<font id=\"\" face=\"\">要再死过去的模样</font>",
          "id": "13FA4635-C6C8-4057-9011-7F3549D4CDD7",
          "name": "",
          "type": "text"
        },
        {
          "content": "<font id=\"\" face=\"\">叔公啊</font>",
          "id": "C45396A1-B371-461D-83CB-019D1FAB15A2",
          "name": "",
          "type": "text"
        },
        {
          "content": "<font id=\"\" face=\"\">你要替我</font>",
          "id": "AC1B328F-A50D-408F-9AAA-EF78443A52CF",
          "name": "",
          "type": "text"
        },
        {
          "content": "<font id=\"\" face=\"\">替杨家做主啊</font>",
          "id": "44774B6D-93CC-4BC5-84D4-42CB352EFEC3",
          "name": "",
          "type": "text"
        },
        {
          "content": "<font id=\"\" face=\"\">我要是被他们三父子害死</font>",
          "id": "2E9391EB-E588-40A1-BE3E-E1989F649478",
          "name": "",
          "type": "text"
        },
        {
          "content": "<font id=\"\" face=\"\">我的儿孙可怎么办哦</font>",
          "id": "CE1B6253-6E87-4803-BA96-7196030A5108",
          "name": "",
          "type": "text"
        },
        {
          "content": "<font id=\"\" face=\"\">里正是杨家的亲戚</font>",
          "id": "2893F6DE-B2A5-4988-9235-80E0014591C5",
          "name": "",
          "type": "text"
        },
        {
          "content": "<font id=\"\" face=\"\">辈分上确实是原主前夫杨大</font>",
          "id": "C6D47F39-66FF-4820-9A29-C7618C3470CE",
          "name": "",
          "type": "text"
        },
        {
          "content": "<font id=\"\" face=\"\">牛的叔公正因有这层关系</font>",
          "id": "F973ED2B-289F-4F6E-9279-9D8319B232CC",
          "name": "",
          "type": "text"
        },
        {
          "content": "<font id=\"\" face=\"\">刘郎中看柯慕青死了</font>",
          "id": "D14F871F-0FB4-4938-B9CC-811536C0470A",
          "name": "",
          "type": "text"
        },
        {
          "content": "<font id=\"\" face=\"\">杨家没人主事</font>",
          "id": "16A535B2-2257-40EC-8C56-E01E1860C1F7",
          "name": "",
          "type": "text"
        },
        {
          "content": "<font id=\"\" face=\"\">才多跑一趟去把里正叫来</font>",
          "id": "C88937B8-CF70-4C20-AC0D-CD82097A0D6A",
          "name": "",
          "type": "text"
        },
        {
          "content": "<font id=\"\" face=\"\">若不是事大又沾亲带故</font>",
          "id": "988D7B57-F6E1-4D36-8865-F6DC6861F69B",
          "name": "",
          "type": "text"
        },
        {
          "content": "<font id=\"\" face=\"\">杨里正是真不爱管柯慕青一家的事</font>",
          "id": "49250B8D-4BEB-4184-9D84-1FC520E707E2",
          "name": "",
          "type": "text"
        },
        {
          "content": "<font id=\"\" face=\"\">杨里正对周围喊道</font>",
          "id": "D337E0E5-508B-4F5B-BA41-CF0933091A27",
          "name": "",
          "type": "text"
        },
        {
          "content": "<font id=\"\" face=\"\">来个腿脚快的孩子</font>",
          "id": "FDB3C82F-1B25-435D-A568-6348121A7F5D",
          "name": "",
          "type": "text"
        },
        {
          "content": "<font id=\"\" face=\"\">去把孙家几个人叫回来话音刚落</font>",
          "id": "1858EB42-6856-4E32-B832-CCD29F8DA27D",
          "name": "",
          "type": "text"
        },
        {
          "content": "<font id=\"\" face=\"\">又点了几个力气大的妇人</font>",
          "id": "8CB38A61-B1AC-4439-AF4E-44EE763707C5",
          "name": "",
          "type": "text"
        },
        {
          "content": "<font id=\"\" face=\"\">打算让她们把柯慕青抬回杨家</font>",
          "id": "9D0227B5-CE36-4626-A89D-0DC69F4EAEB4",
          "name": "",
          "type": "text"
        },
        {
          "content": "<font id=\"\" face=\"\">孙老大几人恰好在这时回来了</font>",
          "id": "144B9078-173C-411F-857B-0133EA2052C5",
          "name": "",
          "type": "text"
        },
        {
          "content": "<font id=\"\" face=\"\">里正</font>",
          "id": "88313771-6001-4ADC-B247-2CC6F31C297D",
          "name": "",
          "type": "text"
        },
        {
          "content": "<font id=\"\" face=\"\">孙家人回来了</font>",
          "id": "1EF22D3B-705F-4B50-A1B6-0158DE42E36C",
          "name": "",
          "type": "text"
        },
        {
          "content": "<font id=\"\" face=\"\">巧了不是</font>",
          "id": "60F63F8D-AB32-4CF9-A025-4C3BB1662ECC",
          "name": "",
          "type": "text"
        },
        {
          "content": "<font id=\"\" face=\"\">都不用我们跑腿有人笑道</font>",
          "id": "DAA6D17E-A8AE-406E-83A6-96AA3CB57732",
          "name": "",
          "type": "text"
        },
        {
          "content": "<font id=\"\" face=\"\">孙老大领着自家几个孩子</font>",
          "id": "C3401900-DB02-4F94-9A3F-413A0FD558DE",
          "name": "",
          "type": "text"
        },
        {
          "content": "<font id=\"\" face=\"\">一眼就看到杨里正正用不善的眼神看他</font>",
          "id": "9D460485-BBFB-46C5-A160-F8CAFC6770BA",
          "name": "",
          "type": "text"
        },
        {
          "content": "<font id=\"\" face=\"\">心头咯噔一跳</font>",
          "id": "EAA51CF4-4F63-47AF-9C36-A5AEA673741A",
          "name": "",
          "type": "text"
        },
        {
          "content": "<font id=\"\" face=\"\">完了</font>",
          "id": "2B3514A1-EAB8-4219-AEC3-2C6CE3333CAE",
          "name": "",
          "type": "text"
        },
        {
          "content": "<font id=\"\" face=\"\">坏事了</font>",
          "id": "30521A4B-D5E6-4DD5-8E5F-8B92E884089E",
          "name": "",
          "type": "text"
        },
        {
          "content": "<font id=\"\" face=\"\">村里平时没人搭理他们家</font>",
          "id": "E90BD9DC-3848-4788-8C1A-0A7886513C9F",
          "name": "",
          "type": "text"
        },
        {
          "content": "<font id=\"\" face=\"\">今儿怎么围了这么多人</font>",
          "id": "4E6D4862-0D9F-499E-8B29-6AA96A2AAA46",
          "name": "",
          "type": "text"
        },
        {
          "content": "<font id=\"\" face=\"\">连里正也来了</font>",
          "id": "871826C3-CF55-463A-9E89-A6E9697CA12C",
          "name": "",
          "type": "text"
        },
        {
          "content": "<font id=\"\" face=\"\">这时</font>",
          "id": "BB5E0C04-CB02-4528-B641-82F5789BCD71",
          "name": "",
          "type": "text"
        },
        {
          "content": "<font id=\"\" face=\"\">远处传来一阵马蹄声</font>",
          "id": "1937459C-762B-44AB-BF0C-AEDB49190253",
          "name": "",
          "type": "text"
        },
        {
          "content": "<font id=\"\" face=\"\">不一会儿一辆马车就到了空地</font>",
          "id": "5189CF0A-DC50-42FC-ACDE-166C15CCFC90",
          "name": "",
          "type": "text"
        },
        {
          "content": "<font id=\"\" face=\"\">杨文孝率先掀开车帘跳出来</font>",
          "id": "D0222468-D8B9-4684-A03C-80E05B2B5302",
          "name": "",
          "type": "text"
        },
        {
          "content": "<font id=\"\" face=\"\">脚刚落地便焦急地朝里头喊</font>",
          "id": "DF6C50FB-D720-4942-A93D-EE0FFC2191DD",
          "name": "",
          "type": "text"
        },
        {
          "content": "<font id=\"\" face=\"\">外祖父</font>",
          "id": "49AF7B92-E16F-41E2-B930-1D7688C3552D",
          "name": "",
          "type": "text"
        },
        {
          "content": "<font id=\"\" face=\"\">大舅</font>",
          "id": "EB37FBE6-5A7E-487E-B112-CBA8C6A05D63",
          "name": "",
          "type": "text"
        },
        {
          "content": "<font id=\"\" face=\"\">我家到了</font>",
          "id": "ED96059F-E84A-404D-8157-9109193B7F30",
          "name": "",
          "type": "text"
        },
        {
          "content": "<font id=\"\" face=\"\">他一边催促一边往家的方向望</font>",
          "id": "4124E233-1EAA-4E09-B443-84AFA2087AB1",
          "name": "",
          "type": "text"
        },
        {
          "content": "<font id=\"\" face=\"\">嘴里念叨着</font>",
          "id": "E81FD77E-6E3B-4273-ACCD-4E9BBB95830E",
          "name": "",
          "type": "text"
        },
        {
          "content": "<font id=\"\" face=\"\">这么长时间</font>",
          "id": "5614DFA0-9C6A-4A49-9BC2-DD011AB80BD4",
          "name": "",
          "type": "text"
        },
        {
          "content": "<font id=\"\" face=\"\">孙家那群瘪三指定把娘藏的银钱都翻走了</font>",
          "id": "F871AA5F-DDAB-439B-822B-47D29C68A830",
          "name": "",
          "type": "text"
        },
        {
          "content": "<font id=\"\" face=\"\">柯焕章扶着父亲柯秀才下了马车</font>",
          "id": "3BEC2E7E-6797-4313-BD2E-D7754A86A89A",
          "name": "",
          "type": "text"
        },
        {
          "content": "<font id=\"\" face=\"\">两人眉头紧锁</font>",
          "id": "BBB9DC8B-1AD4-4825-BD94-0AD523035C9C",
          "name": "",
          "type": "text"
        },
        {
          "content": "<font id=\"\" face=\"\">一听杨文孝这话</font>",
          "id": "6F17B665-587B-4EAA-8943-2B3C6AC6246D",
          "name": "",
          "type": "text"
        },
        {
          "content": "<font id=\"\" face=\"\">眉头皱得更紧</font>",
          "id": "3D634DDD-5FE3-4259-B619-F6EDCC929037",
          "name": "",
          "type": "text"
        },
        {
          "content": "<font id=\"\" face=\"\">文孝</font>",
          "id": "F5D5F6AC-EE46-4943-B091-CE05F2C7191E",
          "name": "",
          "type": "text"
        },
        {
          "content": "<font id=\"\" face=\"\">你娘过世</font>",
          "id": "B17DCE93-DB05-4AB4-9920-8A45FE7EEA79",
          "name": "",
          "type": "text"
        },
        {
          "content": "<font id=\"\" face=\"\">我观你一路</font>",
          "id": "2E9AB62E-574E-46AA-BEBB-EAA9C2C65A13",
          "name": "",
          "type": "text"
        },
        {
          "content": "<font id=\"\" face=\"\">不仅无半分亲人离世的痛楚</font>",
          "id": "DFD4F817-F38B-4344-AFD3-E76DDC6D9485",
          "name": "",
          "type": "text"
        },
        {
          "content": "<font id=\"\" face=\"\">心思全然在这些银白之</font>",
          "id": "AFECACDB-2764-4747-AD74-008863CA1855",
          "name": "",
          "type": "text"
        },
        {
          "content": "<font id=\"\" face=\"\">物上柯焕章心里暗叹</font>",
          "id": "38269F18-B33F-4873-A63B-B9E4099D28FB",
          "name": "",
          "type": "text"
        },
        {
          "content": "<font id=\"\" face=\"\">大姐当真不会教养孩子</font>",
          "id": "35AD0D68-CE5E-46A3-AF59-4B7388AEC6F6",
          "name": "",
          "type": "text"
        },
        {
          "content": "<font id=\"\" face=\"\">杨文孝挨了训</font>",
          "id": "D0304265-D32A-40FF-A253-8BCF258CB873",
          "name": "",
          "type": "text"
        },
        {
          "content": "<font id=\"\" face=\"\">却不服气</font>",
          "id": "B0286F80-26E8-4428-A234-A34BF1ACF540",
          "name": "",
          "type": "text"
        },
        {
          "content": "<font id=\"\" face=\"\">大舅</font>",
          "id": "97ED7603-9732-4E5E-B687-8C2DA71FB7F4",
          "name": "",
          "type": "text"
        },
        {
          "content": "<font id=\"\" face=\"\">我娘都死了</font>",
          "id": "3534D997-2DE2-47BB-ACF1-58D33B2493EA",
          "name": "",
          "type": "text"
        },
        {
          "content": "<font id=\"\" face=\"\">又不是我害的</font>",
          "id": "1BFB79A8-BD30-4588-BB0F-C05179C2D46D",
          "name": "",
          "type": "text"
        },
        {
          "content": "<font id=\"\" face=\"\">我伤心也没用</font>",
          "id": "5D6B1A6C-1F56-48FF-98EA-812103DBDB25",
          "name": "",
          "type": "text"
        },
        {
          "content": "<font id=\"\" face=\"\">但钱是实实在在的东西</font>",
          "id": "EE8A6275-50CA-4837-ADCB-6897512CAA70",
          "name": "",
          "type": "text"
        },
        {
          "content": "<font id=\"\" face=\"\">我娘生前藏钱藏得严实</font>",
          "id": "72B55AB8-58EE-456C-A5D1-73095238BB09",
          "name": "",
          "type": "text"
        },
        {
          "content": "<font id=\"\" face=\"\">我惦记着找你和外祖父帮忙</font>",
          "id": "11489FB0-6182-4D3B-B94B-87BDAAA90143",
          "name": "",
          "type": "text"
        },
        {
          "content": "<font id=\"\" face=\"\">都没来得及多翻杨文孝应着</font>",
          "id": "D76A0961-1D0C-4273-9C81-DDFF5FDBA0FF",
          "name": "",
          "type": "text"
        },
        {
          "content": "<font id=\"\" face=\"\">一会儿你们也帮我一起找找</font>",
          "id": "A7AD8673-D06F-478D-9678-CC183F22E38B",
          "name": "",
          "type": "text"
        },
        {
          "content": "<font id=\"\" face=\"\">这张十六岁的少年脸上</font>",
          "id": "302E66C5-6D80-4DA0-90C1-9D90250E803B",
          "name": "",
          "type": "text"
        },
        {
          "content": "<font id=\"\" face=\"\">没有半分逝母之痛</font>",
          "id": "41BE4F35-55B4-4B24-9896-E48281F57A20",
          "name": "",
          "type": "text"
        },
        {
          "content": "<font id=\"\" face=\"\">只有对钱财的着急</font>",
          "id": "E5C89943-05C4-49D9-A59D-DC2D47D1A977",
          "name": "",
          "type": "text"
        },
        {
          "content": "<font id=\"\" face=\"\">杨文孝自认光靠自家不中用</font>",
          "id": "D565F8BC-5B9A-4DDF-AED7-4634001C7705",
          "name": "",
          "type": "text"
        },
        {
          "content": "<font id=\"\" face=\"\">的哥嫂肯定掰扯不赢孙家</font>",
          "id": "0225800C-FA76-4FA9-925B-B19C368605BE",
          "name": "",
          "type": "text"
        },
        {
          "content": "<font id=\"\" face=\"\">所以第一个想到的就是断亲许久的</font>",
          "id": "E6685CE3-2A33-461E-B5A4-29217EAA3490",
          "name": "",
          "type": "text"
        },
        {
          "content": "<font id=\"\" face=\"\">外祖家他娘到底是外祖父的长女</font>",
          "id": "5746CB7D-7525-4D1D-862B-C5E332102D5D",
          "name": "",
          "type": "text"
        },
        {
          "content": "<font id=\"\" face=\"\">人都死了</font>",
          "id": "9CFD1F41-F576-47CF-A756-67F650A2F2C7",
          "name": "",
          "type": "text"
        },
        {
          "content": "<font id=\"\" face=\"\">生前的恩怨也该散了</font>",
          "id": "7840AB3D-9977-4E40-AE45-25286001DEB5",
          "name": "",
          "type": "text"
        },
        {
          "content": "<font id=\"\" face=\"\">外家指定会管外祖父是秀才</font>",
          "id": "B4DD5930-B834-418E-BC1F-CDB99395C49E",
          "name": "",
          "type": "text"
        },
        {
          "content": "<font id=\"\" face=\"\">孙家人肯定讨不着好</font>",
          "id": "1C75A963-2D11-43A0-ACF3-2056B03F2842",
          "name": "",
          "type": "text"
        },
        {
          "content": "<font id=\"\" face=\"\">就算真被翻走了什么</font>",
          "id": "8F10F9A1-73F3-4E91-BFE5-868B84D86C9A",
          "name": "",
          "type": "text"
        },
        {
          "content": "<font id=\"\" face=\"\">外祖父也一定能替他讨回来最好</font>",
          "id": "9E91018A-761E-42C9-9044-52A9753991E1",
          "name": "",
          "type": "text"
        },
        {
          "content": "<font id=\"\" face=\"\">趁机把动手的人送去蹲大狱</font>",
          "id": "0EED9BCA-3BA6-4BE3-8453-6A586C988975",
          "name": "",
          "type": "text"
        },
        {
          "content": "<font id=\"\" face=\"\">没想到一下马车先被大舅</font>",
          "id": "568F9FA6-3FA7-4FCC-8C36-2760658795DC",
          "name": "",
          "type": "text"
        },
        {
          "content": "<font id=\"\" face=\"\">当着外祖父的面训了一顿</font>",
          "id": "CDC89C51-9B48-4ACE-9A54-70F86BBF8FF6",
          "name": "",
          "type": "text"
        },
        {
          "content": "<font id=\"\" face=\"\">杨文孝心里一百个不服</font>",
          "id": "8E399750-8A87-461D-BB6A-5402FCB73629",
          "name": "",
          "type": "text"
        },
        {
          "content": "<font id=\"\" face=\"\">是柯秀才来了</font>",
          "id": "F50ADD6E-8EF3-4DC5-BCDD-49FC946A408C",
          "name": "",
          "type": "text"
        },
        {
          "content": "<font id=\"\" face=\"\">听说柯婶子的爹是秀才公</font>",
          "id": "347E4049-0FA1-4137-97F7-1AF558429CD1",
          "name": "",
          "type": "text"
        },
        {
          "content": "<font id=\"\" face=\"\">围观的人顿时被马车吸引了</font>",
          "id": "B9B7483C-C099-447E-B0FB-EB788637EC96",
          "name": "",
          "type": "text"
        },
        {
          "content": "<font id=\"\" face=\"\">这是柯家的马车</font>",
          "id": "089BF350-6769-46BB-B4D4-6B62DC48289A",
          "name": "",
          "type": "text"
        },
        {
          "content": "<font id=\"\" face=\"\">柯婶子娘家这么有钱</font>",
          "id": "4047113B-48EF-4CAB-86FA-5B5B61AB0F3B",
          "name": "",
          "type": "text"
        },
        {
          "content": "<font id=\"\" face=\"\">人往马车前一围</font>",
          "id": "7FA9C7FF-1AB0-4517-A192-84B53B029ABF",
          "name": "",
          "type": "text"
        },
        {
          "content": "<font id=\"\" face=\"\">柯慕青身边就空了出来</font>",
          "id": "E47F2660-A2BC-46B0-8631-ED7BBADABE6E",
          "name": "",
          "type": "text"
        },
        {
          "content": "<font id=\"\" face=\"\">所以柯秀才和柯焕章往前走了两步</font>",
          "id": "38D27C5E-EAE1-4B82-8254-4BAC11F8945C",
          "name": "",
          "type": "text"
        },
        {
          "content": "<font id=\"\" face=\"\">就看到地上躺着的人</font>",
          "id": "D803548F-B039-4B78-A16C-E92008709185",
          "name": "",
          "type": "text"
        },
        {
          "content": "<font id=\"\" face=\"\">柯家和柯慕青断了往来许久</font>",
          "id": "AE5F0C1F-AF4A-46A7-9B7A-04CC4E070BD4",
          "name": "",
          "type": "text"
        },
        {
          "content": "<font id=\"\" face=\"\">所以哪怕人就躺在地上仰头看着他</font>",
          "id": "C427B526-354D-46BE-8A90-225CBF3AFC1D",
          "name": "",
          "type": "text"
        },
        {
          "content": "<font id=\"\" face=\"\">柯秀才一时间也没认出那是</font>",
          "id": "CAFDA7AB-661C-434D-9B0B-81F4E2C4985F",
          "name": "",
          "type": "text"
        },
        {
          "content": "<font id=\"\" face=\"\">他长女他还大步要往杨家走</font>",
          "id": "67ADBE21-EB12-4C61-B95F-AB02B0626752",
          "name": "",
          "type": "text"
        },
        {
          "content": "<font id=\"\" face=\"\">直到地上的人开口喊他</font>",
          "id": "294A9494-596A-4972-AE1D-02CAE84943E9",
          "name": "",
          "type": "text"
        },
        {
          "content": "<font id=\"\" face=\"\">他才步子一顿</font>",
          "id": "64FF263D-B788-409C-9AD7-8473D6741ECE",
          "name": "",
          "type": "text"
        },
        {
          "content": "<font id=\"\" face=\"\">不可置信地回头</font>",
          "id": "E639114D-B811-4C8C-ABCC-6F24E6096A34",
          "name": "",
          "type": "text"
        },
        {
          "content": "<font id=\"\" face=\"\">爹</font>",
          "id": "8A00A783-1FB6-4EE2-AF41-E80E691022D4",
          "name": "",
          "type": "text"
        },
        {
          "content": "<font id=\"\" face=\"\">我在这呢</font>",
          "id": "95E1B98B-D79B-4698-89BC-6702F6AEEE32",
          "name": "",
          "type": "text"
        },
        {
          "content": "<font id=\"\" face=\"\">柯慕青从原主记忆里翻出了来人</font>",
          "id": "B3BBDF80-3BF0-48A4-BAB4-F777510EC4B4",
          "name": "",
          "type": "text"
        },
        {
          "content": "<font id=\"\" face=\"\">看着老头儿身子一颤</font>",
          "id": "50B8905F-51C1-4DF8-BAB8-344DAE829A44",
          "name": "",
          "type": "text"
        },
        {
          "content": "<font id=\"\" face=\"\">惊到这般</font>",
          "id": "A00FB242-BFA6-481E-A155-11814A1A02CC",
          "name": "",
          "type": "text"
        },
        {
          "content": "<font id=\"\" face=\"\">心里默念罪过</font>",
          "id": "C3B75103-CBD5-4786-9A1A-D5C8FC8336EF",
          "name": "",
          "type": "text"
        },
        {
          "content": "<font id=\"\" face=\"\">大姐</font>",
          "id": "B54705E9-A326-4436-A897-DBC067E29780",
          "name": "",
          "type": "text"
        },
        {
          "content": "<font id=\"\" face=\"\">柯焕章错愕万分</font>",
          "id": "83C83B8D-A504-4E33-9672-CF60F1F3BB53",
          "name": "",
          "type": "text"
        },
        {
          "content": "<font id=\"\" face=\"\">爹</font>",
          "id": "1021BC85-82E1-4507-B97B-2355A0DE30C5",
          "name": "",
          "type": "text"
        },
        {
          "content": "<font id=\"\" face=\"\">大姐在这</font>",
          "id": "4579972E-40C0-4002-A4B2-BA6945A37990",
          "name": "",
          "type": "text"
        },
        {
          "content": "<font id=\"\" face=\"\">她没死啊</font>",
          "id": "6F1F061E-ECD9-4B4E-8C6E-AB0E9C959C12",
          "name": "",
          "type": "text"
        },
        {
          "content": "<font id=\"\" face=\"\">柯秀才站着不动</font>",
          "id": "7B2CBB06-1335-4910-9568-563827400C96",
          "name": "",
          "type": "text"
        },
        {
          "content": "<font id=\"\" face=\"\">只朝着杨文孝看去</font>",
          "id": "79B83738-C788-49C5-A573-12EB4F04D4D1",
          "name": "",
          "type": "text"
        },
        {
          "content": "<font id=\"\" face=\"\">语气不善地问</font>",
          "id": "3DE82C28-CB69-4479-9815-82BCC680F6CD",
          "name": "",
          "type": "text"
        },
        {
          "content": "<font id=\"\" face=\"\">怎么回事</font>",
          "id": "1DDFFE76-0084-4362-B360-CAD2BEABBBA3",
          "name": "",
          "type": "text"
        },
        {
          "content": "<font id=\"\" face=\"\">人没死</font>",
          "id": "AD43BC33-AE84-4841-8A08-58ADBD46A2AF",
          "name": "",
          "type": "text"
        },
        {
          "content": "<font id=\"\" face=\"\">你上柯家报丧</font>",
          "id": "8723FDAF-7C70-4920-83AC-97A6835D4776",
          "name": "",
          "type": "text"
        },
        {
          "content": "<font id=\"\" face=\"\">杨文孝吞了口口水</font>",
          "id": "B6A4F3B3-30F9-4462-88A4-0E33D28FEBF7",
          "name": "",
          "type": "text"
        },
        {
          "content": "<font id=\"\" face=\"\">感觉外祖父手里要是有根烧火棍</font>",
          "id": "19CEE64F-1A1C-4404-B50C-6B9954A036E9",
          "name": "",
          "type": "text"
        },
        {
          "content": "<font id=\"\" face=\"\">指定就朝他打下来了他</font>",
          "id": "D7AA1756-F4FC-4F35-8547-397AB8016207",
          "name": "",
          "type": "text"
        },
        {
          "content": "<font id=\"\" face=\"\">直接指着一旁的刘郎中</font>",
          "id": "906F408B-53B5-4C38-93AB-18CA65B3543D",
          "name": "",
          "type": "text"
        },
        {
          "content": "<font id=\"\" face=\"\">刘郎中说我娘断气了</font>",
          "id": "AB184C2B-D50A-4DA9-BACE-BF9BD490191A",
          "name": "",
          "type": "text"
        },
        {
          "content": "<font id=\"\" face=\"\">让我们准备后事外祖父</font>",
          "id": "1A322D2E-EEFA-4320-96E5-A16455D87B84",
          "name": "",
          "type": "text"
        },
        {
          "content": "<font id=\"\" face=\"\">我走的时候</font>",
          "id": "BDA9771E-A4CA-4B45-B1F1-16982092EB72",
          "name": "",
          "type": "text"
        },
        {
          "content": "<font id=\"\" face=\"\">我娘真的没气儿了</font>",
          "id": "D53741F7-5100-4BF9-AE7B-4B9CA3E984B0",
          "name": "",
          "type": "text"
        },
        {
          "content": "<font id=\"\" face=\"\">刘郎中叹了口气</font>",
          "id": "41544BEC-5D2B-4800-B912-3E9CE0EA3394",
          "name": "",
          "type": "text"
        },
        {
          "content": "<font id=\"\" face=\"\">又把失血过多闭过气那套</font>",
          "id": "128314F6-03EE-41C7-8DD3-245661AE1A8F",
          "name": "",
          "type": "text"
        },
        {
          "content": "<font id=\"\" face=\"\">说辞拿出来应付了一遍</font>",
          "id": "2DC9005B-6279-4480-A6A8-64C328A24000",
          "name": "",
          "type": "text"
        },
        {
          "content": "<font id=\"\" face=\"\">柯慕青跟着又把见了阎王爷</font>",
          "id": "71729165-166C-4F80-9372-86884060DD76",
          "name": "",
          "type": "text"
        },
        {
          "content": "<font id=\"\" face=\"\">和杨大牛的话再说了一遍</font>",
          "id": "B2A3A575-3FF6-4132-A57A-C4D10F317E94",
          "name": "",
          "type": "text"
        },
        {
          "content": "<font id=\"\" face=\"\">我可不是没死</font>",
          "id": "A83EDBDF-D4BC-46A6-9F5B-F75BED79AEF1",
          "name": "",
          "type": "text"
        },
        {
          "content": "<font id=\"\" face=\"\">我是死了又让阎王爷踢回来的</font>",
          "id": "E435060A-BFC9-437A-90A0-1C0076C6558B",
          "name": "",
          "type": "text"
        },
        {
          "content": "<font id=\"\" face=\"\">孙老大额头挂上豆大的汗珠</font>",
          "id": "ADBCE455-E16A-4286-B1F2-AACA7E84B30E",
          "name": "",
          "type": "text"
        },
        {
          "content": "<font id=\"\" face=\"\">青儿</font>",
          "id": "7FF68B54-DEBE-4D51-AA00-675FB8F55453",
          "name": "",
          "type": "text"
        },
        {
          "content": "<font id=\"\" face=\"\">你可别乱说</font>",
          "id": "3787818F-D758-47D1-ADDA-2C86E4FB0EDA",
          "name": "",
          "type": "text"
        },
        {
          "content": "<font id=\"\" face=\"\">你这不是活得好好的吗</font>",
          "id": "C49C2367-23DF-4D34-A2B6-74C64CA60A77",
          "name": "",
          "type": "text"
        },
        {
          "content": "<font id=\"\" face=\"\">孙老大看杨里正来了就觉得不妙</font>",
          "id": "D3507021-7723-4348-BA0D-C39F7D773589",
          "name": "",
          "type": "text"
        },
        {
          "content": "<font id=\"\" face=\"\">没想到杨文孝还把柯秀才找来了这下</font>",
          "id": "3A78C8D5-595A-4F93-AF2B-51F7FC88D006",
          "name": "",
          "type": "text"
        },
        {
          "content": "<font id=\"\" face=\"\">他和他儿子们商量好的办法</font>",
          "id": "4D5031A9-3753-4A5B-A6BC-401BD080411C",
          "name": "",
          "type": "text"
        },
        {
          "content": "<font id=\"\" face=\"\">完全行不通了最可惜的是</font>",
          "id": "532D9B61-E381-4151-B40F-BF49498DC208",
          "name": "",
          "type": "text"
        },
        {
          "content": "<font id=\"\" face=\"\">柯慕青这婆娘竟然没死</font>",
          "id": "A817BA73-E8F4-4D47-8A93-5D7742FE07B6",
          "name": "",
          "type": "text"
        },
        {
          "content": "<font id=\"\" face=\"\">死不死的另说</font>",
          "id": "C9E6E92D-1C98-4349-8509-446FCCDE0BF8",
          "name": "",
          "type": "text"
        },
        {
          "content": "<font id=\"\" face=\"\">柯焕章不想在这事上计较</font>",
          "id": "DBFDC51A-A59C-4FD9-89D3-5F405C8609CF",
          "name": "",
          "type": "text"
        },
        {
          "content": "<font id=\"\" face=\"\">我大姐后脑的伤是你们用锄头打的</font>",
          "id": "B88572D1-C03D-4E07-AA81-CB8A35517E16",
          "name": "",
          "type": "text"
        },
        {
          "content": "<font id=\"\" face=\"\">这一点你们赖不掉吧</font>",
          "id": "0A61A8BE-6611-4970-8F34-33261317F88A",
          "name": "",
          "type": "text"
        },
        {
          "content": "<font id=\"\" face=\"\">这可是我外甥亲眼看见的</font>",
          "id": "60CA1102-D843-46F6-8117-1F4705C9580D",
          "name": "",
          "type": "text"
        },
        {
          "content": "<font id=\"\" face=\"\">孙黑娃和孙全有下意识地看向孙老大</font>",
          "id": "E1954E2A-41AA-4C88-A8E3-D285D55DC445",
          "name": "",
          "type": "text"
        },
        {
          "content": "<font id=\"\" face=\"\">孙老大暗骂儿子不顶用</font>",
          "id": "ABB85522-61C2-42C7-AB42-8C7FEC71148B",
          "name": "",
          "type": "text"
        },
        {
          "content": "<font id=\"\" face=\"\">张口辩解</font>",
          "id": "08A062C3-4BA9-4CE1-B330-DE6E89F300B1",
          "name": "",
          "type": "text"
        },
        {
          "content": "<font id=\"\" face=\"\">怎么是我们打的</font>",
          "id": "E83D0729-A3EF-4D28-BA2C-5036E0F25453",
          "name": "",
          "type": "text"
        },
        {
          "content": "<font id=\"\" face=\"\">我们是在吵架</font>",
          "id": "BAD26DF7-3C70-46AC-92F6-8D9012CA5861",
          "name": "",
          "type": "text"
        },
        {
          "content": "<font id=\"\" face=\"\">但你娘是自己往锄头上摔的</font>",
          "id": "8686E9AA-D7C8-4F0F-8E63-2ABE1F07FA17",
          "name": "",
          "type": "text"
        },
        {
          "content": "<font id=\"\" face=\"\">可不能胡说</font>",
          "id": "4D15C137-C086-4AB7-B9B5-9617F0945E06",
          "name": "",
          "type": "text"
        },
        {
          "content": "<font id=\"\" face=\"\">怕大家不信</font>",
          "id": "FFCD84F7-189C-4698-B153-D158343A0D87",
          "name": "",
          "type": "text"
        },
        {
          "content": "<font id=\"\" face=\"\">孙老大又说</font>",
          "id": "B27F3F2D-B10D-4BA9-BE75-40746725C01E",
          "name": "",
          "type": "text"
        },
        {
          "content": "<font id=\"\" face=\"\">杨文孝这孩子不服管教</font>",
          "id": "06BE6664-819A-49EC-B0B4-111B7FA793DE",
          "name": "",
          "type": "text"
        },
        {
          "content": "<font id=\"\" face=\"\">肯定趁机冤枉我们后爹难当啊</font>",
          "id": "70454F6C-A545-4633-B1B3-EF40AF0CB8A7",
          "name": "",
          "type": "text"
        },
        {
          "content": "<font id=\"\" face=\"\">对他们再好</font>",
          "id": "29D5055C-A84C-4BC3-B4D3-6911E3561C34",
          "name": "",
          "type": "text"
        },
        {
          "content": "<font id=\"\" face=\"\">心也不会和我使一处去</font>",
          "id": "A3B3EB65-6C41-450C-B210-36D0AAD76C41",
          "name": "",
          "type": "text"
        },
        {
          "content": "<font id=\"\" face=\"\">你放屁</font>",
          "id": "950F790D-8995-49CB-A03E-27B0D0E3BBFB",
          "name": "",
          "type": "text"
        },
        {
          "content": "<font id=\"\" face=\"\">杨文孝怒吼</font>",
          "id": "273E6565-622D-47C9-A29C-32800773B877",
          "name": "",
          "type": "text"
        },
        {
          "content": "<font id=\"\" face=\"\">我亲眼看见</font>",
          "id": "05A6A4EB-11A6-42A8-9343-3D77F3D74D90",
          "name": "",
          "type": "text"
        },
        {
          "content": "<font id=\"\" face=\"\">孙黑娃拽着我娘</font>",
          "id": "C3A97C69-88E4-4FCC-832F-723D29853B00",
          "name": "",
          "type": "text"
        },
        {
          "content": "<font id=\"\" face=\"\">孙全有拦着不让我娘跑</font>",
          "id": "3BCAC682-2D57-4D93-888A-D2C94CD8ED34",
          "name": "",
          "type": "text"
        },
        {
          "content": "<font id=\"\" face=\"\">就是你孙老大拿着锄头</font>",
          "id": "F07BB8AA-15CA-47BF-AF86-063BBCC1CC17",
          "name": "",
          "type": "text"
        },
        {
          "content": "<font id=\"\" face=\"\">朝我娘脑袋打下去的</font>",
          "id": "1C75FB3C-0C9C-4A29-8FFE-F40BEDC88326",
          "name": "",
          "type": "text"
        },
        {
          "content": "<font id=\"\" face=\"\">围观者看看这个</font>",
          "id": "2E74E3C7-229D-49CA-9101-4600755242E3",
          "name": "",
          "type": "text"
        },
        {
          "content": "<font id=\"\" face=\"\">又看看那个</font>",
          "id": "FBAFA97C-8753-4033-90B0-48C457402622",
          "name": "",
          "type": "text"
        },
        {
          "content": "<font id=\"\" face=\"\">也分不清谁在说谎</font>",
          "id": "001657B1-0A5E-4864-9830-B6EF532C3FF4",
          "name": "",
          "type": "text"
        },
        {
          "content": "<font id=\"\" face=\"\">毕竟这几个人在他们心里都不是好东西</font>",
          "id": "71AF724C-B009-4654-B973-940D74A85B73",
          "name": "",
          "type": "text"
        },
        {
          "content": "<font id=\"\" face=\"\">柯慕青朝着杨文孝摆摆手</font>",
          "id": "AEB90840-2759-4166-BE09-E37E251D2254",
          "name": "",
          "type": "text"
        },
        {
          "content": "<font id=\"\" face=\"\">站那骂有啥用</font>",
          "id": "FE70AD0D-927E-4FBE-930B-9454F96FD4C1",
          "name": "",
          "type": "text"
        },
        {
          "content": "<font id=\"\" face=\"\">还不过来扶老娘</font>",
          "id": "43BF698D-56AF-4EFC-A7EA-ABEF6003C675",
          "name": "",
          "type": "text"
        },
        {
          "content": "<font id=\"\" face=\"\">杨文孝气得眼红</font>",
          "id": "F85C81CD-E323-4B86-85F7-EF360EC5A8FF",
          "name": "",
          "type": "text"
        },
        {
          "content": "<font id=\"\" face=\"\">柯秀才扫了孙家三父子一眼</font>",
          "id": "E6269DB0-31A6-4F7D-B4D9-6BA83BB5248D",
          "name": "",
          "type": "text"
        },
        {
          "content": "<font id=\"\" face=\"\">喊上杨里正和邻居们</font>",
          "id": "3BBD500A-7A06-4E7F-9D8C-69ECA3511FB6",
          "name": "",
          "type": "text"
        },
        {
          "content": "<font id=\"\" face=\"\">说要去杨家院子看看杨文孝这才扶</font>",
          "id": "83438B04-E8AE-4A69-917A-F18E27A07FB9",
          "name": "",
          "type": "text"
        },
        {
          "content": "<font id=\"\" face=\"\">着柯慕青跟在大家身后回了院子</font>",
          "id": "672F1CE1-72E9-41F5-ABDF-523A58845336",
          "name": "",
          "type": "text"
        },
        {
          "content": "<font id=\"\" face=\"\">院子靠近大门口中间</font>",
          "id": "239FD0C8-A08E-45E2-BF40-A596ED4A2F0F",
          "name": "",
          "type": "text"
        },
        {
          "content": "<font id=\"\" face=\"\">一滩血还没干透</font>",
          "id": "9F7851AC-5FA4-4F24-83A0-B939185E0A1C",
          "name": "",
          "type": "text"
        },
        {
          "content": "<font id=\"\" face=\"\">血迹滴了一路</font>",
          "id": "629BDE26-4BAD-4AD6-8BDE-7DD2E6D5D37B",
          "name": "",
          "type": "text"
        },
        {
          "content": "<font id=\"\" face=\"\">一直到柯慕青的屋子</font>",
          "id": "F11B8F80-0F41-4B14-B71F-2BD31400066F",
          "name": "",
          "type": "text"
        },
        {
          "content": "<font id=\"\" face=\"\">柯秀才是读书人</font>",
          "id": "3B072956-AAFF-46C5-95BA-3FC13ACC6EAD",
          "name": "",
          "type": "text"
        },
        {
          "content": "<font id=\"\" face=\"\">基本的逻辑思维还是有的</font>",
          "id": "8874A187-8569-4F04-9689-5BD1D61E5A74",
          "name": "",
          "type": "text"
        },
        {
          "content": "<font id=\"\" face=\"\">他指着地上那滩血说</font>",
          "id": "6947466A-E1F8-4981-AF8D-B4D2702810A1",
          "name": "",
          "type": "text"
        },
        {
          "content": "<font id=\"\" face=\"\">人在这里出的事</font>",
          "id": "DF1F6369-DB76-45E0-A1F6-3C8807CCBE4F",
          "name": "",
          "type": "text"
        },
        {
          "content": "<font id=\"\" face=\"\">你跟我说我女儿是自己磕到锄头上的</font>",
          "id": "6FB89E7F-1FA8-4191-8270-E686AFBE9D2B",
          "name": "",
          "type": "text"
        },
        {
          "content": "<font id=\"\" face=\"\">谁家锄头没事摆在这路中间</font>",
          "id": "CDFCD796-4083-4FE6-9BC7-2DFF34C2DBEA",
          "name": "",
          "type": "text"
        },
        {
          "content": "<font id=\"\" face=\"\">柯慕青心里给柯秀才点了个赞</font>",
          "id": "0600F0FA-C55A-4347-BD00-B18BA61A0718",
          "name": "",
          "type": "text"
        },
        {
          "content": "<font id=\"\" face=\"\">爹</font>",
          "id": "A9004AEE-1E3B-4BFE-88AC-2959A3034116",
          "name": "",
          "type": "text"
        },
        {
          "content": "<font id=\"\" face=\"\">农具都是精贵东西</font>",
          "id": "FF0F95BD-7FE6-483D-AC60-5020FAB8C3D1",
          "name": "",
          "type": "text"
        },
        {
          "content": "<font id=\"\" face=\"\">不用的时候</font>",
          "id": "9F661B13-EF32-45A4-AAEA-AA73C495A8F8",
          "name": "",
          "type": "text"
        },
        {
          "content": "<font id=\"\" face=\"\">家家户户都锁在杂物房</font>",
          "id": "D01C267A-EC5F-409F-ACED-C21C5FAA19A9",
          "name": "",
          "type": "text"
        },
        {
          "content": "<font id=\"\" face=\"\">或柴房柯慕青适时道</font>",
          "id": "E644D670-DC23-41EE-9AE5-5C1F02842ACB",
          "name": "",
          "type": "text"
        },
        {
          "content": "<font id=\"\" face=\"\">柯秀才点点头</font>",
          "id": "D726629C-EEA3-4798-9523-9E061225B569",
          "name": "",
          "type": "text"
        },
        {
          "content": "<font id=\"\" face=\"\">爹知道应完</font>",
          "id": "5C5D00F6-F7DE-42A6-9FEB-7699D75C902E",
          "name": "",
          "type": "text"
        },
        {
          "content": "<font id=\"\" face=\"\">他又指着孙老大衣襟上的血迹</font>",
          "id": "C898270B-A19E-4DB5-9FB7-C5ACCD8D8AAB",
          "name": "",
          "type": "text"
        },
        {
          "content": "<font id=\"\" face=\"\">我女儿伤的是后脑</font>",
          "id": "8AA630BD-1668-4249-BB3C-339A68425AE1",
          "name": "",
          "type": "text"
        },
        {
          "content": "<font id=\"\" face=\"\">你衣服前襟有血</font>",
          "id": "BE1E8FFA-EB2F-43C1-8C34-C729F703C190",
          "name": "",
          "type": "text"
        },
        {
          "content": "<font id=\"\" face=\"\">说明就是你举着锄头从她背后偷袭的</font>",
          "id": "FEB6AA1E-5E30-49FD-9869-62C361646E8F",
          "name": "",
          "type": "text"
        },
        {
          "content": "<font id=\"\" face=\"\">观柯慕</font>",
          "id": "3B9C6E98-5F1F-4403-8056-9D8F0B5CAD33",
          "name": "",
          "type": "text"
        },
        {
          "content": "<font id=\"\" face=\"\">青自己</font>",
          "id": "984E7A06-6F2B-456F-A8B8-B13491AA6C0E",
          "name": "",
          "type": "text"
        },
        {
          "content": "<font id=\"\" face=\"\">也是后背的血比前边多</font>",
          "id": "7A9EC1B3-0BC9-4932-AF76-6F7F8B5D3D7E",
          "name": "",
          "type": "text"
        },
        {
          "content": "<font id=\"\" face=\"\">外祖父神了</font>",
          "id": "813AA3BD-4FCC-4AF2-ACD8-62358A15FE26",
          "name": "",
          "type": "text"
        },
        {
          "content": "<font id=\"\" face=\"\">就是这样</font>",
          "id": "C15CA9C9-CC76-459B-B5F6-029614D0966F",
          "name": "",
          "type": "text"
        },
        {
          "content": "<font id=\"\" face=\"\">杨文孝激动万分</font>",
          "id": "2253462E-E7FB-4408-AD6C-5787C77D9AF3",
          "name": "",
          "type": "text"
        },
        {
          "content": "<font id=\"\" face=\"\">我娘倒地后他还想再补一锄头</font>",
          "id": "5A10525C-C43D-430C-991E-5EC64C8F0983",
          "name": "",
          "type": "text"
        },
        {
          "content": "<font id=\"\" face=\"\">锄头都举起来了</font>",
          "id": "2E8DCD88-A09A-4F6F-9D00-48F0091E74FD",
          "name": "",
          "type": "text"
        },
        {
          "content": "<font id=\"\" face=\"\">见我冲进来才把锄头扔了</font>",
          "id": "3B16FC4F-F810-471E-9F2B-75697BA311BD",
          "name": "",
          "type": "text"
        },
        {
          "content": "<font id=\"\" face=\"\">是我把娘从地上背起来的</font>",
          "id": "464B3324-0297-4E1C-BBA1-813E89E7A604",
          "name": "",
          "type": "text"
        },
        {
          "content": "<font id=\"\" face=\"\">我身上的血就是那时沾上的</font>",
          "id": "DC882A8F-A55F-48FA-BBA3-6E87CDA7E3C9",
          "name": "",
          "type": "text"
        },
        {
          "content": "<font id=\"\" face=\"\">柯慕青见缝插针补充</font>",
          "id": "1199CCD7-B7D3-4680-AAFA-63886C7E855D",
          "name": "",
          "type": "text"
        },
        {
          "content": "<font id=\"\" face=\"\">就是爹说的这样</font>",
          "id": "9C4C7E78-C22D-4AE0-974B-6435DB6336F7",
          "name": "",
          "type": "text"
        },
        {
          "content": "<font id=\"\" face=\"\">我听孙老大说要弄死我</font>",
          "id": "43C00CC0-ADFA-4305-BC82-29486D7E4416",
          "name": "",
          "type": "text"
        },
        {
          "content": "<font id=\"\" face=\"\">就想跑</font>",
          "id": "811A6019-0EDF-4886-B43B-2503A57786B7",
          "name": "",
          "type": "text"
        },
        {
          "content": "<font id=\"\" face=\"\">是那两个小畜生拦着</font>",
          "id": "A5382A86-895B-437B-8026-19BF718DE399",
          "name": "",
          "type": "text"
        },
        {
          "content": "<font id=\"\" face=\"\">孙老大站我身后咣一下就给我一锄头</font>",
          "id": "C72A45DE-8E95-42D6-A8EE-1014394534D3",
          "name": "",
          "type": "text"
        },
        {
          "content": "<font id=\"\" face=\"\">孙老大三父子傻了</font>",
          "id": "FB9E637A-41B1-4881-99B6-4C1EF51A4491",
          "name": "",
          "type": "text"
        },
        {
          "content": "<font id=\"\" face=\"\">没想到柯秀才仅凭一滩血就能断案</font>",
          "id": "EE9ACABA-0F18-45A4-9964-11C42FCC19E4",
          "name": "",
          "type": "text"
        },
        {
          "content": "<font id=\"\" face=\"\">顿时懊悔</font>",
          "id": "2C5C5C2C-61F9-496C-954F-8C49F928632C",
          "name": "",
          "type": "text"
        },
        {
          "content": "<font id=\"\" face=\"\">早知如此</font>",
          "id": "1EA9495A-6EFD-4DDB-862E-4DEFDCD3CC32",
          "name": "",
          "type": "text"
        },
        {
          "content": "<font id=\"\" face=\"\">走时就该把院子打扫了</font>",
          "id": "5EC0D343-BBA4-4340-8C93-E491FEC62E7E",
          "name": "",
          "type": "text"
        },
        {
          "content": "<font id=\"\" face=\"\">柯秀才看着长女恨铁不成钢</font>",
          "id": "04836E15-D1AB-4FB3-81E6-FB0DEA39A4F0",
          "name": "",
          "type": "text"
        },
        {
          "content": "<font id=\"\" face=\"\">也是你自己挑的</font>",
          "id": "D88A3B4D-F23D-4298-B912-26B5765F11D4",
          "name": "",
          "type": "text"
        },
        {
          "content": "<font id=\"\" face=\"\">哭着喊着要嫁的</font>",
          "id": "C10C82F9-E085-4ACD-A6D9-BDF5262D9359",
          "name": "",
          "type": "text"
        },
        {
          "content": "<font id=\"\" face=\"\">该你受的</font>",
          "id": "26C620EB-8EC6-4C76-BAD8-B4FA5DFB7734",
          "name": "",
          "type": "text"
        },
        {
          "content": "<font id=\"\" face=\"\">柯焕章神色难看</font>",
          "id": "C3C253F2-A8FD-41B2-A49D-87553C0ED04C",
          "name": "",
          "type": "text"
        },
        {
          "content": "<font id=\"\" face=\"\">开口问</font>",
          "id": "E73F942B-FE25-4EDC-8E81-567700587379",
          "name": "",
          "type": "text"
        },
        {
          "content": "<font id=\"\" face=\"\">大姐</font>",
          "id": "A5420192-2745-4250-B3C3-1B6FCA111FC4",
          "name": "",
          "type": "text"
        },
        {
          "content": "<font id=\"\" face=\"\">你要不反对</font>",
          "id": "C0336966-4E1C-418F-9EE9-5AA11869BABB",
          "name": "",
          "type": "text"
        },
        {
          "content": "<font id=\"\" face=\"\">那就报官吧</font>",
          "id": "A3A562FF-466C-40DA-90B6-9CDE7523FA52",
          "name": "",
          "type": "text"
        },
        {
          "content": "<font id=\"\" face=\"\">报官二字如大山压下</font>",
          "id": "0754B051-FC02-4A19-AE94-B7A8CE2BFC3B",
          "name": "",
          "type": "text"
        },
        {
          "content": "<font id=\"\" face=\"\">孙老大三父子慌了</font>",
          "id": "B89AD17B-2EEC-4C32-BA80-CA1E736B88F1",
          "name": "",
          "type": "text"
        },
        {
          "content": "<font id=\"\" face=\"\">咣一下跪倒在地</font>",
          "id": "98A2DD15-C14D-4DE8-AD35-BAEE7F8EF374",
          "name": "",
          "type": "text"
        },
        {
          "content": "<font id=\"\" face=\"\">孙老大情真意切地望着柯慕</font>",
          "id": "A9E4C27A-A4C2-4D3B-B42F-48074CA1FE37",
          "name": "",
          "type": "text"
        },
        {
          "content": "<font id=\"\" face=\"\">青</font>",
          "id": "070ABBF3-7D6F-4580-8230-C14CDEADA984",
          "name": "",
          "type": "text"
        },
        {
          "content": "<font id=\"\" face=\"\">青儿</font>",
          "id": "600EFFC9-21A0-438D-9F44-626A6FA09B9C",
          "name": "",
          "type": "text"
        },
        {
          "content": "<font id=\"\" face=\"\">这都是误会</font>",
          "id": "DAD49E56-2F86-4E49-8EE1-263FF11C62A5",
          "name": "",
          "type": "text"
        },
        {
          "content": "<font id=\"\" face=\"\">我对你的心意你懂得</font>",
          "id": "BADDBEF8-4C29-49D0-B4AF-EB305DB5C331",
          "name": "",
          "type": "text"
        },
        {
          "content": "<font id=\"\" face=\"\">这么多年</font>",
          "id": "D8AF3B06-DF1B-4669-B340-84D5FF9C4AE7",
          "name": "",
          "type": "text"
        },
        {
          "content": "<font id=\"\" face=\"\">我都没和你红过脸我今儿真不是故意的</font>",
          "id": "2BBC7EE5-B87F-4824-95DA-F449B2100390",
          "name": "",
          "type": "text"
        },
        {
          "content": "<font id=\"\" face=\"\">就是脑子一热</font>",
          "id": "6DC7048B-D465-4079-8B78-B33CCA615C7B",
          "name": "",
          "type": "text"
        },
        {
          "content": "<font id=\"\" face=\"\">没管住手</font>",
          "id": "BA9C9AFB-D320-43D4-AFD2-8E973BC1D4A7",
          "name": "",
          "type": "text"
        },
        {
          "content": "<font id=\"\" face=\"\">青儿啊</font>",
          "id": "2D9272B7-2A86-43B4-8F4C-82F0779EC42F",
          "name": "",
          "type": "text"
        },
        {
          "content": "<font id=\"\" face=\"\">你打我</font>",
          "id": "D7F6A600-99C6-4C84-8E31-153AD65CE8F0",
          "name": "",
          "type": "text"
        },
        {
          "content": "<font id=\"\" face=\"\">骂我</font>",
          "id": "99276ACD-9802-4ED0-9AC7-91DAFF9B1AA3",
          "name": "",
          "type": "text"
        },
        {
          "content": "<font id=\"\" face=\"\">只要你能出气</font>",
          "id": "F0CFDF38-5AAC-47A3-87EB-73F83FD25E26",
          "name": "",
          "type": "text"
        },
        {
          "content": "<font id=\"\" face=\"\">你拿烧火棍打我</font>",
          "id": "B66EC192-84FC-4E79-9B50-8197184CFB96",
          "name": "",
          "type": "text"
        },
        {
          "content": "<font id=\"\" face=\"\">求你原谅我们这一回往后</font>",
          "id": "1C524F1D-E70A-4A5B-9027-600C8F1AAE8A",
          "name": "",
          "type": "text"
        },
        {
          "content": "<font id=\"\" face=\"\">我们做牛做马伺候你</font>",
          "id": "0B82564F-60B6-4BE9-A662-3AAADA02969C",
          "name": "",
          "type": "text"
        },
        {
          "content": "<font id=\"\" face=\"\">把你当祖宗供着</font>",
          "id": "69531F6B-AAC7-4C9D-BB27-5D3095498331",
          "name": "",
          "type": "text"
        },
        {
          "content": "<font id=\"\" face=\"\">青儿啊</font>",
          "id": "B4F14BAA-1CA9-4C6C-9411-2E2814663723",
          "name": "",
          "type": "text"
        },
        {
          "content": "<font id=\"\" face=\"\">一日夫妻百日恩</font>",
          "id": "3F62527D-8498-406B-B4AC-5BE718720518",
          "name": "",
          "type": "text"
        },
        {
          "content": "<font id=\"\" face=\"\">你不会这么绝情的对吧</font>",
          "id": "AB4BEB85-06D8-47DE-813E-AF0A0887FBA7",
          "name": "",
          "type": "text"
        },
        {
          "content": "<font id=\"\" face=\"\">看在往日的情分上</font>",
          "id": "26727105-7CC3-4913-8366-69695F7249C8",
          "name": "",
          "type": "text"
        },
        {
          "content": "<font id=\"\" face=\"\">给我们一个机会吧</font>",
          "id": "7BF73A23-6526-4F2C-896A-DAFA2251F171",
          "name": "",
          "type": "text"
        },
        {
          "content": "<font id=\"\" face=\"\">开口闭口都是青儿</font>",
          "id": "74EBA7A6-6654-4937-8AF9-47E7AA423E0C",
          "name": "",
          "type": "text"
        },
        {
          "content": "<font id=\"\" face=\"\">当初原主就是被这甜言蜜语打动的</font>",
          "id": "FEE00FAF-3E0E-47D2-A5E1-2B0F1CE00E2D",
          "name": "",
          "type": "text"
        },
        {
          "content": "<font id=\"\" face=\"\">事实上</font>",
          "id": "54D1593A-5764-41A7-95E5-E1F446F169EC",
          "name": "",
          "type": "text"
        },
        {
          "content": "<font id=\"\" face=\"\">原主也确实被孙老大这番话哄心软了</font>",
          "id": "3B1D7F3E-2EC6-4F32-A574-275D05407348",
          "name": "",
          "type": "text"
        },
        {
          "content": "<font id=\"\" face=\"\">柯焕章一看自家大姐不说话</font>",
          "id": "A991EB37-9C31-4FA4-A55C-60C2E34B7076",
          "name": "",
          "type": "text"
        },
        {
          "content": "<font id=\"\" face=\"\">脸色越发难看</font>",
          "id": "162B7EF7-1240-4278-924E-1858CFBAA792",
          "name": "",
          "type": "text"
        },
        {
          "content": "<font id=\"\" face=\"\">大姐</font>",
          "id": "1F44D761-F810-44AC-AEED-02C8C3E25219",
          "name": "",
          "type": "text"
        },
        {
          "content": "<font id=\"\" face=\"\">你莫不是到这份上还心软了</font>",
          "id": "46A5A2EE-46E1-4BDB-AAD7-294287C5E225",
          "name": "",
          "type": "text"
        },
        {
          "content": "<font id=\"\" face=\"\">若是如此</font>",
          "id": "68EBD128-34CD-4B7D-BDC3-D44E56262892",
          "name": "",
          "type": "text"
        },
        {
          "content": "<font id=\"\" face=\"\">他和他爹真是一腔心意喂了狗</font>",
          "id": "7B2EEA80-C5BA-47AB-AE8D-309402E90C4B",
          "name": "",
          "type": "text"
        },
        {
          "content": "<font id=\"\" face=\"\">还白搭了脸面借马车赶来</font>",
          "id": "C98CC6E5-E48B-46D2-809A-71CFC02A6969",
          "name": "",
          "type": "text"
        },
        {
          "content": "<font id=\"\" face=\"\">心软</font>",
          "id": "47B1F152-3790-43CF-B7A2-371F0390E7AF",
          "name": "",
          "type": "text"
        },
        {
          "content": "<font id=\"\" face=\"\">对着三个要我命的畜生心软</font>",
          "id": "DFDC6CD7-F632-45A4-82D4-9F16A02B2202",
          "name": "",
          "type": "text"
        },
        {
          "content": "<font id=\"\" face=\"\">我嫌自己命太长了</font>",
          "id": "9786DFA9-15F7-4440-A6E6-F3E1ABF0D2FD",
          "name": "",
          "type": "text"
        },
        {
          "content": "<font id=\"\" face=\"\">柯慕青呸了声</font>",
          "id": "5C6BCFAF-D41E-4F4A-8DE3-4E552252C574",
          "name": "",
          "type": "text"
        },
        {
          "content": "<font id=\"\" face=\"\">我要休夫</font>",
          "id": "3F8B01FE-B75C-41F3-BF5D-ADC98EF021B4",
          "name": "",
          "type": "text"
        },
        {
          "content": "<font id=\"\" face=\"\">先把孙老大休了</font>",
          "id": "A233AB1A-BF1A-47D2-AEFA-295741091F92",
          "name": "",
          "type": "text"
        },
        {
          "content": "<font id=\"\" face=\"\">再把他们送去县衙</font>",
          "id": "089B5D0D-0D30-4F86-BFAE-FD23CED58CD2",
          "name": "",
          "type": "text"
        },
        {
          "content": "<font id=\"\" face=\"\">原主可没有柯慕</font>",
          "id": "5E5079F6-AD30-48A5-81F4-827978189057",
          "name": "",
          "type": "text"
        },
        {
          "content": "<font id=\"\" face=\"\">青醒得早她闭过气两天</font>",
          "id": "3AA6B942-B9CB-448A-AE03-AB1EA7B10371",
          "name": "",
          "type": "text"
        },
        {
          "content": "<font id=\"\" face=\"\">被抬进棺材</font>",
          "id": "0C226030-CFAF-4A11-91E2-226FD1940600",
          "name": "",
          "type": "text"
        },
        {
          "content": "<font id=\"\" face=\"\">都要上山埋了才醒醒来后</font>",
          "id": "C6C00F50-EFBF-41E0-B7FA-AA0FD661D9D2",
          "name": "",
          "type": "text"
        },
        {
          "content": "<font id=\"\" face=\"\">她起初扬言报官</font>",
          "id": "C15D4B24-B6E8-42FF-BBDB-DFDB539B311C",
          "name": "",
          "type": "text"
        },
        {
          "content": "<font id=\"\" face=\"\">却被孙老大几句话哄好</font>",
          "id": "1699FAEA-5436-43C5-B6F1-434252A2E1A4",
          "name": "",
          "type": "text"
        },
        {
          "content": "<font id=\"\" face=\"\">最终只将孙黑娃和孙全有赶出</font>",
          "id": "28D6D2CB-B332-4A87-8B82-861120CDADD0",
          "name": "",
          "type": "text"
        },
        {
          "content": "<font id=\"\" face=\"\">杨家了事然后没满一个月</font>",
          "id": "330F687B-904A-4D95-BECC-67C094B7B67F",
          "name": "",
          "type": "text"
        },
        {
          "content": "<font id=\"\" face=\"\">孙老大吹了枕头风</font>",
          "id": "860E6FD3-7696-4037-82AA-B83C8EF54216",
          "name": "",
          "type": "text"
        },
        {
          "content": "<font id=\"\" face=\"\">又把那两人接回杨家原主是在几个月</font>",
          "id": "BF259997-B678-4762-908A-A1E256B03C45",
          "name": "",
          "type": "text"
        },
        {
          "content": "<font id=\"\" face=\"\">的逃荒路上被孙老大几父子杀了</font>",
          "id": "D279D1E4-48FC-4BC6-9E1F-9EA284B39038",
          "name": "",
          "type": "text"
        },
        {
          "content": "<font id=\"\" face=\"\">只因路上没水没粮</font>",
          "id": "B0B3CE20-C8E5-4FFB-96E6-E6138BE14FBD",
          "name": "",
          "type": "text"
        },
        {
          "content": "<font id=\"\" face=\"\">三父子杀人喝血吃肉自然</font>",
          "id": "05FEDDA3-C870-4C9A-B1D8-C743B036BA03",
          "name": "",
          "type": "text"
        },
        {
          "content": "<font id=\"\" face=\"\">原主亲生的儿孙也没落个好</font>",
          "id": "4BD3C77D-33A0-4AB8-8DBB-6103B6AE69FB",
          "name": "",
          "type": "text"
        },
        {
          "content": "<font id=\"\" face=\"\">死的死</font>",
          "id": "FCA82B72-0E05-43F3-83E5-E07A1141E716",
          "name": "",
          "type": "text"
        },
        {
          "content": "<font id=\"\" face=\"\">残的残</font>",
          "id": "7AED9F91-B6FD-4A28-97DD-22CFCE8DD920",
          "name": "",
          "type": "text"
        },
        {
          "content": "<font id=\"\" face=\"\">年纪小的更是被易子而食</font>",
          "id": "EA7D0DF8-A86E-4B82-AA2F-DE8BC061F2B9",
          "name": "",
          "type": "text"
        },
        {
          "content": "<font id=\"\" face=\"\">听完柯慕</font>",
          "id": "77C112D2-E4E5-4C53-88D8-F045EB3C5FF5",
          "name": "",
          "type": "text"
        },
        {
          "content": "<font id=\"\" face=\"\">青的话</font>",
          "id": "9BE79F76-93BE-452C-8AD9-1A464D2CD74A",
          "name": "",
          "type": "text"
        },
        {
          "content": "<font id=\"\" face=\"\">柯焕章松了口气</font>",
          "id": "275D942C-F96C-4C48-8212-C6532B2D3FA8",
          "name": "",
          "type": "text"
        },
        {
          "content": "<font id=\"\" face=\"\">就连柯秀才紧绷的脸也松弛了几分</font>",
          "id": "9694CF05-6451-4B27-9FA9-DDF2F492768E",
          "name": "",
          "type": "text"
        },
        {
          "content": "<font id=\"\" face=\"\">胡闹</font>",
          "id": "237EDE2F-5CBD-4D79-8718-E3A9C4FA6232",
          "name": "",
          "type": "text"
        },
        {
          "content": "<font id=\"\" face=\"\">自古以来就没有休夫的先例</font>",
          "id": "734B48FB-C7CC-4D4D-B941-42CE5A140C79",
          "name": "",
          "type": "text"
        },
        {
          "content": "<font id=\"\" face=\"\">柯秀才呵斥着</font>",
          "id": "9AED8734-4B41-45FA-AF71-670A0FAA1667",
          "name": "",
          "type": "text"
        },
        {
          "content": "<font id=\"\" face=\"\">正当孙老大以为有希望时</font>",
          "id": "1F18D9B5-31B9-44BE-B722-E39FA3020C88",
          "name": "",
          "type": "text"
        },
        {
          "content": "<font id=\"\" face=\"\">却听柯秀才说</font>",
          "id": "4A154652-6E14-43FD-A27E-B11F23D44BF5",
          "name": "",
          "type": "text"
        },
        {
          "content": "<font id=\"\" face=\"\">你与他和离便是</font>",
          "id": "345382FF-39BA-4D92-A02A-8259F9A36678",
          "name": "",
          "type": "text"
        },
        {
          "content": "<font id=\"\" face=\"\">杨里正一听</font>",
          "id": "76269D48-18D1-4002-8E8C-157677334036",
          "name": "",
          "type": "text"
        },
        {
          "content": "<font id=\"\" face=\"\">立刻道</font>",
          "id": "0658A195-7A72-40FF-A58C-86CCD9667E9F",
          "name": "",
          "type": "text"
        },
        {
          "content": "<font id=\"\" face=\"\">我这就给他们写和离书</font>",
          "id": "C75DB6A9-FA69-4528-AB7F-68E359D67696",
          "name": "",
          "type": "text"
        },
        {
          "content": "<font id=\"\" face=\"\">他早盼着这一天了他看不上</font>",
          "id": "953562D7-7641-4771-8294-6DF201DCD65B",
          "name": "",
          "type": "text"
        },
        {
          "content": "<font id=\"\" face=\"\">拎不清的柯慕青</font>",
          "id": "76BFD998-6554-4A6E-BCE8-3DB74C2A95C7",
          "name": "",
          "type": "text"
        },
        {
          "content": "<font id=\"\" face=\"\">但更看不上吃软饭的孙老大一家</font>",
          "id": "B8D79369-003B-4D5F-881D-333EA0628D87",
          "name": "",
          "type": "text"
        },
        {
          "content": "<font id=\"\" face=\"\">孙老大双眼瞪得滚圆</font>",
          "id": "53E2F6B1-C9E2-4A39-9D23-4272D2F048AC",
          "name": "",
          "type": "text"
        },
        {
          "content": "<font id=\"\" face=\"\">恶虎般瞪着柯慕</font>",
          "id": "7B867ECE-03FE-4B62-B01E-AA6343EB6E81",
          "name": "",
          "type": "text"
        },
        {
          "content": "<font id=\"\" face=\"\">青</font>",
          "id": "50D6E725-649C-44C4-A54D-68E144B592D9",
          "name": "",
          "type": "text"
        },
        {
          "content": "<font id=\"\" face=\"\">恨不得上前将她撕碎</font>",
          "id": "746DFA50-6028-4785-9307-A816815FB840",
          "name": "",
          "type": "text"
        },
        {
          "content": "<font id=\"\" face=\"\">老子绝不和离</font>",
          "id": "7C5F5D65-D228-4B0B-A81E-A225715AF92C",
          "name": "",
          "type": "text"
        },
        {
          "content": "<font id=\"\" face=\"\">有本事就去报官</font>",
          "id": "E835FF7B-CC99-40A4-8143-93BBD0805F78",
          "name": "",
          "type": "text"
        },
        {
          "content": "<font id=\"\" face=\"\">柯慕</font>",
          "id": "7CA77FA7-522B-4511-B62D-E39095152062",
          "name": "",
          "type": "text"
        },
        {
          "content": "<font id=\"\" face=\"\">青有个蹲大狱的男人</font>",
          "id": "436D870E-8B53-4644-A6FC-099DF16D7E75",
          "name": "",
          "type": "text"
        },
        {
          "content": "<font id=\"\" face=\"\">我看是你柯慕青脸上有光</font>",
          "id": "2BC4F3F0-DE69-4689-A895-F595335F73FD",
          "name": "",
          "type": "text"
        },
        {
          "content": "<font id=\"\" face=\"\">还是你柯家脸上有光</font>",
          "id": "7431E94B-612E-4F7A-BC27-9A4048B65F79",
          "name": "",
          "type": "text"
        },
        {
          "content": "<font id=\"\" face=\"\">孙老大破罐子破摔</font>",
          "id": "9B26F680-DF21-4878-9E7D-E93B35299B87",
          "name": "",
          "type": "text"
        },
        {
          "content": "<font id=\"\" face=\"\">心想人没打死</font>",
          "id": "1F2B5264-7F05-4B7B-9ED6-F1BE4BFFC3FC",
          "name": "",
          "type": "text"
        },
        {
          "content": "<font id=\"\" face=\"\">最多蹲几年</font>",
          "id": "3276AE07-E0D2-492B-8AB6-674AA637A211",
          "name": "",
          "type": "text"
        },
        {
          "content": "<font id=\"\" face=\"\">只要不和离</font>",
          "id": "4B0FBCAB-8C8E-4A02-B96A-B7335D768EDC",
          "name": "",
          "type": "text"
        },
        {
          "content": "<font id=\"\" face=\"\">柯慕青就还是他婆娘</font>",
          "id": "54AF5E92-37BF-4841-A765-351127D738A8",
          "name": "",
          "type": "text"
        },
        {
          "content": "<font id=\"\" face=\"\">朝廷有律法</font>",
          "id": "AD84DD38-90C1-489E-AF12-1BD82D9FAB63",
          "name": "",
          "type": "text"
        },
        {
          "content": "<font id=\"\" face=\"\">像尔等恶意杀妻的</font>",
          "id": "788A2F3F-8E2D-41AB-B72B-EEBA73DD270E",
          "name": "",
          "type": "text"
        },
        {
          "content": "<font id=\"\" face=\"\">无需你同意</font>",
          "id": "69F22D68-F382-464B-8647-611CBDE11CD9",
          "name": "",
          "type": "text"
        },
        {
          "content": "<font id=\"\" face=\"\">只要我大姐同意</font>",
          "id": "38B7D9F5-1BDD-4F46-9E9A-6412B25BCE75",
          "name": "",
          "type": "text"
        },
        {
          "content": "<font id=\"\" face=\"\">里正同意</font>",
          "id": "5038CD22-7D6D-4D11-83E0-002CD13A0C65",
          "name": "",
          "type": "text"
        },
        {
          "content": "<font id=\"\" face=\"\">官老爷自然能判你们和离柯</font>",
          "id": "AA9F4620-D44C-40C6-A911-24E84B142696",
          "name": "",
          "type": "text"
        },
        {
          "content": "<font id=\"\" face=\"\">焕章着实被孙老大恶心到了</font>",
          "id": "5EFEFF01-8D67-47C2-BA1E-1A771DEA2461",
          "name": "",
          "type": "text"
        },
        {
          "content": "<font id=\"\" face=\"\">前一分钟还青儿喊着</font>",
          "id": "1B1AB9F1-19B7-4BE5-BA16-A911B437BAB6",
          "name": "",
          "type": "text"
        },
        {
          "content": "<font id=\"\" face=\"\">下一分钟就原形毕露</font>",
          "id": "06C118BB-1274-467F-B8F6-622801A90074",
          "name": "",
          "type": "text"
        },
        {
          "content": "<font id=\"\" face=\"\">杨里正乐呵呵点头</font>",
          "id": "B3D0DDA4-5842-4F69-9D1C-79457EE26427",
          "name": "",
          "type": "text"
        },
        {
          "content": "<font id=\"\" face=\"\">是这个样他虽然读书不多</font>",
          "id": "F84FB6DF-F8E8-4078-BB6C-E1D840FFB172",
          "name": "",
          "type": "text"
        },
        {
          "content": "<font id=\"\" face=\"\">但基本的律法还是知晓的</font>",
          "id": "73E8E6A2-AC0F-4053-80CA-16EB4A1BA8B4",
          "name": "",
          "type": "text"
        },
        {
          "content": "<font id=\"\" face=\"\">我柯家的脸面</font>",
          "id": "441CF0E3-88E2-419E-A888-38EA28DAD954",
          "name": "",
          "type": "text"
        },
        {
          "content": "<font id=\"\" face=\"\">从这个逆女嫁给你那天就丢光了</font>",
          "id": "9CA1583B-9032-4665-B037-0FF2DA2BF317",
          "name": "",
          "type": "text"
        },
        {
          "content": "<font id=\"\" face=\"\">不愁再多一个有和离或蹲大狱夫君</font>",
          "id": "A19B8EBE-B3EF-4110-B8CD-2100A462551B",
          "name": "",
          "type": "text"
        },
        {
          "content": "<font id=\"\" face=\"\">的女儿柯秀才说完看向长女</font>",
          "id": "C97E6B3A-3600-40E3-8E13-EA4DB6FE991D",
          "name": "",
          "type": "text"
        },
        {
          "content": "<font id=\"\" face=\"\">慕青</font>",
          "id": "089D0B3B-58FC-43EF-AF69-8DB4934CD50D",
          "name": "",
          "type": "text"
        },
        {
          "content": "<font id=\"\" face=\"\">爹问你</font>",
          "id": "FF6C93A2-60A7-4673-9216-1119A3293BA0",
          "name": "",
          "type": "text"
        },
        {
          "content": "<font id=\"\" face=\"\">可想好了</font>",
          "id": "765B4081-8F73-438D-907E-99D74A1E4F52",
          "name": "",
          "type": "text"
        },
        {
          "content": "<font id=\"\" face=\"\">这要是换别的孩子</font>",
          "id": "CF5160AE-E300-40A5-A8A7-A6AB1180F7EE",
          "name": "",
          "type": "text"
        },
        {
          "content": "<font id=\"\" face=\"\">柯秀才绝不多问</font>",
          "id": "CD014B63-EFF0-4B22-AAF3-2CDEBC4B8240",
          "name": "",
          "type": "text"
        },
        {
          "content": "<font id=\"\" face=\"\">但这个长女一身反骨</font>",
          "id": "8D2B8E22-C0C6-495A-8C74-AB3FDCE1980A",
          "name": "",
          "type": "text"
        },
        {
          "content": "<font id=\"\" face=\"\">他着实怕她临了又反悔</font>",
          "id": "5E3286EC-3871-4B50-8DD9-B263FA318572",
          "name": "",
          "type": "text"
        },
        {
          "content": "<font id=\"\" face=\"\">爹</font>",
          "id": "6E047702-D50F-4E01-AA85-6C414FB60F5A",
          "name": "",
          "type": "text"
        },
        {
          "content": "<font id=\"\" face=\"\">我想好了</font>",
          "id": "FCFB0BD3-EB62-4480-899F-A539D04D9A9C",
          "name": "",
          "type": "text"
        },
        {
          "content": "<font id=\"\" face=\"\">必须和离柯慕青斩钉截铁地回答</font>",
          "id": "64B17014-FDCC-49CD-A536-8F2F05A8D06C",
          "name": "",
          "type": "text"
        },
        {
          "content": "<font id=\"\" face=\"\">您放心</font>",
          "id": "9BC11753-7C98-4507-A190-F0950FFFC78C",
          "name": "",
          "type": "text"
        },
        {
          "content": "<font id=\"\" face=\"\">女儿从未像此刻这般清醒我死过一回</font>",
          "id": "C0198476-011A-4D9A-9EE0-ABA1B9E519B8",
          "name": "",
          "type": "text"
        },
        {
          "content": "<font id=\"\" face=\"\">知晓以前糊涂</font>",
          "id": "ECC09F42-145E-4C4B-8D96-82530090BAC6",
          "name": "",
          "type": "text"
        },
        {
          "content": "<font id=\"\" face=\"\">柯秀才摆手打断她</font>",
          "id": "FE661137-5FC3-4D44-AE53-72CF792649FF",
          "name": "",
          "type": "text"
        },
        {
          "content": "<font id=\"\" face=\"\">也不知是懒得听还是觉得场合不对</font>",
          "id": "1E4BAC85-72C9-4431-8D68-05C0C7EF766E",
          "name": "",
          "type": "text"
        },
        {
          "content": "<font id=\"\" face=\"\">只嗯了一声</font>",
          "id": "BC4D91C5-25FE-42E3-914D-5809E08744D3",
          "name": "",
          "type": "text"
        },
        {
          "content": "<font id=\"\" face=\"\">然后朝杨里正拱手</font>",
          "id": "A577625C-20B0-4DBC-81B8-4C2059912752",
          "name": "",
          "type": "text"
        },
        {
          "content": "<font id=\"\" face=\"\">劳烦里正替我这女儿再多劳累片刻</font>",
          "id": "B7A92CAC-3534-478C-8B0D-9CBC4A77BFC7",
          "name": "",
          "type": "text"
        },
        {
          "content": "<font id=\"\" face=\"\">杨里正听懂了</font>",
          "id": "403AD4DA-6FD5-4A04-B305-B2AE3F806E7A",
          "name": "",
          "type": "text"
        },
        {
          "content": "<font id=\"\" face=\"\">这是拜托他写和离书</font>",
          "id": "55BABC8D-54D8-4FE4-80FA-CF4CAD21AAC6",
          "name": "",
          "type": "text"
        },
        {
          "content": "<font id=\"\" face=\"\">笑着便点了头</font>",
          "id": "F33FA601-885B-4F39-B95C-413EA2A06682",
          "name": "",
          "type": "text"
        },
        {
          "content": "<font id=\"\" face=\"\">杨家有笔墨纸砚</font>",
          "id": "E8B02CEE-7640-43F1-B8BE-F8CF9A5D4ECA",
          "name": "",
          "type": "text"
        },
        {
          "content": "<font id=\"\" face=\"\">只是不常用</font>",
          "id": "AEF7C79A-E2D8-4877-A658-C2A34B645441",
          "name": "",
          "type": "text"
        },
        {
          "content": "<font id=\"\" face=\"\">被塞在柜角</font>",
          "id": "0E306CAB-1791-42AC-8B9A-9868ADA8C0F0",
          "name": "",
          "type": "text"
        },
        {
          "content": "<font id=\"\" face=\"\">找出来时纸已有些发皱柯秀才是读书人</font>",
          "id": "93C59C01-DA11-42BC-B604-196BEFB806D7",
          "name": "",
          "type": "text"
        },
        {
          "content": "<font id=\"\" face=\"\">见着这画面</font>",
          "id": "6882B17C-9367-4D9E-861D-DE9F44D6C76F",
          "name": "",
          "type": "text"
        },
        {
          "content": "<font id=\"\" face=\"\">眉头一皱</font>",
          "id": "8B1D8943-7AEA-4A18-9987-D11ADB99C456",
          "name": "",
          "type": "text"
        },
        {
          "content": "<font id=\"\" face=\"\">叹了口气</font>",
          "id": "CA9038C7-8EF0-4E40-9097-CE1AFD3ACFC8",
          "name": "",
          "type": "text"
        },
        {
          "content": "<font id=\"\" face=\"\">好在不影响使用</font>",
          "id": "F312B88F-470F-4E1A-9FE5-69F2CA87749F",
          "name": "",
          "type": "text"
        },
        {
          "content": "<font id=\"\" face=\"\">柯焕章研磨</font>",
          "id": "0F39B100-CAFB-4182-8F55-11A1597815BB",
          "name": "",
          "type": "text"
        },
        {
          "content": "<font id=\"\" face=\"\">杨里正提笔</font>",
          "id": "B084CB15-D67F-450C-AC31-C2F32C5323C6",
          "name": "",
          "type": "text"
        },
        {
          "content": "<font id=\"\" face=\"\">孙老大见势不妙</font>",
          "id": "A4C760B8-62CA-4FBC-84BB-6E5A4A7E2392",
          "name": "",
          "type": "text"
        },
        {
          "content": "<font id=\"\" face=\"\">一声声青儿地喊</font>",
          "id": "9AA15EB1-C133-4AB8-9212-8A4E232D0A44",
          "name": "",
          "type": "text"
        },
        {
          "content": "<font id=\"\" face=\"\">试图唤醒旧情孙黑娃和孙</font>",
          "id": "495DA6D5-CF40-4A23-8AD4-606B01FF363C",
          "name": "",
          "type": "text"
        },
        {
          "content": "<font id=\"\" face=\"\">全有更是一声声娘地叫</font>",
          "id": "9053288A-9ECB-4A10-A74A-23EF35D416BC",
          "name": "",
          "type": "text"
        },
        {
          "content": "<font id=\"\" face=\"\">也试图唤醒往日母爱</font>",
          "id": "3A3615CC-8E82-4813-9A41-31E325E7C52B",
          "name": "",
          "type": "text"
        },
        {
          "content": "<font id=\"\" face=\"\">柯慕青当听不见</font>",
          "id": "C2FFBD25-FC54-46FC-ACE2-3450660F9389",
          "name": "",
          "type": "text"
        },
        {
          "content": "<font id=\"\" face=\"\">让杨文孝扶她去看杨里正写和离书</font>",
          "id": "E48819AE-4738-4B8D-B625-AC2BF6EF9A8B",
          "name": "",
          "type": "text"
        },
        {
          "content": "<font id=\"\" face=\"\">看到杨里正写杨家和孙家以后各不相干</font>",
          "id": "2F25EF25-2D08-4F0D-8DA7-0F17217F942E",
          "name": "",
          "type": "text"
        },
        {
          "content": "<font id=\"\" face=\"\">柯慕青开口道</font>",
          "id": "031D6883-BE37-4A4B-9E21-5140919CFD90",
          "name": "",
          "type": "text"
        },
        {
          "content": "<font id=\"\" face=\"\">叔公</font>",
          "id": "D905EDD5-08D0-4A6A-80E6-CECF395C6D6E",
          "name": "",
          "type": "text"
        },
        {
          "content": "<font id=\"\" face=\"\">劳烦您添上一句</font>",
          "id": "8654C296-0436-4B1F-A37F-626ABE68EC6C",
          "name": "",
          "type": "text"
        },
        {
          "content": "<font id=\"\" face=\"\">以后老幺归我</font>",
          "id": "302892C8-5C39-4D92-B1A9-9415E7011306",
          "name": "",
          "type": "text"
        },
        {
          "content": "<font id=\"\" face=\"\">和孙家毫不相干</font>",
          "id": "A4C6291F-42D5-4F61-82FF-AF1D4C47C915",
          "name": "",
          "type": "text"
        },
        {
          "content": "<font id=\"\" face=\"\">老幺</font>",
          "id": "D2E23099-6E05-4F99-A3FE-43DAC903DCD6",
          "name": "",
          "type": "text"
        },
        {
          "content": "<font id=\"\" face=\"\">杨里正愣了两秒才反应过来</font>",
          "id": "48D114FC-DB97-4487-BB84-8DCB853BF0D5",
          "name": "",
          "type": "text"
        },
        {
          "content": "<font id=\"\" face=\"\">是柯慕青和孙老大生的那个</font>",
          "id": "2DB065AE-7ABB-4B0B-A4E9-C18DAFAF52B4",
          "name": "",
          "type": "text"
        },
        {
          "content": "<font id=\"\" face=\"\">七岁女娃就因为是个女娃</font>",
          "id": "C44539AD-7AB8-4712-B274-4EF05C70AEDD",
          "name": "",
          "type": "text"
        },
        {
          "content": "<font id=\"\" face=\"\">不得孙老大喜欢</font>",
          "id": "B0A8A824-7D73-41EE-9283-6757C47421A6",
          "name": "",
          "type": "text"
        },
        {
          "content": "<font id=\"\" face=\"\">连名字都起得潦草</font>",
          "id": "0DCC0187-CDD1-4221-AF23-25B992EC19CB",
          "name": "",
          "type": "text"
        },
        {
          "content": "<font id=\"\" face=\"\">叫孙小丫</font>",
          "id": "D4B4FB70-45FD-46E3-AFFC-1AC49A333265",
          "name": "",
          "type": "text"
        },
        {
          "content": "<font id=\"\" face=\"\">孙老大本没想起这女儿</font>",
          "id": "B4937CBE-C9C5-4385-B1E2-867851D4862A",
          "name": "",
          "type": "text"
        },
        {
          "content": "<font id=\"\" face=\"\">但听柯慕青提及</font>",
          "id": "694C14D7-F7B5-4DCD-A2C2-26A88D2D112E",
          "name": "",
          "type": "text"
        },
        {
          "content": "<font id=\"\" face=\"\">便知她这个当娘的放不下</font>",
          "id": "45425DC8-9316-486A-A2E5-8488D3B73E72",
          "name": "",
          "type": "text"
        },
        {
          "content": "<font id=\"\" face=\"\">他直接从地上站起</font>",
          "id": "681BE902-7BBC-48CD-87CD-6F9642273F49",
          "name": "",
          "type": "text"
        },
        {
          "content": "<font id=\"\" face=\"\">喊道</font>",
          "id": "88949CD1-00B1-4811-B434-F4352CF17C42",
          "name": "",
          "type": "text"
        },
        {
          "content": "<font id=\"\" face=\"\">我不同意</font>",
          "id": "604B3283-67FA-4737-93C6-849256AB063C",
          "name": "",
          "type": "text"
        },
        {
          "content": "<font id=\"\" face=\"\">老幺是我孙家的种</font>",
          "id": "56416DEC-4822-4A35-BF6E-DC6524F7B3DF",
          "name": "",
          "type": "text"
        },
        {
          "content": "<font id=\"\" face=\"\">凭啥和我孙家不相干</font>",
          "id": "84E5EEBE-6CDA-4D8E-AD90-333D54DC8610",
          "name": "",
          "type": "text"
        },
        {
          "content": "<font id=\"\" face=\"\">只要孙小丫还在孙家</font>",
          "id": "7A494796-CDD3-4CB7-82C1-25AA150291D2",
          "name": "",
          "type": "text"
        },
        {
          "content": "<font id=\"\" face=\"\">柯慕青只要还认这个女儿</font>",
          "id": "F035E9D4-DD03-424E-BFAA-8CBAEF6D1CF7",
          "name": "",
          "type": "text"
        },
        {
          "content": "<font id=\"\" face=\"\">就得给孙家好处</font>",
          "id": "D3771540-3083-4C5A-A313-496E022D09A1",
          "name": "",
          "type": "text"
        },
        {
          "content": "<font id=\"\" face=\"\">杨里正为难了孩子是孙家的</font>",
          "id": "E3F8759B-3CDD-4C53-8A72-8EE1414ABE25",
          "name": "",
          "type": "text"
        },
        {
          "content": "<font id=\"\" face=\"\">孙老大不同意</font>",
          "id": "7EB03C99-B8CE-461E-ADB9-229C8F5B90E6",
          "name": "",
          "type": "text"
        },
        {
          "content": "<font id=\"\" face=\"\">他也没法写可一想到孙家那贪心样</font>",
          "id": "196FBAFA-7905-48B7-B248-09D3D7035868",
          "name": "",
          "type": "text"
        },
        {
          "content": "<font id=\"\" face=\"\">要让孙小丫留在孙家</font>",
          "id": "E6B2F7A6-30D6-44D2-879F-76E4B40A16BF",
          "name": "",
          "type": "text"
        },
        {
          "content": "<font id=\"\" face=\"\">他们肯定会借着孩子继续贴上柯慕青</font>",
          "id": "3E9B57DE-CA0A-44DA-919D-5063A7EC284D",
          "name": "",
          "type": "text"
        },
        {
          "content": "<font id=\"\" face=\"\">杨里正心里嘀咕</font>",
          "id": "F2DE60D4-3A47-4883-A66A-3377C2CED4B2",
          "name": "",
          "type": "text"
        },
        {
          "content": "<font id=\"\" face=\"\">往日没见柯慕青多疼这女儿</font>",
          "id": "C6BFB060-22CF-454A-AC49-CE0F089294EC",
          "name": "",
          "type": "text"
        },
        {
          "content": "<font id=\"\" face=\"\">没想到关键时候还记得带走</font>",
          "id": "F5C8869E-B1C7-4136-BF3B-C573911ADA5C",
          "name": "",
          "type": "text"
        },
        {
          "content": "<font id=\"\" face=\"\">看来自己也看走眼了</font>",
          "id": "70ACA604-5B0E-4D4C-BA38-ADFA3B7DD525",
          "name": "",
          "type": "text"
        },
        {
          "content": "<font id=\"\" face=\"\">这人并非一无是处</font>",
          "id": "831E9905-84F3-4A12-BB4F-C0D730BEE8D0",
          "name": "",
          "type": "text"
        },
        {
          "content": "<font id=\"\" face=\"\">杨文孝一见僵持</font>",
          "id": "67C57F3C-954E-47DF-840B-258D0648909E",
          "name": "",
          "type": "text"
        },
        {
          "content": "<font id=\"\" face=\"\">小声劝道</font>",
          "id": "716D036C-4910-4FAC-B386-571471317C55",
          "name": "",
          "type": "text"
        },
        {
          "content": "<font id=\"\" face=\"\">娘</font>",
          "id": "E416AAC2-6BBC-42E4-94E6-60BA6A404628",
          "name": "",
          "type": "text"
        },
        {
          "content": "<font id=\"\" face=\"\">一个丫头片子</font>",
          "id": "A470AE48-8D53-45AD-A83B-FE820960CFA3",
          "name": "",
          "type": "text"
        },
        {
          "content": "<font id=\"\" face=\"\">孙家要就给他们小丫本就姓孙</font>",
          "id": "5933AADE-69AE-4490-B62E-8A6A9EE2DE72",
          "name": "",
          "type": "text"
        },
        {
          "content": "<font id=\"\" face=\"\">再说你也不缺女儿</font>",
          "id": "732C0C3F-D421-452B-8D77-FDB56858E0FB",
          "name": "",
          "type": "text"
        },
        {
          "content": "<font id=\"\" face=\"\">上头还有二姐三姐和五姐</font>",
          "id": "DCFF65A8-84DA-4DA3-ADD6-3DA96C4EE503",
          "name": "",
          "type": "text"
        },
        {
          "content": "<font id=\"\" face=\"\">你就当没生过她得了</font>",
          "id": "F82B852A-7F83-4EE1-8603-50041819DD79",
          "name": "",
          "type": "text"
        },
        {
          "content": "<font id=\"\" face=\"\">杨文孝一说完</font>",
          "id": "3AD3ADDE-EE44-48E3-9193-233355E47426",
          "name": "",
          "type": "text"
        },
        {
          "content": "<font id=\"\" face=\"\">就发现众人</font>",
          "id": "96C5983F-2345-4F8B-B98B-F056FF2F579D",
          "name": "",
          "type": "text"
        },
        {
          "content": "<font id=\"\" face=\"\">尤其外祖父和大舅</font>",
          "id": "243C87CB-0626-4DDC-9D90-201A5E9B899A",
          "name": "",
          "type": "text"
        },
        {
          "content": "<font id=\"\" face=\"\">都用异样的眼神看他他撇撇嘴嘀咕</font>",
          "id": "2F8F530A-CC5E-48FF-89D0-B05FEB2FD7A6",
          "name": "",
          "type": "text"
        },
        {
          "content": "<font id=\"\" face=\"\">我又没说错</font>",
          "id": "3D95CFF2-AA93-42EA-9545-BC60701F3EBA",
          "name": "",
          "type": "text"
        },
        {
          "content": "<font id=\"\" face=\"\">一个丫头片子罢了</font>",
          "id": "0EF34054-0C8A-4D67-8D63-13EC31CB5E63",
          "name": "",
          "type": "text"
        },
        {
          "content": "<font id=\"\" face=\"\">家里又不是没有</font>",
          "id": "56F8AACA-FB0C-43E4-B994-6CB97D4CF766",
          "name": "",
          "type": "text"
        },
        {
          "content": "<font id=\"\" face=\"\">孙老大怕柯慕青被说动</font>",
          "id": "135DFD97-77A4-4A63-A83A-0EE54E174422",
          "name": "",
          "type": "text"
        },
        {
          "content": "<font id=\"\" face=\"\">连忙喊道</font>",
          "id": "8B884249-0797-44FF-9C30-567052ED4B13",
          "name": "",
          "type": "text"
        },
        {
          "content": "<font id=\"\" face=\"\">柯慕青</font>",
          "id": "10D892FD-612D-4C65-8CAC-6CCA7ED70B06",
          "name": "",
          "type": "text"
        },
        {
          "content": "<font id=\"\" face=\"\">那可是你生的</font>",
          "id": "2DD500E0-A312-45D4-9D9D-34202E9DF424",
          "name": "",
          "type": "text"
        },
        {
          "content": "<font id=\"\" face=\"\">你身上掉下来的一块肉</font>",
          "id": "D131FCB4-6BD1-41BF-B9E6-32FE19AE2C75",
          "name": "",
          "type": "text"
        },
        {
          "content": "<font id=\"\" face=\"\">他威胁道</font>",
          "id": "0AEAADA9-7ECD-441A-AAA0-87583DB2ECBE",
          "name": "",
          "type": "text"
        },
        {
          "content": "<font id=\"\" face=\"\">你要和我和离</font>",
          "id": "D0345E68-C659-415D-BBB5-B4165E42915F",
          "name": "",
          "type": "text"
        },
        {
          "content": "<font id=\"\" face=\"\">我就让人把那丫头卖去青楼</font>",
          "id": "EB2E2A81-C347-4393-A5AC-9C2D49232DE3",
          "name": "",
          "type": "text"
        },
        {
          "content": "<font id=\"\" face=\"\">要么就送给村里傻子当媳妇儿</font>",
          "id": "1E56B12B-E1AC-4088-AE19-3615DF05E0F0",
          "name": "",
          "type": "text"
        },
        {
          "content": "<font id=\"\" face=\"\">你简直不配为人父</font>",
          "id": "A084486D-E9DF-46C7-88D0-71F4ED3E6C0B",
          "name": "",
          "type": "text"
        },
        {
          "content": "<font id=\"\" face=\"\">柯焕章怒骂</font>",
          "id": "AE1682E5-D357-4926-AA40-AC28CF0D424B",
          "name": "",
          "type": "text"
        },
        {
          "content": "<font id=\"\" face=\"\">那也是你亲女儿</font>",
          "id": "8AA4B41C-5C71-4722-B65C-08A02C6B713C",
          "name": "",
          "type": "text"
        },
        {
          "content": "<font id=\"\" face=\"\">清清白白一个姑娘</font>",
          "id": "CBFEA3F7-DCD5-4268-99BA-84F580B552AF",
          "name": "",
          "type": "text"
        },
        {
          "content": "<font id=\"\" face=\"\">你听听你说的是人话吗</font>",
          "id": "EDBDC4E0-3CD4-4EBC-BBED-960CC92B46DE",
          "name": "",
          "type": "text"
        },
        {
          "content": "<font id=\"\" face=\"\">老子这个爹都要去蹲大狱了</font>",
          "id": "535656C0-1925-417F-AFBB-6E00D4C230D9",
          "name": "",
          "type": "text"
        },
        {
          "content": "<font id=\"\" face=\"\">谁还管一个七岁的贱丫头</font>",
          "id": "56828D97-B293-4A65-9872-77C1C399D78B",
          "name": "",
          "type": "text"
        },
        {
          "content": "<font id=\"\" face=\"\">她一个哥哥</font>",
          "id": "5463C954-C0D4-460E-8D69-E636713D46D0",
          "name": "",
          "type": "text"
        },
        {
          "content": "<font id=\"\" face=\"\">一个侄子</font>",
          "id": "413E1330-CCCA-4569-A6FA-C0F3F898E975",
          "name": "",
          "type": "text"
        },
        {
          "content": "<font id=\"\" face=\"\">都急着说亲</font>",
          "id": "497B7D01-6748-4C77-8A9F-6A4FBE655276",
          "name": "",
          "type": "text"
        },
        {
          "content": "<font id=\"\" face=\"\">不卖她换点银子</font>",
          "id": "C37273EE-5769-44CB-AAB1-2CEA0A864874",
          "name": "",
          "type": "text"
        },
        {
          "content": "<font id=\"\" face=\"\">还浪费粮食养着她</font>",
          "id": "47E07EB1-E7AC-4DC6-B22F-B8790D20463E",
          "name": "",
          "type": "text"
        },
        {
          "content": "<font id=\"\" face=\"\">孙黑娃立刻附和</font>",
          "id": "ACECE183-5603-4206-9270-E00768B358B4",
          "name": "",
          "type": "text"
        },
        {
          "content": "<font id=\"\" face=\"\">对</font>",
          "id": "0A96F065-C4B9-4CAF-8DCE-86FBF8FCB969",
          "name": "",
          "type": "text"
        },
        {
          "content": "<font id=\"\" face=\"\">小妹要怪就怪她摊上一个</font>",
          "id": "AE54DB96-CCFD-41ED-8FBD-B7FA2D940BAC",
          "name": "",
          "type": "text"
        },
        {
          "content": "<font id=\"\" face=\"\">不顾她死活的亲娘</font>",
          "id": "80140AC6-2F5A-40D4-B9B6-E8318E2768C1",
          "name": "",
          "type": "text"
        },
        {
          "content": "<font id=\"\" face=\"\">柯慕青心里骂了句</font>",
          "id": "255E3175-CBE5-496D-9DE3-A36A015DBD0B",
          "name": "",
          "type": "text"
        },
        {
          "content": "<font id=\"\" face=\"\">钱难挣</font>",
          "id": "11C1BA7A-8F0A-4EF3-83BC-061A853FB433",
          "name": "",
          "type": "text"
        },
        {
          "content": "<font id=\"\" face=\"\">屎难吃</font>",
          "id": "9E6A0200-F513-41E3-8711-AE68642D85AA",
          "name": "",
          "type": "text"
        },
        {
          "content": "<font id=\"\" face=\"\">孙老大这样的男人原主都喜欢</font>",
          "id": "22BC3C3C-5D24-47F9-9363-2AD6B2B73149",
          "name": "",
          "type": "text"
        },
        {
          "content": "<font id=\"\" face=\"\">眼神和瞎了有什么区别</font>",
          "id": "F0B5FB1F-0FC2-4EB6-952A-649F6D770134",
          "name": "",
          "type": "text"
        },
        {
          "content": "<font id=\"\" face=\"\">以孙老大的性子</font>",
          "id": "32D4FBC3-AEA7-40F1-B7E4-89D61E4EE17D",
          "name": "",
          "type": "text"
        },
        {
          "content": "<font id=\"\" face=\"\">他说得出就做得出卖女儿</font>",
          "id": "5FBC4D2E-998F-4DD3-B212-941D49ABF167",
          "name": "",
          "type": "text"
        },
        {
          "content": "<font id=\"\" face=\"\">这事不过是名声难听</font>",
          "id": "75887366-D6BC-4861-A4A0-468DF9C6D079",
          "name": "",
          "type": "text"
        },
        {
          "content": "<font id=\"\" face=\"\">他脸皮厚</font>",
          "id": "7F43E49C-9410-4878-B20D-F00D797AB12A",
          "name": "",
          "type": "text"
        },
        {
          "content": "<font id=\"\" face=\"\">根本不怕</font>",
          "id": "DE9CD64F-C113-47CE-8C9C-E267E99348E3",
          "name": "",
          "type": "text"
        },
        {
          "content": "<font id=\"\" face=\"\">给原主报仇固然好</font>",
          "id": "1FAD9061-0706-4474-AA83-E3774B2E49A5",
          "name": "",
          "type": "text"
        },
        {
          "content": "<font id=\"\" face=\"\">但眼下确实被孙小丫的事困住了</font>",
          "id": "7057E33A-595F-4983-8086-54338DAB5079",
          "name": "",
          "type": "text"
        },
        {
          "content": "<font id=\"\" face=\"\">老幺归我</font>",
          "id": "CDB9E648-4D53-4837-8B4F-7AB00C4AF0F7",
          "name": "",
          "type": "text"
        },
        {
          "content": "<font id=\"\" face=\"\">你写断绝书</font>",
          "id": "D6D5ED36-4246-4EBE-9B29-AF41E19E00A1",
          "name": "",
          "type": "text"
        },
        {
          "content": "<font id=\"\" face=\"\">以后她和你孙家再无半点关系</font>",
          "id": "C093F74D-D3BD-4FD5-88D4-D4F775AF68DA",
          "name": "",
          "type": "text"
        },
        {
          "content": "<font id=\"\" face=\"\">老幺跟我姓今后你孙家所有人</font>",
          "id": "B85AE6C4-4E06-41BE-9C22-2C05147E4FFF",
          "name": "",
          "type": "text"
        },
        {
          "content": "<font id=\"\" face=\"\">不许再找她</font>",
          "id": "76984201-2FE7-4B5B-A1E3-BC82EEA5C5D4",
          "name": "",
          "type": "text"
        },
        {
          "content": "<font id=\"\" face=\"\">更不许再以亲人名义接近她</font>",
          "id": "81C7F801-2896-4300-BCB5-BD590240549B",
          "name": "",
          "type": "text"
        },
        {
          "content": "<font id=\"\" face=\"\">柯慕青话未说完</font>",
          "id": "B7FFAD58-4743-467F-B54D-A57315C7B2F7",
          "name": "",
          "type": "text"
        },
        {
          "content": "<font id=\"\" face=\"\">孙老大呸了声</font>",
          "id": "E0920F40-5102-4FF9-95C0-8D631EADCD11",
          "name": "",
          "type": "text"
        },
        {
          "content": "<font id=\"\" face=\"\">做梦</font>",
          "id": "E5E6178A-37F4-4D53-83C6-AE65A84102FE",
          "name": "",
          "type": "text"
        },
        {
          "content": "<font id=\"\" face=\"\">柯慕青眼皮一抬</font>",
          "id": "CBABC296-D14D-46BF-BC84-59DF7D5DD3C4",
          "name": "",
          "type": "text"
        },
        {
          "content": "<font id=\"\" face=\"\">呵道</font>",
          "id": "6D519944-AA18-42F7-91DC-7224058870D8",
          "name": "",
          "type": "text"
        },
        {
          "content": "<font id=\"\" face=\"\">条件是我不报官</font>",
          "id": "9CFDBB88-CD10-4037-9ABE-E17AC2E21B1D",
          "name": "",
          "type": "text"
        },
        {
          "content": "<font id=\"\" face=\"\">你们不用坐牢</font>",
          "id": "5844BBED-F95E-4758-9FF0-18CE4D73D422",
          "name": "",
          "type": "text"
        },
        {
          "content": "<font id=\"\" face=\"\">这笔交易你们做不做</font>",
          "id": "6142153A-44BD-4010-BA1F-9EC49DB8508B",
          "name": "",
          "type": "text"
        },
        {
          "content": "<font id=\"\" face=\"\">孙老大顿时像被扼住喉咙的鸭子</font>",
          "id": "F076CC90-CC51-408C-A3EA-FA1773DA85F1",
          "name": "",
          "type": "text"
        },
        {
          "content": "<font id=\"\" face=\"\">张着嘴发不出声他心动了</font>",
          "id": "0185D34D-D95D-4723-A2EA-07CED25A7EE8",
          "name": "",
          "type": "text"
        },
        {
          "content": "<font id=\"\" face=\"\">孙黑娃和孙全有也心动了一个</font>",
          "id": "33660831-DCDC-47F5-8B0C-E4CD5D2ADEBB",
          "name": "",
          "type": "text"
        },
        {
          "content": "<font id=\"\" face=\"\">孙小丫在他们心里毫无分量</font>",
          "id": "824DBBDB-3E03-4B5F-A895-5A08756F22E2",
          "name": "",
          "type": "text"
        },
        {
          "content": "<font id=\"\" face=\"\">能换他们不坐牢</font>",
          "id": "97FAC059-E865-4F4A-A237-5C24D4A2AD85",
          "name": "",
          "type": "text"
        },
        {
          "content": "<font id=\"\" face=\"\">简直太划算了</font>",
          "id": "103C886C-B0CD-45DD-A9C7-5DB36999A721",
          "name": "",
          "type": "text"
        },
        {
          "content": "<font id=\"\" face=\"\">老大家的儿子和孙全有都在说亲</font>",
          "id": "7842B29F-9409-4190-8498-E6AA10711626",
          "name": "",
          "type": "text"
        },
        {
          "content": "<font id=\"\" face=\"\">这节骨眼上</font>",
          "id": "83FCCFC7-AA61-44B9-ACFA-490BB8DE1F48",
          "name": "",
          "type": "text"
        },
        {
          "content": "<font id=\"\" face=\"\">阿翁和爹坐牢</font>",
          "id": "FDEC99D6-56FE-4C90-9103-689E2645A2D9",
          "name": "",
          "type": "text"
        },
        {
          "content": "<font id=\"\" face=\"\">或爹和叔父坐牢</font>",
          "id": "405681EC-4AB4-46E7-9502-2F29A14F1AAE",
          "name": "",
          "type": "text"
        },
        {
          "content": "<font id=\"\" face=\"\">傻子听了都得跑柯慕青看向</font>",
          "id": "DA940416-6F7A-41D7-844F-BEEC90FAF816",
          "name": "",
          "type": "text"
        },
        {
          "content": "<font id=\"\" face=\"\">孙全有那张奸猴儿脸</font>",
          "id": "75B7579F-D675-46E4-9F5C-3D2A1CA32A5F",
          "name": "",
          "type": "text"
        },
        {
          "content": "<font id=\"\" face=\"\">你还急着当爹吧</font>",
          "id": "15F0772E-946D-4B7F-A4E0-1B3D6B6635EB",
          "name": "",
          "type": "text"
        },
        {
          "content": "<font id=\"\" face=\"\">这一坐牢</font>",
          "id": "99EE4D8B-F14E-4662-B65F-C00904B2D673",
          "name": "",
          "type": "text"
        },
        {
          "content": "<font id=\"\" face=\"\">媳妇儿孩子还留不留得住</font>",
          "id": "D7311FD0-8DEB-4EBE-A7D7-270E25547C1F",
          "name": "",
          "type": "text"
        },
        {
          "content": "<font id=\"\" face=\"\">柯慕青从原主记忆里得知</font>",
          "id": "8DEF941A-8298-449E-8D2D-35E7A8D3D546",
          "name": "",
          "type": "text"
        },
        {
          "content": "<font id=\"\" face=\"\">孙全有已把人家姑娘肚子搞大</font>",
          "id": "30A07E40-4BE0-47D2-9908-9EBD92D11760",
          "name": "",
          "type": "text"
        },
        {
          "content": "<font id=\"\" face=\"\">对方怀有两个月身孕女方</font>",
          "id": "1107314E-7404-46ED-A9AF-38A440FE5EC4",
          "name": "",
          "type": "text"
        },
        {
          "content": "<font id=\"\" face=\"\">家就拿这事要挟他</font>",
          "id": "97F8C9BC-EFB1-4248-B4DE-961F9E7C95F1",
          "name": "",
          "type": "text"
        },
        {
          "content": "<font id=\"\" face=\"\">开了天价彩礼</font>",
          "id": "E06C6E79-F947-4F13-A758-D7105E6A7DD3",
          "name": "",
          "type": "text"
        },
        {
          "content": "<font id=\"\" face=\"\">还要孙家送个女孩过去给傻儿子当媳妇儿</font>",
          "id": "EA8A9853-F855-417C-B999-468934C828F6",
          "name": "",
          "type": "text"
        },
        {
          "content": "<font id=\"\" face=\"\">孙全有屁都不敢放</font>",
          "id": "56D53D50-BE8D-4635-978D-B05CC83B0935",
          "name": "",
          "type": "text"
        },
        {
          "content": "<font id=\"\" face=\"\">果不其然</font>",
          "id": "690D62BB-1797-4FC6-88B0-F320A462A882",
          "name": "",
          "type": "text"
        },
        {
          "content": "<font id=\"\" face=\"\">孙全有立刻劝说孙老大</font>",
          "id": "20A475DF-1F0D-4069-B002-38696662B5EC",
          "name": "",
          "type": "text"
        },
        {
          "content": "<font id=\"\" face=\"\">爹</font>",
          "id": "C8DF55A9-61A4-478D-B326-B612DD9B209E",
          "name": "",
          "type": "text"
        },
        {
          "content": "<font id=\"\" face=\"\">听她的</font>",
          "id": "B5CE3C90-0D54-4AD7-A161-1CC9635079E6",
          "name": "",
          "type": "text"
        },
        {
          "content": "<font id=\"\" face=\"\">一个丫头片子也就值这份上了</font>",
          "id": "028185E7-9D0D-4B3D-BAB8-8A18657FE7ED",
          "name": "",
          "type": "text"
        },
        {
          "content": "<font id=\"\" face=\"\">孙黑娃也不想坐牢</font>",
          "id": "9832322C-9FF8-4756-8421-A00104EC312D",
          "name": "",
          "type": "text"
        },
        {
          "content": "<font id=\"\" face=\"\">跟着劝</font>",
          "id": "716DA99D-B473-4AE6-BF53-CC6E172FABE8",
          "name": "",
          "type": "text"
        },
        {
          "content": "<font id=\"\" face=\"\">爹</font>",
          "id": "E4B5FE43-9BA5-40D0-AB04-EC97BA1C4018",
          "name": "",
          "type": "text"
        },
        {
          "content": "<font id=\"\" face=\"\">这女人平日也不见多喜欢老幺</font>",
          "id": "95F56C4A-BA0E-44D5-B3FD-0F7033A950D2",
          "name": "",
          "type": "text"
        },
        {
          "content": "<font id=\"\" face=\"\">这会儿不答应</font>",
          "id": "269929AC-2BF8-4670-AA48-E8D37D2BCFBC",
          "name": "",
          "type": "text"
        },
        {
          "content": "<font id=\"\" face=\"\">一会儿她后悔不要老幺了</font>",
          "id": "65E43840-5058-488A-BEC0-A46DF37CCA0C",
          "name": "",
          "type": "text"
        },
        {
          "content": "<font id=\"\" face=\"\">我们可都得坐牢啊</font>",
          "id": "527C1237-E218-4F64-893F-4ABBD14ACA76",
          "name": "",
          "type": "text"
        },
        {
          "content": "<font id=\"\" face=\"\">杨家别的孩子已闻讯从地里赶回</font>",
          "id": "79432AE0-7501-40F2-BDD8-C2C393496673",
          "name": "",
          "type": "text"
        },
        {
          "content": "<font id=\"\" face=\"\">那个被孙家众人留在地里的孙小丫</font>",
          "id": "1CAF37F9-F600-44E6-9F6F-DBCD69E7867F",
          "name": "",
          "type": "text"
        },
        {
          "content": "<font id=\"\" face=\"\">也跟着回来了一群人都没想到</font>",
          "id": "85E1738E-C117-4D70-BCAC-FBEA3E0BD99C",
          "name": "",
          "type": "text"
        },
        {
          "content": "<font id=\"\" face=\"\">刚回家就听到这些</font>",
          "id": "EFB424F5-EAC9-4947-8F21-99E05ECE5CB2",
          "name": "",
          "type": "text"
        },
        {
          "content": "<font id=\"\" face=\"\">孙小丫站在人群最后</font>",
          "id": "B7027E8F-3112-4D95-931F-7711A72C27E0",
          "name": "",
          "type": "text"
        },
        {
          "content": "<font id=\"\" face=\"\">两手拢在袖里</font>",
          "id": "C7192D7A-C604-43CB-AA16-5A35EA317B16",
          "name": "",
          "type": "text"
        },
        {
          "content": "<font id=\"\" face=\"\">仿佛没有痛觉般</font>",
          "id": "EEB77884-4FA1-4F7F-A488-7EC1BE5F1B7B",
          "name": "",
          "type": "text"
        },
        {
          "content": "<font id=\"\" face=\"\">指甲用力掐着掌心</font>",
          "id": "B71BDA49-DBEC-477C-80B5-15A09BBF78EC",
          "name": "",
          "type": "text"
        },
        {
          "content": "<font id=\"\" face=\"\">和她一样紧张的是孙黑娃的女儿孙大</font>",
          "id": "A344A957-4217-48AA-82AB-3AE09B061399",
          "name": "",
          "type": "text"
        },
        {
          "content": "<font id=\"\" face=\"\">丫孙全有说亲人家要换亲的事她知道</font>",
          "id": "3BDEE72B-A035-4935-91F6-960D55D9674F",
          "name": "",
          "type": "text"
        },
        {
          "content": "<font id=\"\" face=\"\">杨家和孙家差不多年岁的女孩就三个</font>",
          "id": "63806ED7-E573-4B00-86D0-8042F65FB823",
          "name": "",
          "type": "text"
        },
        {
          "content": "<font id=\"\" face=\"\">她</font>",
          "id": "D5BE7B45-ED9F-408D-A08C-C92330AA8AE9",
          "name": "",
          "type": "text"
        },
        {
          "content": "<font id=\"\" face=\"\">姑姑孙小丫</font>",
          "id": "6E01A119-2CA0-4E33-A8B4-384F3F967DC0",
          "name": "",
          "type": "text"
        },
        {
          "content": "<font id=\"\" face=\"\">还有杨继业的女儿杨双双</font>",
          "id": "00EE2191-17EC-4D74-A2DF-FC470678C345",
          "name": "",
          "type": "text"
        },
        {
          "content": "<font id=\"\" face=\"\">孙大丫心里清楚</font>",
          "id": "482E490C-CF00-41E5-AD7A-C9D4470903E1",
          "name": "",
          "type": "text"
        },
        {
          "content": "<font id=\"\" face=\"\">杨双双是杨家人</font>",
          "id": "227D3147-FFB0-4A0D-9491-7AEB456BFFFC",
          "name": "",
          "type": "text"
        },
        {
          "content": "<font id=\"\" face=\"\">她爹绝不会同意为了个半路来的弟弟</font>",
          "id": "E535B493-8FE0-4225-A365-23C5575AC886",
          "name": "",
          "type": "text"
        },
        {
          "content": "<font id=\"\" face=\"\">把女儿送出去所以人选只有她和小丫</font>",
          "id": "B0CA8210-9A30-4880-B996-875F98FE26F4",
          "name": "",
          "type": "text"
        },
        {
          "content": "<font id=\"\" face=\"\">姑姑若是小丫姑姑还留在孙家</font>",
          "id": "EBD240E7-522E-4B20-A30C-C87186D6560E",
          "name": "",
          "type": "text"
        },
        {
          "content": "<font id=\"\" face=\"\">被送去给傻子当媳妇儿的肯定是小丫</font>",
          "id": "92814F5A-54F1-432C-ACCD-549DFDAC7BA1",
          "name": "",
          "type": "text"
        },
        {
          "content": "<font id=\"\" face=\"\">姑姑可一旦小丫姑姑去了杨家</font>",
          "id": "20B537BC-E44A-4101-B0CE-6DBDD7B4CE44",
          "name": "",
          "type": "text"
        },
        {
          "content": "<font id=\"\" face=\"\">孙大丫扭头看向身侧还没她高的小丫姑姑</font>",
          "id": "E54C2499-2AB4-4B82-8FBF-5491F1FEB4B6",
          "name": "",
          "type": "text"
        },
        {
          "content": "<font id=\"\" face=\"\">伸手把人拽到墙根</font>",
          "id": "AB7B0EB5-F8CC-483B-B516-6C8725FA8E24",
          "name": "",
          "type": "text"
        },
        {
          "content": "<font id=\"\" face=\"\">她低声说</font>",
          "id": "DDD66D87-3551-4B61-909C-BB7B9D9F0B93",
          "name": "",
          "type": "text"
        },
        {
          "content": "<font id=\"\" face=\"\">小丫姑姑</font>",
          "id": "7802CEF3-F2DC-440A-BEED-BAA7CEFDCD77",
          "name": "",
          "type": "text"
        },
        {
          "content": "<font id=\"\" face=\"\">阿奶平日就不喜欢你</font>",
          "id": "37A77703-2A2A-413F-9D32-E17AEE99EBB1",
          "name": "",
          "type": "text"
        },
        {
          "content": "<font id=\"\" face=\"\">你要是跟着阿奶走</font>",
          "id": "539CE6CC-8233-48CF-9997-22D8D1EA5AAF",
          "name": "",
          "type": "text"
        },
        {
          "content": "<font id=\"\" face=\"\">人家一家姓杨</font>",
          "id": "3963FB2D-F748-4DAF-8ACA-BCDAD3E81142",
          "name": "",
          "type": "text"
        },
        {
          "content": "<font id=\"\" face=\"\">和你不是一条心</font>",
          "id": "F59474CE-632A-4256-82C9-9E29833BE462",
          "name": "",
          "type": "text"
        },
        {
          "content": "<font id=\"\" face=\"\">你肯定会被欺负要不然你和阿奶说一声</font>",
          "id": "349AE782-2A45-445D-81AB-DEC6760F5B84",
          "name": "",
          "type": "text"
        },
        {
          "content": "<font id=\"\" face=\"\">就说你想留在孙家</font>",
          "id": "690D9160-23E6-48A8-8D1A-BD4AA9B4E600",
          "name": "",
          "type": "text"
        },
        {
          "content": "<font id=\"\" face=\"\">见孙小丫抬头看她</font>",
          "id": "A755CCEB-F842-4FB6-87E1-05A4D4449BC2",
          "name": "",
          "type": "text"
        },
        {
          "content": "<font id=\"\" face=\"\">眼神平静</font>",
          "id": "1864FEDD-CD2D-4107-8C09-4FCC985056BA",
          "name": "",
          "type": "text"
        },
        {
          "content": "<font id=\"\" face=\"\">孙大丫只当七岁孩子听不懂</font>",
          "id": "5389B1ED-B1F3-49C0-AFCA-FD1AA7B236D7",
          "name": "",
          "type": "text"
        },
        {
          "content": "<font id=\"\" face=\"\">便拍着胸口保证</font>",
          "id": "CE9C11AC-A2F6-428A-9DB3-3DEEA9C975C2",
          "name": "",
          "type": "text"
        },
        {
          "content": "<font id=\"\" face=\"\">你放心</font>",
          "id": "67F5404A-575A-497B-B0C2-F99DB3E2CF7D",
          "name": "",
          "type": "text"
        },
        {
          "content": "<font id=\"\" face=\"\">以后我帮衬你</font>",
          "id": "49A155AE-912A-48DC-AFFF-24A84A0F970B",
          "name": "",
          "type": "text"
        },
        {
          "content": "<font id=\"\" face=\"\">家里的活我多干一些</font>",
          "id": "0EAE3C47-467F-455A-B4B4-B0B29F75957B",
          "name": "",
          "type": "text"
        },
        {
          "content": "<font id=\"\" face=\"\">孙小丫只是看着她</font>",
          "id": "65055FA2-3AA9-43BB-856A-ACBA6AE4B93F",
          "name": "",
          "type": "text"
        },
        {
          "content": "<font id=\"\" face=\"\">嘴巴紧闭</font>",
          "id": "9AD1D264-BB2C-4631-A235-AC0B1A038592",
          "name": "",
          "type": "text"
        },
        {
          "content": "<font id=\"\" face=\"\">藏在袖子里的指甲却更用力地抠着掌心</font>",
          "id": "004E9E9C-8A7C-4252-AA48-7B20C8D26677",
          "name": "",
          "type": "text"
        },
        {
          "content": "<font id=\"\" face=\"\">孙大丫等了半天不见她说话</font>",
          "id": "C91A339D-8695-4045-BDD8-5B0B6C80E9F7",
          "name": "",
          "type": "text"
        },
        {
          "content": "<font id=\"\" face=\"\">气得只能干跺脚</font>",
          "id": "A2D8F4F6-FB71-448A-8AD0-3A72A1F37D17",
          "name": "",
          "type": "text"
        },
        {
          "content": "<font id=\"\" face=\"\">而另一边</font>",
          "id": "C87CE1E9-F84F-4CF0-8D8D-0AE9472361F8",
          "name": "",
          "type": "text"
        },
        {
          "content": "<font id=\"\" face=\"\">除了孙黑娃一家面带焦急</font>",
          "id": "11B5C6AB-5835-4C1A-9304-D76A1FE7A18C",
          "name": "",
          "type": "text"
        },
        {
          "content": "<font id=\"\" face=\"\">孙家剩余几人都作壁上观</font>",
          "id": "F158B6E1-7CEE-4634-90DF-AF351508F8BC",
          "name": "",
          "type": "text"
        },
        {
          "content": "<font id=\"\" face=\"\">和凑热闹的邻居一样</font>",
          "id": "3CDB8EB4-89EF-44B9-AB85-5AF5AFE25320",
          "name": "",
          "type": "text"
        },
        {
          "content": "<font id=\"\" face=\"\">无人吱声反正人不是他们杀的</font>",
          "id": "C6F84D1F-609E-4CE5-8895-4F23888FE0F5",
          "name": "",
          "type": "text"
        },
        {
          "content": "<font id=\"\" face=\"\">坐牢的也不是他们柯慕青带</font>",
          "id": "0DEB33BB-75B9-45D6-88B4-D17E4167B3CA",
          "name": "",
          "type": "text"
        },
        {
          "content": "<font id=\"\" face=\"\">不带走老幺和他们关系不大</font>",
          "id": "FCF9FD8D-37BB-4738-896A-B70379892389",
          "name": "",
          "type": "text"
        },
        {
          "content": "<font id=\"\" face=\"\">就算孙小丫留下被卖了</font>",
          "id": "3B612A43-5765-43D6-B6C3-50E383A25005",
          "name": "",
          "type": "text"
        },
        {
          "content": "<font id=\"\" face=\"\">好处也落不到他们手里</font>",
          "id": "0C40F32C-D638-452D-AC9A-C9C1AC0BD191",
          "name": "",
          "type": "text"
        },
        {
          "content": "<font id=\"\" face=\"\">至于杨家一群大大小小的</font>",
          "id": "90071B90-A1EB-4B26-A552-DFF3130C84D2",
          "name": "",
          "type": "text"
        },
        {
          "content": "<font id=\"\" face=\"\">知道柯慕青要和离</font>",
          "id": "48CFCF00-9648-4CD1-9B35-A0A0DA7370F7",
          "name": "",
          "type": "text"
        },
        {
          "content": "<font id=\"\" face=\"\">恨不得拍手叫好</font>",
          "id": "2E2ABF4C-0B5F-40C4-8476-99278FD88CE8",
          "name": "",
          "type": "text"
        },
        {
          "content": "<font id=\"\" face=\"\">哪里会拦一个丫头</font>",
          "id": "4F099BD7-CA01-4B09-BAFA-A6A35E929393",
          "name": "",
          "type": "text"
        },
        {
          "content": "<font id=\"\" face=\"\">多费几口粮食</font>",
          "id": "571ED1EC-937D-42F7-9988-2B44C5C2C99B",
          "name": "",
          "type": "text"
        },
        {
          "content": "<font id=\"\" face=\"\">养着还能干活</font>",
          "id": "2FD7EA00-A0BC-4F96-AC86-9FCAD5569C56",
          "name": "",
          "type": "text"
        },
        {
          "content": "<font id=\"\" face=\"\">也碍不了什么事再说了</font>",
          "id": "F3666EB1-64F0-497C-A305-E2E1A9E968C9",
          "name": "",
          "type": "text"
        },
        {
          "content": "<font id=\"\" face=\"\">这事也轮不到他们这些儿孙参与</font>",
          "id": "24BED43C-88DC-4B3D-9DC8-FC9767AE1348",
          "name": "",
          "type": "text"
        },
        {
          "content": "<font id=\"\" face=\"\">他们娘可不是好商量的人</font>",
          "id": "8AA36A49-6344-496C-A7D9-261F881137DB",
          "name": "",
          "type": "text"
        },
        {
          "content": "<font id=\"\" face=\"\">孙家和杨家一众</font>",
          "id": "BCF6A744-1C4B-419B-A383-923D3B52E053",
          "name": "",
          "type": "text"
        },
        {
          "content": "<font id=\"\" face=\"\">加起来将近二十人</font>",
          "id": "9B1BE8DE-63E3-4EFB-8B34-25075FA715EE",
          "name": "",
          "type": "text"
        },
        {
          "content": "<font id=\"\" face=\"\">各有算盘</font>",
          "id": "782BBBD8-4245-45AD-9FD6-219D931110E3",
          "name": "",
          "type": "text"
        },
        {
          "content": "<font id=\"\" face=\"\">都觉得开口不划算</font>",
          "id": "3CC61661-0A3E-460B-B6C3-91FAAC75490F",
          "name": "",
          "type": "text"
        },
        {
          "content": "<font id=\"\" face=\"\">便都站得远远的</font>",
          "id": "CE1C1BAB-8F65-4F7F-911E-30CCA185A6FB",
          "name": "",
          "type": "text"
        },
        {
          "content": "<font id=\"\" face=\"\">孙老大被两个儿子劝动</font>",
          "id": "AB27C8A8-7B20-40C4-B713-FC1373D24D1C",
          "name": "",
          "type": "text"
        },
        {
          "content": "<font id=\"\" face=\"\">但他也不是傻子要是我签了断绝书你反悔</font>",
          "id": "5513B4E8-5016-4B6B-9F5B-2219BC562774",
          "name": "",
          "type": "text"
        },
        {
          "content": "<font id=\"\" face=\"\">回头又把我们告到县衙去怎么算</font>",
          "id": "2089A9A9-EC12-4B0E-AAF6-F902BF3BEE36",
          "name": "",
          "type": "text"
        },
        {
          "content": "<font id=\"\" face=\"\">孙老大仍不死心</font>",
          "id": "ACB96341-88FB-45E9-9D85-89244504B39D",
          "name": "",
          "type": "text"
        },
        {
          "content": "<font id=\"\" face=\"\">青儿</font>",
          "id": "240912B3-F035-499A-A2FD-1D72A6EF9309",
          "name": "",
          "type": "text"
        },
        {
          "content": "<font id=\"\" face=\"\">我们一个被窝睡了十几年</font>",
          "id": "78430C1A-47F4-41F5-A261-F8541C9F43F5",
          "name": "",
          "type": "text"
        },
        {
          "content": "<font id=\"\" face=\"\">你当真要这么绝情</font>",
          "id": "181821A5-1840-44A1-B422-22B61AB6B877",
          "name": "",
          "type": "text"
        },
        {
          "content": "<font id=\"\" face=\"\">当真要和离</font>",
          "id": "0B922D84-C459-4D21-BCA4-E47BE116B69E",
          "name": "",
          "type": "text"
        },
        {
          "content": "<font id=\"\" face=\"\">我绝情</font>",
          "id": "7FAB1BD7-78EC-45CD-8452-EAEB78764494",
          "name": "",
          "type": "text"
        },
        {
          "content": "<font id=\"\" face=\"\">我都羞于把你们三父子刚才</font>",
          "id": "4E62D6CE-40C9-4358-9FB9-1B0EFD188499",
          "name": "",
          "type": "text"
        },
        {
          "content": "<font id=\"\" face=\"\">在门外商量的话说出来</font>",
          "id": "A9921E1E-3FF5-4A33-A1DF-1D4F1F147DCB",
          "name": "",
          "type": "text"
        },
        {
          "content": "<font id=\"\" face=\"\">我这回要真死了</font>",
          "id": "787120FA-F89F-4372-A4E0-4AF3E41FEA53",
          "name": "",
          "type": "text"
        },
        {
          "content": "<font id=\"\" face=\"\">连口棺材都混不上</font>",
          "id": "C909DA1D-F76D-4251-9068-5F4267AE7820",
          "name": "",
          "type": "text"
        },
        {
          "content": "<font id=\"\" face=\"\">就要被你们拿破草席卷了埋了</font>",
          "id": "567E7924-5A86-40FF-A741-83B4A9381075",
          "name": "",
          "type": "text"
        },
        {
          "content": "<font id=\"\" face=\"\">柯慕青道</font>",
          "id": "4F45F3F2-70AC-45EA-95EB-B2247D3E90BE",
          "name": "",
          "type": "text"
        },
        {
          "content": "<font id=\"\" face=\"\">白纸黑字</font>",
          "id": "82E2309A-F8B1-4543-8BE8-CA0C98CDF66B",
          "name": "",
          "type": "text"
        },
        {
          "content": "<font id=\"\" face=\"\">都写在纸上</font>",
          "id": "B2B0780E-0E49-40ED-8799-F681E785AA2A",
          "name": "",
          "type": "text"
        },
        {
          "content": "<font id=\"\" face=\"\">你怕我反悔</font>",
          "id": "098B9437-4186-47EA-A1D6-7056665519CC",
          "name": "",
          "type": "text"
        },
        {
          "content": "<font id=\"\" face=\"\">你当人人都像你孙家一样不要脸</font>",
          "id": "28C69931-314A-492A-B4B0-54E076A31361",
          "name": "",
          "type": "text"
        },
        {
          "content": "<font id=\"\" face=\"\">杨里正没想到还有这些事</font>",
          "id": "1E38D958-2A44-4CE2-A0C4-0F380D03DB8E",
          "name": "",
          "type": "text"
        },
        {
          "content": "<font id=\"\" face=\"\">难怪柯慕青今天这么决绝</font>",
          "id": "3C551841-E39B-4F47-B171-47521DA1F5CA",
          "name": "",
          "type": "text"
        },
        {
          "content": "<font id=\"\" face=\"\">行了</font>",
          "id": "E60FC05E-37F8-4D04-8022-CA5EC4F2AB8B",
          "name": "",
          "type": "text"
        },
        {
          "content": "<font id=\"\" face=\"\">就像继业她娘说的</font>",
          "id": "0D7E8F5B-4FF0-4FD0-90D6-715C6EC29DD4",
          "name": "",
          "type": "text"
        },
        {
          "content": "<font id=\"\" face=\"\">都写纸上</font>",
          "id": "E61DF586-080A-4008-B4CD-E028A19F28DA",
          "name": "",
          "type": "text"
        },
        {
          "content": "<font id=\"\" face=\"\">在村里找几个见证人杨里正说着就</font>",
          "id": "1FD35041-6474-4903-BD32-FB5E9A742EAC",
          "name": "",
          "type": "text"
        },
        {
          "content": "<font id=\"\" face=\"\">从人群里点了几个壮年和长者出来</font>",
          "id": "2A10CFB0-979B-4B2F-B352-EAF2537C4A53",
          "name": "",
          "type": "text"
        },
        {
          "content": "<font id=\"\" face=\"\">一纸和离书</font>",
          "id": "E6C48DE5-3D49-40A2-A844-9404C5EDC676",
          "name": "",
          "type": "text"
        },
        {
          "content": "<font id=\"\" face=\"\">一纸断亲书</font>",
          "id": "6748DE4C-5D11-4959-A4FB-00E0EBD9827A",
          "name": "",
          "type": "text"
        },
        {
          "content": "<font id=\"\" face=\"\">再有三个见证人</font>",
          "id": "F5324D42-DDD8-4C07-A2BD-76D03F190B5E",
          "name": "",
          "type": "text"
        },
        {
          "content": "<font id=\"\" face=\"\">你们都在上面摁上手印</font>",
          "id": "403D9963-C578-4A77-B05E-11333AD6E09F",
          "name": "",
          "type": "text"
        },
        {
          "content": "<font id=\"\" face=\"\">往后孙家是孙家</font>",
          "id": "A391D9CB-BFA2-45D1-89EE-18FA8B473B4E",
          "name": "",
          "type": "text"
        },
        {
          "content": "<font id=\"\" face=\"\">杨家是杨家</font>",
          "id": "D358117C-6A9C-4619-B66A-B1384FF10196",
          "name": "",
          "type": "text"
        },
        {
          "content": "<font id=\"\" face=\"\">往后小丫和孙家也无半点干系</font>",
          "id": "0C785199-4CC0-4117-B0CD-860E873ABBA4",
          "name": "",
          "type": "text"
        }
      ],
      "masks": [],
      "stickers": [],
      "transitions": [],
      "effects": [],
      "filters": [],
      "beats": [],
      "reverses": []
    },
    "tracks": [
      {
        "id": "FF886C75-B9C8-4470-94DA-ABE32C2803DD",
        "type": "video",
        "segments": [
          {
            "id": "03E2F933-6F3E-45A2-B50B-D95200F7C624",
            "material_id": "27A78478-8B6E-4861-9223-0AE6BE46C62B",
            "render_index": 0,
            "volume": 1.0,
            "target_timerange": {
              "start": 0,
              "duration": 2368000
            },
            "source_timerange": {
              "start": 0,
              "duration": 0
            },
            "clip": {
              "alpha": 1.0,
              "rotation": 0.0,
              "scale": {
                "x": 1.33,
                "y": 1.33
              },
              "transform": {
                "x": 0.0,
                "y": 0.0
              }
            }
          },
          {
            "id": "793EABB4-12FF-472B-94C0-E6B823950A36",
            "material_id": "641D9B85-D935-423F-BA8C-6C4024D39DDE",
            "render_index": 0,
            "volume": 1.0,
            "target_timerange": {
              "start": 2368000,
              "duration": 2858000
            },
            "source_timerange": {
              "start": 0,
              "duration": 0
            },
            "clip": {
              "alpha": 1.0,
              "rotation": 0.0,
              "scale": {
                "x": 1.33,
                "y": 1.33
              },
              "transform": {
                "x": 0.0,
                "y": 0.0
              }
            }
          },
          {
            "id": "E7062523-222A-4A04-884C-FF4620B31AAB",
            "material_id": "F43950ED-5349-49F7-95C8-BFCE6E42EE11",
            "render_index": 0,
            "volume": 1.0,
            "target_timerange": {
              "start": 5226000,
              "duration": 2539000
            },
            "source_timerange": {
              "start": 0,
              "duration": 0
            },
            "clip": {
              "alpha": 1.0,
              "rotation": 0.0,
              "scale": {
                "x": 1.33,
                "y": 1.33
              },
              "transform": {
                "x": 0.0,
                "y": 0.0
              }
            }
          },
          {
            "id": "1811438A-46CE-43E7-ACA0-F857AFDF1BFE",
            "material_id": "7B6C6810-7FB3-4C6C-9793-A8B364134FB8",
            "render_index": 0,
            "volume": 1.0,
            "target_timerange": {
              "start": 7765000,
              "duration": 3392000
            },
            "source_timerange": {
              "start": 0,
              "duration": 0
            },
            "clip": {
              "alpha": 1.0,
              "rotation": 0.0,
              "scale": {
                "x": 1.33,
                "y": 1.33
              },
              "transform": {
                "x": 0.0,
                "y": 0.0
              }
            }
          },
          {
            "id": "8ABEE2CE-5838-4E7D-A96F-4646ABA72C55",
            "material_id": "B865F945-F022-4F51-B7A4-97CA5F6EA492",
            "render_index": 0,
            "volume": 1.0,
            "target_timerange": {
              "start": 11157000,
              "duration": 6315000
            },
            "source_timerange": {
              "start": 0,
              "duration": 0
            },
            "clip": {
              "alpha": 1.0,
              "rotation": 0.0,
              "scale": {
                "x": 1.33,
                "y": 1.33
              },
              "transform": {
                "x": 0.0,
                "y": 0.0
              }
            }
          },
          {
            "id": "57D53262-B75E-48EA-9853-5B371459BCAB",
            "material_id": "825070CC-32AA-4375-9268-47AB589A1106",
            "render_index": 0,
            "volume": 1.0,
            "target_timerange": {
              "start": 17472000,
              "duration": 2239000
            },
            "source_timerange": {
              "start": 0,
              "duration": 0
            },
            "clip": {
              "alpha": 1.0,
              "rotation": 0.0,
              "scale": {
                "x": 1.33,
                "y": 1.33
              },
              "transform": {
                "x": 0.0,
                "y": 0.0
              }
            }
          },
          {
            "id": "D4799347-5B70-4595-928B-70E28BC1A6C8",
            "material_id": "BC3F6DB0-3181-41AB-816E-B3D9AE409EA8",
            "render_index": 0,
            "volume": 1.0,
            "target_timerange": {
              "start": 19711000,
              "duration": 1409000
            },
            "source_timerange": {
              "start": 0,
              "duration": 0
            },
            "clip": {
              "alpha": 1.0,
              "rotation": 0.0,
              "scale": {
                "x": 1.33,
                "y": 1.33
              },
              "transform": {
                "x": 0.0,
                "y": 0.0
              }
            }
          },
          {
            "id": "84905CA0-35DD-4054-AA69-BD63970EE82B",
            "material_id": "DB760288-E167-4754-BB9F-BD987FD58697",
            "render_index": 0,
            "volume": 1.0,
            "target_timerange": {
              "start": 21120000,
              "duration": 3712000
            },
            "source_timerange": {
              "start": 0,
              "duration": 0
            },
            "clip": {
              "alpha": 1.0,
              "rotation": 0.0,
              "scale": {
                "x": 1.33,
                "y": 1.33
              },
              "transform": {
                "x": 0.0,
                "y": 0.0
              }
            }
          },
          {
            "id": "5DED370A-8E1C-4E36-9941-CF2426344C81",
            "material_id": "CE2F5312-A6B2-4B3F-BFE9-7F4CABD64736",
            "render_index": 0,
            "volume": 1.0,
            "target_timerange": {
              "start": 24832000,
              "duration": 3946000
            },
            "source_timerange": {
              "start": 0,
              "duration": 0
            },
            "clip": {
              "alpha": 1.0,
              "rotation": 0.0,
              "scale": {
                "x": 1.33,
                "y": 1.33
              },
              "transform": {
                "x": 0.0,
                "y": 0.0
              }
            }
          },
          {
            "id": "C2FD5926-880B-40FD-8C85-F394CE35576F",
            "material_id": "5402B9F3-AFEA-44C7-894F-816FCA2521C2",
            "render_index": 0,
            "volume": 1.0,
            "target_timerange": {
              "start": 28778000,
              "duration": 3307000
            },
            "source_timerange": {
              "start": 0,
              "duration": 0
            },
            "clip": {
              "alpha": 1.0,
              "rotation": 0.0,
              "scale": {
                "x": 1.33,
                "y": 1.33
              },
              "transform": {
                "x": 0.0,
                "y": 0.0
              }
            }
          },
          {
            "id": "FD902DF7-FF50-4257-85E2-BBCB18E93E76",
            "material_id": "77F2D2D2-AF0E-453F-8996-605ABCEAA5A0",
            "render_index": 0,
            "volume": 1.0,
            "target_timerange": {
              "start": 32085000,
              "duration": 1899000
            },
            "source_timerange": {
              "start": 0,
              "duration": 1899000
            },
            "clip": {
              "alpha": 1.0,
              "rotation": 0.0,
              "scale": {
                "x": 1.33,
                "y": 1.33
              },
              "transform": {
                "x": 0.0,
                "y": 0.0
              }
            }
          },
          {
            "id": "6D339E0A-F385-45A2-AEB7-AE79A01E2659",
            "material_id": "DB4759E1-17A3-44B5-AD74-B6E2E0EFAB3C",
            "render_index": 0,
            "volume": 1.0,
            "target_timerange": {
              "start": 33984000,
              "duration": 4863000
            },
            "source_timerange": {
              "start": 0,
              "duration": 4863000
            },
            "clip": {
              "alpha": 1.0,
              "rotation": 0.0,
              "scale": {
                "x": 1.33,
                "y": 1.33
              },
              "transform": {
                "x": 0.0,
                "y": 0.0
              }
            }
          },
          {
            "id": "DBF981AD-436F-45DC-89FE-A0174A1716C2",
            "material_id": "B1F8A7FB-F90C-46B3-8845-0A685C1A0D22",
            "render_index": 0,
            "volume": 1.0,
            "target_timerange": {
              "start": 38847000,
              "duration": 3521000
            },
            "source_timerange": {
              "start": 0,
              "duration": 3521000
            },
            "clip": {
              "alpha": 1.0,
              "rotation": 0.0,
              "scale": {
                "x": 1.33,
                "y": 1.33
              },
              "transform": {
                "x": 0.0,
                "y": 0.0
              }
            }
          },
          {
            "id": "E2EB4187-E0FB-4093-929B-FA2E9D043529",
            "material_id": "B1FEAF59-0C11-47A0-AB9E-D502D7F184C4",
            "render_index": 0,
            "volume": 1.0,
            "target_timerange": {
              "start": 42368000,
              "duration": 3967000
            },
            "source_timerange": {
              "start": 0,
              "duration": 3967000
            },
            "clip": {
              "alpha": 1.0,
              "rotation": 0.0,
              "scale": {
                "x": 1.33,
                "y": 1.33
              },
              "transform": {
                "x": 0.0,
                "y": 0.0
              }
            }
          },
          {
            "id": "AEA5526A-89C2-4C4E-B358-13108A39F760",
            "material_id": "5CC97748-52BC-4707-9BC0-2F8CD89B8E42",
            "render_index": 0,
            "volume": 1.0,
            "target_timerange": {
              "start": 46335000,
              "duration": 2902000
            },
            "source_timerange": {
              "start": 0,
              "duration": 2902000
            },
            "clip": {
              "alpha": 1.0,
              "rotation": 0.0,
              "scale": {
                "x": 1.33,
                "y": 1.33
              },
              "transform": {
                "x": 0.0,
                "y": 0.0
              }
            }
          },
          {
            "id": "22786416-8CB3-45A5-A5AA-E2DADA1CDE34",
            "material_id": "C3410C49-6583-4399-B59E-E026AD423802",
            "render_index": 0,
            "volume": 1.0,
            "target_timerange": {
              "start": 49237000,
              "duration": 6549000
            },
            "source_timerange": {
              "start": 0,
              "duration": 5038730
            },
            "clip": {
              "alpha": 1.0,
              "rotation": 0.0,
              "scale": {
                "x": 1.33,
                "y": 1.33
              },
              "transform": {
                "x": 0.0,
                "y": 0.0
              }
            }
          },
          {
            "id": "0E0A7EE5-D7C2-465C-9DB4-1389E6C0098B",
            "material_id": "C7BAFE9F-8919-49FA-8E6F-C892B15EF5E9",
            "render_index": 0,
            "volume": 1.0,
            "target_timerange": {
              "start": 55786000,
              "duration": 5568000
            },
            "source_timerange": {
              "start": 0,
              "duration": 5038730
            },
            "clip": {
              "alpha": 1.0,
              "rotation": 0.0,
              "scale": {
                "x": 1.33,
                "y": 1.33
              },
              "transform": {
                "x": 0.0,
                "y": 0.0
              }
            }
          },
          {
            "id": "CEFF02A0-5248-49A1-96AB-B809FB1E21DA",
            "material_id": "34ED0871-630F-48B5-B2F9-2F001B706EEA",
            "render_index": 0,
            "volume": 1.0,
            "target_timerange": {
              "start": 61354000,
              "duration": 6891000
            },
            "source_timerange": {
              "start": 0,
              "duration": 5038730
            },
            "clip": {
              "alpha": 1.0,
              "rotation": 0.0,
              "scale": {
                "x": 1.33,
                "y": 1.33
              },
              "transform": {
                "x": 0.0,
                "y": 0.0
              }
            }
          },
          {
            "id": "BD5658B8-F0BA-4711-829B-584FFB7675CB",
            "material_id": "17FAA02E-092D-423A-8CD7-7511F598556D",
            "render_index": 0,
            "volume": 1.0,
            "target_timerange": {
              "start": 68245000,
              "duration": 5205000
            },
            "source_timerange": {
              "start": 0,
              "duration": 5038730
            },
            "clip": {
              "alpha": 1.0,
              "rotation": 0.0,
              "scale": {
                "x": 1.33,
                "y": 1.33
              },
              "transform": {
                "x": 0.0,
                "y": 0.0
              }
            }
          },
          {
            "id": "18EF54EE-3732-46CB-AE3E-B16F5543F37B",
            "material_id": "45E979C1-DFA6-4C60-8CF8-63048974B48F",
            "render_index": 0,
            "volume": 1.0,
            "target_timerange": {
              "start": 73450000,
              "duration": 2859000
            },
            "source_timerange": {
              "start": 0,
              "duration": 2859000
            },
            "clip": {
              "alpha": 1.0,
              "rotation": 0.0,
              "scale": {
                "x": 1.33,
                "y": 1.33
              },
              "transform": {
                "x": 0.0,
                "y": 0.0
              }
            }
          },
          {
            "id": "4B380BA4-26F8-44DE-8DB8-3EBC81397AD3",
            "material_id": "8F463D41-CD0D-45E7-AEA6-63B4CC6C2A2B",
            "render_index": 0,
            "volume": 1.0,
            "target_timerange": {
              "start": 76309000,
              "duration": 6613000
            },
            "source_timerange": {
              "start": 0,
              "duration": 5038730
            },
            "clip": {
              "alpha": 1.0,
              "rotation": 0.0,
              "scale": {
                "x": 1.33,
                "y": 1.33
              },
              "transform": {
                "x": 0.0,
                "y": 0.0
              }
            }
          },
          {
            "id": "3D934F80-D80B-40B0-B5FA-490056DE7F43",
            "material_id": "DCFB193F-8759-442C-99B1-E7D98C38DBEE",
            "render_index": 0,
            "volume": 1.0,
            "target_timerange": {
              "start": 82922000,
              "duration": 1878000
            },
            "source_timerange": {
              "start": 0,
              "duration": 1878000
            },
            "clip": {
              "alpha": 1.0,
              "rotation": 0.0,
              "scale": {
                "x": 1.33,
                "y": 1.33
              },
              "transform": {
                "x": 0.0,
                "y": 0.0
              }
            }
          },
          {
            "id": "AAA91435-C096-4517-B139-DED2FA80C45A",
            "material_id": "FDA6C9B6-1A23-4FBB-8DA8-64AA70A9F1BA",
            "render_index": 0,
            "volume": 1.0,
            "target_timerange": {
              "start": 84800000,
              "duration": 1514000
            },
            "source_timerange": {
              "start": 0,
              "duration": 1514000
            },
            "clip": {
              "alpha": 1.0,
              "rotation": 0.0,
              "scale": {
                "x": 1.33,
                "y": 1.33
              },
              "transform": {
                "x": 0.0,
                "y": 0.0
              }
            }
          },
          {
            "id": "0A81E73B-982E-41B0-8C6F-D317D12605B2",
            "material_id": "9A64DE58-DD96-4A08-BFA8-84B94767DCB6",
            "render_index": 0,
            "volume": 1.0,
            "target_timerange": {
              "start": 86314000,
              "duration": 4203000
            },
            "source_timerange": {
              "start": 0,
              "duration": 4203000
            },
            "clip": {
              "alpha": 1.0,
              "rotation": 0.0,
              "scale": {
                "x": 1.33,
                "y": 1.33
              },
              "transform": {
                "x": 0.0,
                "y": 0.0
              }
            }
          },
          {
            "id": "0EDA58AD-F928-4ECB-ABCA-A53BC09F3D6C",
            "material_id": "B9033D44-44E9-4BE1-B0B4-6604FC96291C",
            "render_index": 0,
            "volume": 1.0,
            "target_timerange": {
              "start": 90517000,
              "duration": 2645000
            },
            "source_timerange": {
              "start": 0,
              "duration": 2645000
            },
            "clip": {
              "alpha": 1.0,
              "rotation": 0.0,
              "scale": {
                "x": 1.33,
                "y": 1.33
              },
              "transform": {
                "x": 0.0,
                "y": 0.0
              }
            }
          },
          {
            "id": "9322E1D0-5E8A-4076-8AB1-8990BAB396CA",
            "material_id": "4725CBD8-9383-4D6C-8D03-C16D0F22A778",
            "render_index": 0,
            "volume": 1.0,
            "target_timerange": {
              "start": 93162000,
              "duration": 3520000
            },
            "source_timerange": {
              "start": 0,
              "duration": 3520000
            },
            "clip": {
              "alpha": 1.0,
              "rotation": 0.0,
              "scale": {
                "x": 1.33,
                "y": 1.33
              },
              "transform": {
                "x": 0.0,
                "y": 0.0
              }
            }
          },
          {
            "id": "457D5257-D9F8-4B9F-8C34-83DAF4E3968A",
            "material_id": "07A3C90B-9A21-4CBC-941B-C151CD84D871",
            "render_index": 0,
            "volume": 1.0,
            "target_timerange": {
              "start": 96682000,
              "duration": 5910000
            },
            "source_timerange": {
              "start": 0,
              "duration": 5038730
            },
            "clip": {
              "alpha": 1.0,
              "rotation": 0.0,
              "scale": {
                "x": 1.33,
                "y": 1.33
              },
              "transform": {
                "x": 0.0,
                "y": 0.0
              }
            }
          },
          {
            "id": "584299CD-364D-4BDE-8735-05DB0D6A8A53",
            "material_id": "317BFF8B-9163-49CD-985B-30CF07085E4F",
            "render_index": 0,
            "volume": 1.0,
            "target_timerange": {
              "start": 102592000,
              "duration": 1045000
            },
            "source_timerange": {
              "start": 0,
              "duration": 1045000
            },
            "clip": {
              "alpha": 1.0,
              "rotation": 0.0,
              "scale": {
                "x": 1.33,
                "y": 1.33
              },
              "transform": {
                "x": 0.0,
                "y": 0.0
              }
            }
          },
          {
            "id": "E9D065C2-022E-4A0C-92D5-F85F2B7EEA90",
            "material_id": "93C30957-3586-4CA5-ABDB-5D41D7361C64",
            "render_index": 0,
            "volume": 1.0,
            "target_timerange": {
              "start": 103637000,
              "duration": 3456000
            },
            "source_timerange": {
              "start": 0,
              "duration": 3456000
            },
            "clip": {
              "alpha": 1.0,
              "rotation": 0.0,
              "scale": {
                "x": 1.33,
                "y": 1.33
              },
              "transform": {
                "x": 0.0,
                "y": 0.0
              }
            }
          },
          {
            "id": "8F750968-DDA6-454F-BF93-51ED7A779B09",
            "material_id": "5E2985C0-8CFE-4412-B167-0C2457BA30D5",
            "render_index": 0,
            "volume": 1.0,
            "target_timerange": {
              "start": 107093000,
              "duration": 6933000
            },
            "source_timerange": {
              "start": 0,
              "duration": 5038730
            },
            "clip": {
              "alpha": 1.0,
              "rotation": 0.0,
              "scale": {
                "x": 1.33,
                "y": 1.33
              },
              "transform": {
                "x": 0.0,
                "y": 0.0
              }
            }
          },
          {
            "id": "84EA7622-36F6-4898-979F-B1DD305F22B6",
            "material_id": "08C47708-3458-4C29-B24E-7D1C81AC2CA6",
            "render_index": 0,
            "volume": 1.0,
            "target_timerange": {
              "start": 114026000,
              "duration": 1173000
            },
            "source_timerange": {
              "start": 0,
              "duration": 1173000
            },
            "clip": {
              "alpha": 1.0,
              "rotation": 0.0,
              "scale": {
                "x": 1.33,
                "y": 1.33
              },
              "transform": {
                "x": 0.0,
                "y": 0.0
              }
            }
          },
          {
            "id": "DFC69716-CDC6-4437-BA2A-1EE1190E04E1",
            "material_id": "62F35DD1-51C8-4ED4-9285-6AE1E56AF51B",
            "render_index": 0,
            "volume": 1.0,
            "target_timerange": {
              "start": 115199000,
              "duration": 3478000
            },
            "source_timerange": {
              "start": 0,
              "duration": 3478000
            },
            "clip": {
              "alpha": 1.0,
              "rotation": 0.0,
              "scale": {
                "x": 1.33,
                "y": 1.33
              },
              "transform": {
                "x": 0.0,
                "y": 0.0
              }
            }
          },
          {
            "id": "2D26EF67-D1ED-45E1-B54B-45ECE35D95CA",
            "material_id": "74B29483-8314-4E62-ACB2-0B31C16D97E1",
            "render_index": 0,
            "volume": 1.0,
            "target_timerange": {
              "start": 118677000,
              "duration": 3584000
            },
            "source_timerange": {
              "start": 0,
              "duration": 3584000
            },
            "clip": {
              "alpha": 1.0,
              "rotation": 0.0,
              "scale": {
                "x": 1.33,
                "y": 1.33
              },
              "transform": {
                "x": 0.0,
                "y": 0.0
              }
            }
          },
          {
            "id": "1F8CE2C4-6F6F-4241-8A07-94154DF5B100",
            "material_id": "9B8BDCEB-79DE-4631-9175-35C4E0927EA4",
            "render_index": 0,
            "volume": 1.0,
            "target_timerange": {
              "start": 122261000,
              "duration": 5546000
            },
            "source_timerange": {
              "start": 0,
              "duration": 5038730
            },
            "clip": {
              "alpha": 1.0,
              "rotation": 0.0,
              "scale": {
                "x": 1.33,
                "y": 1.33
              },
              "transform": {
                "x": 0.0,
                "y": 0.0
              }
            }
          },
          {
            "id": "2B2B522D-3E76-46D4-830B-15A4550DA8A2",
            "material_id": "DDF87366-D81E-4961-84CC-101855CAA5DF",
            "render_index": 0,
            "volume": 1.0,
            "target_timerange": {
              "start": 127807000,
              "duration": 6571000
            },
            "source_timerange": {
              "start": 0,
              "duration": 5038730
            },
            "clip": {
              "alpha": 1.0,
              "rotation": 0.0,
              "scale": {
                "x": 1.33,
                "y": 1.33
              },
              "transform": {
                "x": 0.0,
                "y": 0.0
              }
            }
          },
          {
            "id": "DDC56D2C-1150-41A8-A5E9-4E621B8B8EBD",
            "material_id": "8F738B92-1CEA-46C5-9FD4-E538849349CC",
            "render_index": 0,
            "volume": 1.0,
            "target_timerange": {
              "start": 134378000,
              "duration": 3286000
            },
            "source_timerange": {
              "start": 0,
              "duration": 3286000
            },
            "clip": {
              "alpha": 1.0,
              "rotation": 0.0,
              "scale": {
                "x": 1.33,
                "y": 1.33
              },
              "transform": {
                "x": 0.0,
                "y": 0.0
              }
            }
          },
          {
            "id": "CC513095-4F76-44F1-9CC1-8F8D7C16281C",
            "material_id": "54757459-8318-481A-8894-2B9E5F5586CD",
            "render_index": 0,
            "volume": 1.0,
            "target_timerange": {
              "start": 137664000,
              "duration": 1898000
            },
            "source_timerange": {
              "start": 0,
              "duration": 1898000
            },
            "clip": {
              "alpha": 1.0,
              "rotation": 0.0,
              "scale": {
                "x": 1.33,
                "y": 1.33
              },
              "transform": {
                "x": 0.0,
                "y": 0.0
              }
            }
          },
          {
            "id": "94D7D993-62AE-4830-9329-A92423C83F02",
            "material_id": "1FABDCB2-2584-4EAC-B98A-5916FBCD8FFD",
            "render_index": 0,
            "volume": 1.0,
            "target_timerange": {
              "start": 139562000,
              "duration": 5568000
            },
            "source_timerange": {
              "start": 0,
              "duration": 5038730
            },
            "clip": {
              "alpha": 1.0,
              "rotation": 0.0,
              "scale": {
                "x": 1.33,
                "y": 1.33
              },
              "transform": {
                "x": 0.0,
                "y": 0.0
              }
            }
          },
          {
            "id": "8405A0CD-E1DA-441F-8EC4-8A52225262BA",
            "material_id": "EF98D0D4-5C62-41FD-BBA9-19268BA1BDD6",
            "render_index": 0,
            "volume": 1.0,
            "target_timerange": {
              "start": 145130000,
              "duration": 6123000
            },
            "source_timerange": {
              "start": 0,
              "duration": 5038730
            },
            "clip": {
              "alpha": 1.0,
              "rotation": 0.0,
              "scale": {
                "x": 1.33,
                "y": 1.33
              },
              "transform": {
                "x": 0.0,
                "y": 0.0
              }
            }
          },
          {
            "id": "05255363-FDB4-4BBA-B9E7-2D0D77E26C42",
            "material_id": "972CF309-2F29-4DB2-9334-F95462939B5B",
            "render_index": 0,
            "volume": 1.0,
            "target_timerange": {
              "start": 151253000,
              "duration": 3648000
            },
            "source_timerange": {
              "start": 0,
              "duration": 3648000
            },
            "clip": {
              "alpha": 1.0,
              "rotation": 0.0,
              "scale": {
                "x": 1.33,
                "y": 1.33
              },
              "transform": {
                "x": 0.0,
                "y": 0.0
              }
            }
          },
          {
            "id": "1585C16D-033D-4512-9D6D-4D6A77E29B9A",
            "material_id": "D0047599-9BC0-4659-8607-43E3D1F62F7E",
            "render_index": 0,
            "volume": 1.0,
            "target_timerange": {
              "start": 154901000,
              "duration": 1899000
            },
            "source_timerange": {
              "start": 0,
              "duration": 1899000
            },
            "clip": {
              "alpha": 1.0,
              "rotation": 0.0,
              "scale": {
                "x": 1.33,
                "y": 1.33
              },
              "transform": {
                "x": 0.0,
                "y": 0.0
              }
            }
          },
          {
            "id": "4A8E02F4-D123-44EB-824A-5FEB686A7510",
            "material_id": "33121EB7-5E4F-4671-82D3-FD752816F016",
            "render_index": 0,
            "volume": 1.0,
            "target_timerange": {
              "start": 156800000,
              "duration": 4138000
            },
            "source_timerange": {
              "start": 0,
              "duration": 4138000
            },
            "clip": {
              "alpha": 1.0,
              "rotation": 0.0,
              "scale": {
                "x": 1.33,
                "y": 1.33
              },
              "transform": {
                "x": 0.0,
                "y": 0.0
              }
            }
          },
          {
            "id": "41CAA076-C87A-4382-8A31-0CA5BE666A9D",
            "material_id": "ABEFCD7B-9122-4A3B-B5CF-0411AF1E2FE1",
            "render_index": 0,
            "volume": 1.0,
            "target_timerange": {
              "start": 160938000,
              "duration": 2816000
            },
            "source_timerange": {
              "start": 0,
              "duration": 2816000
            },
            "clip": {
              "alpha": 1.0,
              "rotation": 0.0,
              "scale": {
                "x": 1.33,
                "y": 1.33
              },
              "transform": {
                "x": 0.0,
                "y": 0.0
              }
            }
          },
          {
            "id": "4BEC2833-1521-42A7-BE16-753353FCD37E",
            "material_id": "23FE55CD-4727-414D-BE7D-56C5D3DE6755",
            "render_index": 0,
            "volume": 1.0,
            "target_timerange": {
              "start": 163754000,
              "duration": 6934000
            },
            "source_timerange": {
              "start": 0,
              "duration": 5038730
            },
            "clip": {
              "alpha": 1.0,
              "rotation": 0.0,
              "scale": {
                "x": 1.33,
                "y": 1.33
              },
              "transform": {
                "x": 0.0,
                "y": 0.0
              }
            }
          },
          {
            "id": "13A5973B-4649-4633-86A1-5BB627079DEA",
            "material_id": "C5A8213B-B3F0-4D91-8949-87CC585EE9A2",
            "render_index": 0,
            "volume": 1.0,
            "target_timerange": {
              "start": 170688000,
              "duration": 3882000
            },
            "source_timerange": {
              "start": 0,
              "duration": 3882000
            },
            "clip": {
              "alpha": 1.0,
              "rotation": 0.0,
              "scale": {
                "x": 1.33,
                "y": 1.33
              },
              "transform": {
                "x": 0.0,
                "y": 0.0
              }
            }
          },
          {
            "id": "3776A63F-960E-4F8F-88E0-E30D60E135EF",
            "material_id": "C9B4B704-7111-49F5-8A21-B0E94CCF8CF5",
            "render_index": 0,
            "volume": 1.0,
            "target_timerange": {
              "start": 174570000,
              "duration": 6293000
            },
            "source_timerange": {
              "start": 0,
              "duration": 5038730
            },
            "clip": {
              "alpha": 1.0,
              "rotation": 0.0,
              "scale": {
                "x": 1.33,
                "y": 1.33
              },
              "transform": {
                "x": 0.0,
                "y": 0.0
              }
            }
          },
          {
            "id": "C6CB99A3-404A-4E04-BE47-D2AAAD701986",
            "material_id": "61BFAE8E-34CA-4294-AAE2-9906EC15DBB7",
            "render_index": 0,
            "volume": 1.0,
            "target_timerange": {
              "start": 180863000,
              "duration": 3030000
            },
            "source_timerange": {
              "start": 0,
              "duration": 3030000
            },
            "clip": {
              "alpha": 1.0,
              "rotation": 0.0,
              "scale": {
                "x": 1.33,
                "y": 1.33
              },
              "transform": {
                "x": 0.0,
                "y": 0.0
              }
            }
          },
          {
            "id": "BF9C4A9D-A248-467F-852F-86DDA3B29B48",
            "material_id": "012E0BED-4BED-4BC5-948D-BBBA9CFEDA67",
            "render_index": 0,
            "volume": 1.0,
            "target_timerange": {
              "start": 183893000,
              "duration": 8491000
            },
            "source_timerange": {
              "start": 0,
              "duration": 5038730
            },
            "clip": {
              "alpha": 1.0,
              "rotation": 0.0,
              "scale": {
                "x": 1.33,
                "y": 1.33
              },
              "transform": {
                "x": 0.0,
                "y": 0.0
              }
            }
          },
          {
            "id": "42BFBB15-07B5-41F2-9A47-0D7B3962C7D5",
            "material_id": "B0855148-0219-4994-A62B-D522CDCD0E7E",
            "render_index": 0,
            "volume": 1.0,
            "target_timerange": {
              "start": 192384000,
              "duration": 2965000
            },
            "source_timerange": {
              "start": 0,
              "duration": 2965000
            },
            "clip": {
              "alpha": 1.0,
              "rotation": 0.0,
              "scale": {
                "x": 1.33,
                "y": 1.33
              },
              "transform": {
                "x": 0.0,
                "y": 0.0
              }
            }
          },
          {
            "id": "D578C450-9D15-4CCB-8518-81BFD449CC4D",
            "material_id": "220193BD-18F3-42E7-A69E-28102CA9644F",
            "render_index": 0,
            "volume": 1.0,
            "target_timerange": {
              "start": 195349000,
              "duration": 9749000
            },
            "source_timerange": {
              "start": 0,
              "duration": 5038730
            },
            "clip": {
              "alpha": 1.0,
              "rotation": 0.0,
              "scale": {
                "x": 1.33,
                "y": 1.33
              },
              "transform": {
                "x": 0.0,
                "y": 0.0
              }
            }
          },
          {
            "id": "3400C539-CA69-44C8-8E4C-EF70EEB171F2",
            "material_id": "31B051F4-1A14-4B2A-B1A0-8BF5F6F980DC",
            "render_index": 0,
            "volume": 1.0,
            "target_timerange": {
              "start": 205098000,
              "duration": 3413000
            },
            "source_timerange": {
              "start": 0,
              "duration": 3413000
            },
            "clip": {
              "alpha": 1.0,
              "rotation": 0.0,
              "scale": {
                "x": 1.33,
                "y": 1.33
              },
              "transform": {
                "x": 0.0,
                "y": 0.0
              }
            }
          },
          {
            "id": "70ED6315-B4BE-4444-9B68-6295BC110A8C",
            "material_id": "1D0C2E50-8ADF-4216-AB66-618F4997E91A",
            "render_index": 0,
            "volume": 1.0,
            "target_timerange": {
              "start": 208511000,
              "duration": 5334000
            },
            "source_timerange": {
              "start": 0,
              "duration": 5038730
            },
            "clip": {
              "alpha": 1.0,
              "rotation": 0.0,
              "scale": {
                "x": 1.33,
                "y": 1.33
              },
              "transform": {
                "x": 0.0,
                "y": 0.0
              }
            }
          },
          {
            "id": "F4AC898D-3969-46C7-BD88-BF21D2346E1B",
            "material_id": "3CFC0C3A-339C-4C68-B3EC-EC2A61CA9EC0",
            "render_index": 0,
            "volume": 1.0,
            "target_timerange": {
              "start": 213845000,
              "duration": 11669000
            },
            "source_timerange": {
              "start": 0,
              "duration": 5038730
            },
            "clip": {
              "alpha": 1.0,
              "rotation": 0.0,
              "scale": {
                "x": 1.33,
                "y": 1.33
              },
              "transform": {
                "x": 0.0,
                "y": 0.0
              }
            }
          },
          {
            "id": "ABB93D7B-80CB-421B-B4B4-761F05EBEF6D",
            "material_id": "56F0EDAB-F312-4C84-B63D-EA5ED57BE9C3",
            "render_index": 0,
            "volume": 1.0,
            "target_timerange": {
              "start": 225514000,
              "duration": 7659000
            },
            "source_timerange": {
              "start": 0,
              "duration": 5038730
            },
            "clip": {
              "alpha": 1.0,
              "rotation": 0.0,
              "scale": {
                "x": 1.33,
                "y": 1.33
              },
              "transform": {
                "x": 0.0,
                "y": 0.0
              }
            }
          },
          {
            "id": "2B5A555F-D21D-4831-BD79-1AB032F08853",
            "material_id": "D578FAC5-DD9D-4452-BF73-7020A1051083",
            "render_index": 0,
            "volume": 1.0,
            "target_timerange": {
              "start": 233173000,
              "duration": 1813000
            },
            "source_timerange": {
              "start": 0,
              "duration": 1813000
            },
            "clip": {
              "alpha": 1.0,
              "rotation": 0.0,
              "scale": {
                "x": 1.33,
                "y": 1.33
              },
              "transform": {
                "x": 0.0,
                "y": 0.0
              }
            }
          },
          {
            "id": "E90FCAAD-457D-4D46-BAD4-6C6CF7E76622",
            "material_id": "8E79CED3-CAD7-4EF7-8D9A-9C302215FAF4",
            "render_index": 0,
            "volume": 1.0,
            "target_timerange": {
              "start": 234986000,
              "duration": 3584000
            },
            "source_timerange": {
              "start": 0,
              "duration": 3584000
            },
            "clip": {
              "alpha": 1.0,
              "rotation": 0.0,
              "scale": {
                "x": 1.33,
                "y": 1.33
              },
              "transform": {
                "x": 0.0,
                "y": 0.0
              }
            }
          },
          {
            "id": "9C69AE41-F513-4B95-B277-20F7B432314B",
            "material_id": "0A38353D-59FC-4513-82FF-2077C231BCAE",
            "render_index": 0,
            "volume": 1.0,
            "target_timerange": {
              "start": 238570000,
              "duration": 4992000
            },
            "source_timerange": {
              "start": 0,
              "duration": 4992000
            },
            "clip": {
              "alpha": 1.0,
              "rotation": 0.0,
              "scale": {
                "x": 1.33,
                "y": 1.33
              },
              "transform": {
                "x": 0.0,
                "y": 0.0
              }
            }
          },
          {
            "id": "8D7F84C3-3646-44AA-8E82-FB927A838FF6",
            "material_id": "6C75B888-31CB-4081-ACBE-F8208455371C",
            "render_index": 0,
            "volume": 1.0,
            "target_timerange": {
              "start": 243562000,
              "duration": 1195000
            },
            "source_timerange": {
              "start": 0,
              "duration": 1195000
            },
            "clip": {
              "alpha": 1.0,
              "rotation": 0.0,
              "scale": {
                "x": 1.33,
                "y": 1.33
              },
              "transform": {
                "x": 0.0,
                "y": 0.0
              }
            }
          },
          {
            "id": "A0B1D04D-C2A8-4455-AFD7-D3DB8C2C8B19",
            "material_id": "FC51F304-1838-452D-A1AC-0ED18E355E18",
            "render_index": 0,
            "volume": 1.0,
            "target_timerange": {
              "start": 244757000,
              "duration": 3861000
            },
            "source_timerange": {
              "start": 0,
              "duration": 3861000
            },
            "clip": {
              "alpha": 1.0,
              "rotation": 0.0,
              "scale": {
                "x": 1.33,
                "y": 1.33
              },
              "transform": {
                "x": 0.0,
                "y": 0.0
              }
            }
          },
          {
            "id": "D60E53B2-E5EB-4C20-9999-D808D7F056F0",
            "material_id": "61206C52-9CFA-454D-A44B-DECB1735D070",
            "render_index": 0,
            "volume": 1.0,
            "target_timerange": {
              "start": 248618000,
              "duration": 9046000
            },
            "source_timerange": {
              "start": 0,
              "duration": 5038730
            },
            "clip": {
              "alpha": 1.0,
              "rotation": 0.0,
              "scale": {
                "x": 1.33,
                "y": 1.33
              },
              "transform": {
                "x": 0.0,
                "y": 0.0
              }
            }
          },
          {
            "id": "737751E8-3275-4BD9-A8C5-6773AE6CC0D4",
            "material_id": "30681623-E1EF-4E6E-BD2D-5DFE19FC6F1B",
            "render_index": 0,
            "volume": 1.0,
            "target_timerange": {
              "start": 257664000,
              "duration": 6293000
            },
            "source_timerange": {
              "start": 0,
              "duration": 5038730
            },
            "clip": {
              "alpha": 1.0,
              "rotation": 0.0,
              "scale": {
                "x": 1.33,
                "y": 1.33
              },
              "transform": {
                "x": 0.0,
                "y": 0.0
              }
            }
          },
          {
            "id": "9D0AE19E-7CB7-40C4-A36A-69714ADC2C76",
            "material_id": "6D319A16-45D8-4032-BEAD-463964A7F4A9",
            "render_index": 0,
            "volume": 1.0,
            "target_timerange": {
              "start": 263957000,
              "duration": 5141000
            },
            "source_timerange": {
              "start": 0,
              "duration": 5038730
            },
            "clip": {
              "alpha": 1.0,
              "rotation": 0.0,
              "scale": {
                "x": 1.33,
                "y": 1.33
              },
              "transform": {
                "x": 0.0,
                "y": 0.0
              }
            }
          },
          {
            "id": "387F3407-7ECF-4812-AC68-AC1D1B84A173",
            "material_id": "14D0BEDB-D48B-4A2B-9C67-432E62585E8B",
            "render_index": 0,
            "volume": 1.0,
            "target_timerange": {
              "start": 269098000,
              "duration": 8171000
            },
            "source_timerange": {
              "start": 0,
              "duration": 5038730
            },
            "clip": {
              "alpha": 1.0,
              "rotation": 0.0,
              "scale": {
                "x": 1.33,
                "y": 1.33
              },
              "transform": {
                "x": 0.0,
                "y": 0.0
              }
            }
          },
          {
            "id": "125D52C2-1574-4D24-A59E-7D89C90948A9",
            "material_id": "E08D6603-C263-4A9E-88E3-769ACF18847D",
            "render_index": 0,
            "volume": 1.0,
            "target_timerange": {
              "start": 277269000,
              "duration": 6656000
            },
            "source_timerange": {
              "start": 0,
              "duration": 5038730
            },
            "clip": {
              "alpha": 1.0,
              "rotation": 0.0,
              "scale": {
                "x": 1.33,
                "y": 1.33
              },
              "transform": {
                "x": 0.0,
                "y": 0.0
              }
            }
          },
          {
            "id": "F0114C60-EDD9-4A25-A0FA-524515D9A4A9",
            "material_id": "37CD25F9-25BA-4D08-B4C2-78DF84C6E137",
            "render_index": 0,
            "volume": 1.0,
            "target_timerange": {
              "start": 283925000,
              "duration": 6357000
            },
            "source_timerange": {
              "start": 0,
              "duration": 5038730
            },
            "clip": {
              "alpha": 1.0,
              "rotation": 0.0,
              "scale": {
                "x": 1.33,
                "y": 1.33
              },
              "transform": {
                "x": 0.0,
                "y": 0.0
              }
            }
          },
          {
            "id": "82D78784-D9F7-49B0-A370-2581C5A81E4B",
            "material_id": "2A90BE54-DCBD-46E3-B930-024FCAAF024D",
            "render_index": 0,
            "volume": 1.0,
            "target_timerange": {
              "start": 290282000,
              "duration": 4032000
            },
            "source_timerange": {
              "start": 0,
              "duration": 4032000
            },
            "clip": {
              "alpha": 1.0,
              "rotation": 0.0,
              "scale": {
                "x": 1.33,
                "y": 1.33
              },
              "transform": {
                "x": 0.0,
                "y": 0.0
              }
            }
          },
          {
            "id": "EACF12A4-4317-4691-8682-EC8B705EF3C7",
            "material_id": "1C02BC7F-FF6F-4607-9054-4436B742599A",
            "render_index": 0,
            "volume": 1.0,
            "target_timerange": {
              "start": 294314000,
              "duration": 17110000
            },
            "source_timerange": {
              "start": 0,
              "duration": 5038730
            },
            "clip": {
              "alpha": 1.0,
              "rotation": 0.0,
              "scale": {
                "x": 1.33,
                "y": 1.33
              },
              "transform": {
                "x": 0.0,
                "y": 0.0
              }
            }
          },
          {
            "id": "7C310E4B-566B-4E5C-91BA-514E4A7EB25E",
            "material_id": "4D07BDF4-D444-49B0-9119-E51DDBDD4072",
            "render_index": 0,
            "volume": 1.0,
            "target_timerange": {
              "start": 311424000,
              "duration": 4373000
            },
            "source_timerange": {
              "start": 0,
              "duration": 4373000
            },
            "clip": {
              "alpha": 1.0,
              "rotation": 0.0,
              "scale": {
                "x": 1.33,
                "y": 1.33
              },
              "transform": {
                "x": 0.0,
                "y": 0.0
              }
            }
          },
          {
            "id": "0BEF9618-BDFC-4BEB-8FEB-B758AF7240E1",
            "material_id": "D40DA117-394D-4B64-8EE6-AC00E9B53DFB",
            "render_index": 0,
            "volume": 1.0,
            "target_timerange": {
              "start": 315797000,
              "duration": 7019000
            },
            "source_timerange": {
              "start": 0,
              "duration": 5038730
            },
            "clip": {
              "alpha": 1.0,
              "rotation": 0.0,
              "scale": {
                "x": 1.33,
                "y": 1.33
              },
              "transform": {
                "x": 0.0,
                "y": 0.0
              }
            }
          },
          {
            "id": "684D770D-C412-495B-B47A-D4BE8CF746A4",
            "material_id": "1154F022-E093-42B7-9526-9BD3B7A16E5A",
            "render_index": 0,
            "volume": 1.0,
            "target_timerange": {
              "start": 322816000,
              "duration": 2474000
            },
            "source_timerange": {
              "start": 0,
              "duration": 2474000
            },
            "clip": {
              "alpha": 1.0,
              "rotation": 0.0,
              "scale": {
                "x": 1.33,
                "y": 1.33
              },
              "transform": {
                "x": 0.0,
                "y": 0.0
              }
            }
          },
          {
            "id": "A55D242D-A6B5-41FC-90E1-4797279E49CA",
            "material_id": "F419856E-1066-4504-A432-D6B2DA93452B",
            "render_index": 0,
            "volume": 1.0,
            "target_timerange": {
              "start": 325290000,
              "duration": 3584000
            },
            "source_timerange": {
              "start": 0,
              "duration": 3584000
            },
            "clip": {
              "alpha": 1.0,
              "rotation": 0.0,
              "scale": {
                "x": 1.33,
                "y": 1.33
              },
              "transform": {
                "x": 0.0,
                "y": 0.0
              }
            }
          },
          {
            "id": "87E79052-D1DD-4086-B6A0-C92C8B4C8A60",
            "material_id": "1E054ED8-7A02-4509-8A82-702F5D7894F1",
            "render_index": 0,
            "volume": 1.0,
            "target_timerange": {
              "start": 328874000,
              "duration": 10347000
            },
            "source_timerange": {
              "start": 0,
              "duration": 5038730
            },
            "clip": {
              "alpha": 1.0,
              "rotation": 0.0,
              "scale": {
                "x": 1.33,
                "y": 1.33
              },
              "transform": {
                "x": 0.0,
                "y": 0.0
              }
            }
          },
          {
            "id": "4B4C1A45-B35E-4D59-B255-75ED1823DE5F",
            "material_id": "4E344EF4-4710-4536-A959-C5D97F64C37C",
            "render_index": 0,
            "volume": 1.0,
            "target_timerange": {
              "start": 339221000,
              "duration": 1237000
            },
            "source_timerange": {
              "start": 0,
              "duration": 1237000
            },
            "clip": {
              "alpha": 1.0,
              "rotation": 0.0,
              "scale": {
                "x": 1.33,
                "y": 1.33
              },
              "transform": {
                "x": 0.0,
                "y": 0.0
              }
            }
          },
          {
            "id": "979C286A-5616-420C-9903-79086B855E65",
            "material_id": "296AC592-8313-4DE0-9D41-EFCDEBE8DCBC",
            "render_index": 0,
            "volume": 1.0,
            "target_timerange": {
              "start": 340458000,
              "duration": 5099000
            },
            "source_timerange": {
              "start": 0,
              "duration": 5038730
            },
            "clip": {
              "alpha": 1.0,
              "rotation": 0.0,
              "scale": {
                "x": 1.33,
                "y": 1.33
              },
              "transform": {
                "x": 0.0,
                "y": 0.0
              }
            }
          },
          {
            "id": "5E4B85C1-12D8-4714-B19A-6A3FB0D030CC",
            "material_id": "3A6A5CDE-C771-44D0-A9E6-E100DB8CB9D8",
            "render_index": 0,
            "volume": 1.0,
            "target_timerange": {
              "start": 345557000,
              "duration": 3819000
            },
            "source_timerange": {
              "start": 0,
              "duration": 3819000
            },
            "clip": {
              "alpha": 1.0,
              "rotation": 0.0,
              "scale": {
                "x": 1.33,
                "y": 1.33
              },
              "transform": {
                "x": 0.0,
                "y": 0.0
              }
            }
          },
          {
            "id": "BB3BB64C-2A66-426A-A9ED-98C535BF2633",
            "material_id": "73E14569-D3EF-4068-801C-7A9EC3E33A8E",
            "render_index": 0,
            "volume": 1.0,
            "target_timerange": {
              "start": 349376000,
              "duration": 5930000
            },
            "source_timerange": {
              "start": 0,
              "duration": 5038730
            },
            "clip": {
              "alpha": 1.0,
              "rotation": 0.0,
              "scale": {
                "x": 1.33,
                "y": 1.33
              },
              "transform": {
                "x": 0.0,
                "y": 0.0
              }
            }
          },
          {
            "id": "4F2C9E13-A378-4592-A048-F7C9B5B0B0FA",
            "material_id": "18908D7C-DAE2-4F06-B4D2-635D536FA50C",
            "render_index": 0,
            "volume": 1.0,
            "target_timerange": {
              "start": 355306000,
              "duration": 10816000
            },
            "source_timerange": {
              "start": 0,
              "duration": 5038730
            },
            "clip": {
              "alpha": 1.0,
              "rotation": 0.0,
              "scale": {
                "x": 1.33,
                "y": 1.33
              },
              "transform": {
                "x": 0.0,
                "y": 0.0
              }
            }
          },
          {
            "id": "3674507E-8864-4014-BF74-39BB78479596",
            "material_id": "0034A0DC-94B0-4B21-9FCA-0F0583DE34DE",
            "render_index": 0,
            "volume": 1.0,
            "target_timerange": {
              "start": 366122000,
              "duration": 3755000
            },
            "source_timerange": {
              "start": 0,
              "duration": 3755000
            },
            "clip": {
              "alpha": 1.0,
              "rotation": 0.0,
              "scale": {
                "x": 1.33,
                "y": 1.33
              },
              "transform": {
                "x": 0.0,
                "y": 0.0
              }
            }
          },
          {
            "id": "936FF9DB-1AB0-475D-8258-2D3F74C29F9D",
            "material_id": "0988BF6C-43F6-422C-B23D-C68BA4BBC3AD",
            "render_index": 0,
            "volume": 1.0,
            "target_timerange": {
              "start": 369877000,
              "duration": 2880000
            },
            "source_timerange": {
              "start": 0,
              "duration": 2880000
            },
            "clip": {
              "alpha": 1.0,
              "rotation": 0.0,
              "scale": {
                "x": 1.33,
                "y": 1.33
              },
              "transform": {
                "x": 0.0,
                "y": 0.0
              }
            }
          },
          {
            "id": "BEDC3EC3-2935-46F8-8D85-F79BEEE80B66",
            "material_id": "DCCF33D5-D51F-43D5-95F9-57EC1A77B47F",
            "render_index": 0,
            "volume": 1.0,
            "target_timerange": {
              "start": 372757000,
              "duration": 2688000
            },
            "source_timerange": {
              "start": 0,
              "duration": 2688000
            },
            "clip": {
              "alpha": 1.0,
              "rotation": 0.0,
              "scale": {
                "x": 1.33,
                "y": 1.33
              },
              "transform": {
                "x": 0.0,
                "y": 0.0
              }
            }
          },
          {
            "id": "25FCC281-2031-49BB-927C-874E6FA14D59",
            "material_id": "FEEE161B-0FC0-44BA-BD4F-C2C6A891D9CF",
            "render_index": 0,
            "volume": 1.0,
            "target_timerange": {
              "start": 375445000,
              "duration": 1962000
            },
            "source_timerange": {
              "start": 0,
              "duration": 1962000
            },
            "clip": {
              "alpha": 1.0,
              "rotation": 0.0,
              "scale": {
                "x": 1.33,
                "y": 1.33
              },
              "transform": {
                "x": 0.0,
                "y": 0.0
              }
            }
          },
          {
            "id": "2EA88C92-B79A-4ACA-B636-45B98C2B5E0E",
            "material_id": "E0121166-7837-4C3B-B57C-E2112DD9DF03",
            "render_index": 0,
            "volume": 1.0,
            "target_timerange": {
              "start": 377407000,
              "duration": 11691000
            },
            "source_timerange": {
              "start": 0,
              "duration": 5038730
            },
            "clip": {
              "alpha": 1.0,
              "rotation": 0.0,
              "scale": {
                "x": 1.33,
                "y": 1.33
              },
              "transform": {
                "x": 0.0,
                "y": 0.0
              }
            }
          },
          {
            "id": "9E1F9E03-C28A-4033-9D4B-68D5B4B4FBF1",
            "material_id": "9E8813F2-92FE-4266-B106-DBAD029BB6EA",
            "render_index": 0,
            "volume": 1.0,
            "target_timerange": {
              "start": 389098000,
              "duration": 7339000
            },
            "source_timerange": {
              "start": 0,
              "duration": 5038730
            },
            "clip": {
              "alpha": 1.0,
              "rotation": 0.0,
              "scale": {
                "x": 1.33,
                "y": 1.33
              },
              "transform": {
                "x": 0.0,
                "y": 0.0
              }
            }
          },
          {
            "id": "632C6F23-D43E-49E9-A651-2C16C16A146C",
            "material_id": "1A08DF99-30CE-4B2C-A39C-A58F40358A58",
            "render_index": 0,
            "volume": 1.0,
            "target_timerange": {
              "start": 396437000,
              "duration": 2304000
            },
            "source_timerange": {
              "start": 0,
              "duration": 2304000
            },
            "clip": {
              "alpha": 1.0,
              "rotation": 0.0,
              "scale": {
                "x": 1.33,
                "y": 1.33
              },
              "transform": {
                "x": 0.0,
                "y": 0.0
              }
            }
          },
          {
            "id": "7F0448A8-3F76-4C37-8F3B-A990C0F0C6D4",
            "material_id": "D803F81F-38D8-499A-956B-E883DE68985B",
            "render_index": 0,
            "volume": 1.0,
            "target_timerange": {
              "start": 398741000,
              "duration": 7019000
            },
            "source_timerange": {
              "start": 0,
              "duration": 5038730
            },
            "clip": {
              "alpha": 1.0,
              "rotation": 0.0,
              "scale": {
                "x": 1.33,
                "y": 1.33
              },
              "transform": {
                "x": 0.0,
                "y": 0.0
              }
            }
          },
          {
            "id": "8E2FDE6D-AD5C-4B38-8ECB-EAA05A793AB8",
            "material_id": "61DC72CA-3500-4F8F-BEE8-3793B17111C6",
            "render_index": 0,
            "volume": 1.0,
            "target_timerange": {
              "start": 405760000,
              "duration": 7274000
            },
            "source_timerange": {
              "start": 0,
              "duration": 5038730
            },
            "clip": {
              "alpha": 1.0,
              "rotation": 0.0,
              "scale": {
                "x": 1.33,
                "y": 1.33
              },
              "transform": {
                "x": 0.0,
                "y": 0.0
              }
            }
          },
          {
            "id": "42AAA87E-B562-4148-9E7B-4FE9668AB3CD",
            "material_id": "5619F2A9-5C2B-4492-A94A-B04723A5E836",
            "render_index": 0,
            "volume": 1.0,
            "target_timerange": {
              "start": 413034000,
              "duration": 7446000
            },
            "source_timerange": {
              "start": 0,
              "duration": 5038730
            },
            "clip": {
              "alpha": 1.0,
              "rotation": 0.0,
              "scale": {
                "x": 1.33,
                "y": 1.33
              },
              "transform": {
                "x": 0.0,
                "y": 0.0
              }
            }
          },
          {
            "id": "D14D24BB-A267-438B-8BF0-C9CBFD2302ED",
            "material_id": "37A691A6-5CC5-48B7-9D7B-52475EC7A8BE",
            "render_index": 0,
            "volume": 1.0,
            "target_timerange": {
              "start": 420480000,
              "duration": 5375000
            },
            "source_timerange": {
              "start": 0,
              "duration": 5038730
            },
            "clip": {
              "alpha": 1.0,
              "rotation": 0.0,
              "scale": {
                "x": 1.33,
                "y": 1.33
              },
              "transform": {
                "x": 0.0,
                "y": 0.0
              }
            }
          },
          {
            "id": "C68D5E15-0A58-4EB6-AFD3-DB6F04F845B1",
            "material_id": "C4361796-AB44-4F62-8348-DD417FA98D5C",
            "render_index": 0,
            "volume": 1.0,
            "target_timerange": {
              "start": 425855000,
              "duration": 3648000
            },
            "source_timerange": {
              "start": 0,
              "duration": 3648000
            },
            "clip": {
              "alpha": 1.0,
              "rotation": 0.0,
              "scale": {
                "x": 1.33,
                "y": 1.33
              },
              "transform": {
                "x": 0.0,
                "y": 0.0
              }
            }
          },
          {
            "id": "32C3198D-EEE4-4C01-82D0-CBA9D14399CB",
            "material_id": "77F2BAE4-04DA-4BFE-B3E4-B0FB40B5E58F",
            "render_index": 0,
            "volume": 1.0,
            "target_timerange": {
              "start": 429503000,
              "duration": 8043000
            },
            "source_timerange": {
              "start": 0,
              "duration": 5038730
            },
            "clip": {
              "alpha": 1.0,
              "rotation": 0.0,
              "scale": {
                "x": 1.33,
                "y": 1.33
              },
              "transform": {
                "x": 0.0,
                "y": 0.0
              }
            }
          },
          {
            "id": "C7662A5B-6737-4D7B-A966-309352DF7E98",
            "material_id": "E5DE74B3-E96F-4FB0-B16E-863B1484EFBD",
            "render_index": 0,
            "volume": 1.0,
            "target_timerange": {
              "start": 437546000,
              "duration": 4822000
            },
            "source_timerange": {
              "start": 0,
              "duration": 4822000
            },
            "clip": {
              "alpha": 1.0,
              "rotation": 0.0,
              "scale": {
                "x": 1.33,
                "y": 1.33
              },
              "transform": {
                "x": 0.0,
                "y": 0.0
              }
            }
          },
          {
            "id": "DFC2767A-EA03-46D2-818E-C2C20A5C9BF8",
            "material_id": "74FDCEE3-BAA8-4E85-9C46-F36AD960645B",
            "render_index": 0,
            "volume": 1.0,
            "target_timerange": {
              "start": 442368000,
              "duration": 2709000
            },
            "source_timerange": {
              "start": 0,
              "duration": 2709000
            },
            "clip": {
              "alpha": 1.0,
              "rotation": 0.0,
              "scale": {
                "x": 1.33,
                "y": 1.33
              },
              "transform": {
                "x": 0.0,
                "y": 0.0
              }
            }
          },
          {
            "id": "EB865617-BCF8-4BF9-98AC-72D6CE65AA0F",
            "material_id": "D36894D1-24F2-4204-BC70-14BCFD14F027",
            "render_index": 0,
            "volume": 1.0,
            "target_timerange": {
              "start": 445077000,
              "duration": 6336000
            },
            "source_timerange": {
              "start": 0,
              "duration": 5038730
            },
            "clip": {
              "alpha": 1.0,
              "rotation": 0.0,
              "scale": {
                "x": 1.33,
                "y": 1.33
              },
              "transform": {
                "x": 0.0,
                "y": 0.0
              }
            }
          },
          {
            "id": "D98D2983-4634-435E-8C73-77054D0CEA7F",
            "material_id": "D25EF648-C0FA-4F7D-B69F-E6B69D537677",
            "render_index": 0,
            "volume": 1.0,
            "target_timerange": {
              "start": 451413000,
              "duration": 1792000
            },
            "source_timerange": {
              "start": 0,
              "duration": 1792000
            },
            "clip": {
              "alpha": 1.0,
              "rotation": 0.0,
              "scale": {
                "x": 1.33,
                "y": 1.33
              },
              "transform": {
                "x": 0.0,
                "y": 0.0
              }
            }
          },
          {
            "id": "19BAE58D-872E-48D9-B690-A984480DC1B4",
            "material_id": "886A56AB-80BD-4365-9BDD-05A2372F230B",
            "render_index": 0,
            "volume": 1.0,
            "target_timerange": {
              "start": 453205000,
              "duration": 5482000
            },
            "source_timerange": {
              "start": 0,
              "duration": 5038730
            },
            "clip": {
              "alpha": 1.0,
              "rotation": 0.0,
              "scale": {
                "x": 1.33,
                "y": 1.33
              },
              "transform": {
                "x": 0.0,
                "y": 0.0
              }
            }
          },
          {
            "id": "63583AFE-E336-4FC9-8BBB-5ACA2CEFE8C1",
            "material_id": "FED8E521-B52E-4B26-BFFA-7AC6641A0540",
            "render_index": 0,
            "volume": 1.0,
            "target_timerange": {
              "start": 458687000,
              "duration": 8107000
            },
            "source_timerange": {
              "start": 0,
              "duration": 5038730
            },
            "clip": {
              "alpha": 1.0,
              "rotation": 0.0,
              "scale": {
                "x": 1.33,
                "y": 1.33
              },
              "transform": {
                "x": 0.0,
                "y": 0.0
              }
            }
          },
          {
            "id": "D1520BDA-95A0-40D3-A647-7607B520FCEE",
            "material_id": "ED1D4F49-3FC3-434D-BFDD-40EC2CB22F7B",
            "render_index": 0,
            "volume": 1.0,
            "target_timerange": {
              "start": 466794000,
              "duration": 2902000
            },
            "source_timerange": {
              "start": 0,
              "duration": 2902000
            },
            "clip": {
              "alpha": 1.0,
              "rotation": 0.0,
              "scale": {
                "x": 1.33,
                "y": 1.33
              },
              "transform": {
                "x": 0.0,
                "y": 0.0
              }
            }
          },
          {
            "id": "F3F048B0-AB3B-4AEF-AE1B-CD8CF18DCCB6",
            "material_id": "F8F903A3-13FB-45C3-B574-89DD63DAB518",
            "render_index": 0,
            "volume": 1.0,
            "target_timerange": {
              "start": 469696000,
              "duration": 10090000
            },
            "source_timerange": {
              "start": 0,
              "duration": 5038730
            },
            "clip": {
              "alpha": 1.0,
              "rotation": 0.0,
              "scale": {
                "x": 1.33,
                "y": 1.33
              },
              "transform": {
                "x": 0.0,
                "y": 0.0
              }
            }
          },
          {
            "id": "824938B5-0988-49A0-96E7-A4F46D0AB030",
            "material_id": "58955E86-944B-48CE-98A0-6DDDB4A500D4",
            "render_index": 0,
            "volume": 1.0,
            "target_timerange": {
              "start": 479786000,
              "duration": 7851000
            },
            "source_timerange": {
              "start": 0,
              "duration": 5038730
            },
            "clip": {
              "alpha": 1.0,
              "rotation": 0.0,
              "scale": {
                "x": 1.33,
                "y": 1.33
              },
              "transform": {
                "x": 0.0,
                "y": 0.0
              }
            }
          },
          {
            "id": "C856543E-F56D-4192-8FDA-A387337E1AB8",
            "material_id": "18FD5525-DAE0-4217-AEE4-E0E55E8F0310",
            "render_index": 0,
            "volume": 1.0,
            "target_timerange": {
              "start": 487637000,
              "duration": 6571000
            },
            "source_timerange": {
              "start": 0,
              "duration": 5038730
            },
            "clip": {
              "alpha": 1.0,
              "rotation": 0.0,
              "scale": {
                "x": 1.33,
                "y": 1.33
              },
              "transform": {
                "x": 0.0,
                "y": 0.0
              }
            }
          },
          {
            "id": "3E0334E6-EBA8-4AEC-A47F-1225768B7F2F",
            "material_id": "0A3C16D0-3601-44C3-B2F0-81F6FF4078D7",
            "render_index": 0,
            "volume": 1.0,
            "target_timerange": {
              "start": 494208000,
              "duration": 4672000
            },
            "source_timerange": {
              "start": 0,
              "duration": 4672000
            },
            "clip": {
              "alpha": 1.0,
              "rotation": 0.0,
              "scale": {
                "x": 1.33,
                "y": 1.33
              },
              "transform": {
                "x": 0.0,
                "y": 0.0
              }
            }
          },
          {
            "id": "D6D68918-66DE-4BD4-966D-13A426B4CB03",
            "material_id": "9745CB03-7A0B-4583-8582-5A9D244D1E3D",
            "render_index": 0,
            "volume": 1.0,
            "target_timerange": {
              "start": 498880000,
              "duration": 3946000
            },
            "source_timerange": {
              "start": 0,
              "duration": 3946000
            },
            "clip": {
              "alpha": 1.0,
              "rotation": 0.0,
              "scale": {
                "x": 1.33,
                "y": 1.33
              },
              "transform": {
                "x": 0.0,
                "y": 0.0
              }
            }
          },
          {
            "id": "E38F642C-B808-45E1-8F85-A0FA32E6A566",
            "material_id": "F12DBF08-02AE-486D-BA14-8FB89482361F",
            "render_index": 0,
            "volume": 1.0,
            "target_timerange": {
              "start": 502826000,
              "duration": 3755000
            },
            "source_timerange": {
              "start": 0,
              "duration": 3755000
            },
            "clip": {
              "alpha": 1.0,
              "rotation": 0.0,
              "scale": {
                "x": 1.33,
                "y": 1.33
              },
              "transform": {
                "x": 0.0,
                "y": 0.0
              }
            }
          },
          {
            "id": "E889B4E4-CDCF-47A3-A369-938A48D5B84A",
            "material_id": "776E911E-0FAC-4930-A82F-FE0209523E61",
            "render_index": 0,
            "volume": 1.0,
            "target_timerange": {
              "start": 506581000,
              "duration": 9515000
            },
            "source_timerange": {
              "start": 0,
              "duration": 5038730
            },
            "clip": {
              "alpha": 1.0,
              "rotation": 0.0,
              "scale": {
                "x": 1.33,
                "y": 1.33
              },
              "transform": {
                "x": 0.0,
                "y": 0.0
              }
            }
          },
          {
            "id": "4E89F01F-A93C-40F8-B5F9-8402F127FDBD",
            "material_id": "8CAC43A2-A9EF-4C51-BC2C-C5347A950C9D",
            "render_index": 0,
            "volume": 1.0,
            "target_timerange": {
              "start": 516096000,
              "duration": 7337999
            },
            "source_timerange": {
              "start": 0,
              "duration": 5038730
            },
            "clip": {
              "alpha": 1.0,
              "rotation": 0.0,
              "scale": {
                "x": 1.33,
                "y": 1.33
              },
              "transform": {
                "x": 0.0,
                "y": 0.0
              }
            }
          },
          {
            "id": "4677A9CE-5AA4-4166-925E-A486617AEC45",
            "material_id": "EF53FDBF-129D-4315-AF80-9A86758C1B88",
            "render_index": 0,
            "volume": 1.0,
            "target_timerange": {
              "start": 523433999,
              "duration": 5526001
            },
            "source_timerange": {
              "start": 0,
              "duration": 5038730
            },
            "clip": {
              "alpha": 1.0,
              "rotation": 0.0,
              "scale": {
                "x": 1.33,
                "y": 1.33
              },
              "transform": {
                "x": 0.0,
                "y": 0.0
              }
            }
          },
          {
            "id": "048C58F8-3E6E-4D2C-84F9-4DF2A54F05A8",
            "material_id": "0E6472A8-7C89-4FED-B5CD-E07BD8483969",
            "render_index": 0,
            "volume": 1.0,
            "target_timerange": {
              "start": 528960000,
              "duration": 3695000
            },
            "source_timerange": {
              "start": 0,
              "duration": 3695000
            },
            "clip": {
              "alpha": 1.0,
              "rotation": 0.0,
              "scale": {
                "x": 1.33,
                "y": 1.33
              },
              "transform": {
                "x": 0.0,
                "y": 0.0
              }
            }
          },
          {
            "id": "0D73CE82-B437-4353-A5C0-EAB5BA12A10A",
            "material_id": "7529D954-4E22-4336-80BC-74FFD2BE2EE7",
            "render_index": 0,
            "volume": 1.0,
            "target_timerange": {
              "start": 532655000,
              "duration": 2790000
            },
            "source_timerange": {
              "start": 0,
              "duration": 2790000
            },
            "clip": {
              "alpha": 1.0,
              "rotation": 0.0,
              "scale": {
                "x": 1.33,
                "y": 1.33
              },
              "transform": {
                "x": 0.0,
                "y": 0.0
              }
            }
          },
          {
            "id": "45974CB9-BC88-4054-B3AE-11167DFA1147",
            "material_id": "262D0B21-AF89-4AD9-BC5F-42EA50B574ED",
            "render_index": 0,
            "volume": 1.0,
            "target_timerange": {
              "start": 535445000,
              "duration": 9301000
            },
            "source_timerange": {
              "start": 0,
              "duration": 5038730
            },
            "clip": {
              "alpha": 1.0,
              "rotation": 0.0,
              "scale": {
                "x": 1.33,
                "y": 1.33
              },
              "transform": {
                "x": 0.0,
                "y": 0.0
              }
            }
          },
          {
            "id": "580883AF-ECB6-4263-B2B9-AF2AFA77538E",
            "material_id": "78AD5FEE-6E56-4F10-8D2F-198B570017E4",
            "render_index": 0,
            "volume": 1.0,
            "target_timerange": {
              "start": 544746000,
              "duration": 7723000
            },
            "source_timerange": {
              "start": 0,
              "duration": 5038730
            },
            "clip": {
              "alpha": 1.0,
              "rotation": 0.0,
              "scale": {
                "x": 1.33,
                "y": 1.33
              },
              "transform": {
                "x": 0.0,
                "y": 0.0
              }
            }
          },
          {
            "id": "AD052060-D17C-4BBF-B32F-C54A036E60A2",
            "material_id": "45E964E3-64C3-4638-AF90-9BEEFC8BC465",
            "render_index": 0,
            "volume": 1.0,
            "target_timerange": {
              "start": 552469000,
              "duration": 24405000
            },
            "source_timerange": {
              "start": 0,
              "duration": 5038730
            },
            "clip": {
              "alpha": 1.0,
              "rotation": 0.0,
              "scale": {
                "x": 1.33,
                "y": 1.33
              },
              "transform": {
                "x": 0.0,
                "y": 0.0
              }
            }
          },
          {
            "id": "5A0324D1-92C3-44B2-9E51-ADE688F1F785",
            "material_id": "FF8175F7-CD21-4C3F-AAE6-A732248E4DB9",
            "render_index": 0,
            "volume": 1.0,
            "target_timerange": {
              "start": 576874000,
              "duration": 4672000
            },
            "source_timerange": {
              "start": 0,
              "duration": 4672000
            },
            "clip": {
              "alpha": 1.0,
              "rotation": 0.0,
              "scale": {
                "x": 1.33,
                "y": 1.33
              },
              "transform": {
                "x": 0.0,
                "y": 0.0
              }
            }
          },
          {
            "id": "E2195ED8-1687-4B45-87AC-797B1423FCEF",
            "material_id": "BC7D071C-2DFF-4C6D-B431-634FCB2A9F00",
            "render_index": 0,
            "volume": 1.0,
            "target_timerange": {
              "start": 581546000,
              "duration": 3371000
            },
            "source_timerange": {
              "start": 0,
              "duration": 3371000
            },
            "clip": {
              "alpha": 1.0,
              "rotation": 0.0,
              "scale": {
                "x": 1.33,
                "y": 1.33
              },
              "transform": {
                "x": 0.0,
                "y": 0.0
              }
            }
          },
          {
            "id": "AC882689-5898-4354-A07B-68864FD6678B",
            "material_id": "5727CAAB-E127-4B31-B84D-DF583193CC5E",
            "render_index": 0,
            "volume": 1.0,
            "target_timerange": {
              "start": 584917000,
              "duration": 4160000
            },
            "source_timerange": {
              "start": 0,
              "duration": 4160000
            },
            "clip": {
              "alpha": 1.0,
              "rotation": 0.0,
              "scale": {
                "x": 1.33,
                "y": 1.33
              },
              "transform": {
                "x": 0.0,
                "y": 0.0
              }
            }
          },
          {
            "id": "87A8662C-8682-4C59-9F7D-B7D7C29A380B",
            "material_id": "81FEB9E2-FB88-4ADE-A809-45E409FB6F7F",
            "render_index": 0,
            "volume": 1.0,
            "target_timerange": {
              "start": 589077000,
              "duration": 7232000
            },
            "source_timerange": {
              "start": 0,
              "duration": 5038730
            },
            "clip": {
              "alpha": 1.0,
              "rotation": 0.0,
              "scale": {
                "x": 1.33,
                "y": 1.33
              },
              "transform": {
                "x": 0.0,
                "y": 0.0
              }
            }
          },
          {
            "id": "D29C9DC4-795D-48A3-A595-5A85D69B96B7",
            "material_id": "3E9457D3-5749-49E3-ACFD-CE70205E0AF1",
            "render_index": 0,
            "volume": 1.0,
            "target_timerange": {
              "start": 596309000,
              "duration": 4586000
            },
            "source_timerange": {
              "start": 0,
              "duration": 4586000
            },
            "clip": {
              "alpha": 1.0,
              "rotation": 0.0,
              "scale": {
                "x": 1.33,
                "y": 1.33
              },
              "transform": {
                "x": 0.0,
                "y": 0.0
              }
            }
          },
          {
            "id": "A52AB567-042E-4836-969D-905903D94A1A",
            "material_id": "4902B9AE-0F5F-41D6-A973-4B4B6E4EAEA1",
            "render_index": 0,
            "volume": 1.0,
            "target_timerange": {
              "start": 600895000,
              "duration": 6827000
            },
            "source_timerange": {
              "start": 0,
              "duration": 5038730
            },
            "clip": {
              "alpha": 1.0,
              "rotation": 0.0,
              "scale": {
                "x": 1.33,
                "y": 1.33
              },
              "transform": {
                "x": 0.0,
                "y": 0.0
              }
            }
          },
          {
            "id": "0615E77B-FA24-44AD-B23F-5442B1C1ECD0",
            "material_id": "05073BF1-59A5-4B70-B9B7-05058756ED50",
            "render_index": 0,
            "volume": 1.0,
            "target_timerange": {
              "start": 607722000,
              "duration": 5568000
            },
            "source_timerange": {
              "start": 0,
              "duration": 5038730
            },
            "clip": {
              "alpha": 1.0,
              "rotation": 0.0,
              "scale": {
                "x": 1.33,
                "y": 1.33
              },
              "transform": {
                "x": 0.0,
                "y": 0.0
              }
            }
          },
          {
            "id": "F2F0668B-4202-430C-8AB3-F66CCD85F69D",
            "material_id": "B050A466-1B96-4C53-99FF-C83391F90505",
            "render_index": 0,
            "volume": 1.0,
            "target_timerange": {
              "start": 613290000,
              "duration": 8022000
            },
            "source_timerange": {
              "start": 0,
              "duration": 5038730
            },
            "clip": {
              "alpha": 1.0,
              "rotation": 0.0,
              "scale": {
                "x": 1.33,
                "y": 1.33
              },
              "transform": {
                "x": 0.0,
                "y": 0.0
              }
            }
          },
          {
            "id": "BFE06595-4D3D-4B9F-B3E3-F426B7D0812B",
            "material_id": "AC313C20-2342-4220-A6B2-D7A419389CD6",
            "render_index": 0,
            "volume": 1.0,
            "target_timerange": {
              "start": 621312000,
              "duration": 3029000
            },
            "source_timerange": {
              "start": 0,
              "duration": 3029000
            },
            "clip": {
              "alpha": 1.0,
              "rotation": 0.0,
              "scale": {
                "x": 1.33,
                "y": 1.33
              },
              "transform": {
                "x": 0.0,
                "y": 0.0
              }
            }
          },
          {
            "id": "02985810-1FBF-4F0D-BBF2-F571435CA9A1",
            "material_id": "1FCB30AC-ABB0-475D-8948-58DF97ECE9E2",
            "render_index": 0,
            "volume": 1.0,
            "target_timerange": {
              "start": 624341000,
              "duration": 4373000
            },
            "source_timerange": {
              "start": 0,
              "duration": 4373000
            },
            "clip": {
              "alpha": 1.0,
              "rotation": 0.0,
              "scale": {
                "x": 1.33,
                "y": 1.33
              },
              "transform": {
                "x": 0.0,
                "y": 0.0
              }
            }
          },
          {
            "id": "F5E7A13B-6870-43BB-9D31-1EB2F2BA025F",
            "material_id": "F008DD2D-FC90-4E0F-9932-2430CC0D2D3B",
            "render_index": 0,
            "volume": 1.0,
            "target_timerange": {
              "start": 628714000,
              "duration": 8150000
            },
            "source_timerange": {
              "start": 0,
              "duration": 5038730
            },
            "clip": {
              "alpha": 1.0,
              "rotation": 0.0,
              "scale": {
                "x": 1.33,
                "y": 1.33
              },
              "transform": {
                "x": 0.0,
                "y": 0.0
              }
            }
          },
          {
            "id": "51B03E2B-778D-45CE-B025-73B36921F776",
            "material_id": "99AEE1B3-3434-435C-B3AE-E48A1C4EC58F",
            "render_index": 0,
            "volume": 1.0,
            "target_timerange": {
              "start": 636864000,
              "duration": 5055000
            },
            "source_timerange": {
              "start": 0,
              "duration": 5038730
            },
            "clip": {
              "alpha": 1.0,
              "rotation": 0.0,
              "scale": {
                "x": 1.33,
                "y": 1.33
              },
              "transform": {
                "x": 0.0,
                "y": 0.0
              }
            }
          },
          {
            "id": "13F148A6-19CA-446D-8E4D-0B4D843D3015",
            "material_id": "CF96FD97-FF80-42DF-AC7F-AB0AA7B826FC",
            "render_index": 0,
            "volume": 1.0,
            "target_timerange": {
              "start": 641919000,
              "duration": 7126000
            },
            "source_timerange": {
              "start": 0,
              "duration": 5038730
            },
            "clip": {
              "alpha": 1.0,
              "rotation": 0.0,
              "scale": {
                "x": 1.33,
                "y": 1.33
              },
              "transform": {
                "x": 0.0,
                "y": 0.0
              }
            }
          },
          {
            "id": "1488A90D-983B-4595-8A1C-EF655338E779",
            "material_id": "35FF9ADC-2A8A-4DF2-9B46-4DB532A96766",
            "render_index": 0,
            "volume": 1.0,
            "target_timerange": {
              "start": 649045000,
              "duration": 7658000
            },
            "source_timerange": {
              "start": 0,
              "duration": 5038730
            },
            "clip": {
              "alpha": 1.0,
              "rotation": 0.0,
              "scale": {
                "x": 1.33,
                "y": 1.33
              },
              "transform": {
                "x": 0.0,
                "y": 0.0
              }
            }
          },
          {
            "id": "BBFFD088-4E5F-449B-8773-104926FF593C",
            "material_id": "87ACAC3F-F1F2-4F19-B542-ED328EC29DB7",
            "render_index": 0,
            "volume": 1.0,
            "target_timerange": {
              "start": 656703000,
              "duration": 3393000
            },
            "source_timerange": {
              "start": 0,
              "duration": 3393000
            },
            "clip": {
              "alpha": 1.0,
              "rotation": 0.0,
              "scale": {
                "x": 1.33,
                "y": 1.33
              },
              "transform": {
                "x": 0.0,
                "y": 0.0
              }
            }
          },
          {
            "id": "DAA6ABA0-F578-409F-804B-BB71ACC0985A",
            "material_id": "C42AA4E6-7185-42F4-A727-8FAB7ED9B84C",
            "render_index": 0,
            "volume": 1.0,
            "target_timerange": {
              "start": 660096000,
              "duration": 7786000
            },
            "source_timerange": {
              "start": 0,
              "duration": 5038730
            },
            "clip": {
              "alpha": 1.0,
              "rotation": 0.0,
              "scale": {
                "x": 1.33,
                "y": 1.33
              },
              "transform": {
                "x": 0.0,
                "y": 0.0
              }
            }
          },
          {
            "id": "902655CC-0BE7-49D5-BCDF-37960BDA225C",
            "material_id": "1E887069-F413-423B-B01E-8B5557F8D6D6",
            "render_index": 0,
            "volume": 1.0,
            "target_timerange": {
              "start": 667882000,
              "duration": 2923000
            },
            "source_timerange": {
              "start": 0,
              "duration": 2923000
            },
            "clip": {
              "alpha": 1.0,
              "rotation": 0.0,
              "scale": {
                "x": 1.33,
                "y": 1.33
              },
              "transform": {
                "x": 0.0,
                "y": 0.0
              }
            }
          },
          {
            "id": "70B0216D-D82A-4229-9424-C83CCA36A966",
            "material_id": "47041E6C-7C9B-429B-AB2A-C7A0E3258A80",
            "render_index": 0,
            "volume": 1.0,
            "target_timerange": {
              "start": 670805000,
              "duration": 6955000
            },
            "source_timerange": {
              "start": 0,
              "duration": 5038730
            },
            "clip": {
              "alpha": 1.0,
              "rotation": 0.0,
              "scale": {
                "x": 1.33,
                "y": 1.33
              },
              "transform": {
                "x": 0.0,
                "y": 0.0
              }
            }
          },
          {
            "id": "D43D3438-F549-4F9D-99A9-AC3047A075C1",
            "material_id": "B85D7713-C763-44EF-AB55-D742A6F988BD",
            "render_index": 0,
            "volume": 1.0,
            "target_timerange": {
              "start": 677760000,
              "duration": 3306000
            },
            "source_timerange": {
              "start": 0,
              "duration": 3306000
            },
            "clip": {
              "alpha": 1.0,
              "rotation": 0.0,
              "scale": {
                "x": 1.33,
                "y": 1.33
              },
              "transform": {
                "x": 0.0,
                "y": 0.0
              }
            }
          },
          {
            "id": "BE30DCD7-2D1A-4EBE-9B0D-E3CCE7800A37",
            "material_id": "17044C58-6A3A-42EE-B569-4C44FB970C86",
            "render_index": 0,
            "volume": 1.0,
            "target_timerange": {
              "start": 681066000,
              "duration": 7446000
            },
            "source_timerange": {
              "start": 0,
              "duration": 5038730
            },
            "clip": {
              "alpha": 1.0,
              "rotation": 0.0,
              "scale": {
                "x": 1.33,
                "y": 1.33
              },
              "transform": {
                "x": 0.0,
                "y": 0.0
              }
            }
          },
          {
            "id": "D8B62ADF-D180-497A-A886-140A8171C0AC",
            "material_id": "B9C5FFB2-03B1-4621-BC36-E47170623DF2",
            "render_index": 0,
            "volume": 1.0,
            "target_timerange": {
              "start": 688512000,
              "duration": 8277000
            },
            "source_timerange": {
              "start": 0,
              "duration": 5038730
            },
            "clip": {
              "alpha": 1.0,
              "rotation": 0.0,
              "scale": {
                "x": 1.33,
                "y": 1.33
              },
              "transform": {
                "x": 0.0,
                "y": 0.0
              }
            }
          },
          {
            "id": "0F0F463A-59B2-46BF-B896-9671D09E938D",
            "material_id": "C254CE1B-054A-40F6-B949-00E4E196D3DA",
            "render_index": 0,
            "volume": 1.0,
            "target_timerange": {
              "start": 696789000,
              "duration": 9173000
            },
            "source_timerange": {
              "start": 0,
              "duration": 5038730
            },
            "clip": {
              "alpha": 1.0,
              "rotation": 0.0,
              "scale": {
                "x": 1.33,
                "y": 1.33
              },
              "transform": {
                "x": 0.0,
                "y": 0.0
              }
            }
          },
          {
            "id": "2873097C-D495-48AD-9CB6-B28CEACAD8D7",
            "material_id": "5F8A4B56-7F67-4271-ABAB-1CE1A44C96CF",
            "render_index": 0,
            "volume": 1.0,
            "target_timerange": {
              "start": 705962000,
              "duration": 3968000
            },
            "source_timerange": {
              "start": 0,
              "duration": 3968000
            },
            "clip": {
              "alpha": 1.0,
              "rotation": 0.0,
              "scale": {
                "x": 1.33,
                "y": 1.33
              },
              "transform": {
                "x": 0.0,
                "y": 0.0
              }
            }
          },
          {
            "id": "72D57F44-1017-43A0-A1E0-EDE4FA249EB1",
            "material_id": "4A670DC4-D1F2-462D-92AE-EE0A95D45C5A",
            "render_index": 0,
            "volume": 1.0,
            "target_timerange": {
              "start": 709930000,
              "duration": 8235000
            },
            "source_timerange": {
              "start": 0,
              "duration": 5038730
            },
            "clip": {
              "alpha": 1.0,
              "rotation": 0.0,
              "scale": {
                "x": 1.33,
                "y": 1.33
              },
              "transform": {
                "x": 0.0,
                "y": 0.0
              }
            }
          },
          {
            "id": "E76C7E43-A165-4BC7-A9DB-497D537F52B4",
            "material_id": "872C5379-5FA1-4829-B4BC-DC03DD3DFFB8",
            "render_index": 0,
            "volume": 1.0,
            "target_timerange": {
              "start": 718165000,
              "duration": 7040000
            },
            "source_timerange": {
              "start": 0,
              "duration": 5038730
            },
            "clip": {
              "alpha": 1.0,
              "rotation": 0.0,
              "scale": {
                "x": 1.33,
                "y": 1.33
              },
              "transform": {
                "x": 0.0,
                "y": 0.0
              }
            }
          },
          {
            "id": "B4C19DDC-0B83-47A3-A300-202FE5808D36",
            "material_id": "E8DEA538-A583-4660-A2FF-DEF1C6071161",
            "render_index": 0,
            "volume": 1.0,
            "target_timerange": {
              "start": 725205000,
              "duration": 9578000
            },
            "source_timerange": {
              "start": 0,
              "duration": 5038730
            },
            "clip": {
              "alpha": 1.0,
              "rotation": 0.0,
              "scale": {
                "x": 1.33,
                "y": 1.33
              },
              "transform": {
                "x": 0.0,
                "y": 0.0
              }
            }
          },
          {
            "id": "6BB5C252-C7C4-4668-9343-E4C9D5F8BC79",
            "material_id": "D98CC1A5-529D-4305-BF42-659DB926EB1C",
            "render_index": 0,
            "volume": 1.0,
            "target_timerange": {
              "start": 734783000,
              "duration": 8128000
            },
            "source_timerange": {
              "start": 0,
              "duration": 5038730
            },
            "clip": {
              "alpha": 1.0,
              "rotation": 0.0,
              "scale": {
                "x": 1.33,
                "y": 1.33
              },
              "transform": {
                "x": 0.0,
                "y": 0.0
              }
            }
          },
          {
            "id": "75008ED1-3777-41B9-8246-559DB76A96EA",
            "material_id": "5D5F81D8-1CD9-4C83-A7BA-27E7738E436C",
            "render_index": 0,
            "volume": 1.0,
            "target_timerange": {
              "start": 742911000,
              "duration": 5312000
            },
            "source_timerange": {
              "start": 0,
              "duration": 5038730
            },
            "clip": {
              "alpha": 1.0,
              "rotation": 0.0,
              "scale": {
                "x": 1.33,
                "y": 1.33
              },
              "transform": {
                "x": 0.0,
                "y": 0.0
              }
            }
          },
          {
            "id": "98F880E4-1447-49D0-8C2A-80D8D8160E76",
            "material_id": "EC49F548-B829-4C59-B2EB-5D042E7D75FB",
            "render_index": 0,
            "volume": 1.0,
            "target_timerange": {
              "start": 748223000,
              "duration": 5014000
            },
            "source_timerange": {
              "start": 0,
              "duration": 5014000
            },
            "clip": {
              "alpha": 1.0,
              "rotation": 0.0,
              "scale": {
                "x": 1.33,
                "y": 1.33
              },
              "transform": {
                "x": 0.0,
                "y": 0.0
              }
            }
          },
          {
            "id": "F9A97828-5010-461E-B90D-E6E9C49EB5D3",
            "material_id": "816A2B20-9CE5-4734-98B6-DD1CC082A4FB",
            "render_index": 0,
            "volume": 1.0,
            "target_timerange": {
              "start": 753237000,
              "duration": 5589000
            },
            "source_timerange": {
              "start": 0,
              "duration": 5038730
            },
            "clip": {
              "alpha": 1.0,
              "rotation": 0.0,
              "scale": {
                "x": 1.33,
                "y": 1.33
              },
              "transform": {
                "x": 0.0,
                "y": 0.0
              }
            }
          },
          {
            "id": "95848C51-FF57-4341-961C-E94AC9502466",
            "material_id": "C7D47D4B-52FD-4B99-94FD-62062D7A77AF",
            "render_index": 0,
            "volume": 1.0,
            "target_timerange": {
              "start": 758826000,
              "duration": 7830000
            },
            "source_timerange": {
              "start": 0,
              "duration": 5038730
            },
            "clip": {
              "alpha": 1.0,
              "rotation": 0.0,
              "scale": {
                "x": 1.33,
                "y": 1.33
              },
              "transform": {
                "x": 0.0,
                "y": 0.0
              }
            }
          },
          {
            "id": "B8A7F68C-1382-4F55-8239-C7B802D7EF5B",
            "material_id": "C6E92BB3-164D-4077-8F9F-15736768107D",
            "render_index": 0,
            "volume": 1.0,
            "target_timerange": {
              "start": 766656000,
              "duration": 4138000
            },
            "source_timerange": {
              "start": 0,
              "duration": 4138000
            },
            "clip": {
              "alpha": 1.0,
              "rotation": 0.0,
              "scale": {
                "x": 1.33,
                "y": 1.33
              },
              "transform": {
                "x": 0.0,
                "y": 0.0
              }
            }
          },
          {
            "id": "51A35952-F425-44FE-92AE-243C33E76021",
            "material_id": "42D4017A-AAAA-4D5A-B324-B891E3C38406",
            "render_index": 0,
            "volume": 1.0,
            "target_timerange": {
              "start": 770794000,
              "duration": 6059000
            },
            "source_timerange": {
              "start": 0,
              "duration": 5038730
            },
            "clip": {
              "alpha": 1.0,
              "rotation": 0.0,
              "scale": {
                "x": 1.33,
                "y": 1.33
              },
              "transform": {
                "x": 0.0,
                "y": 0.0
              }
            }
          },
          {
            "id": "2D4109B1-863B-422B-8EBA-E698EA8BBA4A",
            "material_id": "6F8BD393-F87B-4762-A868-1248600DF2F7",
            "render_index": 0,
            "volume": 1.0,
            "target_timerange": {
              "start": 776853000,
              "duration": 5205000
            },
            "source_timerange": {
              "start": 0,
              "duration": 5038730
            },
            "clip": {
              "alpha": 1.0,
              "rotation": 0.0,
              "scale": {
                "x": 1.33,
                "y": 1.33
              },
              "transform": {
                "x": 0.0,
                "y": 0.0
              }
            }
          },
          {
            "id": "84CB2C39-22BF-4A09-8377-951248E460C7",
            "material_id": "6D3B9A8C-424C-4A7C-BD2E-4EA5473BBD5E",
            "render_index": 0,
            "volume": 1.0,
            "target_timerange": {
              "start": 782058000,
              "duration": 3222000
            },
            "source_timerange": {
              "start": 0,
              "duration": 3222000
            },
            "clip": {
              "alpha": 1.0,
              "rotation": 0.0,
              "scale": {
                "x": 1.33,
                "y": 1.33
              },
              "transform": {
                "x": 0.0,
                "y": 0.0
              }
            }
          },
          {
            "id": "39CC8B0F-7C25-43D8-8667-BAAB99BC60C7",
            "material_id": "04DBA1B6-426F-4675-BD91-615E1873B25D",
            "render_index": 0,
            "volume": 1.0,
            "target_timerange": {
              "start": 785280000,
              "duration": 7765000
            },
            "source_timerange": {
              "start": 0,
              "duration": 5038730
            },
            "clip": {
              "alpha": 1.0,
              "rotation": 0.0,
              "scale": {
                "x": 1.33,
                "y": 1.33
              },
              "transform": {
                "x": 0.0,
                "y": 0.0
              }
            }
          },
          {
            "id": "46602F85-758F-4AC0-AAE8-C7C1732CCC48",
            "material_id": "002F9397-B736-4D7B-9EDB-29D50474979D",
            "render_index": 0,
            "volume": 1.0,
            "target_timerange": {
              "start": 793045000,
              "duration": 2709000
            },
            "source_timerange": {
              "start": 0,
              "duration": 2709000
            },
            "clip": {
              "alpha": 1.0,
              "rotation": 0.0,
              "scale": {
                "x": 1.33,
                "y": 1.33
              },
              "transform": {
                "x": 0.0,
                "y": 0.0
              }
            }
          },
          {
            "id": "1C94AAB3-A5B8-4848-8733-B76532C20F66",
            "material_id": "420E3443-FE0F-4D56-ADD4-D5B20D714851",
            "render_index": 0,
            "volume": 1.0,
            "target_timerange": {
              "start": 795754000,
              "duration": 4693000
            },
            "source_timerange": {
              "start": 0,
              "duration": 4693000
            },
            "clip": {
              "alpha": 1.0,
              "rotation": 0.0,
              "scale": {
                "x": 1.33,
                "y": 1.33
              },
              "transform": {
                "x": 0.0,
                "y": 0.0
              }
            }
          },
          {
            "id": "2B5AE151-D652-4597-B9C9-1C0A7E72CDD9",
            "material_id": "7DE4E079-6BC3-45C2-9453-5D45A663DF1D",
            "render_index": 0,
            "volume": 1.0,
            "target_timerange": {
              "start": 800447000,
              "duration": 3649000
            },
            "source_timerange": {
              "start": 0,
              "duration": 3649000
            },
            "clip": {
              "alpha": 1.0,
              "rotation": 0.0,
              "scale": {
                "x": 1.33,
                "y": 1.33
              },
              "transform": {
                "x": 0.0,
                "y": 0.0
              }
            }
          },
          {
            "id": "455850BD-739C-43EF-B9B4-22B81DF80521",
            "material_id": "D39068CB-E445-4827-8920-54DC3127E028",
            "render_index": 0,
            "volume": 1.0,
            "target_timerange": {
              "start": 804096000,
              "duration": 5674000
            },
            "source_timerange": {
              "start": 0,
              "duration": 5038730
            },
            "clip": {
              "alpha": 1.0,
              "rotation": 0.0,
              "scale": {
                "x": 1.33,
                "y": 1.33
              },
              "transform": {
                "x": 0.0,
                "y": 0.0
              }
            }
          },
          {
            "id": "2973A98E-9B85-4A55-BEDE-9D4A5606B888",
            "material_id": "98172ACD-EE9B-415C-937F-30A2280811EF",
            "render_index": 0,
            "volume": 1.0,
            "target_timerange": {
              "start": 809770000,
              "duration": 10624000
            },
            "source_timerange": {
              "start": 0,
              "duration": 5038730
            },
            "clip": {
              "alpha": 1.0,
              "rotation": 0.0,
              "scale": {
                "x": 1.33,
                "y": 1.33
              },
              "transform": {
                "x": 0.0,
                "y": 0.0
              }
            }
          },
          {
            "id": "FBD3B908-FBA5-4679-8FDA-2C3A69C901FD",
            "material_id": "3147D9A3-613C-41AC-B588-3477C502FF8D",
            "render_index": 0,
            "volume": 1.0,
            "target_timerange": {
              "start": 820394000,
              "duration": 10539000
            },
            "source_timerange": {
              "start": 0,
              "duration": 5038730
            },
            "clip": {
              "alpha": 1.0,
              "rotation": 0.0,
              "scale": {
                "x": 1.33,
                "y": 1.33
              },
              "transform": {
                "x": 0.0,
                "y": 0.0
              }
            }
          },
          {
            "id": "2A7ED914-8CE1-49F8-B900-CBE29513FA04",
            "material_id": "36784349-FB5C-459F-A85D-DDD5DB1CB551",
            "render_index": 0,
            "volume": 1.0,
            "target_timerange": {
              "start": 830933000,
              "duration": 4928000
            },
            "source_timerange": {
              "start": 0,
              "duration": 4928000
            },
            "clip": {
              "alpha": 1.0,
              "rotation": 0.0,
              "scale": {
                "x": 1.33,
                "y": 1.33
              },
              "transform": {
                "x": 0.0,
                "y": 0.0
              }
            }
          },
          {
            "id": "55B08B99-C20A-43C3-97D5-11FA954A43E6",
            "material_id": "B4FEE159-F74B-4568-B82A-CC0484BBE42B",
            "render_index": 0,
            "volume": 1.0,
            "target_timerange": {
              "start": 835861000,
              "duration": 7232000
            },
            "source_timerange": {
              "start": 0,
              "duration": 5038730
            },
            "clip": {
              "alpha": 1.0,
              "rotation": 0.0,
              "scale": {
                "x": 1.33,
                "y": 1.33
              },
              "transform": {
                "x": 0.0,
                "y": 0.0
              }
            }
          },
          {
            "id": "CCC00FEA-2C39-4DBA-94BE-1711A2F62EF9",
            "material_id": "81633970-6459-48A3-9010-DBC0BBD209E1",
            "render_index": 0,
            "volume": 1.0,
            "target_timerange": {
              "start": 843093000,
              "duration": 6698000
            },
            "source_timerange": {
              "start": 0,
              "duration": 5038730
            },
            "clip": {
              "alpha": 1.0,
              "rotation": 0.0,
              "scale": {
                "x": 1.33,
                "y": 1.33
              },
              "transform": {
                "x": 0.0,
                "y": 0.0
              }
            }
          },
          {
            "id": "4ED4C6AF-8C63-4338-9588-A6FCE7A71674",
            "material_id": "A5619CE0-7AA9-4621-BC37-A85906F6B21E",
            "render_index": 0,
            "volume": 1.0,
            "target_timerange": {
              "start": 849791000,
              "duration": 5035000
            },
            "source_timerange": {
              "start": 0,
              "duration": 5035000
            },
            "clip": {
              "alpha": 1.0,
              "rotation": 0.0,
              "scale": {
                "x": 1.33,
                "y": 1.33
              },
              "transform": {
                "x": 0.0,
                "y": 0.0
              }
            }
          },
          {
            "id": "B47CFFF7-0251-4F89-A874-B402D3379D50",
            "material_id": "8E2F2497-5708-4FC4-BD94-264E913BF95A",
            "render_index": 0,
            "volume": 1.0,
            "target_timerange": {
              "start": 854826000,
              "duration": 9046000
            },
            "source_timerange": {
              "start": 0,
              "duration": 5038730
            },
            "clip": {
              "alpha": 1.0,
              "rotation": 0.0,
              "scale": {
                "x": 1.33,
                "y": 1.33
              },
              "transform": {
                "x": 0.0,
                "y": 0.0
              }
            }
          },
          {
            "id": "806C6894-EDBA-4DD1-9F29-47D59015A504",
            "material_id": "7EB2CEA9-278E-46E3-B38F-6B551F2FDF7F",
            "render_index": 0,
            "volume": 1.0,
            "target_timerange": {
              "start": 863872000,
              "duration": 11541000
            },
            "source_timerange": {
              "start": 0,
              "duration": 5038730
            },
            "clip": {
              "alpha": 1.0,
              "rotation": 0.0,
              "scale": {
                "x": 1.33,
                "y": 1.33
              },
              "transform": {
                "x": 0.0,
                "y": 0.0
              }
            }
          },
          {
            "id": "FDAB86A0-DFCE-424E-A348-417D061EECDD",
            "material_id": "A9B4675E-38CE-4452-B442-3F40A24A130A",
            "render_index": 0,
            "volume": 1.0,
            "target_timerange": {
              "start": 875413000,
              "duration": 3925000
            },
            "source_timerange": {
              "start": 0,
              "duration": 3925000
            },
            "clip": {
              "alpha": 1.0,
              "rotation": 0.0,
              "scale": {
                "x": 1.33,
                "y": 1.33
              },
              "transform": {
                "x": 0.0,
                "y": 0.0
              }
            }
          },
          {
            "id": "0A26FEBC-3C18-481C-8A33-276C4CF879D9",
            "material_id": "805D8CE6-456E-4B29-9C27-6E7EC6A52E9E",
            "render_index": 0,
            "volume": 1.0,
            "target_timerange": {
              "start": 879338000,
              "duration": 9280000
            },
            "source_timerange": {
              "start": 0,
              "duration": 5038730
            },
            "clip": {
              "alpha": 1.0,
              "rotation": 0.0,
              "scale": {
                "x": 1.33,
                "y": 1.33
              },
              "transform": {
                "x": 0.0,
                "y": 0.0
              }
            }
          },
          {
            "id": "AB8937BA-EC53-4596-A6EB-F6E3A1B35B82",
            "material_id": "1D84B362-9250-4ADA-8D07-95A987B02A05",
            "render_index": 0,
            "volume": 1.0,
            "target_timerange": {
              "start": 888618000,
              "duration": 7936000
            },
            "source_timerange": {
              "start": 0,
              "duration": 5038730
            },
            "clip": {
              "alpha": 1.0,
              "rotation": 0.0,
              "scale": {
                "x": 1.33,
                "y": 1.33
              },
              "transform": {
                "x": 0.0,
                "y": 0.0
              }
            }
          },
          {
            "id": "F2FCBC08-2624-4DF6-8AE4-E3BED70A0A08",
            "material_id": "FE85CEF5-A6F8-45B6-9B80-03476881A6B0",
            "render_index": 0,
            "volume": 1.0,
            "target_timerange": {
              "start": 896554000,
              "duration": 4587000
            },
            "source_timerange": {
              "start": 0,
              "duration": 4587000
            },
            "clip": {
              "alpha": 1.0,
              "rotation": 0.0,
              "scale": {
                "x": 1.33,
                "y": 1.33
              },
              "transform": {
                "x": 0.0,
                "y": 0.0
              }
            }
          },
          {
            "id": "EFDCBB3C-6FD7-492F-96D2-E0DE6EB33B65",
            "material_id": "0FCE82BF-75C6-45BF-A7EA-3BE7D85F05EE",
            "render_index": 0,
            "volume": 1.0,
            "target_timerange": {
              "start": 901141000,
              "duration": 2837000
            },
            "source_timerange": {
              "start": 0,
              "duration": 2837000
            },
            "clip": {
              "alpha": 1.0,
              "rotation": 0.0,
              "scale": {
                "x": 1.33,
                "y": 1.33
              },
              "transform": {
                "x": 0.0,
                "y": 0.0
              }
            }
          },
          {
            "id": "23CFF6D5-6CA8-4634-8B85-D0A24DE63AD4",
            "material_id": "FB139138-40D8-4BBA-B888-28ABA06B15BE",
            "render_index": 0,
            "volume": 1.0,
            "target_timerange": {
              "start": 903978000,
              "duration": 13269000
            },
            "source_timerange": {
              "start": 0,
              "duration": 5038730
            },
            "clip": {
              "alpha": 1.0,
              "rotation": 0.0,
              "scale": {
                "x": 1.33,
                "y": 1.33
              },
              "transform": {
                "x": 0.0,
                "y": 0.0
              }
            }
          },
          {
            "id": "AB57DA57-CAC9-45A3-B4A3-2B08F7E76874",
            "material_id": "31921A3C-C3F6-4FD7-BC50-96FE51524809",
            "render_index": 0,
            "volume": 1.0,
            "target_timerange": {
              "start": 917247000,
              "duration": 11606000
            },
            "source_timerange": {
              "start": 0,
              "duration": 5038730
            },
            "clip": {
              "alpha": 1.0,
              "rotation": 0.0,
              "scale": {
                "x": 1.33,
                "y": 1.33
              },
              "transform": {
                "x": 0.0,
                "y": 0.0
              }
            }
          },
          {
            "id": "3135BAEB-D145-4B60-AF25-95A901091992",
            "material_id": "E3B28011-39A7-4274-A1A6-9B6018ADC01A",
            "render_index": 0,
            "volume": 1.0,
            "target_timerange": {
              "start": 928853000,
              "duration": 5610000
            },
            "source_timerange": {
              "start": 0,
              "duration": 5038730
            },
            "clip": {
              "alpha": 1.0,
              "rotation": 0.0,
              "scale": {
                "x": 1.33,
                "y": 1.33
              },
              "transform": {
                "x": 0.0,
                "y": 0.0
              }
            }
          },
          {
            "id": "FE8F6E0E-BDCF-4307-B728-8CE1100897A3",
            "material_id": "33ACB4AF-49A8-463D-9B5B-5DBB57CFC74C",
            "render_index": 0,
            "volume": 1.0,
            "target_timerange": {
              "start": 934463000,
              "duration": 5654000
            },
            "source_timerange": {
              "start": 0,
              "duration": 5038730
            },
            "clip": {
              "alpha": 1.0,
              "rotation": 0.0,
              "scale": {
                "x": 1.33,
                "y": 1.33
              },
              "transform": {
                "x": 0.0,
                "y": 0.0
              }
            }
          },
          {
            "id": "605C508E-7F0D-42E6-8466-6D5E49377FE8",
            "material_id": "82448D98-1077-4B21-8B24-2D006554927F",
            "render_index": 0,
            "volume": 1.0,
            "target_timerange": {
              "start": 940117000,
              "duration": 5269000
            },
            "source_timerange": {
              "start": 0,
              "duration": 5038730
            },
            "clip": {
              "alpha": 1.0,
              "rotation": 0.0,
              "scale": {
                "x": 1.33,
                "y": 1.33
              },
              "transform": {
                "x": 0.0,
                "y": 0.0
              }
            }
          },
          {
            "id": "121EE2D1-9540-4BC2-87C4-E70A009E0FC2",
            "material_id": "B9F78786-70B6-4718-BADD-EA1D2DA2B557",
            "render_index": 0,
            "volume": 1.0,
            "target_timerange": {
              "start": 945386000,
              "duration": 12629000
            },
            "source_timerange": {
              "start": 0,
              "duration": 5038730
            },
            "clip": {
              "alpha": 1.0,
              "rotation": 0.0,
              "scale": {
                "x": 1.33,
                "y": 1.33
              },
              "transform": {
                "x": 0.0,
                "y": 0.0
              }
            }
          },
          {
            "id": "32480F47-13D8-4986-A3C0-B5BAF260D15E",
            "material_id": "1B505B1E-4E44-4EB2-9A34-46A6ABDBCF19",
            "render_index": 0,
            "volume": 1.0,
            "target_timerange": {
              "start": 958015000,
              "duration": 3350000
            },
            "source_timerange": {
              "start": 0,
              "duration": 3350000
            },
            "clip": {
              "alpha": 1.0,
              "rotation": 0.0,
              "scale": {
                "x": 1.33,
                "y": 1.33
              },
              "transform": {
                "x": 0.0,
                "y": 0.0
              }
            }
          },
          {
            "id": "189B3D67-82A7-4297-865F-E225FAA0964E",
            "material_id": "CC317E60-AB3C-498B-8FAF-1997CF77374C",
            "render_index": 0,
            "volume": 1.0,
            "target_timerange": {
              "start": 961365000,
              "duration": 6357000
            },
            "source_timerange": {
              "start": 0,
              "duration": 5038730
            },
            "clip": {
              "alpha": 1.0,
              "rotation": 0.0,
              "scale": {
                "x": 1.33,
                "y": 1.33
              },
              "transform": {
                "x": 0.0,
                "y": 0.0
              }
            }
          },
          {
            "id": "ADAAB5A3-E272-4FCD-9F80-8006D8AFB0C6",
            "material_id": "6FE35A39-4CE4-4B27-9752-29A19EBF03EC",
            "render_index": 0,
            "volume": 1.0,
            "target_timerange": {
              "start": 967722000,
              "duration": 2902000
            },
            "source_timerange": {
              "start": 0,
              "duration": 2902000
            },
            "clip": {
              "alpha": 1.0,
              "rotation": 0.0,
              "scale": {
                "x": 1.33,
                "y": 1.33
              },
              "transform": {
                "x": 0.0,
                "y": 0.0
              }
            }
          },
          {
            "id": "E5439256-3F93-4BAC-A7E6-8A005E87308B",
            "material_id": "F0538D22-FF1D-4ADF-9E03-C0BAC7F96082",
            "render_index": 0,
            "volume": 1.0,
            "target_timerange": {
              "start": 970624000,
              "duration": 3741000
            },
            "source_timerange": {
              "start": 0,
              "duration": 3741000
            },
            "clip": {
              "alpha": 1.0,
              "rotation": 0.0,
              "scale": {
                "x": 1.33,
                "y": 1.33
              },
              "transform": {
                "x": 0.0,
                "y": 0.0
              }
            }
          },
          {
            "id": "0D7F14A3-4AB7-44E7-9340-2FCCF7794893",
            "material_id": "FF0706E4-8605-40D4-9C78-D4A6496B090F",
            "render_index": 0,
            "volume": 1.0,
            "target_timerange": {
              "start": 974365000,
              "duration": 1925000
            },
            "source_timerange": {
              "start": 0,
              "duration": 1925000
            },
            "clip": {
              "alpha": 1.0,
              "rotation": 0.0,
              "scale": {
                "x": 1.33,
                "y": 1.33
              },
              "transform": {
                "x": 0.0,
                "y": 0.0
              }
            }
          }
        ]
      },
      {
        "id": "CE6D99D3-6549-4B95-8035-E32024ED7F17",
        "type": "audio",
        "segments": []
      },
      {
        "id": "0C90B254-B7BB-432B-9985-B0FE748A55DE",
        "type": "text",
        "segments": [
          {
            "id": "7F75D073-1D16-415F-952E-F728400D5723",
            "material_id": "04C65D17-A84C-4EFC-ACA8-51D58194558F",
            "target_timerange": {
              "start": 0,
              "duration": 1151000
            }
          },
          {
            "id": "4B8FB7DC-BBCD-4073-BE2C-167D40BE3B62",
            "material_id": "60AB0E10-296E-4956-8F9F-448B2315DFAF",
            "target_timerange": {
              "start": 1151000,
              "duration": 1217000
            }
          },
          {
            "id": "79E7D9DA-5569-4E06-8888-CFE9100FD123",
            "material_id": "10DF608E-56C2-49D7-8E57-088977B31E1D",
            "target_timerange": {
              "start": 2368000,
              "duration": 1109000
            }
          },
          {
            "id": "70B18A11-8FA3-46AE-849C-BC5C10A4CDA6",
            "material_id": "27DB0CDA-9465-42DD-B5C3-DD17577581BB",
            "target_timerange": {
              "start": 3477000,
              "duration": 1749000
            }
          },
          {
            "id": "EAFD680E-2F9D-4758-8CC1-FF8952794FA4",
            "material_id": "63668E4F-402A-4A85-97C6-B1266B987DBD",
            "target_timerange": {
              "start": 5226000,
              "duration": 1174000
            }
          },
          {
            "id": "26C0DE82-20EE-4233-8E1C-6FB0467F0ACC",
            "material_id": "3E56E09D-4E58-4448-A4B8-5FAAFBC75197",
            "target_timerange": {
              "start": 6400000,
              "duration": 1365000
            }
          },
          {
            "id": "75E96BF9-E3B5-4F30-AC83-32F6A3AA1330",
            "material_id": "E632037F-0AA6-440B-AA9A-701674551199",
            "target_timerange": {
              "start": 7765000,
              "duration": 875000
            }
          },
          {
            "id": "8920319D-9058-483C-ACE9-31190453E6E4",
            "material_id": "9327ADCD-3232-41B7-9755-B58574746DE7",
            "target_timerange": {
              "start": 8640000,
              "duration": 1578000
            }
          },
          {
            "id": "3EAB774C-01FD-4981-A058-47E1F82685E8",
            "material_id": "F14CB958-E58A-4986-B4C5-6483E035355F",
            "target_timerange": {
              "start": 10218000,
              "duration": 939000
            }
          },
          {
            "id": "5BFAC6E5-93B4-4754-8B04-E9A56AB255F9",
            "material_id": "A589B60C-6286-493D-9918-E40269369BA5",
            "target_timerange": {
              "start": 11157000,
              "duration": 917000
            }
          },
          {
            "id": "B15B792D-ACC4-4110-964F-8506FBE7592E",
            "material_id": "EB1DD71F-23EB-46E7-AC8B-ABE1D3B5AC54",
            "target_timerange": {
              "start": 12074000,
              "duration": 1387000
            }
          },
          {
            "id": "956A2F5B-2C21-4E9E-9057-AEFB7DFBC552",
            "material_id": "70787A68-7040-4902-9A40-436604B34C6C",
            "target_timerange": {
              "start": 13461000,
              "duration": 1514000
            }
          },
          {
            "id": "3A451B52-D8B8-48C5-B8B0-676C8AE79DAA",
            "material_id": "633AF6AD-EECF-4BFF-8877-FF11B62BC02E",
            "target_timerange": {
              "start": 14975000,
              "duration": 2497000
            }
          },
          {
            "id": "0091917E-248C-4F8A-B0B4-697C0A526675",
            "material_id": "14BA47AD-51A6-4888-BAB7-364B4A0D8776",
            "target_timerange": {
              "start": 17472000,
              "duration": 2239000
            }
          },
          {
            "id": "B9CC103F-AE45-4BDF-95CA-6A12D4381185",
            "material_id": "534478F9-3CA3-4049-B12A-A982D4B98467",
            "target_timerange": {
              "start": 19711000,
              "duration": 1409000
            }
          },
          {
            "id": "7703E744-1478-411C-91A8-581AF2B9F41E",
            "material_id": "254CE528-2C7A-4A07-97B4-CD4A3685A2E6",
            "target_timerange": {
              "start": 21120000,
              "duration": 2389000
            }
          },
          {
            "id": "CF42B4BC-6C34-4E53-A263-EBC255778B4F",
            "material_id": "72D98823-950A-4654-97E5-087A93DEA906",
            "target_timerange": {
              "start": 23509000,
              "duration": 1323000
            }
          },
          {
            "id": "A68A425A-0F69-4AF0-A495-ABF7731B3497",
            "material_id": "FDA05E07-60DD-434A-82E9-C8F75175458A",
            "target_timerange": {
              "start": 24832000,
              "duration": 2112000
            }
          },
          {
            "id": "D9823720-4C38-4D90-A592-79DABAB6DB4D",
            "material_id": "08927FF1-A69E-4854-B19A-65CB5B06C0BD",
            "target_timerange": {
              "start": 26944000,
              "duration": 1834000
            }
          },
          {
            "id": "3DB7D507-1631-4F33-ADE3-AF8DC9E48985",
            "material_id": "14459A27-7D7B-46C1-8B01-C51EA8E645E3",
            "target_timerange": {
              "start": 28778000,
              "duration": 1493000
            }
          },
          {
            "id": "AD90ED52-DDAB-4BFE-8988-FF4C86140E0A",
            "material_id": "279375E7-FFAA-49B8-AAE2-80D037CB7522",
            "target_timerange": {
              "start": 30271000,
              "duration": 1814000
            }
          },
          {
            "id": "011F2F36-3566-4825-836A-538EE7D93BA2",
            "material_id": "9475E6B2-EB4D-4349-8825-CDC0861F6E6D",
            "target_timerange": {
              "start": 32085000,
              "duration": 1899000
            }
          },
          {
            "id": "F5E82432-38A6-4D3C-AEBC-BD231311ED44",
            "material_id": "A7BBF792-69C9-4A2F-8F82-4F929B38A963",
            "target_timerange": {
              "start": 33984000,
              "duration": 1716000
            }
          },
          {
            "id": "B68728C6-B4E8-4EC7-8D3A-05D1715556E7",
            "material_id": "FA0F8458-15F0-40B5-B754-0D20E2440FFE",
            "target_timerange": {
              "start": 35700000,
              "duration": 566000
            }
          },
          {
            "id": "8AF19DF4-CACC-417A-91AF-E5EBBEC00D39",
            "material_id": "A9BE8249-E334-4756-B65C-896C0B0C2C9B",
            "target_timerange": {
              "start": 36266000,
              "duration": 1451000
            }
          },
          {
            "id": "C8978404-07ED-4B0C-94E8-D730AFCF45B3",
            "material_id": "A3289DCC-6E80-4C58-AB8B-F6B8D686EF81",
            "target_timerange": {
              "start": 37717000,
              "duration": 1130000
            }
          },
          {
            "id": "E3C125CE-62F6-4981-8AEC-5AE078F64A56",
            "material_id": "731130FD-E667-477B-9AEC-F029CA4C396F",
            "target_timerange": {
              "start": 38847000,
              "duration": 1353000
            }
          },
          {
            "id": "536BB51A-E1C1-4E6D-ADE5-3F79E52CB7D1",
            "material_id": "089441BC-4322-4FBD-879A-0CF899774029",
            "target_timerange": {
              "start": 40200000,
              "duration": 1357000
            }
          },
          {
            "id": "EDE28D19-BB54-4D29-8733-73D2BB1B18F6",
            "material_id": "9A7BEA76-7E9C-40E8-A5D9-A33971FAB79D",
            "target_timerange": {
              "start": 41557000,
              "duration": 811000
            }
          },
          {
            "id": "8B37BD76-C831-4B8F-9163-68A70C8F52F7",
            "material_id": "180CAE23-5C3D-4176-9E8A-CE82792946BD",
            "target_timerange": {
              "start": 42368000,
              "duration": 1215000
            }
          },
          {
            "id": "1DD62709-6EFC-4FAD-A767-60EB5BB5F501",
            "material_id": "5F62B857-D0BA-41E9-8416-7805B33CECAC",
            "target_timerange": {
              "start": 43583000,
              "duration": 1280000
            }
          },
          {
            "id": "500CEAF9-F2C9-4362-B064-79FBBC7E4B5A",
            "material_id": "2A33BE85-4F75-4E4A-8942-748FD282F896",
            "target_timerange": {
              "start": 44863000,
              "duration": 1472000
            }
          },
          {
            "id": "02A32D22-9EA5-4CBF-9A81-979FA0D10A86",
            "material_id": "70A609B3-660C-4C52-8BF7-A71B6A8D957E",
            "target_timerange": {
              "start": 46335000,
              "duration": 1472000
            }
          },
          {
            "id": "E24F1C29-E310-4647-A360-F19B3D72ACE4",
            "material_id": "6D8CD532-9EC6-48FA-A195-6E7156825067",
            "target_timerange": {
              "start": 47807000,
              "duration": 1430000
            }
          },
          {
            "id": "86D2D70F-E5B8-499E-8D51-BE26D2DB15A9",
            "material_id": "D9453421-8078-44ED-83B9-ADDA8CA6293C",
            "target_timerange": {
              "start": 49237000,
              "duration": 1514000
            }
          },
          {
            "id": "D33AB88D-3380-434F-9F58-3C65F2989278",
            "material_id": "C84A469B-751D-4AC3-991F-3408AAE84FED",
            "target_timerange": {
              "start": 50751000,
              "duration": 1089000
            }
          },
          {
            "id": "FE3A7C75-DE21-462B-AD28-7E2AB1E63008",
            "material_id": "B1D857B4-987C-4593-A6A0-1F6091AEDE07",
            "target_timerange": {
              "start": 51840000,
              "duration": 1152000
            }
          },
          {
            "id": "71922680-A1EC-483B-83B7-EAA6EAF38D24",
            "material_id": "21DA7986-225B-4729-82C7-F78B2101AC82",
            "target_timerange": {
              "start": 52992000,
              "duration": 1365000
            }
          },
          {
            "id": "5ECB4383-A12B-476C-9F13-4A597D61F5A4",
            "material_id": "BC72094E-4D2F-4703-88F2-FC59F1DF8558",
            "target_timerange": {
              "start": 54357000,
              "duration": 1429000
            }
          },
          {
            "id": "0E3D98E8-6338-4D4E-9485-D1D0549B84B8",
            "material_id": "EC6E3D04-6193-425F-B0AD-ABF9E2700052",
            "target_timerange": {
              "start": 55786000,
              "duration": 811000
            }
          },
          {
            "id": "231554C3-964C-466C-B61C-44FB4375BED9",
            "material_id": "9E8AB6CC-335F-4260-A263-4C833C123ADE",
            "target_timerange": {
              "start": 56597000,
              "duration": 1024000
            }
          },
          {
            "id": "46CB4230-CD36-4756-BBA9-1E209F738BCA",
            "material_id": "E91EBE14-281A-4D17-823B-FD20B3566EB7",
            "target_timerange": {
              "start": 57621000,
              "duration": 1365000
            }
          },
          {
            "id": "58F83AC2-5637-43D2-8F3D-7062F6355613",
            "material_id": "2A35A584-E88A-4EFF-9E69-B7ECABD913B1",
            "target_timerange": {
              "start": 58986000,
              "duration": 1173000
            }
          },
          {
            "id": "1F69775C-E53E-45EF-9298-AD1881C0ADFB",
            "material_id": "2A9B1664-0821-43F3-8C63-CA27694FBCB0",
            "target_timerange": {
              "start": 60159000,
              "duration": 1195000
            }
          },
          {
            "id": "8C9F3D75-69E3-4739-A3ED-3998CBA68B4F",
            "material_id": "7E94C5F7-D73D-4BFD-AE79-04169F1B554D",
            "target_timerange": {
              "start": 61354000,
              "duration": 1237000
            }
          },
          {
            "id": "B4517AF2-EAC2-4FD5-9D52-97868C87EE2C",
            "material_id": "50A783B7-0CEC-4FCF-98F8-122D51C5F970",
            "target_timerange": {
              "start": 62591000,
              "duration": 1323000
            }
          },
          {
            "id": "1E842485-BE2B-4DAE-9B53-4C34CD55E6F4",
            "material_id": "25D80C78-29EE-493B-B7EB-24BFD793956E",
            "target_timerange": {
              "start": 63914000,
              "duration": 789999
            }
          },
          {
            "id": "6555BB11-1CD8-4AC0-9B40-21AE9DE69E92",
            "material_id": "6B3485E0-163D-4CA1-9D3B-9793A9BAEDD4",
            "target_timerange": {
              "start": 64703999,
              "duration": 2474001
            }
          },
          {
            "id": "DC64380C-5786-4C6C-A7E1-58CBA1EFA79C",
            "material_id": "5FD5C65F-C044-4345-B5E0-DBB57B56660E",
            "target_timerange": {
              "start": 67178000,
              "duration": 1067000
            }
          },
          {
            "id": "2E84F9A0-2143-4881-9BDB-C7201395E1A0",
            "material_id": "7529C77F-7CEC-4E26-92B9-49749A2C1D9E",
            "target_timerange": {
              "start": 68245000,
              "duration": 1536000
            }
          },
          {
            "id": "00B6F975-3C5A-424C-86E1-9F96498668AC",
            "material_id": "5A6869F7-E1D4-4AC7-8864-6C8FA9EF6E23",
            "target_timerange": {
              "start": 69781000,
              "duration": 789000
            }
          },
          {
            "id": "73B1C192-6363-49CF-9382-2DB25771ECA6",
            "material_id": "DEDB3149-4E32-4027-96CB-34AE384DCE48",
            "target_timerange": {
              "start": 70570000,
              "duration": 1536000
            }
          },
          {
            "id": "BC43CD21-9D0F-4844-9FB7-5AA8D7CB4707",
            "material_id": "9C539A87-729B-43C6-93FA-11796EA4855A",
            "target_timerange": {
              "start": 72106000,
              "duration": 1344000
            }
          },
          {
            "id": "6D3C7D46-3190-48C6-AE58-FF69CA5AF21C",
            "material_id": "F5C8826A-6969-479B-9C3E-F97676813BB3",
            "target_timerange": {
              "start": 73450000,
              "duration": 747000
            }
          },
          {
            "id": "38818297-2571-41C8-B1BA-064B6D25CF31",
            "material_id": "289D0EBF-4D4E-4CBA-9743-A2F350B9A981",
            "target_timerange": {
              "start": 74197000,
              "duration": 619000
            }
          },
          {
            "id": "FB3ACF74-40B8-41CF-AB69-46BE845D85CE",
            "material_id": "B2B857D4-3F12-4C29-8023-6D66AEB03F48",
            "target_timerange": {
              "start": 74816000,
              "duration": 810000
            }
          },
          {
            "id": "FB292D91-1FEA-4D86-8166-4CEDC5C8E17B",
            "material_id": "6DAF5E26-6F61-4E82-824A-EC91094E08A4",
            "target_timerange": {
              "start": 75626000,
              "duration": 683000
            }
          },
          {
            "id": "B7F95300-E294-40E8-8F60-E60344384E87",
            "material_id": "676C506D-3EA4-41C3-BE69-910431352851",
            "target_timerange": {
              "start": 76309000,
              "duration": 1237000
            }
          },
          {
            "id": "E281947A-CC8A-4534-B52F-1E8287BCD375",
            "material_id": "0433ED6E-14D3-4C5E-8FD7-F9FD359850A1",
            "target_timerange": {
              "start": 77546000,
              "duration": 1899000
            }
          },
          {
            "id": "82B8E8EE-88DC-4FD5-8D62-4F2913DE8E7D",
            "material_id": "F93E91BD-F42E-4327-9AAD-15865E25A9C3",
            "target_timerange": {
              "start": 79445000,
              "duration": 2025000
            }
          },
          {
            "id": "5F7AE979-8382-4099-877C-2015EB8698A9",
            "material_id": "7E5A24D1-B411-4059-9702-B551C7E68B35",
            "target_timerange": {
              "start": 81470000,
              "duration": 1452000
            }
          },
          {
            "id": "DAF874B5-8D25-4969-8AA2-925BCED88753",
            "material_id": "72748447-8D06-4974-AC69-AD032C877FA1",
            "target_timerange": {
              "start": 82922000,
              "duration": 789000
            }
          },
          {
            "id": "4A2D3620-D43A-4E81-B795-70AD52F7C3F2",
            "material_id": "683547BC-CB60-4456-9853-E6082DCC9960",
            "target_timerange": {
              "start": 83711000,
              "duration": 1089000
            }
          },
          {
            "id": "1B6C6CA9-8B05-4741-B76B-D029E4107DE2",
            "material_id": "C1C58DE7-9F75-47AE-8438-AA4559600CC5",
            "target_timerange": {
              "start": 84800000,
              "duration": 810000
            }
          },
          {
            "id": "0F4CC767-FC92-4596-A041-9FBBDDD478B8",
            "material_id": "1C1DD24E-58BA-4245-9D0C-FA3110AB48CA",
            "target_timerange": {
              "start": 85610000,
              "duration": 704000
            }
          },
          {
            "id": "B9F58C47-0E89-4F05-B454-B339DE7E30ED",
            "material_id": "CA8491B1-3B4A-4B05-B16E-A2938403D2F8",
            "target_timerange": {
              "start": 86314000,
              "duration": 2261000
            }
          },
          {
            "id": "B375EB09-76D6-4D16-B191-73439D766E83",
            "material_id": "18B7BAA3-B882-48C0-9F9B-D71799C87D12",
            "target_timerange": {
              "start": 88575000,
              "duration": 1942000
            }
          },
          {
            "id": "A3A5B7FA-41A9-44B3-9185-599B3C3A8F95",
            "material_id": "C31D80C2-1E7D-409C-8571-9AB78C1586F7",
            "target_timerange": {
              "start": 90517000,
              "duration": 1429000
            }
          },
          {
            "id": "29984797-C8D3-4D53-A36E-88E02991D012",
            "material_id": "7C883E0F-2C55-43E7-9167-11797B3A966B",
            "target_timerange": {
              "start": 91946000,
              "duration": 1216000
            }
          },
          {
            "id": "FF5A9736-E593-4DD5-A8C6-216C1CF156EF",
            "material_id": "23EC03A7-6D32-4AA6-AA62-BBDABC57D799",
            "target_timerange": {
              "start": 93162000,
              "duration": 1387000
            }
          },
          {
            "id": "557BDBAC-0EF6-47C0-B995-332F654DD6E7",
            "material_id": "F0FE3755-D7AF-4DBF-8267-B5020CFF8D07",
            "target_timerange": {
              "start": 94549000,
              "duration": 1109000
            }
          },
          {
            "id": "E38F0DF1-0D3E-45A3-974B-6C7FF96803BF",
            "material_id": "EF643BE0-DA16-4EA4-8B78-8DC3E8F44C01",
            "target_timerange": {
              "start": 95658000,
              "duration": 1024000
            }
          },
          {
            "id": "8B10C7DD-8E68-4E50-A1DE-90DC9620D5F5",
            "material_id": "849B4A28-3566-48BC-9AAD-6D7346C7D1D2",
            "target_timerange": {
              "start": 96682000,
              "duration": 768000
            }
          },
          {
            "id": "AF8F3D5E-749D-4182-A554-2C05229F0DA7",
            "material_id": "D8C269DC-1DC8-4199-B9A5-F96B217DB944",
            "target_timerange": {
              "start": 97450000,
              "duration": 2411000
            }
          },
          {
            "id": "278CFAAF-91BC-4891-8BE1-F2E8B2B65397",
            "material_id": "8CCE2DD7-73B6-47C3-BA7B-FE6C7001EDED",
            "target_timerange": {
              "start": 99861000,
              "duration": 1284000
            }
          },
          {
            "id": "5A46ADBB-DE23-48C2-8E8A-87E34426AF05",
            "material_id": "0C40B79B-CA38-41C4-8BAD-4F3568E6A7E4",
            "target_timerange": {
              "start": 101145000,
              "duration": 1447000
            }
          },
          {
            "id": "F7AEE6E9-5A55-418A-9F60-B4907506F8E9",
            "material_id": "EEC65C7D-347F-4173-A4AD-87098C9B3302",
            "target_timerange": {
              "start": 102592000,
              "duration": 1045000
            }
          },
          {
            "id": "FDB2659A-EF58-4F8E-B393-07873CC15F38",
            "material_id": "9866A511-EBED-4391-981E-8D9DD8966EEC",
            "target_timerange": {
              "start": 103637000,
              "duration": 981000
            }
          },
          {
            "id": "7B3EF35F-819F-4FA9-8C2D-5EC8A39B47EB",
            "material_id": "81F5144E-22B5-42D1-A695-0D555DB02C03",
            "target_timerange": {
              "start": 104618000,
              "duration": 1878000
            }
          },
          {
            "id": "04B5E1E2-BEC5-45E1-BC84-8F6526B19032",
            "material_id": "4BF9157C-BCF0-4C6C-9F8D-F9A8C3173BF9",
            "target_timerange": {
              "start": 106496000,
              "duration": 597000
            }
          },
          {
            "id": "FD9C5FEE-B2C7-499D-BE50-F820D973BC1D",
            "material_id": "486C463C-BE61-40CC-B206-DDA8C8D90931",
            "target_timerange": {
              "start": 107093000,
              "duration": 768000
            }
          },
          {
            "id": "EC39CC5E-A004-474F-BAEB-FE2064F5F696",
            "material_id": "FE7D5218-7704-4B2F-B9DD-8CC1512239FD",
            "target_timerange": {
              "start": 107861000,
              "duration": 1685000
            }
          },
          {
            "id": "BD3E4525-14ED-4497-B178-40ADDD4DEBAC",
            "material_id": "17E3C9D3-AC75-4D74-AE31-BDF22812AB23",
            "target_timerange": {
              "start": 109546000,
              "duration": 1088000
            }
          },
          {
            "id": "DD5B9925-B0E4-4060-B204-12A9366C0154",
            "material_id": "6AB4C2EF-AD2D-4A84-AB87-AF21F2FB3651",
            "target_timerange": {
              "start": 110634000,
              "duration": 661000
            }
          },
          {
            "id": "66B6354F-F994-4539-A04F-EDCBF2FF0433",
            "material_id": "2C903454-7080-4739-A393-4B1DFA3613BC",
            "target_timerange": {
              "start": 111295000,
              "duration": 1280000
            }
          },
          {
            "id": "17F99FA8-D96E-4BC1-A2BB-B28829993E84",
            "material_id": "EB158C0D-57C6-4993-B5FE-B865AB3B3DFF",
            "target_timerange": {
              "start": 112575000,
              "duration": 1451000
            }
          },
          {
            "id": "5E1BAB66-A42B-4505-9214-8249E722B7A4",
            "material_id": "D72AB4C6-D9C2-463E-8C80-6EE0BA6F0E05",
            "target_timerange": {
              "start": 114026000,
              "duration": 1173000
            }
          },
          {
            "id": "F0DB1B1E-64AB-4A20-8172-F9D021291171",
            "material_id": "D3D37E03-D885-4EB5-97CB-CA50DC2465B1",
            "target_timerange": {
              "start": 115199000,
              "duration": 1003000
            }
          },
          {
            "id": "C2B34B58-9AB8-4ABF-828E-141862AF8D61",
            "material_id": "78D72CAF-CFE8-4733-B8F7-BDE14623F985",
            "target_timerange": {
              "start": 116202000,
              "duration": 1173000
            }
          },
          {
            "id": "771A9E87-CCBD-4D19-A635-BCBAE4C864FA",
            "material_id": "29EB46D6-A1A0-4816-BF0C-12047CF2FFE2",
            "target_timerange": {
              "start": 117375000,
              "duration": 1302000
            }
          },
          {
            "id": "6A99956B-C5D6-4449-B691-97C5C9475A77",
            "material_id": "968E3B00-EDB6-4C8D-837E-DDA218FAAB48",
            "target_timerange": {
              "start": 118677000,
              "duration": 1344000
            }
          },
          {
            "id": "35EFCD52-BF46-4FE8-BE51-E12FCB3AE0E3",
            "material_id": "F816EB37-3A76-472B-B205-2CCFAED36A86",
            "target_timerange": {
              "start": 120021000,
              "duration": 2240000
            }
          },
          {
            "id": "E18D0B80-F1EB-4290-A16C-C456502943CB",
            "material_id": "3035A39E-57FC-4FAA-9593-76E525799208",
            "target_timerange": {
              "start": 122261000,
              "duration": 1109000
            }
          },
          {
            "id": "72A9C6C3-2DFD-408F-8870-24384B49EDE7",
            "material_id": "13228223-0786-4F9A-BD5A-35A5112A417F",
            "target_timerange": {
              "start": 123370000,
              "duration": 1088000
            }
          },
          {
            "id": "DFFC7CD5-ECE3-49B6-BA16-CB45F9527916",
            "material_id": "EE21DAFC-5A08-4566-A4F3-344AAB701C3E",
            "target_timerange": {
              "start": 124458000,
              "duration": 2304000
            }
          },
          {
            "id": "11DBE893-9490-4E5B-8E65-F4E629696FDF",
            "material_id": "7E96EBC2-BB98-482A-9416-D60F643197CD",
            "target_timerange": {
              "start": 126762000,
              "duration": 1045000
            }
          },
          {
            "id": "4AD9DEA0-67E9-4480-A9CE-4D25C8DF2DB4",
            "material_id": "0BAA7FC4-1B97-4374-97DB-68091DEA0E7F",
            "target_timerange": {
              "start": 127807000,
              "duration": 1878000
            }
          },
          {
            "id": "B74FBCD3-C7E2-40A0-B853-C3AA6F71F7D1",
            "material_id": "0D05690B-B224-4FD6-8164-FE2020ECE3A6",
            "target_timerange": {
              "start": 129685000,
              "duration": 2197000
            }
          },
          {
            "id": "A1DA2B80-42FB-4A0D-AB14-2A0A727ABC85",
            "material_id": "67E97123-0783-46C4-87D9-F4ABF50217C4",
            "target_timerange": {
              "start": 131882000,
              "duration": 1109999
            }
          },
          {
            "id": "BF86A414-061B-4793-8EB8-44653D5A4913",
            "material_id": "D4403E30-ADE7-4728-917A-5912EA4AA618",
            "target_timerange": {
              "start": 132991999,
              "duration": 1386001
            }
          },
          {
            "id": "B6BBFCC1-AD31-4698-AD7D-2229A135FDD0",
            "material_id": "3D7FB6C8-5405-41D5-AE62-773123E2219C",
            "target_timerange": {
              "start": 134378000,
              "duration": 1131000
            }
          },
          {
            "id": "8A8DC9B1-20F1-4C82-B292-7F02337DC2AF",
            "material_id": "D4198A81-3103-4F39-8F8A-E21C22CA7E53",
            "target_timerange": {
              "start": 135509000,
              "duration": 1323000
            }
          },
          {
            "id": "C53111E9-B515-473B-A0E0-34B2E1AA6ABA",
            "material_id": "8567E00F-2576-48BB-9A7C-0487AD28755D",
            "target_timerange": {
              "start": 136832000,
              "duration": 832000
            }
          },
          {
            "id": "315983AC-C6DB-449F-AB53-BE15CA4B8BD9",
            "material_id": "7BCCB4DE-5FE6-48BE-836C-75D0A323905C",
            "target_timerange": {
              "start": 137664000,
              "duration": 1898000
            }
          },
          {
            "id": "68E03923-FDA9-49A0-B142-849936C89F6E",
            "material_id": "8AF0259D-3C79-4463-AE6D-A2D84E4FD914",
            "target_timerange": {
              "start": 139562000,
              "duration": 1238000
            }
          },
          {
            "id": "55186252-CBA5-4AF9-AC32-DF642032C73D",
            "material_id": "AEA427CF-ABDE-4C96-9328-E2F3882E221E",
            "target_timerange": {
              "start": 140800000,
              "duration": 1088000
            }
          },
          {
            "id": "C86BD9AF-68C6-4261-87FD-FEF542930C6F",
            "material_id": "91EBDB2E-3465-4657-9639-7A3CFCFEBEF8",
            "target_timerange": {
              "start": 141888000,
              "duration": 1237000
            }
          },
          {
            "id": "8D5809ED-DB72-44C6-A256-3A5A26660267",
            "material_id": "F1B11C4E-D1C5-4F60-B9D9-DF15848D9466",
            "target_timerange": {
              "start": 143125000,
              "duration": 2005000
            }
          },
          {
            "id": "E599245A-DC6C-408F-83AE-E31DF2EDBE01",
            "material_id": "D6687047-A349-4C08-B6FD-99180B377E95",
            "target_timerange": {
              "start": 145130000,
              "duration": 981000
            }
          },
          {
            "id": "5F998D90-1418-4A41-A3A9-3B8B82129C06",
            "material_id": "2A00B2DD-6226-40F4-A499-4837CEB29D4A",
            "target_timerange": {
              "start": 146111000,
              "duration": 619000
            }
          },
          {
            "id": "4AF904A7-03D0-427C-9D43-3160B294487D",
            "material_id": "1FB9D64B-81BA-49AA-9BD4-F38F9DD0E0F5",
            "target_timerange": {
              "start": 146730000,
              "duration": 1280000
            }
          },
          {
            "id": "1D4066A7-CA6D-4805-B44C-7AEE5F0F02B6",
            "material_id": "676E500E-1D5D-4DD1-A98D-DC2DFDE2746F",
            "target_timerange": {
              "start": 148010000,
              "duration": 512000
            }
          },
          {
            "id": "C3DDED98-CC83-4744-9971-82547662952C",
            "material_id": "9BAEF05D-DA65-42A3-A42C-B31D53CBBDA8",
            "target_timerange": {
              "start": 148522000,
              "duration": 789000
            }
          },
          {
            "id": "8B9314F2-9CAB-49BA-8F34-DFA2C4BB6026",
            "material_id": "F7E464CE-861A-425F-91EA-74D8DEA850BF",
            "target_timerange": {
              "start": 149311000,
              "duration": 896000
            }
          },
          {
            "id": "B5C070B9-BB70-4FD0-8312-756FE5EE306F",
            "material_id": "C130339A-D11E-47B0-86F6-DD58D8B0EB6D",
            "target_timerange": {
              "start": 150207000,
              "duration": 1046000
            }
          },
          {
            "id": "34EAA14D-A219-4E26-91DA-2AEA31DED039",
            "material_id": "F06F0B0F-A84B-4AF7-8A71-E4369C2DD4B6",
            "target_timerange": {
              "start": 151253000,
              "duration": 533000
            }
          },
          {
            "id": "D9E135ED-DE41-4E34-8F6A-AD205B8B9021",
            "material_id": "EC762BB5-0CAF-4259-8EF1-B69166AA3EC3",
            "target_timerange": {
              "start": 151786000,
              "duration": 1499000
            }
          },
          {
            "id": "FD8AFAC8-19BA-4EAD-A53C-7B7B5FE3A399",
            "material_id": "7D513A74-52D9-446D-B3BF-49927AFBF6B3",
            "target_timerange": {
              "start": 153285000,
              "duration": 1616000
            }
          },
          {
            "id": "9978B2E2-0A40-4520-BAAA-545C99989CFD",
            "material_id": "7F983A38-588E-4E48-AC12-0F935A3A6AF8",
            "target_timerange": {
              "start": 154901000,
              "duration": 1194000
            }
          },
          {
            "id": "A2AF323B-8B93-4828-943E-AC2B2BAE9C6D",
            "material_id": "114B9A74-A24D-424E-8387-84F03F33B776",
            "target_timerange": {
              "start": 156095000,
              "duration": 705000
            }
          },
          {
            "id": "399DF2DC-0865-4DC9-B3ED-6ACCF857E85D",
            "material_id": "C6601FF6-5FB2-4A92-948C-3D27067C7534",
            "target_timerange": {
              "start": 156800000,
              "duration": 1706000
            }
          },
          {
            "id": "4C0D4614-992F-4F5D-BF76-A76C6FCBF825",
            "material_id": "9D19D037-5FA8-4C93-8520-DFECEA360F6F",
            "target_timerange": {
              "start": 158506000,
              "duration": 1387000
            }
          },
          {
            "id": "47DB68AB-AD9C-4013-AB38-F28DF338373F",
            "material_id": "E15FA46B-7D43-4CEB-A8A0-E7E66C1FD5A0",
            "target_timerange": {
              "start": 159893000,
              "duration": 1045000
            }
          },
          {
            "id": "42792F18-FFEF-4229-948F-BC5D5953A667",
            "material_id": "9A493551-584F-421B-A999-2EDA39FA3EB4",
            "target_timerange": {
              "start": 160938000,
              "duration": 1216000
            }
          },
          {
            "id": "F3F882FE-DABB-46CB-97E9-DAE0C9E837D8",
            "material_id": "24778150-2A4E-4F73-A98E-42C3DF787513",
            "target_timerange": {
              "start": 162154000,
              "duration": 555000
            }
          },
          {
            "id": "DDBFFFF5-E42A-483C-9FFA-9342CBAE5AB7",
            "material_id": "5C1C8100-6B88-4FC2-89D8-755FF85E4737",
            "target_timerange": {
              "start": 162709000,
              "duration": 1045000
            }
          },
          {
            "id": "A2A92CA6-E39A-47EB-8FC5-B1C4141A6D5D",
            "material_id": "45397CDA-BB9F-4561-93CE-E474BD465BEF",
            "target_timerange": {
              "start": 163754000,
              "duration": 1430000
            }
          },
          {
            "id": "75B96F6A-5ECE-47E1-8679-1C5AF718F36C",
            "material_id": "B2441733-1C13-4903-9B4F-582227B554B9",
            "target_timerange": {
              "start": 165184000,
              "duration": 1386000
            }
          },
          {
            "id": "CB006357-EED1-4267-B182-E4ABF7D2D536",
            "material_id": "CFA847B6-74B4-4362-AA28-971AA8CE408D",
            "target_timerange": {
              "start": 166570000,
              "duration": 1024000
            }
          },
          {
            "id": "2F4DB836-7223-478D-8941-F2A653BEDD2F",
            "material_id": "3F3C081B-76A2-4BDE-B7D8-0CECC808DB48",
            "target_timerange": {
              "start": 167594000,
              "duration": 917000
            }
          },
          {
            "id": "702C7534-63BE-440B-BE6F-6A3474EEF89D",
            "material_id": "CE2011B2-EFAC-41DA-8D25-38E653DB3316",
            "target_timerange": {
              "start": 168511000,
              "duration": 790000
            }
          },
          {
            "id": "2A0E1D7B-5996-4CCF-AB33-D73A48345699",
            "material_id": "2F20E086-1589-4197-AACC-095D1388B54F",
            "target_timerange": {
              "start": 169301000,
              "duration": 1387000
            }
          },
          {
            "id": "8348D2C1-ECDD-418A-984F-AAB3FC89B551",
            "material_id": "8D11CF7A-1CAF-4662-8EEF-E929DEE93A64",
            "target_timerange": {
              "start": 170688000,
              "duration": 1088000
            }
          },
          {
            "id": "B8C87891-E11B-44CF-9B12-AA24B940D0EF",
            "material_id": "4DD753EC-81A0-44B8-A864-2D11E018AD3B",
            "target_timerange": {
              "start": 171776000,
              "duration": 1087000
            }
          },
          {
            "id": "92A7836C-F6FC-4635-8E17-6D6AEAC75A7B",
            "material_id": "F2B04EB5-BA78-4D38-BF1E-10CB9DAAB72A",
            "target_timerange": {
              "start": 172863000,
              "duration": 1707000
            }
          },
          {
            "id": "BB8E3A7B-8F69-495C-9DA6-1C7C85D6E8B0",
            "material_id": "84E8A173-326B-4DFC-93F0-07FA76A6FF8E",
            "target_timerange": {
              "start": 174570000,
              "duration": 1600000
            }
          },
          {
            "id": "C50C54CD-37A5-4F01-94A7-BF23F9C91C84",
            "material_id": "B1AD6936-FB1F-42C0-ADD5-A8A95DC62E45",
            "target_timerange": {
              "start": 176170000,
              "duration": 1665000
            }
          },
          {
            "id": "FCBD543D-2481-4FD7-86AB-8D28F4530E35",
            "material_id": "B231D6F7-1E69-441E-8F24-4D2E5E99E18F",
            "target_timerange": {
              "start": 177835000,
              "duration": 1748000
            }
          },
          {
            "id": "D16F4AF1-2508-4318-B3A3-F573575A27BF",
            "material_id": "953297CD-FA17-4016-855C-F31AC0ACE14E",
            "target_timerange": {
              "start": 179583000,
              "duration": 1280000
            }
          },
          {
            "id": "61BF6A79-2E6C-4808-B7F5-AED6252AB848",
            "material_id": "58696A5B-18F4-4EC8-BE6A-6F976B24AE2D",
            "target_timerange": {
              "start": 180863000,
              "duration": 1472000
            }
          },
          {
            "id": "9362B853-0E9D-413E-AA7C-0C42A7B68456",
            "material_id": "1401D011-3CB1-4C2C-9903-0F81594520C4",
            "target_timerange": {
              "start": 182335000,
              "duration": 1558000
            }
          },
          {
            "id": "91CD2926-8424-4D2B-B64C-5CA2F4A32E96",
            "material_id": "DDB8B972-5400-4ACE-8DB2-F2202E869F55",
            "target_timerange": {
              "start": 183893000,
              "duration": 746000
            }
          },
          {
            "id": "1F9FB207-4259-47BA-8F62-ABC029EFD7D0",
            "material_id": "6EBB9688-CC19-45B3-A851-DC90AF71F482",
            "target_timerange": {
              "start": 184639000,
              "duration": 704000
            }
          },
          {
            "id": "841E27ED-FA7B-4183-832B-BBDA200B0EC3",
            "material_id": "4CAB3F8A-D682-4C83-AEC0-2BE93ADB569E",
            "target_timerange": {
              "start": 185343000,
              "duration": 939000
            }
          },
          {
            "id": "14BFF631-9DC3-47ED-AEB5-CDD809744B49",
            "material_id": "BC498963-DD17-4F5D-9B68-604E8BB607AC",
            "target_timerange": {
              "start": 186282000,
              "duration": 1643000
            }
          },
          {
            "id": "DC9CDEFE-962E-49B7-8225-35ED1668C615",
            "material_id": "4058FAF4-382E-4A15-886A-633A8300986B",
            "target_timerange": {
              "start": 187925000,
              "duration": 1813000
            }
          },
          {
            "id": "F4FD07D4-518A-46A1-A72C-CB92F0F3F084",
            "material_id": "812518C4-3912-4C71-9B33-568A4DA4584A",
            "target_timerange": {
              "start": 189738000,
              "duration": 1259000
            }
          },
          {
            "id": "EE84379C-A482-4309-8914-16368160200C",
            "material_id": "52BD8E7A-81F8-4A59-830A-0A6AE0EC564C",
            "target_timerange": {
              "start": 190997000,
              "duration": 1387000
            }
          },
          {
            "id": "D1CFFABC-0D1B-443E-AA49-E8E6E600A87B",
            "material_id": "77CE0A58-6004-448B-8D7C-40142BFD53D5",
            "target_timerange": {
              "start": 192384000,
              "duration": 1421000
            }
          },
          {
            "id": "F1B99E4E-FCA3-4F51-AEBD-86F47D3E4B98",
            "material_id": "5247A4A3-A999-494F-8922-F87E49C9C991",
            "target_timerange": {
              "start": 193805000,
              "duration": 1544000
            }
          },
          {
            "id": "4927C6A7-D7B7-4086-ADE2-4EDCB9D44F65",
            "material_id": "53793733-EBCD-4C8C-985F-2450191EC6A9",
            "target_timerange": {
              "start": 195349000,
              "duration": 1067000
            }
          },
          {
            "id": "75D904D4-A179-4570-8947-3CBBC04F651D",
            "material_id": "865E1255-2227-4D1A-9029-784E59F4185B",
            "target_timerange": {
              "start": 196416000,
              "duration": 725000
            }
          },
          {
            "id": "A61810BC-43BE-41F3-B647-4BE9E70C8707",
            "material_id": "CA5A2E44-6AF7-420A-ADF0-9B26F7BAF7C0",
            "target_timerange": {
              "start": 197141000,
              "duration": 683000
            }
          },
          {
            "id": "D2B183D4-024F-4B21-A276-4C61F68EA726",
            "material_id": "6575A9F8-0F9E-4C4F-90D6-E6FE5653C02A",
            "target_timerange": {
              "start": 197824000,
              "duration": 981000
            }
          },
          {
            "id": "41877391-0AB4-47A2-A95B-A8B134B62B89",
            "material_id": "E799C6A2-3D18-4BB5-8A37-A203CB1D0306",
            "target_timerange": {
              "start": 198805000,
              "duration": 1344000
            }
          },
          {
            "id": "D8477B1A-549E-49AD-A2AD-2249FCE987DE",
            "material_id": "3F191367-83FC-448B-AEFF-55496A8734B3",
            "target_timerange": {
              "start": 200149000,
              "duration": 1323000
            }
          },
          {
            "id": "D9D6F519-D9A3-41A5-8B94-DD2A8C9C8D5C",
            "material_id": "EA154F12-AF32-4762-92D1-C9F0B20999F2",
            "target_timerange": {
              "start": 201472000,
              "duration": 1856000
            }
          },
          {
            "id": "FA8BEA1B-6094-4D1C-B875-138FEE87D8E6",
            "material_id": "46FC7CE2-646A-4ADF-8423-045DCEFD9C51",
            "target_timerange": {
              "start": 203328000,
              "duration": 1770000
            }
          },
          {
            "id": "B517D9CA-E548-4C90-AA74-8F38AF445C97",
            "material_id": "12173387-EF03-4A3E-8A57-3B2CE3097716",
            "target_timerange": {
              "start": 205098000,
              "duration": 918000
            }
          },
          {
            "id": "031ACC0F-0C70-409F-93E1-73519823BBC3",
            "material_id": "F80768DF-3E88-4484-A8F5-EFA396521071",
            "target_timerange": {
              "start": 206016000,
              "duration": 1464000
            }
          },
          {
            "id": "3E827D6A-05A3-406C-ABF6-9D05E36C7659",
            "material_id": "13FA4635-C6C8-4057-9011-7F3549D4CDD7",
            "target_timerange": {
              "start": 207480000,
              "duration": 1031000
            }
          },
          {
            "id": "37E18958-67F0-428B-9EB1-56B874B35137",
            "material_id": "C45396A1-B371-461D-83CB-019D1FAB15A2",
            "target_timerange": {
              "start": 208511000,
              "duration": 705000
            }
          },
          {
            "id": "42ECE2D7-0AED-44E4-876D-1D51A5579644",
            "material_id": "AC1B328F-A50D-408F-9AAA-EF78443A52CF",
            "target_timerange": {
              "start": 209216000,
              "duration": 725000
            }
          },
          {
            "id": "8927BEC8-5341-42D6-83D9-B1693179B96C",
            "material_id": "44774B6D-93CC-4BC5-84D4-42CB352EFEC3",
            "target_timerange": {
              "start": 209941000,
              "duration": 1088000
            }
          },
          {
            "id": "635905C6-B7AC-4F9E-B1F4-3E2D4AA8B357",
            "material_id": "2E9391EB-E588-40A1-BE3E-E1989F649478",
            "target_timerange": {
              "start": 211029000,
              "duration": 1493000
            }
          },
          {
            "id": "2E1FC770-0972-411E-A52A-6B426ACE30A5",
            "material_id": "CE1B6253-6E87-4803-BA96-7196030A5108",
            "target_timerange": {
              "start": 212522000,
              "duration": 1323000
            }
          },
          {
            "id": "55790C6A-A6FA-4E6A-B41F-18D61BDD38CE",
            "material_id": "2893F6DE-B2A5-4988-9235-80E0014591C5",
            "target_timerange": {
              "start": 213845000,
              "duration": 1259000
            }
          },
          {
            "id": "372F8341-447C-43E9-AD82-CB116EE8A011",
            "material_id": "C6D47F39-66FF-4820-9A29-C7618C3470CE",
            "target_timerange": {
              "start": 215104000,
              "duration": 1726000
            }
          },
          {
            "id": "B96463C2-593B-41B9-8236-0813002513DC",
            "material_id": "F973ED2B-289F-4F6E-9279-9D8319B232CC",
            "target_timerange": {
              "start": 216830000,
              "duration": 1474000
            }
          },
          {
            "id": "2D9F238C-AE6F-4247-AB2A-66F3FDCD464A",
            "material_id": "D14F871F-0FB4-4938-B9CC-811536C0470A",
            "target_timerange": {
              "start": 218304000,
              "duration": 1322000
            }
          },
          {
            "id": "D2996D82-38F8-4290-95A2-889D3A739B9C",
            "material_id": "16A535B2-2257-40EC-8C56-E01E1860C1F7",
            "target_timerange": {
              "start": 219626000,
              "duration": 1003000
            }
          },
          {
            "id": "B36A7A85-9880-4735-B012-9F695167BC2D",
            "material_id": "C88937B8-CF70-4C20-AC0D-CD82097A0D6A",
            "target_timerange": {
              "start": 220629000,
              "duration": 1526000
            }
          },
          {
            "id": "535B9A65-C491-41C5-AD02-C5A9562E7D18",
            "material_id": "988D7B57-F6E1-4D36-8865-F6DC6861F69B",
            "target_timerange": {
              "start": 222155000,
              "duration": 1397000
            }
          },
          {
            "id": "57E299C7-B947-4D22-8423-55F76BFBC501",
            "material_id": "49250B8D-4BEB-4184-9D84-1FC520E707E2",
            "target_timerange": {
              "start": 223552000,
              "duration": 1962000
            }
          },
          {
            "id": "9A3BDA64-AC4A-438F-B326-76D699CDE2C6",
            "material_id": "D337E0E5-508B-4F5B-BA41-CF0933091A27",
            "target_timerange": {
              "start": 225514000,
              "duration": 1280000
            }
          },
          {
            "id": "08B09665-38E1-4FE5-AEAF-3BE9886870D5",
            "material_id": "FDB3C82F-1B25-435D-A568-6348121A7F5D",
            "target_timerange": {
              "start": 226794000,
              "duration": 1216000
            }
          },
          {
            "id": "1FD33F49-288B-4E58-B5C2-C4799F807B58",
            "material_id": "1858EB42-6856-4E32-B832-CCD29F8DA27D",
            "target_timerange": {
              "start": 228010000,
              "duration": 1835000
            }
          },
          {
            "id": "A87F6EE8-A812-43A6-9A12-CB8786EF2EFA",
            "material_id": "8CB38A61-B1AC-4439-AF4E-44EE763707C5",
            "target_timerange": {
              "start": 229845000,
              "duration": 1429000
            }
          },
          {
            "id": "CDB7A89C-D100-44A9-907D-64FCAC4E973A",
            "material_id": "9D0227B5-CE36-4626-A89D-0DC69F4EAEB4",
            "target_timerange": {
              "start": 231274000,
              "duration": 1899000
            }
          },
          {
            "id": "851B19E6-3CDB-4AD9-B14E-170B3A3618E6",
            "material_id": "144B9078-173C-411F-857B-0133EA2052C5",
            "target_timerange": {
              "start": 233173000,
              "duration": 1813000
            }
          },
          {
            "id": "C7537C74-A004-4206-985B-8A38BC8A9A77",
            "material_id": "88313771-6001-4ADC-B247-2CC6F31C297D",
            "target_timerange": {
              "start": 234986000,
              "duration": 512000
            }
          },
          {
            "id": "85EF7922-8848-49D1-91C1-C879408935FF",
            "material_id": "1EF22D3B-705F-4B50-A1B6-0158DE42E36C",
            "target_timerange": {
              "start": 235498000,
              "duration": 981000
            }
          },
          {
            "id": "649109B5-7E4F-4462-A891-DA74B7A8486C",
            "material_id": "60F63F8D-AB32-4CF9-A025-4C3BB1662ECC",
            "target_timerange": {
              "start": 236479000,
              "duration": 683000
            }
          },
          {
            "id": "74A90FDD-C606-453D-A01E-DB9DE7AF6827",
            "material_id": "DAA6D17E-A8AE-406E-83A6-96AA3CB57732",
            "target_timerange": {
              "start": 237162000,
              "duration": 1408000
            }
          },
          {
            "id": "39D5C4DE-3672-483B-B3E1-F8EAC182D30B",
            "material_id": "C3401900-DB02-4F94-9A3F-413A0FD558DE",
            "target_timerange": {
              "start": 238570000,
              "duration": 1600000
            }
          },
          {
            "id": "58E94CE3-1544-4127-AF5C-35227AC25D9B",
            "material_id": "9D460485-BBFB-46C5-A160-F8CAFC6770BA",
            "target_timerange": {
              "start": 240170000,
              "duration": 2326000
            }
          },
          {
            "id": "4EB0F239-672D-4AAB-AB03-A0E27E3C1FAE",
            "material_id": "EAA51CF4-4F63-47AF-9C36-A5AEA673741A",
            "target_timerange": {
              "start": 242496000,
              "duration": 1066000
            }
          },
          {
            "id": "C0EADB87-83F1-44A9-86FA-78FDEB00F3A0",
            "material_id": "2B3514A1-EAB8-4219-AEC3-2C6CE3333CAE",
            "target_timerange": {
              "start": 243562000,
              "duration": 576000
            }
          },
          {
            "id": "6CA916B9-4CA7-40FE-8D39-471302322094",
            "material_id": "30521A4B-D5E6-4DD5-8E5F-8B92E884089E",
            "target_timerange": {
              "start": 244138000,
              "duration": 619000
            }
          },
          {
            "id": "81057007-7903-4E3E-83DA-05CEB4471814",
            "material_id": "E90BD9DC-3848-4788-8C1A-0A7886513C9F",
            "target_timerange": {
              "start": 244757000,
              "duration": 1557000
            }
          },
          {
            "id": "22D5D17A-E0BB-49B2-90F3-5B942A220892",
            "material_id": "4E6D4862-0D9F-499E-8B29-6AA96A2AAA46",
            "target_timerange": {
              "start": 246314000,
              "duration": 1323000
            }
          },
          {
            "id": "F68C5221-7116-4883-92E8-0A6BB354C1A6",
            "material_id": "871826C3-CF55-463A-9E89-A6E9697CA12C",
            "target_timerange": {
              "start": 247637000,
              "duration": 981000
            }
          },
          {
            "id": "2136DB20-7960-47B5-91C8-A56FE7FDA5F7",
            "material_id": "BB5E0C04-CB02-4528-B641-82F5789BCD71",
            "target_timerange": {
              "start": 248618000,
              "duration": 555000
            }
          },
          {
            "id": "34C823FB-E4B5-4E74-9F35-5ACEC305732A",
            "material_id": "1937459C-762B-44AB-BF0C-AEDB49190253",
            "target_timerange": {
              "start": 249173000,
              "duration": 1365000
            }
          },
          {
            "id": "EA86DF45-C49D-482D-BB38-142BCF34FDE2",
            "material_id": "5189CF0A-DC50-42FC-ACDE-166C15CCFC90",
            "target_timerange": {
              "start": 250538000,
              "duration": 1437000
            }
          },
          {
            "id": "45DF63C9-687A-411F-B3CF-029FE99E805E",
            "material_id": "D0222468-D8B9-4684-A03C-80E05B2B5302",
            "target_timerange": {
              "start": 251975000,
              "duration": 1827000
            }
          },
          {
            "id": "F777366B-905B-4C62-B016-D181993227DC",
            "material_id": "DF6C50FB-D720-4942-A93D-EE0FFC2191DD",
            "target_timerange": {
              "start": 253802000,
              "duration": 1856000
            }
          },
          {
            "id": "577BE6D7-FCE9-4BCA-A52F-D354B4620B78",
            "material_id": "49AF7B92-E16F-41E2-B930-1D7688C3552D",
            "target_timerange": {
              "start": 255658000,
              "duration": 704000
            }
          },
          {
            "id": "20152167-EFF5-42C2-9C41-74B0297D1779",
            "material_id": "EB37FBE6-5A7E-487E-B112-CBA8C6A05D63",
            "target_timerange": {
              "start": 256362000,
              "duration": 532999
            }
          },
          {
            "id": "A5FC3089-1EAB-4134-AA14-2B92BD039E1E",
            "material_id": "ED96059F-E84A-404D-8157-9109193B7F30",
            "target_timerange": {
              "start": 256894999,
              "duration": 769001
            }
          },
          {
            "id": "C362A772-E413-4899-A8DA-0D999C9D93B0",
            "material_id": "4124E233-1EAA-4E09-B443-84AFA2087AB1",
            "target_timerange": {
              "start": 257664000,
              "duration": 1877000
            }
          },
          {
            "id": "85F4D2A3-5105-49F5-BAFA-FB1FAB787F60",
            "material_id": "E81FD77E-6E3B-4273-ACCD-4E9BBB95830E",
            "target_timerange": {
              "start": 259541000,
              "duration": 896000
            }
          },
          {
            "id": "346B9B10-F7EF-4353-AA6B-CFE462AD7B0F",
            "material_id": "5614DFA0-9C6A-4A49-9BC2-DD011AB80BD4",
            "target_timerange": {
              "start": 260437000,
              "duration": 916999
            }
          },
          {
            "id": "05443D40-7976-4692-B25E-0009DCC512CC",
            "material_id": "F871AA5F-DDAB-439B-822B-47D29C68A830",
            "target_timerange": {
              "start": 261353999,
              "duration": 2603001
            }
          },
          {
            "id": "6281ACCF-68B2-459F-8AA0-0B039751B84A",
            "material_id": "3BEC2E7E-6797-4313-BD2E-D7754A86A89A",
            "target_timerange": {
              "start": 263957000,
              "duration": 1963000
            }
          },
          {
            "id": "E6D7B3BD-DDB5-4A46-B4F3-9B990FC79312",
            "material_id": "BBB9DC8B-1AD4-4825-BD94-0AD523035C9C",
            "target_timerange": {
              "start": 265920000,
              "duration": 1066000
            }
          },
          {
            "id": "E7DABAF1-CEEE-4A26-A62F-AA973A1034BF",
            "material_id": "6F17B665-587B-4EAA-8943-2B3C6AC6246D",
            "target_timerange": {
              "start": 266986000,
              "duration": 1088000
            }
          },
          {
            "id": "950339E9-4426-4338-89F1-323C3C0B4D1C",
            "material_id": "3D634DDD-5FE3-4259-B619-F6EDCC929037",
            "target_timerange": {
              "start": 268074000,
              "duration": 1024000
            }
          },
          {
            "id": "28E4E907-B516-4309-9CA1-A45993E5C7B3",
            "material_id": "F5D5F6AC-EE46-4943-B091-CE05F2C7191E",
            "target_timerange": {
              "start": 269098000,
              "duration": 598000
            }
          },
          {
            "id": "C82F92B9-CE6A-4E31-BA85-042D7F0E4FA3",
            "material_id": "B17DCE93-DB05-4AB4-9920-8A45FE7EEA79",
            "target_timerange": {
              "start": 269696000,
              "duration": 767000
            }
          },
          {
            "id": "4C68F627-3F62-48C1-B893-E801E90081E7",
            "material_id": "2E9AB62E-574E-46AA-BEBB-EAA9C2C65A13",
            "target_timerange": {
              "start": 270463000,
              "duration": 747000
            }
          },
          {
            "id": "A01F3A19-AAF1-452F-8371-5BD0702EC880",
            "material_id": "DFD4F817-F38B-4344-AFD3-E76DDC6D9485",
            "target_timerange": {
              "start": 271210000,
              "duration": 1771000
            }
          },
          {
            "id": "92CB17B8-F6B7-422F-94E3-80C298F6B19E",
            "material_id": "AFECACDB-2764-4747-AD74-008863CA1855",
            "target_timerange": {
              "start": 272981000,
              "duration": 1369000
            }
          },
          {
            "id": "1025E73D-0138-4E0C-A207-73ACD7C9752F",
            "material_id": "38269F18-B33F-4873-A63B-B9E4099D28FB",
            "target_timerange": {
              "start": 274350000,
              "duration": 1383000
            }
          },
          {
            "id": "C8D96C67-E663-4275-94E7-F2EB37EE0C52",
            "material_id": "35AD0D68-CE5E-46A3-AF59-4B7388AEC6F6",
            "target_timerange": {
              "start": 275733000,
              "duration": 1536000
            }
          },
          {
            "id": "97B5DF44-3BE9-4543-99F6-6D89753543C1",
            "material_id": "D0304265-D32A-40FF-A253-8BCF258CB873",
            "target_timerange": {
              "start": 277269000,
              "duration": 1066000
            }
          },
          {
            "id": "3C84D2CD-B806-4487-B291-6C35C9618FF6",
            "material_id": "B0286F80-26E8-4428-A234-A34BF1ACF540",
            "target_timerange": {
              "start": 278335000,
              "duration": 811000
            }
          },
          {
            "id": "F98E25EB-8A7B-4317-B19D-AE6FDB006E7C",
            "material_id": "97ED7603-9732-4E5E-B687-8C2DA71FB7F4",
            "target_timerange": {
              "start": 279146000,
              "duration": 555000
            }
          },
          {
            "id": "A9DA80D6-EF8C-4C7C-975B-16C94C8DF62E",
            "material_id": "3534D997-2DE2-47BB-ACF1-58D33B2493EA",
            "target_timerange": {
              "start": 279701000,
              "duration": 810000
            }
          },
          {
            "id": "3BB34470-38CB-4749-B843-3BE506650358",
            "material_id": "1BFB79A8-BD30-4588-BB0F-C05179C2D46D",
            "target_timerange": {
              "start": 280511000,
              "duration": 896000
            }
          },
          {
            "id": "2CF54CAE-AA76-4ABC-99DE-26FA46D4B0DB",
            "material_id": "5D6B1A6C-1F56-48FF-98EA-812103DBDB25",
            "target_timerange": {
              "start": 281407000,
              "duration": 918000
            }
          },
          {
            "id": "78B557BA-6BA2-43A2-AD33-C9A46E7F1644",
            "material_id": "EE8A6275-50CA-4837-ADCB-6897512CAA70",
            "target_timerange": {
              "start": 282325000,
              "duration": 1600000
            }
          },
          {
            "id": "43A22016-0AE1-417D-BE87-59C5848B3AE1",
            "material_id": "72B55AB8-58EE-456C-A5D1-73095238BB09",
            "target_timerange": {
              "start": 283925000,
              "duration": 1600000
            }
          },
          {
            "id": "706F745B-5117-4B52-AB83-5606A63A028D",
            "material_id": "11489FB0-6182-4D3B-B94B-87BDAAA90143",
            "target_timerange": {
              "start": 285525000,
              "duration": 1813000
            }
          },
          {
            "id": "4694EE69-AA6E-411D-A615-FA68C8252088",
            "material_id": "D76A0961-1D0C-4273-9C81-DDFF5FDBA0FF",
            "target_timerange": {
              "start": 287338000,
              "duration": 1643000
            }
          },
          {
            "id": "A63E1C94-D12B-43C4-922C-EF876F262723",
            "material_id": "A7AD8673-D06F-478D-9678-CC183F22E38B",
            "target_timerange": {
              "start": 288981000,
              "duration": 1301000
            }
          },
          {
            "id": "CF36EAC4-EE33-413D-B3EA-88DF3833D425",
            "material_id": "302E66C5-6D80-4DA0-90C1-9D90250E803B",
            "target_timerange": {
              "start": 290282000,
              "duration": 1536000
            }
          },
          {
            "id": "DD8F272A-E0F0-48A6-89E7-D7317A9DEBB6",
            "material_id": "41BE4F35-55B4-4B24-9896-E48281F57A20",
            "target_timerange": {
              "start": 291818000,
              "duration": 1216000
            }
          },
          {
            "id": "B29C2F8C-F096-4E64-B6FA-7FF32BD76756",
            "material_id": "E5C89943-05C4-49D9-A59D-DC2D47D1A977",
            "target_timerange": {
              "start": 293034000,
              "duration": 1280000
            }
          },
          {
            "id": "6E634F71-35D7-4D66-80BD-EF0E7C4CFD48",
            "material_id": "D565F8BC-5B9A-4DDF-AED7-4634001C7705",
            "target_timerange": {
              "start": 294314000,
              "duration": 1561000
            }
          },
          {
            "id": "520CA8A9-2D81-443F-A038-AB1F3DBE9954",
            "material_id": "0225800C-FA76-4FA9-925B-B19C368605BE",
            "target_timerange": {
              "start": 295875000,
              "duration": 1682000
            }
          },
          {
            "id": "C8DEFF8E-DF27-4CB7-9A54-693B660D5E48",
            "material_id": "E6685CE3-2A33-461E-B5A4-29217EAA3490",
            "target_timerange": {
              "start": 297557000,
              "duration": 1743000
            }
          },
          {
            "id": "ECE99AA4-DEB9-4A3D-B3F4-20829D7CBF83",
            "material_id": "5746CB7D-7525-4D1D-862B-C5E332102D5D",
            "target_timerange": {
              "start": 299300000,
              "duration": 1862000
            }
          },
          {
            "id": "01CF03C7-B071-4C54-A8A5-85EA38B33AC6",
            "material_id": "9CFD1F41-F576-47CF-A756-67F650A2F2C7",
            "target_timerange": {
              "start": 301162000,
              "duration": 853000
            }
          },
          {
            "id": "F8B27CAA-6FE0-4DF7-B4B5-84E969A7DD34",
            "material_id": "7840AB3D-9977-4E40-AE45-25286001DEB5",
            "target_timerange": {
              "start": 302015000,
              "duration": 1323000
            }
          },
          {
            "id": "67F8DF3E-29B3-499F-9F55-6DFC7F9AD7D7",
            "material_id": "B4DD5930-B834-418E-BC1F-CDB99395C49E",
            "target_timerange": {
              "start": 303338000,
              "duration": 1771000
            }
          },
          {
            "id": "7D85FFC2-2F39-427B-A064-E686DF3A0F9E",
            "material_id": "1C75A963-2D11-43A0-ACF3-2056B03F2842",
            "target_timerange": {
              "start": 305109000,
              "duration": 1301000
            }
          },
          {
            "id": "DE94DB65-7826-41E1-A6E2-25A29FDFD124",
            "material_id": "8F10F9A1-73F3-4E91-BFE5-868B84D86C9A",
            "target_timerange": {
              "start": 306410000,
              "duration": 1536000
            }
          },
          {
            "id": "F6A5A793-233F-4975-8B27-FC409ECDF459",
            "material_id": "9E91018A-761E-42C9-9044-52A9753991E1",
            "target_timerange": {
              "start": 307946000,
              "duration": 1874000
            }
          },
          {
            "id": "FAE2E2ED-E1A6-446E-BC74-E037E4FFFAB4",
            "material_id": "0EED9BCA-3BA6-4BE3-8453-6A586C988975",
            "target_timerange": {
              "start": 309820000,
              "duration": 1604000
            }
          },
          {
            "id": "E1AC54EA-144A-444A-9853-8DB9769069C9",
            "material_id": "568F9FA6-3FA7-4FCC-8C36-2760658795DC",
            "target_timerange": {
              "start": 311424000,
              "duration": 1371000
            }
          },
          {
            "id": "9EDDA8E9-4584-4606-AF9C-782883BE9B12",
            "material_id": "CDC89C51-9B48-4ACE-9A54-70F86BBF8FF6",
            "target_timerange": {
              "start": 312795000,
              "duration": 1444000
            }
          },
          {
            "id": "3E55FE95-88DA-4010-8E20-FAE58ACDE689",
            "material_id": "8E399750-8A87-461D-BB6A-5402FCB73629",
            "target_timerange": {
              "start": 314239000,
              "duration": 1558000
            }
          },
          {
            "id": "E053AA6C-84EC-4373-9951-3133D4D32B43",
            "material_id": "F50ADD6E-8EF3-4DC5-BCDD-49FC946A408C",
            "target_timerange": {
              "start": 315797000,
              "duration": 1045000
            }
          },
          {
            "id": "E5148514-230F-41BA-874B-2A7EEFCE93BB",
            "material_id": "347E4049-0FA1-4137-97F7-1AF558429CD1",
            "target_timerange": {
              "start": 316842000,
              "duration": 1835000
            }
          },
          {
            "id": "64EDF8EF-F01F-4878-BB91-B70DA0ECAAE1",
            "material_id": "B9B7483C-C099-447E-B0FB-EB788637EC96",
            "target_timerange": {
              "start": 318677000,
              "duration": 1707000
            }
          },
          {
            "id": "B9A8CFAA-3137-4A25-9D1A-B102FC8D2E0C",
            "material_id": "089BF350-6769-46BB-B4D4-6B62DC48289A",
            "target_timerange": {
              "start": 320384000,
              "duration": 1045000
            }
          },
          {
            "id": "A1C08C5A-9D85-4B86-A0F6-495A75672C7B",
            "material_id": "4047113B-48EF-4CAB-86FA-5B5B61AB0F3B",
            "target_timerange": {
              "start": 321429000,
              "duration": 1387000
            }
          },
          {
            "id": "FD57ADF3-767F-4357-A94A-D5F7B7FB2A94",
            "material_id": "7FA9C7FF-1AB0-4517-A192-84B53B029ABF",
            "target_timerange": {
              "start": 322816000,
              "duration": 1109000
            }
          },
          {
            "id": "26AA57F1-2FA3-4BEF-8F5B-2EACAD23D95C",
            "material_id": "E47F2660-A2BC-46B0-8631-ED7BBADABE6E",
            "target_timerange": {
              "start": 323925000,
              "duration": 1365000
            }
          },
          {
            "id": "26198187-185E-47B4-9BA5-11E0F8493AB1",
            "material_id": "38D27C5E-EAE1-4B82-8254-4BAC11F8945C",
            "target_timerange": {
              "start": 325290000,
              "duration": 2347000
            }
          },
          {
            "id": "C57F2747-138A-4D62-8581-783708C87ADD",
            "material_id": "D803548F-B039-4B78-A16C-E92008709185",
            "target_timerange": {
              "start": 327637000,
              "duration": 1237000
            }
          },
          {
            "id": "5B37FE43-430E-4393-9E2A-7DA73C0F193F",
            "material_id": "AE5F0C1F-AF4A-46A7-9B7A-04CC4E070BD4",
            "target_timerange": {
              "start": 328874000,
              "duration": 1813000
            }
          },
          {
            "id": "B46CD4CF-238C-4320-9621-BD79BC820410",
            "material_id": "C427B526-354D-46BE-8A90-225CBF3AFC1D",
            "target_timerange": {
              "start": 330687000,
              "duration": 1942000
            }
          },
          {
            "id": "F8276453-1204-47EA-895D-D7F10BF21227",
            "material_id": "CAFDA7AB-661C-434D-9B0B-81F4E2C4985F",
            "target_timerange": {
              "start": 332629000,
              "duration": 1466000
            }
          },
          {
            "id": "D66D465B-8987-498E-BE07-B5B31D9ED0BF",
            "material_id": "67ADBE21-EB12-4C61-B95F-AB02B0626752",
            "target_timerange": {
              "start": 334095000,
              "duration": 1648000
            }
          },
          {
            "id": "D21D700F-7BAD-423C-9A0E-B507C5A05253",
            "material_id": "294A9494-596A-4972-AE1D-02CAE84943E9",
            "target_timerange": {
              "start": 335743000,
              "duration": 1473000
            }
          },
          {
            "id": "62C6C738-6D26-4B42-945C-1FF286E4E845",
            "material_id": "64FF263D-B788-409C-9AD7-8473D6741ECE",
            "target_timerange": {
              "start": 337216000,
              "duration": 895000
            }
          },
          {
            "id": "E43CC510-BE3A-448D-A0AC-5FC538B28056",
            "material_id": "E639114D-B811-4C8C-ABCC-6F24E6096A34",
            "target_timerange": {
              "start": 338111000,
              "duration": 1110000
            }
          },
          {
            "id": "8A003A7E-8BDE-4298-80B3-10DE1A0B0870",
            "material_id": "8A00A783-1FB6-4EE2-AF41-E80E691022D4",
            "target_timerange": {
              "start": 339221000,
              "duration": 469000
            }
          },
          {
            "id": "A042B8E4-6DD5-41AA-9655-6314D82C6E8E",
            "material_id": "95E1B98B-D79B-4698-89BC-6702F6AEEE32",
            "target_timerange": {
              "start": 339690000,
              "duration": 768000
            }
          },
          {
            "id": "C4CA85E8-7BD6-4ACC-B26C-BF0DD01EF3BD",
            "material_id": "B3BBDF80-3BF0-48A4-BAB4-F777510EC4B4",
            "target_timerange": {
              "start": 340458000,
              "duration": 2005000
            }
          },
          {
            "id": "07032130-B376-452B-8FDA-82DB6EF46FAC",
            "material_id": "50B8905F-51C1-4DF8-BAB8-344DAE829A44",
            "target_timerange": {
              "start": 342463000,
              "duration": 1238000
            }
          },
          {
            "id": "00860E26-F79D-4943-B71E-66612B4D2C4C",
            "material_id": "A00FB242-BFA6-481E-A155-11814A1A02CC",
            "target_timerange": {
              "start": 343701000,
              "duration": 768000
            }
          },
          {
            "id": "41478AFB-877B-468D-A274-3C1B2435CBF0",
            "material_id": "C3B75103-CBD5-4786-9A1A-D5C8FC8336EF",
            "target_timerange": {
              "start": 344469000,
              "duration": 1088000
            }
          },
          {
            "id": "8CB94D8F-77B9-4298-83AC-719F038DA7D7",
            "material_id": "B54705E9-A326-4436-A897-DBC067E29780",
            "target_timerange": {
              "start": 345557000,
              "duration": 491000
            }
          },
          {
            "id": "90D92623-B805-4404-AAE2-B64ABA6EF22C",
            "material_id": "83C83B8D-A504-4E33-9672-CF60F1F3BB53",
            "target_timerange": {
              "start": 346048000,
              "duration": 1322000
            }
          },
          {
            "id": "B06D551A-D563-4B82-8C54-36B0B311528E",
            "material_id": "1021BC85-82E1-4507-B97B-2355A0DE30C5",
            "target_timerange": {
              "start": 347370000,
              "duration": 448000
            }
          },
          {
            "id": "DDC64564-9347-423F-B06D-ACA45B0BAB04",
            "material_id": "4579972E-40C0-4002-A4B2-BA6945A37990",
            "target_timerange": {
              "start": 347818000,
              "duration": 747000
            }
          },
          {
            "id": "B5A81330-CB0D-4B34-BBB6-C62AA823E8F7",
            "material_id": "6F1F061E-ECD9-4B4E-8C6E-AB0E9C959C12",
            "target_timerange": {
              "start": 348565000,
              "duration": 811000
            }
          },
          {
            "id": "675E72B6-3C2B-4C7A-B805-7067A4FCE77A",
            "material_id": "7B2CBB06-1335-4910-9568-563827400C96",
            "target_timerange": {
              "start": 349376000,
              "duration": 1130000
            }
          },
          {
            "id": "2FE3EB84-54C2-4427-8E34-35680C47E7BB",
            "material_id": "79B83738-C788-49C5-A573-12EB4F04D4D1",
            "target_timerange": {
              "start": 350506000,
              "duration": 1302000
            }
          },
          {
            "id": "B2A17D96-A2EF-4626-9AEF-F9153E960F6C",
            "material_id": "3DE82C28-CB69-4479-9815-82BCC680F6CD",
            "target_timerange": {
              "start": 351808000,
              "duration": 1087000
            }
          },
          {
            "id": "F98EFD31-ED16-4E20-84F6-F9F1E913CE50",
            "material_id": "1DDFFE76-0084-4362-B360-CAD2BEABBBA3",
            "target_timerange": {
              "start": 352895000,
              "duration": 662000
            }
          },
          {
            "id": "01A897B1-23DA-4336-9143-6C1C995C301D",
            "material_id": "AD43BC33-AE84-4841-8A08-58ADBD46A2AF",
            "target_timerange": {
              "start": 353557000,
              "duration": 768000
            }
          },
          {
            "id": "379D903E-E33A-48C1-9802-C64D2CF4E44D",
            "material_id": "8723FDAF-7C70-4920-83AC-97A6835D4776",
            "target_timerange": {
              "start": 354325000,
              "duration": 981000
            }
          },
          {
            "id": "C3DABA62-57E7-4581-B782-389D3C454A08",
            "material_id": "B6A4F3B3-30F9-4462-88A4-0E33D28FEBF7",
            "target_timerange": {
              "start": 355306000,
              "duration": 1323000
            }
          },
          {
            "id": "B699165D-29A4-4635-B160-144CA6F3D5B5",
            "material_id": "19CEE64F-1A1C-4404-B50C-6B9954A036E9",
            "target_timerange": {
              "start": 356629000,
              "duration": 2069000
            }
          },
          {
            "id": "DB697FFE-B258-4B44-9FC6-665DD64BAA80",
            "material_id": "D7AA1756-F4FC-4F35-8547-397AB8016207",
            "target_timerange": {
              "start": 358698000,
              "duration": 1322000
            }
          },
          {
            "id": "3CA81373-BCEE-4B83-8050-E23E7C9D030B",
            "material_id": "906F408B-53B5-4C38-93AB-18CA65B3543D",
            "target_timerange": {
              "start": 360020000,
              "duration": 1366000
            }
          },
          {
            "id": "5FBFAEF2-5FCF-4BA7-B6E8-2ACE3A52F100",
            "material_id": "AB184C2B-D50A-4DA9-BACE-BF9BD490191A",
            "target_timerange": {
              "start": 361386000,
              "duration": 1323000
            }
          },
          {
            "id": "517B5664-2E67-47F7-BE4B-CA04A8683ABF",
            "material_id": "1A322D2E-EEFA-4320-96E5-A16455D87B84",
            "target_timerange": {
              "start": 362709000,
              "duration": 1451000
            }
          },
          {
            "id": "D3B4FEB8-3335-4BA9-943B-86482E90F768",
            "material_id": "BDA9771E-A4CA-4B45-B1F1-16982092EB72",
            "target_timerange": {
              "start": 364160000,
              "duration": 874000
            }
          },
          {
            "id": "27801AB5-FE4D-4B62-9A93-64F2F09FA728",
            "material_id": "D53741F7-5100-4BF9-AE7B-4B9CA3E984B0",
            "target_timerange": {
              "start": 365034000,
              "duration": 1088000
            }
          },
          {
            "id": "F69A5757-E8DA-49AD-B1C6-2332BCD30EC6",
            "material_id": "41544BEC-5D2B-4800-B912-3E9CE0EA3394",
            "target_timerange": {
              "start": 366122000,
              "duration": 1131000
            }
          },
          {
            "id": "3DE297BD-445D-4D05-8B43-8DE77229E7E3",
            "material_id": "128314F6-03EE-41C7-8DD3-245661AE1A8F",
            "target_timerange": {
              "start": 367253000,
              "duration": 1362000
            }
          },
          {
            "id": "E7477502-D471-49CC-AE6E-79F7434DB485",
            "material_id": "2DC9005B-6279-4480-A6A8-64C328A24000",
            "target_timerange": {
              "start": 368615000,
              "duration": 1262000
            }
          },
          {
            "id": "D3DD47F8-E2C9-457C-A549-E79952ED059F",
            "material_id": "71729165-166C-4F80-9372-86884060DD76",
            "target_timerange": {
              "start": 369877000,
              "duration": 1513000
            }
          },
          {
            "id": "A2BFA70E-54A1-4971-9B99-245EB551782C",
            "material_id": "B2A3A575-3FF6-4132-A57A-C4D10F317E94",
            "target_timerange": {
              "start": 371390000,
              "duration": 1367000
            }
          },
          {
            "id": "A4D502FE-455A-42E6-A380-6F8108C33F2B",
            "material_id": "A83EDBDF-D4BC-46A6-9F5B-F75BED79AEF1",
            "target_timerange": {
              "start": 372757000,
              "duration": 1067000
            }
          },
          {
            "id": "F4748813-3E33-4D66-8782-A3AD4FA5CE06",
            "material_id": "E435060A-BFC9-437A-90A0-1C0076C6558B",
            "target_timerange": {
              "start": 373824000,
              "duration": 1621000
            }
          },
          {
            "id": "651CED24-334D-43C0-B74E-5A455383048D",
            "material_id": "ADBCE455-E16A-4286-B1F2-AACA7E84B30E",
            "target_timerange": {
              "start": 375445000,
              "duration": 1962000
            }
          },
          {
            "id": "95B9807F-8752-4DA4-B85A-BA602A95C357",
            "material_id": "7FF68B54-DEBE-4D51-AA00-675FB8F55453",
            "target_timerange": {
              "start": 377407000,
              "duration": 555000
            }
          },
          {
            "id": "216FCF66-5DA9-4792-A76E-D114703B4DD5",
            "material_id": "3787818F-D758-47D1-ADDA-2C86E4FB0EDA",
            "target_timerange": {
              "start": 377962000,
              "duration": 854000
            }
          },
          {
            "id": "A20381DA-78C3-487D-B933-3D55D1DF9347",
            "material_id": "C49C2367-23DF-4D34-A2B6-74C64CA60A77",
            "target_timerange": {
              "start": 378816000,
              "duration": 1429000
            }
          },
          {
            "id": "0D978328-4CD3-48E0-AA74-47E4FFAB2902",
            "material_id": "D3507021-7723-4348-BA0D-C39F7D773589",
            "target_timerange": {
              "start": 380245000,
              "duration": 1834000
            }
          },
          {
            "id": "6A98D156-1859-4A77-BD3C-092222A152F1",
            "material_id": "3A78C8D5-595A-4F93-AF2B-51F7FC88D006",
            "target_timerange": {
              "start": 382079000,
              "duration": 2241000
            }
          },
          {
            "id": "30BB398F-1D2C-46E6-BA60-3B5542E442A1",
            "material_id": "4D5031A9-3753-4A5B-A6BC-401BD080411C",
            "target_timerange": {
              "start": 384320000,
              "duration": 1645000
            }
          },
          {
            "id": "845EA8A7-2731-44D6-B979-20E0D88AEF79",
            "material_id": "532D9B61-E381-4151-B40F-BF49498DC208",
            "target_timerange": {
              "start": 385965000,
              "duration": 1554000
            }
          },
          {
            "id": "1254EFD6-76D0-4A89-84FC-F1A477CCCBE3",
            "material_id": "A817BA73-E8F4-4D47-8A93-5D7742FE07B6",
            "target_timerange": {
              "start": 387519000,
              "duration": 1579000
            }
          },
          {
            "id": "0A4393D3-E4CC-4CDC-A526-D9B21B37891A",
            "material_id": "C9E6E92D-1C98-4349-8509-446FCCDE0BF8",
            "target_timerange": {
              "start": 389098000,
              "duration": 1067000
            }
          },
          {
            "id": "54DA33D3-C098-435B-8FEC-998157CD995D",
            "material_id": "DBFDC51A-A59C-4FD9-89D3-5F405C8609CF",
            "target_timerange": {
              "start": 390165000,
              "duration": 1621000
            }
          },
          {
            "id": "39E462B7-8474-422F-8636-953562E5E1F5",
            "material_id": "B88572D1-C03D-4E07-AA81-CB8A35517E16",
            "target_timerange": {
              "start": 391786000,
              "duration": 1984000
            }
          },
          {
            "id": "494C8CAD-5760-43E0-A037-12FB1D4F4331",
            "material_id": "0A61A8BE-6611-4970-8F34-33261317F88A",
            "target_timerange": {
              "start": 393770000,
              "duration": 1152000
            }
          },
          {
            "id": "85C1C2A4-619C-41D0-BC04-177CFD05D118",
            "material_id": "60CA1102-D843-46F6-8117-1F4705C9580D",
            "target_timerange": {
              "start": 394922000,
              "duration": 1515000
            }
          },
          {
            "id": "8BFA3759-9962-4A1F-8E40-E6DFE8A84D63",
            "material_id": "E1954E2A-41AA-4C88-A8E3-D285D55DC445",
            "target_timerange": {
              "start": 396437000,
              "duration": 2304000
            }
          },
          {
            "id": "4D2C3B65-932F-4900-BCEA-5F08685A7B1D",
            "material_id": "ABB85522-61C2-42C7-AB42-8C7FEC71148B",
            "target_timerange": {
              "start": 398741000,
              "duration": 1706000
            }
          },
          {
            "id": "978D41F8-8250-45B9-B4A1-9E00B2E84CE4",
            "material_id": "08A062C3-4BA9-4CE1-B330-DE6E89F300B1",
            "target_timerange": {
              "start": 400447000,
              "duration": 875000
            }
          },
          {
            "id": "34951FE9-2CA2-42B8-A2DF-8054D0239A0F",
            "material_id": "E83D0729-A3EF-4D28-BA2C-5036E0F25453",
            "target_timerange": {
              "start": 401322000,
              "duration": 1003000
            }
          },
          {
            "id": "E31E830F-8054-4F34-BCAD-E07292EC98F4",
            "material_id": "BAD26DF7-3C70-46AC-92F6-8D9012CA5861",
            "target_timerange": {
              "start": 402325000,
              "duration": 917000
            }
          },
          {
            "id": "5DCF9C89-2133-4364-A91C-1A0E9B6D0580",
            "material_id": "8686E9AA-D7C8-4F0F-8E63-2ABE1F07FA17",
            "target_timerange": {
              "start": 403242000,
              "duration": 1664000
            }
          },
          {
            "id": "A025FE3A-9BC1-4870-A884-5B2D1956402D",
            "material_id": "4D15C137-C086-4AB7-B9B5-9617F0945E06",
            "target_timerange": {
              "start": 404906000,
              "duration": 854000
            }
          },
          {
            "id": "43DF0A93-D65D-45BA-AFFD-B47AD5209D76",
            "material_id": "FFCD84F7-189C-4698-B153-D158343A0D87",
            "target_timerange": {
              "start": 405760000,
              "duration": 768000
            }
          },
          {
            "id": "B11C3BC9-F762-4F4A-80AD-A0A26EF10742",
            "material_id": "B27F3F2D-B10D-4BA9-BE75-40746725C01E",
            "target_timerange": {
              "start": 406528000,
              "duration": 917000
            }
          },
          {
            "id": "71DB50BE-3A04-430E-8B42-4EEC59D5E738",
            "material_id": "06BE6664-819A-49EC-B0B4-111B7FA793DE",
            "target_timerange": {
              "start": 407445000,
              "duration": 1472000
            }
          },
          {
            "id": "7ACC6F13-72EF-430B-8ACB-E613EA1E3BDA",
            "material_id": "70454F6C-A545-4633-B1B3-EF40AF0CB8A7",
            "target_timerange": {
              "start": 408917000,
              "duration": 1835000
            }
          },
          {
            "id": "1BACC90F-FA4E-4CDA-89B8-0ED17D7B4110",
            "material_id": "29D5055C-A84C-4BC3-B4D3-6911E3561C34",
            "target_timerange": {
              "start": 410752000,
              "duration": 789000
            }
          },
          {
            "id": "3EB8599D-E2A1-4EBB-80F2-62F9EC94B624",
            "material_id": "A3B3EB65-6C41-450C-B210-36D0AAD76C41",
            "target_timerange": {
              "start": 411541000,
              "duration": 1493000
            }
          },
          {
            "id": "8D928238-8217-468B-9B72-81CCC65AD83D",
            "material_id": "950F790D-8995-49CB-A03E-27B0D0E3BBFB",
            "target_timerange": {
              "start": 413034000,
              "duration": 662000
            }
          },
          {
            "id": "8E39AB34-58EE-4EFF-BE6D-031F3BCB533F",
            "material_id": "273E6565-622D-47C9-A29C-32800773B877",
            "target_timerange": {
              "start": 413696000,
              "duration": 981000
            }
          },
          {
            "id": "C86D2692-659C-4930-858D-2927C8DAC165",
            "material_id": "05A6A4EB-11A6-42A8-9343-3D77F3D74D90",
            "target_timerange": {
              "start": 414677000,
              "duration": 896000
            }
          },
          {
            "id": "9C2019ED-01F0-4ADC-8CCC-9DCA06399377",
            "material_id": "C3A97C69-88E4-4FCC-832F-723D29853B00",
            "target_timerange": {
              "start": 415573000,
              "duration": 1152000
            }
          },
          {
            "id": "AC908F51-FFD8-4664-A51C-CD06A6014279",
            "material_id": "3BCAC682-2D57-4D93-888A-D2C94CD8ED34",
            "target_timerange": {
              "start": 416725000,
              "duration": 1408000
            }
          },
          {
            "id": "AFC2AC8F-2359-4B5D-B842-6B5873DC0CDF",
            "material_id": "F07BB8AA-15CA-47BF-AF86-063BBCC1CC17",
            "target_timerange": {
              "start": 418133000,
              "duration": 1332000
            }
          },
          {
            "id": "B9617E94-D450-446A-A083-31D6B51BBC33",
            "material_id": "1C75FB3C-0C9C-4A29-8FFE-F40BEDC88326",
            "target_timerange": {
              "start": 419465000,
              "duration": 1015000
            }
          },
          {
            "id": "97D1A640-70C1-4AD7-A532-77E5215D19EA",
            "material_id": "2E74E3C7-229D-49CA-9101-4600755242E3",
            "target_timerange": {
              "start": 420480000,
              "duration": 1151000
            }
          },
          {
            "id": "4FAA0794-2B3C-4907-981C-58EDDE97F8F5",
            "material_id": "FBAFA97C-8753-4033-90B0-48C457402622",
            "target_timerange": {
              "start": 421631000,
              "duration": 832000
            }
          },
          {
            "id": "47B80C12-BCC6-432E-8DA5-8B8643EEC95C",
            "material_id": "001657B1-0A5E-4864-9830-B6EF532C3FF4",
            "target_timerange": {
              "start": 422463000,
              "duration": 1259000
            }
          },
          {
            "id": "B7BCB50E-573E-4D61-8386-6BA19B8A2330",
            "material_id": "71AF724C-B009-4654-B973-940D74A85B73",
            "target_timerange": {
              "start": 423722000,
              "duration": 2133000
            }
          },
          {
            "id": "B3F68D61-39A4-48AB-9368-FEE48F876342",
            "material_id": "AEB90840-2759-4166-BE09-E37E251D2254",
            "target_timerange": {
              "start": 425855000,
              "duration": 1664000
            }
          },
          {
            "id": "4B4BB12A-C2EA-44CD-B274-BD7693D1E212",
            "material_id": "FE70AD0D-927E-4FBE-930B-9454F96FD4C1",
            "target_timerange": {
              "start": 427519000,
              "duration": 1067000
            }
          },
          {
            "id": "F4A6516C-D8E6-4C79-896F-827EDB515F35",
            "material_id": "43BF698D-56AF-4EFC-A7EA-ABEF6003C675",
            "target_timerange": {
              "start": 428586000,
              "duration": 917000
            }
          },
          {
            "id": "91F26311-064B-4F8C-A696-69BE128DE381",
            "material_id": "F85C81CD-E323-4B86-85F7-EF360EC5A8FF",
            "target_timerange": {
              "start": 429503000,
              "duration": 1238000
            }
          },
          {
            "id": "0447F0E3-F4C9-45D2-915E-EFCD010ED78A",
            "material_id": "E6269DB0-31A6-4F7D-B4D9-6BA83BB5248D",
            "target_timerange": {
              "start": 430741000,
              "duration": 1706000
            }
          },
          {
            "id": "F6368F78-BBAA-48AC-B208-95C0BC710D77",
            "material_id": "3BBD500A-7A06-4E7F-9D8C-69ECA3511FB6",
            "target_timerange": {
              "start": 432447000,
              "duration": 1408000
            }
          },
          {
            "id": "54E0F423-329A-43CC-A3C7-B419A2E76D52",
            "material_id": "83438B04-E8AE-4A69-917A-F18E27A07FB9",
            "target_timerange": {
              "start": 433855000,
              "duration": 1792000
            }
          },
          {
            "id": "D4B75BFB-1285-4DAB-B5C4-432F91CB0345",
            "material_id": "672F1CE1-72E9-41F5-ABDF-523A58845336",
            "target_timerange": {
              "start": 435647000,
              "duration": 1899000
            }
          },
          {
            "id": "61D83B4C-095A-4760-B705-6C846BFFCF47",
            "material_id": "239FD0C8-A08E-45E2-BF40-A596ED4A2F0F",
            "target_timerange": {
              "start": 437546000,
              "duration": 1472000
            }
          },
          {
            "id": "0F9F536C-7F60-4D1F-A843-A79E1153CFBE",
            "material_id": "9F7851AC-5FA4-4F24-83A0-B939185E0A1C",
            "target_timerange": {
              "start": 439018000,
              "duration": 1067000
            }
          },
          {
            "id": "DE2F7AD1-EFE7-4C3E-BD03-4AE4E8C87F66",
            "material_id": "629BDE26-4BAD-4AD6-8BDE-7DD2E6D5D37B",
            "target_timerange": {
              "start": 440085000,
              "duration": 1024000
            }
          },
          {
            "id": "9FF99A46-5BC3-46A7-884C-F708D36D91D7",
            "material_id": "F11B8F80-0F41-4B14-B71F-2BD31400066F",
            "target_timerange": {
              "start": 441109000,
              "duration": 1259000
            }
          },
          {
            "id": "6CBA7064-6753-453C-9411-07933C4346EE",
            "material_id": "3B072956-AAFF-46C5-95BA-3FC13ACC6EAD",
            "target_timerange": {
              "start": 442368000,
              "duration": 1216000
            }
          },
          {
            "id": "9F525849-2A0A-4771-80A7-DE50CBCC4638",
            "material_id": "8874A187-8569-4F04-9689-5BD1D61E5A74",
            "target_timerange": {
              "start": 443584000,
              "duration": 1493000
            }
          },
          {
            "id": "7FCF0B21-AFC7-4673-8BAB-0C03F036C1BC",
            "material_id": "6947466A-E1F8-4981-AF8D-B4D2702810A1",
            "target_timerange": {
              "start": 445077000,
              "duration": 1365000
            }
          },
          {
            "id": "0757F4F1-82A6-4D69-A61E-6143A79A2F76",
            "material_id": "DF1F6369-DB76-45E0-A1F6-3C8807CCBE4F",
            "target_timerange": {
              "start": 446442000,
              "duration": 1131000
            }
          },
          {
            "id": "A1C37334-D3EA-4B56-9CC1-730908D8A46D",
            "material_id": "6FB89E7F-1FA8-4191-8270-E686AFBE9D2B",
            "target_timerange": {
              "start": 447573000,
              "duration": 1984000
            }
          },
          {
            "id": "89C3E09A-C404-4A6D-8874-A90590B9C976",
            "material_id": "CDFCD796-4083-4FE6-9BC7-2DFF34C2DBEA",
            "target_timerange": {
              "start": 449557000,
              "duration": 1856000
            }
          },
          {
            "id": "05C59B32-9805-4FF7-BCAC-1B4C23204171",
            "material_id": "0600F0FA-C55A-4347-BD00-B18BA61A0718",
            "target_timerange": {
              "start": 451413000,
              "duration": 1792000
            }
          },
          {
            "id": "AC382F9B-650C-4E0D-9945-0594032FE745",
            "material_id": "A9004AEE-1E3B-4BFE-88AC-2959A3034116",
            "target_timerange": {
              "start": 453205000,
              "duration": 384000
            }
          },
          {
            "id": "C21AAD44-F096-4304-8ED7-20BDE3B7DA94",
            "material_id": "FF0F95BD-7FE6-483D-AC60-5020FAB8C3D1",
            "target_timerange": {
              "start": 453589000,
              "duration": 1387000
            }
          },
          {
            "id": "BAE57349-617F-4282-AC79-C8CF3CFC5481",
            "material_id": "9F661B13-EF32-45A4-AAEA-AA73C495A8F8",
            "target_timerange": {
              "start": 454976000,
              "duration": 832000
            }
          },
          {
            "id": "6F6214B2-CAD5-4E34-916F-62C2D118C04C",
            "material_id": "D01C267A-EC5F-409F-ACED-C21C5FAA19A9",
            "target_timerange": {
              "start": 455808000,
              "duration": 1477000
            }
          },
          {
            "id": "39AF0468-6317-4708-8D0C-32795A896FF2",
            "material_id": "E644D670-DC23-41EE-9AE5-5C1F02842ACB",
            "target_timerange": {
              "start": 457285000,
              "duration": 1402000
            }
          },
          {
            "id": "0ACD7344-BDDD-4572-A871-F5739DC935F0",
            "material_id": "D726629C-EEA3-4798-9523-9E061225B569",
            "target_timerange": {
              "start": 458687000,
              "duration": 1025000
            }
          },
          {
            "id": "449CBB64-7354-4AC2-8C38-FC4E46E99B56",
            "material_id": "5C5D00F6-F7DE-42A6-9FEB-7699D75C902E",
            "target_timerange": {
              "start": 459712000,
              "duration": 896000
            }
          },
          {
            "id": "44BABFA4-042E-41E6-A457-7750C3C94452",
            "material_id": "C898270B-A19E-4DB5-9FB7-C5ACCD8D8AAB",
            "target_timerange": {
              "start": 460608000,
              "duration": 1834000
            }
          },
          {
            "id": "9BC8730C-44E8-4740-9CD4-05A797CB0251",
            "material_id": "8AA630BD-1668-4249-BB3C-339A68425AE1",
            "target_timerange": {
              "start": 462442000,
              "duration": 982000
            }
          },
          {
            "id": "112762D6-BA47-4E0C-B8A2-4B5932360DF8",
            "material_id": "BE1E8FFA-EB2F-43C1-8C34-C729F703C190",
            "target_timerange": {
              "start": 463424000,
              "duration": 1023000
            }
          },
          {
            "id": "92CC8A23-4B8C-438C-94DC-97853FE7D6E4",
            "material_id": "FEB6AA1E-5E30-49FD-9869-62C361646E8F",
            "target_timerange": {
              "start": 464447000,
              "duration": 2347000
            }
          },
          {
            "id": "62FDEBDE-9866-4163-A49B-EFBC33ED7267",
            "material_id": "3B9C6E98-5F1F-4403-8056-9D8F0B5CAD33",
            "target_timerange": {
              "start": 466794000,
              "duration": 619000
            }
          },
          {
            "id": "0B7AF085-2387-41BA-B70B-14389AAC8D6A",
            "material_id": "984E7A06-6F2B-456F-A8B8-B13491AA6C0E",
            "target_timerange": {
              "start": 467413000,
              "duration": 725000
            }
          },
          {
            "id": "2D60097B-3974-48DE-9811-E315EE6E18E8",
            "material_id": "7A9EC1B3-0BC9-4932-AF76-6F7F8B5D3D7E",
            "target_timerange": {
              "start": 468138000,
              "duration": 1558000
            }
          },
          {
            "id": "40AF085A-6C69-48F4-B960-5EC095936D13",
            "material_id": "813AA3BD-4FCC-4AF2-ACD8-62358A15FE26",
            "target_timerange": {
              "start": 469696000,
              "duration": 853000
            }
          },
          {
            "id": "D2B82ED8-AF78-4695-AACE-F0EBCF5769C2",
            "material_id": "C15CA9C9-CC76-459B-B5F6-029614D0966F",
            "target_timerange": {
              "start": 470549000,
              "duration": 661000
            }
          },
          {
            "id": "1EE9893B-595F-4C51-82F2-2BEED1FDE62E",
            "material_id": "2253462E-E7FB-4408-AD6C-5787C77D9AF3",
            "target_timerange": {
              "start": 471210000,
              "duration": 1237000
            }
          },
          {
            "id": "271FF306-0CCB-43DA-AE51-358045F147B1",
            "material_id": "5A10525C-C43D-430C-991E-5EC64C8F0983",
            "target_timerange": {
              "start": 472447000,
              "duration": 1750000
            }
          },
          {
            "id": "EAD94008-6C04-46B6-A309-92368E9065C2",
            "material_id": "2E8DCD88-A09A-4F6F-9D00-48F0091E74FD",
            "target_timerange": {
              "start": 474197000,
              "duration": 1045000
            }
          },
          {
            "id": "3CA3D0DA-675D-495C-8B28-7C2151CB8D26",
            "material_id": "3B16FC4F-F810-471E-9F2B-75697BA311BD",
            "target_timerange": {
              "start": 475242000,
              "duration": 1408000
            }
          },
          {
            "id": "3E14B397-313F-4DB9-A244-3102EF562B0C",
            "material_id": "464B3324-0297-4E1C-BBA1-813E89E7A604",
            "target_timerange": {
              "start": 476650000,
              "duration": 1494000
            }
          },
          {
            "id": "27F939B2-A964-4F30-95E5-86FD27239C18",
            "material_id": "DC882A8F-A55F-48FA-BBA3-6E87CDA7E3C9",
            "target_timerange": {
              "start": 478144000,
              "duration": 1642000
            }
          },
          {
            "id": "E8558EC2-3BDB-4E2F-B434-8B946B2AAD4B",
            "material_id": "1199CCD7-B7D3-4680-AAFA-63886C7E855D",
            "target_timerange": {
              "start": 479786000,
              "duration": 1430000
            }
          },
          {
            "id": "4ABB0CEE-41D1-4C53-A341-CBF5992B45D8",
            "material_id": "9C4C7E78-C22D-4AE0-974B-6435DB6336F7",
            "target_timerange": {
              "start": 481216000,
              "duration": 959000
            }
          },
          {
            "id": "7F25BE73-95AB-4D5D-8477-0C9895DAEA89",
            "material_id": "43C00CC0-ADFA-4305-BC82-29486D7E4416",
            "target_timerange": {
              "start": 482175000,
              "duration": 1430000
            }
          },
          {
            "id": "88BF95CC-E872-40D0-BE8B-59B3BA2AA895",
            "material_id": "811A6019-0EDF-4886-B43B-2503A57786B7",
            "target_timerange": {
              "start": 483605000,
              "duration": 704000
            }
          },
          {
            "id": "64EEB013-82A2-4333-BFE7-DB59DD4A40E9",
            "material_id": "A5382A86-895B-437B-8026-19BF718DE399",
            "target_timerange": {
              "start": 484309000,
              "duration": 1322000
            }
          },
          {
            "id": "D3DA3143-B9B8-4534-A81A-90164CA1C47C",
            "material_id": "C72A45DE-8E95-42D6-A8EE-1014394534D3",
            "target_timerange": {
              "start": 485631000,
              "duration": 2006000
            }
          },
          {
            "id": "ED16F7CD-243F-4DE0-B6E7-2BF25F57DCDC",
            "material_id": "FB9E637A-41B1-4881-99B6-4C1EF51A4491",
            "target_timerange": {
              "start": 487637000,
              "duration": 1216000
            }
          },
          {
            "id": "F5F9A18D-7731-45BA-8D60-797868DBF3F9",
            "material_id": "EE9ACABA-0F18-45A4-9964-11C42FCC19E4",
            "target_timerange": {
              "start": 488853000,
              "duration": 2304000
            }
          },
          {
            "id": "FEBBBC13-82A6-4CAB-9D2F-BCFFB197E2F5",
            "material_id": "2C5C5C2C-61F9-496C-954F-8C49F928632C",
            "target_timerange": {
              "start": 491157000,
              "duration": 810000
            }
          },
          {
            "id": "496301E5-C6D5-47A7-8CEF-A80D2A16B216",
            "material_id": "1EA9495A-6EFD-4DDB-862E-4DEFDCD3CC32",
            "target_timerange": {
              "start": 491967000,
              "duration": 811000
            }
          },
          {
            "id": "37702F95-B310-4BAE-A6EF-59D7FB540DEC",
            "material_id": "5EC0D343-BBA4-4340-8C93-E491FEC62E7E",
            "target_timerange": {
              "start": 492778000,
              "duration": 1430000
            }
          },
          {
            "id": "A08C2FD4-6120-4771-A9B6-C9EF53D5EA01",
            "material_id": "04836E15-D1AB-4FB3-81E6-FB0DEA39A4F0",
            "target_timerange": {
              "start": 494208000,
              "duration": 1855000
            }
          },
          {
            "id": "5A57FEDD-5BF6-4487-8222-38FA9AF34ADF",
            "material_id": "D88A3B4D-F23D-4298-B912-26B5765F11D4",
            "target_timerange": {
              "start": 496063000,
              "duration": 1003000
            }
          },
          {
            "id": "2678EBB5-2124-4536-8759-2917F3C7F082",
            "material_id": "C10C82F9-E085-4ACD-A6D9-BDF5262D9359",
            "target_timerange": {
              "start": 497066000,
              "duration": 1045000
            }
          },
          {
            "id": "37210459-352E-45B1-AC45-2B73F023CC1C",
            "material_id": "26C620EB-8EC6-4C76-BAD8-B4FA5DFB7734",
            "target_timerange": {
              "start": 498111000,
              "duration": 769000
            }
          },
          {
            "id": "48BD3407-2DEE-4348-BC1D-7CD21DC1CF06",
            "material_id": "C3C253F2-A8FD-41B2-A49D-87553C0ED04C",
            "target_timerange": {
              "start": 498880000,
              "duration": 1237000
            }
          },
          {
            "id": "FCA9935F-1AD7-46B0-8D53-57CFDB3A26ED",
            "material_id": "E73F942B-FE25-4EDC-8E81-567700587379",
            "target_timerange": {
              "start": 500117000,
              "duration": 618000
            }
          },
          {
            "id": "71936E9F-C4D1-47B6-B483-3F5B40FD8C5C",
            "material_id": "A5420192-2745-4250-B3C3-1B6FCA111FC4",
            "target_timerange": {
              "start": 500735000,
              "duration": 491000
            }
          },
          {
            "id": "D9EDD6F3-788A-40A9-AC15-2096D57D4A78",
            "material_id": "C0336966-4E1C-418F-9EE9-5AA11869BABB",
            "target_timerange": {
              "start": 501226000,
              "duration": 789000
            }
          },
          {
            "id": "52D64E05-105A-4CEB-ADC7-5B187A114A1B",
            "material_id": "A3A562FF-466C-40DA-90B6-9CDE7523FA52",
            "target_timerange": {
              "start": 502015000,
              "duration": 811000
            }
          },
          {
            "id": "EAB95BC3-8263-4368-921D-0669CA0C3810",
            "material_id": "0754B051-FC02-4A19-AE94-B7A8CE2BFC3B",
            "target_timerange": {
              "start": 502826000,
              "duration": 1408000
            }
          },
          {
            "id": "AA500294-A760-4A58-A495-573F64F79E56",
            "material_id": "B89AD17B-2EEC-4C32-BA80-CA1E736B88F1",
            "target_timerange": {
              "start": 504234000,
              "duration": 1259000
            }
          },
          {
            "id": "CECDF8DC-9218-477A-BB1E-5499D8502DBD",
            "material_id": "98A2DD15-C14D-4DE8-AD35-BAEE7F8EF374",
            "target_timerange": {
              "start": 505493000,
              "duration": 1088000
            }
          },
          {
            "id": "36820131-99C8-4E58-8DB0-8AF95FB8AC26",
            "material_id": "A9E4C27A-A4C2-4D3B-B42F-48074CA1FE37",
            "target_timerange": {
              "start": 506581000,
              "duration": 1963000
            }
          },
          {
            "id": "378AEC9F-FBA2-405F-AAC8-3FEFA0335E3E",
            "material_id": "070ABBF3-7D6F-4580-8230-C14CDEADA984",
            "target_timerange": {
              "start": 508544000,
              "duration": 761000
            }
          },
          {
            "id": "D50B2DB4-F81D-475A-81D8-78BA53392978",
            "material_id": "600EFFC9-21A0-438D-9F44-626A6FA09B9C",
            "target_timerange": {
              "start": 509305000,
              "duration": 241000
            }
          },
          {
            "id": "4797822A-1480-407B-A0FF-E233B0C262BF",
            "material_id": "DAD49E56-2F86-4E49-8EE1-263FF11C62A5",
            "target_timerange": {
              "start": 509546000,
              "duration": 875000
            }
          },
          {
            "id": "8B628112-93B2-427D-87F3-F98F4EAC00C8",
            "material_id": "BADDBEF8-4C29-49D0-B4AF-EB305DB5C331",
            "target_timerange": {
              "start": 510421000,
              "duration": 1216000
            }
          },
          {
            "id": "8883CD43-22B8-4CF8-85CD-87B0BC32EC0D",
            "material_id": "D8AF3B06-DF1B-4669-B340-84D5FF9C4AE7",
            "target_timerange": {
              "start": 511637000,
              "duration": 746000
            }
          },
          {
            "id": "51F3BC05-8B4D-4780-BCE2-144CBF5BB832",
            "material_id": "2BBC7EE5-B87F-4824-95DA-F449B2100390",
            "target_timerange": {
              "start": 512383000,
              "duration": 1963000
            }
          },
          {
            "id": "4439943E-518D-48F5-B2CD-8344CA658021",
            "material_id": "6DC7048B-D465-4079-8B78-B33CCA615C7B",
            "target_timerange": {
              "start": 514346000,
              "duration": 938999
            }
          },
          {
            "id": "EB6F5F8C-5057-4E8F-8369-40C4AD4135A1",
            "material_id": "BA9C9AFB-D320-43D4-AFD2-8E973BC1D4A7",
            "target_timerange": {
              "start": 515284999,
              "duration": 811001
            }
          },
          {
            "id": "B67FB71E-0B19-4B3A-A8D7-89C0C8EC702E",
            "material_id": "2D9272B7-2A86-43B4-8F4C-82F0779EC42F",
            "target_timerange": {
              "start": 516096000,
              "duration": 660999
            }
          },
          {
            "id": "EC4EF00C-0DC7-467D-A0C1-51C3E40F7C0C",
            "material_id": "D7F6A600-99C6-4C84-8E31-153AD65CE8F0",
            "target_timerange": {
              "start": 516756999,
              "duration": 618001
            }
          },
          {
            "id": "4E1363DC-82CF-47D6-89D1-B9BA571883D3",
            "material_id": "99276ACD-9802-4ED0-9AC7-91DAFF9B1AA3",
            "target_timerange": {
              "start": 517375000,
              "duration": 619000
            }
          },
          {
            "id": "C89D1EBE-922B-4767-9407-C5AB28F9740D",
            "material_id": "F0CFDF38-5AAC-47A3-87EB-73F83FD25E26",
            "target_timerange": {
              "start": 517994000,
              "duration": 939000
            }
          },
          {
            "id": "26413524-E56C-4368-AF97-E50557E951C8",
            "material_id": "B66EC192-84FC-4E79-9B50-8197184CFB96",
            "target_timerange": {
              "start": 518933000,
              "duration": 1024000
            }
          },
          {
            "id": "11B49461-91B1-467D-8E2B-53FF5185C79C",
            "material_id": "1C524F1D-E70A-4A5B-9027-600C8F1AAE8A",
            "target_timerange": {
              "start": 519957000,
              "duration": 1248000
            }
          },
          {
            "id": "DDD3A6F4-D675-48E3-97B4-B48064765E9B",
            "material_id": "0B82564F-60B6-4BE9-A662-3AAADA02969C",
            "target_timerange": {
              "start": 521205000,
              "duration": 1161999
            }
          },
          {
            "id": "8905BC5B-BC2B-493D-AFB3-B6A60038855A",
            "material_id": "69531F6B-AAC7-4C9D-BB27-5D3095498331",
            "target_timerange": {
              "start": 522366999,
              "duration": 1067000
            }
          },
          {
            "id": "CFA7013E-12BD-4282-969F-FCCF12C2C266",
            "material_id": "B4F14BAA-1CA9-4C6C-9411-2E2814663723",
            "target_timerange": {
              "start": 523433999,
              "duration": 640000
            }
          },
          {
            "id": "C5DE2015-8AC6-43FF-B512-C66EE53EF035",
            "material_id": "3F62527D-8498-406B-B4AC-5BE718720518",
            "target_timerange": {
              "start": 524073999,
              "duration": 1152001
            }
          },
          {
            "id": "D02EEDE4-D011-4D87-91EF-774DD3A40AE6",
            "material_id": "AB4BEB85-06D8-47DE-813E-AF0A0887FBA7",
            "target_timerange": {
              "start": 525226000,
              "duration": 1493000
            }
          },
          {
            "id": "D38D7824-8A9A-4080-A9EE-E5CE7BBFC06B",
            "material_id": "26727105-7CC3-4913-8366-69695F7249C8",
            "target_timerange": {
              "start": 526719000,
              "duration": 1215999
            }
          },
          {
            "id": "0C1CA57C-9196-4856-AE0B-6AFB477E33CD",
            "material_id": "7BF73A23-6526-4F2C-896A-DAFA2251F171",
            "target_timerange": {
              "start": 527934999,
              "duration": 1025001
            }
          },
          {
            "id": "9BF2CC07-EABD-4A82-A85C-495ABCC8840A",
            "material_id": "74EBA7A6-6654-4937-8AF9-47E7AA423E0C",
            "target_timerange": {
              "start": 528960000,
              "duration": 1279000
            }
          },
          {
            "id": "98C1B0EA-C70C-4192-9393-1707DA39D7E9",
            "material_id": "FEE00FAF-3E0E-47D2-A5E1-2B0F1CE00E2D",
            "target_timerange": {
              "start": 530239000,
              "duration": 2416000
            }
          },
          {
            "id": "35C0255A-84BD-4FEB-A2B0-BCB22747E64E",
            "material_id": "54D1593A-5764-41A7-95E5-E1F446F169EC",
            "target_timerange": {
              "start": 532655000,
              "duration": 379000
            }
          },
          {
            "id": "98F53558-D889-408D-9DF4-6B60C9986931",
            "material_id": "3B1D7F3E-2EC6-4F32-A574-275D05407348",
            "target_timerange": {
              "start": 533034000,
              "duration": 2411000
            }
          },
          {
            "id": "1DBCA358-FFE2-4F2D-B9FC-330DCAF6A9B8",
            "material_id": "A991EB37-9C31-4FA4-A55C-60C2E34B7076",
            "target_timerange": {
              "start": 535445000,
              "duration": 1706000
            }
          },
          {
            "id": "26C893F8-CB3E-40FA-9F27-523BC7182382",
            "material_id": "162B7EF7-1240-4278-924E-1858CFBAA792",
            "target_timerange": {
              "start": 537151000,
              "duration": 1174000
            }
          },
          {
            "id": "558D632D-A54C-4A08-BC90-B7394FB95656",
            "material_id": "1F44D761-F810-44AC-AEED-02C8C3E25219",
            "target_timerange": {
              "start": 538325000,
              "duration": 490000
            }
          },
          {
            "id": "19970459-C1CE-485C-9E01-40DA4AF4B37E",
            "material_id": "46A5A2EE-46E1-4BDB-AAD7-294287C5E225",
            "target_timerange": {
              "start": 538815000,
              "duration": 1601000
            }
          },
          {
            "id": "93688FD9-26A9-4833-A1D9-D60482BD4E9B",
            "material_id": "68EBD128-34CD-4B7D-BDC3-D44E56262892",
            "target_timerange": {
              "start": 540416000,
              "duration": 831000
            }
          },
          {
            "id": "91B24651-9AFF-4C72-B2A2-4337C252F0FF",
            "material_id": "7B2EEA80-C5BA-47AB-AE8D-309402E90C4B",
            "target_timerange": {
              "start": 541247000,
              "duration": 1771000
            }
          },
          {
            "id": "F8590001-3F12-4DED-8FB9-DA42E52B0D29",
            "material_id": "C98CC6E5-E48B-46D2-809A-71CFC02A6969",
            "target_timerange": {
              "start": 543018000,
              "duration": 1728000
            }
          },
          {
            "id": "518250F6-F16A-48E6-AD02-8AEB2B816B60",
            "material_id": "47B1F152-3790-43CF-B7A2-371F0390E7AF",
            "target_timerange": {
              "start": 544746000,
              "duration": 640000
            }
          },
          {
            "id": "0E980820-362D-4B1D-B20D-F2B02FE2D6C9",
            "material_id": "DFDC6CD7-F632-45A4-82D4-9F16A02B2202",
            "target_timerange": {
              "start": 545386000,
              "duration": 1707000
            }
          },
          {
            "id": "29706A64-D8A8-47EB-821E-4177601DD3AE",
            "material_id": "9786DFA9-15F7-4440-A6E6-F3E1ABF0D2FD",
            "target_timerange": {
              "start": 547093000,
              "duration": 1258000
            }
          },
          {
            "id": "4C610FD8-EE07-4A25-9AF4-F343BDBB4C0A",
            "material_id": "5C6BCFAF-D41E-4F4A-8DE3-4E552252C574",
            "target_timerange": {
              "start": 548351000,
              "duration": 982000
            }
          },
          {
            "id": "4EBA4231-96C5-413C-84E5-1E89F1194F79",
            "material_id": "3F8B01FE-B75C-41F3-BF5D-ADC98EF021B4",
            "target_timerange": {
              "start": 549333000,
              "duration": 725000
            }
          },
          {
            "id": "770877E7-D5BE-4422-AB1E-530539E5391E",
            "material_id": "A233AB1A-BF1A-47D2-AEFA-295741091F92",
            "target_timerange": {
              "start": 550058000,
              "duration": 1152000
            }
          },
          {
            "id": "705379DD-5508-4099-A595-A0AD144826CC",
            "material_id": "089B5D0D-0D30-4F86-BFAE-FD23CED58CD2",
            "target_timerange": {
              "start": 551210000,
              "duration": 1259000
            }
          },
          {
            "id": "17D3BC9E-F529-4BAB-93A0-CFE1DA1A4133",
            "material_id": "5E5079F6-AD30-48A5-81F4-827978189057",
            "target_timerange": {
              "start": 552469000,
              "duration": 1130000
            }
          },
          {
            "id": "A7038728-EC39-4B44-A05B-D631FBC36CC1",
            "material_id": "3AA6B942-B9CB-448A-AE03-AB1EA7B10371",
            "target_timerange": {
              "start": 553599000,
              "duration": 1643000
            }
          },
          {
            "id": "2A9C30A6-21BA-4021-BB99-A8922ACB4AF1",
            "material_id": "0C226030-CFAF-4A11-91E2-226FD1940600",
            "target_timerange": {
              "start": 555242000,
              "duration": 960000
            }
          },
          {
            "id": "88543A9A-1E6F-4806-B39A-C8744406979E",
            "material_id": "C6C00F50-EFBF-41E0-B7FA-AA0FD661D9D2",
            "target_timerange": {
              "start": 556202000,
              "duration": 1493000
            }
          },
          {
            "id": "FE534A38-6053-4FC8-8A90-5509F9C7955E",
            "material_id": "C15D4B24-B6E8-42FF-BBDB-DFDB539B311C",
            "target_timerange": {
              "start": 557695000,
              "duration": 1216000
            }
          },
          {
            "id": "356CB9A4-3495-4208-BE75-6E8CB19F3ACE",
            "material_id": "1699FAEA-5436-43C5-B6F1-434252A2E1A4",
            "target_timerange": {
              "start": 558911000,
              "duration": 1494000
            }
          },
          {
            "id": "A80D812A-F1FA-485F-B61D-65FCC66B9C03",
            "material_id": "28D6D2CB-B332-4A87-8B82-861120CDADD0",
            "target_timerange": {
              "start": 560405000,
              "duration": 1995000
            }
          },
          {
            "id": "942155A4-4A35-455E-850F-BC275751DC60",
            "material_id": "330F687B-904A-4D95-BECC-67C094B7B67F",
            "target_timerange": {
              "start": 562400000,
              "duration": 1461000
            }
          },
          {
            "id": "962E8EB2-2C4A-48B5-BEBA-C75594F1B070",
            "material_id": "860E6FD3-7696-4037-82AA-B83C8EF54216",
            "target_timerange": {
              "start": 563861000,
              "duration": 1237000
            }
          },
          {
            "id": "EADB919A-1369-4CB2-8C8D-83075B7F4188",
            "material_id": "BF259997-B678-4762-908A-A1E256B03C45",
            "target_timerange": {
              "start": 565098000,
              "duration": 2052000
            }
          },
          {
            "id": "73087963-1EFD-4143-9707-5D3BEB5E07DE",
            "material_id": "D279D1E4-48FC-4BC6-9E1F-9EA284B39038",
            "target_timerange": {
              "start": 567150000,
              "duration": 1788000
            }
          },
          {
            "id": "6F29B585-3D98-49A0-B4D5-137E524F2710",
            "material_id": "B0B3CE20-C8E5-4FFB-96E6-E6138BE14FBD",
            "target_timerange": {
              "start": 568938000,
              "duration": 1259000
            }
          },
          {
            "id": "39CAD885-4F87-4899-B0DB-7FB241F80266",
            "material_id": "05FEDDA3-C870-4C9A-B1D8-C743B036BA03",
            "target_timerange": {
              "start": 570197000,
              "duration": 1749000
            }
          },
          {
            "id": "B16E22BA-CEDD-45E0-B9AE-85364D8FFD5A",
            "material_id": "4BD3C77D-33A0-4AB8-8DBB-6103B6AE69FB",
            "target_timerange": {
              "start": 571946000,
              "duration": 1771000
            }
          },
          {
            "id": "3A081A35-76CD-4F50-ACC7-577F3A1B01D4",
            "material_id": "FCA82B72-0E05-43F3-83E5-E07A1141E716",
            "target_timerange": {
              "start": 573717000,
              "duration": 917000
            }
          },
          {
            "id": "89F9A64C-7053-44B7-AD6F-F4BA210744BD",
            "material_id": "7AED9F91-B6FD-4A28-97DD-22CFCE8DD920",
            "target_timerange": {
              "start": 574634000,
              "duration": 768000
            }
          },
          {
            "id": "BD5D3E28-AF6C-4BC0-909B-1D4892CEBC12",
            "material_id": "EA7D0DF8-A86E-4B82-AA2F-DE8BC061F2B9",
            "target_timerange": {
              "start": 575402000,
              "duration": 1472000
            }
          },
          {
            "id": "69C8C8EB-A1A2-4C15-B973-65E498D485BB",
            "material_id": "77C112D2-E4E5-4C53-88D8-F045EB3C5FF5",
            "target_timerange": {
              "start": 576874000,
              "duration": 747000
            }
          },
          {
            "id": "B6FAF557-E169-4742-8ADE-921857E83FBC",
            "material_id": "9BE79F76-93BE-452C-8AD9-1A464D2CD74A",
            "target_timerange": {
              "start": 577621000,
              "duration": 704000
            }
          },
          {
            "id": "9FCE7D18-08FA-411B-9BCC-744CFA9A0F2E",
            "material_id": "275D942C-F96C-4C48-8212-C6532B2D3FA8",
            "target_timerange": {
              "start": 578325000,
              "duration": 1109000
            }
          },
          {
            "id": "72DB54B3-68E6-4A55-9F6E-712C48023C22",
            "material_id": "9694CF05-6451-4B27-9FA9-DDF2F492768E",
            "target_timerange": {
              "start": 579434000,
              "duration": 2112000
            }
          },
          {
            "id": "A59E68E0-B510-4124-8C81-89B85A1F05C7",
            "material_id": "237EDE2F-5CBD-4D79-8718-E3A9C4FA6232",
            "target_timerange": {
              "start": 581546000,
              "duration": 640000
            }
          },
          {
            "id": "0BD8BC19-136C-4ABA-B002-AC4FCBFF9148",
            "material_id": "734B48FB-C7CC-4D4D-B941-42CE5A140C79",
            "target_timerange": {
              "start": 582186000,
              "duration": 1621000
            }
          },
          {
            "id": "65843A9E-2F7E-4A78-A127-A4FB33F88863",
            "material_id": "9AED8734-4B41-45FA-AF71-670A0FAA1667",
            "target_timerange": {
              "start": 583807000,
              "duration": 1110000
            }
          },
          {
            "id": "352D9588-C25A-4EAC-92FF-CE3A1A1A6105",
            "material_id": "1F18D9B5-31B9-44BE-B722-E39FA3020C88",
            "target_timerange": {
              "start": 584917000,
              "duration": 1792000
            }
          },
          {
            "id": "B80F687F-41F6-4DBD-9CCB-750B5B7E04D2",
            "material_id": "4A154652-6E14-43FD-A27E-B11F23D44BF5",
            "target_timerange": {
              "start": 586709000,
              "duration": 1109000
            }
          },
          {
            "id": "9281B51D-3059-4AC2-9F12-03EB6F53EA56",
            "material_id": "345382FF-39BA-4D92-A02A-8259F9A36678",
            "target_timerange": {
              "start": 587818000,
              "duration": 1259000
            }
          },
          {
            "id": "04F5E4A5-123A-4D43-8E12-CFFEB0C09BFE",
            "material_id": "76269D48-18D1-4002-8E8C-157677334036",
            "target_timerange": {
              "start": 589077000,
              "duration": 811000
            }
          },
          {
            "id": "5B813DE7-289D-4C83-8747-1EBFD101B328",
            "material_id": "0658A195-7A72-40FF-A58C-86CCD9667E9F",
            "target_timerange": {
              "start": 589888000,
              "duration": 640000
            }
          },
          {
            "id": "65EDEF31-5C39-4C47-B584-CF13208D8E82",
            "material_id": "C75DB6A9-FA69-4528-AB7F-68E359D67696",
            "target_timerange": {
              "start": 590528000,
              "duration": 1514000
            }
          },
          {
            "id": "5507921A-5F1F-4152-B48B-C9E06ED87D8E",
            "material_id": "953562D7-7641-4771-8294-6DF201DCD65B",
            "target_timerange": {
              "start": 592042000,
              "duration": 1358000
            }
          },
          {
            "id": "563D17AB-1164-42B4-B7EA-6E066C7069DE",
            "material_id": "76BFD998-6554-4A6E-BCE8-3DB74C2A95C7",
            "target_timerange": {
              "start": 593400000,
              "duration": 946000
            }
          },
          {
            "id": "AE8617C0-91AF-4D30-95F7-2C8CB38E05D7",
            "material_id": "B8D79369-003B-4D5F-881D-333EA0628D87",
            "target_timerange": {
              "start": 594346000,
              "duration": 1963000
            }
          },
          {
            "id": "55FA323B-B0C7-453A-AC54-B17E7AB89D65",
            "material_id": "53E2F6B1-C9E2-4A39-9D23-4272D2F048AC",
            "target_timerange": {
              "start": 596309000,
              "duration": 1493000
            }
          },
          {
            "id": "4501331A-3E9A-41CC-90BB-44BC13750362",
            "material_id": "7B867ECE-03FE-4B62-B01E-AA6343EB6E81",
            "target_timerange": {
              "start": 597802000,
              "duration": 1195000
            }
          },
          {
            "id": "1B107F07-249E-4C4B-89BA-0E8CD9B99A98",
            "material_id": "50D6E725-649C-44C4-A54D-68E144B592D9",
            "target_timerange": {
              "start": 598997000,
              "duration": 448000
            }
          },
          {
            "id": "765D5EDA-DC25-4EB9-A2F0-372DC82518FC",
            "material_id": "746DFA50-6028-4785-9307-A816815FB840",
            "target_timerange": {
              "start": 599445000,
              "duration": 1450000
            }
          },
          {
            "id": "F53884A6-2EF7-493A-9DB7-BC7573B4175A",
            "material_id": "7C5F5D65-D228-4B0B-A81E-A225715AF92C",
            "target_timerange": {
              "start": 600895000,
              "duration": 1089000
            }
          },
          {
            "id": "91AA4163-D38F-4EEE-935C-7BE54723C2B6",
            "material_id": "E835FF7B-CC99-40A4-8143-93BBD0805F78",
            "target_timerange": {
              "start": 601984000,
              "duration": 1023000
            }
          },
          {
            "id": "735FF2F8-EDC1-444C-86BD-DF011937BDA6",
            "material_id": "7CA77FA7-522B-4511-B62D-E39095152062",
            "target_timerange": {
              "start": 603007000,
              "duration": 576000
            }
          },
          {
            "id": "AA5DE07B-63A5-40BC-BE97-606679EA4897",
            "material_id": "436D870E-8B53-4644-A6FC-099DF16D7E75",
            "target_timerange": {
              "start": 603583000,
              "duration": 1302000
            }
          },
          {
            "id": "C9475D22-09C7-4373-8F7D-1BCE79F2E621",
            "material_id": "2BC4F3F0-DE69-4689-A895-F595335F73FD",
            "target_timerange": {
              "start": 604885000,
              "duration": 1578000
            }
          },
          {
            "id": "2AA350B7-C08B-4E73-8602-01C66AF3606D",
            "material_id": "7431E94B-612E-4F7A-BC27-9A4048B65F79",
            "target_timerange": {
              "start": 606463000,
              "duration": 1259000
            }
          },
          {
            "id": "AC33A23F-1CCA-43CF-BF32-435B25D17210",
            "material_id": "9B26F680-DF21-4878-9E7D-E93B35299B87",
            "target_timerange": {
              "start": 607722000,
              "duration": 1366000
            }
          },
          {
            "id": "B509D223-0945-4FB1-9593-75F76CF6055D",
            "material_id": "1F2B5264-7F05-4B7B-9ED6-F1BE4BFFC3FC",
            "target_timerange": {
              "start": 609088000,
              "duration": 1130000
            }
          },
          {
            "id": "22741AD6-760C-4E6E-81FA-44AA6CE0731B",
            "material_id": "3276AE07-E0D2-492B-8AB6-674AA637A211",
            "target_timerange": {
              "start": 610218000,
              "duration": 854000
            }
          },
          {
            "id": "8BEA6048-5EB8-4DDE-88E2-8875195C6A35",
            "material_id": "4B0FBCAB-8C8E-4A02-B96A-B7335D768EDC",
            "target_timerange": {
              "start": 611072000,
              "duration": 853000
            }
          },
          {
            "id": "EA26475E-B3E2-4C7C-A998-CE542BA83DFD",
            "material_id": "54AF5E92-37BF-4841-A765-351127D738A8",
            "target_timerange": {
              "start": 611925000,
              "duration": 1365000
            }
          },
          {
            "id": "34823906-F32F-4F11-A44E-FD32BB26D902",
            "material_id": "AD84DD38-90C1-489E-AF12-1BD82D9FAB63",
            "target_timerange": {
              "start": 613290000,
              "duration": 896000
            }
          },
          {
            "id": "77695FD0-D9EF-4536-AA51-8CA228FD7EBC",
            "material_id": "788A2F3F-8E2D-41AB-B72B-EEBA73DD270E",
            "target_timerange": {
              "start": 614186000,
              "duration": 1408000
            }
          },
          {
            "id": "E3E3B08C-EE51-4C5F-85F4-18934436908A",
            "material_id": "69F22D68-F382-464B-8647-611CBDE11CD9",
            "target_timerange": {
              "start": 615594000,
              "duration": 875000
            }
          },
          {
            "id": "C27FEF53-E296-4D5E-928D-D87B6D219F14",
            "material_id": "38B7D9F5-1BDD-4F46-9E9A-6412B25BCE75",
            "target_timerange": {
              "start": 616469000,
              "duration": 960000
            }
          },
          {
            "id": "06100FC1-B427-4324-A565-A665C13CC3C8",
            "material_id": "5038CD22-7D6D-4D11-83E0-002CD13A0C65",
            "target_timerange": {
              "start": 617429000,
              "duration": 747000
            }
          },
          {
            "id": "DD89D7BF-4063-4E3E-8BB7-5C1088E08C4B",
            "material_id": "AA9F4620-D44C-40C6-A911-24E84B142696",
            "target_timerange": {
              "start": 618176000,
              "duration": 1469000
            }
          },
          {
            "id": "09FE2AD7-532E-4409-A321-4B63CCDCDE9C",
            "material_id": "5EFEFF01-8D67-47C2-BA1E-1A771DEA2461",
            "target_timerange": {
              "start": 619645000,
              "duration": 1667000
            }
          },
          {
            "id": "4F7EE322-BC79-410A-9808-FA82BBA7B847",
            "material_id": "1B1AB9F1-19B7-4BE5-BA16-A911B437BAB6",
            "target_timerange": {
              "start": 621312000,
              "duration": 1471000
            }
          },
          {
            "id": "A15CA935-9030-44BD-9D91-7177B2F9CEEA",
            "material_id": "06C118BB-1274-467F-B8F6-622801A90074",
            "target_timerange": {
              "start": 622783000,
              "duration": 1558000
            }
          },
          {
            "id": "1F8FCF9A-E5EE-42A0-8C6F-F878DFDB4215",
            "material_id": "B3D0DDA4-5842-4F69-9D1C-79457EE26427",
            "target_timerange": {
              "start": 624341000,
              "duration": 1237000
            }
          },
          {
            "id": "7961E25D-0C86-4E97-900E-DFD484F4A1FF",
            "material_id": "F84FB6DF-F8E8-4078-BB6C-E1D840FFB172",
            "target_timerange": {
              "start": 625578000,
              "duration": 1579000
            }
          },
          {
            "id": "9EB0A384-4A2D-4580-8513-EACC8E27B9B4",
            "material_id": "73E8E6A2-AC0F-4053-80CA-16EB4A1BA8B4",
            "target_timerange": {
              "start": 627157000,
              "duration": 1557000
            }
          },
          {
            "id": "38E2C7A6-DB23-404B-A10C-28C9D1DB1C3E",
            "material_id": "441CF0E3-88E2-419E-A888-38EA28DAD954",
            "target_timerange": {
              "start": 628714000,
              "duration": 960000
            }
          },
          {
            "id": "DA4C3257-39BD-4FF7-8585-94290CE40E4E",
            "material_id": "9CA1583B-9032-4665-B037-0FF2DA2BF317",
            "target_timerange": {
              "start": 629674000,
              "duration": 1750000
            }
          },
          {
            "id": "A5250A36-2BA8-4288-A84F-F3D038D40BB8",
            "material_id": "A19B8EBE-B3EF-4110-B8CD-2100A462551B",
            "target_timerange": {
              "start": 631424000,
              "duration": 2046000
            }
          },
          {
            "id": "24B56FF4-4073-4F37-88B7-D2526EB66187",
            "material_id": "C97E6B3A-3600-40E3-8E13-EA4DB6FE991D",
            "target_timerange": {
              "start": 633470000,
              "duration": 1537000
            }
          },
          {
            "id": "AB9603B3-1842-40A5-B4C5-471761BD8947",
            "material_id": "089D0B3B-58FC-43EF-AF69-8DB4934CD50D",
            "target_timerange": {
              "start": 635007000,
              "duration": 534000
            }
          },
          {
            "id": "56E10C47-A44E-41DA-A082-72E4CEEF6F2C",
            "material_id": "FF6C93A2-60A7-4673-9216-1119A3293BA0",
            "target_timerange": {
              "start": 635541000,
              "duration": 555000
            }
          },
          {
            "id": "6A061373-87BA-450A-84B7-959E9840C33E",
            "material_id": "765B4081-8F73-438D-907E-99D74A1E4F52",
            "target_timerange": {
              "start": 636096000,
              "duration": 768000
            }
          },
          {
            "id": "78D1A4D6-96D6-4506-A001-0A70040C943C",
            "material_id": "CF5160AE-E300-40A5-A8A7-A6AB1180F7EE",
            "target_timerange": {
              "start": 636864000,
              "duration": 1088000
            }
          },
          {
            "id": "EFE19C5B-2860-4572-87EB-4BC49E4BEB50",
            "material_id": "CD014B63-EFF0-4B22-AAF3-2CDEBC4B8240",
            "target_timerange": {
              "start": 637952000,
              "duration": 1194000
            }
          },
          {
            "id": "670CEA87-9AC9-478E-92AB-9D0895D9A22C",
            "material_id": "8D2B8E22-C0C6-495A-8C74-AB3FDCE1980A",
            "target_timerange": {
              "start": 639146000,
              "duration": 1280000
            }
          },
          {
            "id": "8B08C56C-ADE6-4449-A2A9-DD183337F1A4",
            "material_id": "5E3286EC-3871-4B50-8DD9-B263FA318572",
            "target_timerange": {
              "start": 640426000,
              "duration": 1493000
            }
          },
          {
            "id": "E5DECBE6-55F9-46C8-8AEF-79E940E75F07",
            "material_id": "6E047702-D50F-4E01-AA85-6C414FB60F5A",
            "target_timerange": {
              "start": 641919000,
              "duration": 385000
            }
          },
          {
            "id": "F962A4AD-97D7-4B61-9BD9-00FC8542D5F5",
            "material_id": "FCFB0BD3-EB62-4480-899F-A539D04D9A9C",
            "target_timerange": {
              "start": 642304000,
              "duration": 768000
            }
          },
          {
            "id": "EBE8C024-8E3B-4296-8F8C-F8CC3F0C73A4",
            "material_id": "64B17014-FDCC-49CD-A536-8F2F05A8D06C",
            "target_timerange": {
              "start": 643072000,
              "duration": 2026000
            }
          },
          {
            "id": "C2F962B6-6204-46EA-808C-093676A32442",
            "material_id": "9BC11753-7C98-4507-A190-F0950FFFC78C",
            "target_timerange": {
              "start": 645098000,
              "duration": 683000
            }
          },
          {
            "id": "BDAEB991-E02E-4525-AE65-FD72D12A8B6C",
            "material_id": "C0198476-011A-4D9A-9EE0-ABA1B9E519B8",
            "target_timerange": {
              "start": 645781000,
              "duration": 2261000
            }
          },
          {
            "id": "C23C950A-066F-4321-A8CA-57FC49DF6E6C",
            "material_id": "ECC09F42-145E-4C4B-8D96-82530090BAC6",
            "target_timerange": {
              "start": 648042000,
              "duration": 1003000
            }
          },
          {
            "id": "3D35916F-1A90-4B46-8101-12685C022587",
            "material_id": "FE661137-5FC3-4D44-AE53-72CF792649FF",
            "target_timerange": {
              "start": 649045000,
              "duration": 1429000
            }
          },
          {
            "id": "54F3F3F6-03DD-4C7F-BDF1-8DC6A222EECE",
            "material_id": "1E4BAC85-72C9-4431-8D68-05C0C7EF766E",
            "target_timerange": {
              "start": 650474000,
              "duration": 1942000
            }
          },
          {
            "id": "592ACCEC-4826-4817-B6AA-00F9BD182E0B",
            "material_id": "BC4D91C5-25FE-42E3-914D-5809E08744D3",
            "target_timerange": {
              "start": 652416000,
              "duration": 853000
            }
          },
          {
            "id": "24EBB6F3-3B2A-4049-AB5A-A267ED7F1A50",
            "material_id": "A577625C-20B0-4DBC-81B8-4C2059912752",
            "target_timerange": {
              "start": 653269000,
              "duration": 1322000
            }
          },
          {
            "id": "40F90275-9AD1-46A1-821A-7F0EA718FB23",
            "material_id": "B7A92CAC-3534-478C-8B0D-9CBC4A77BFC7",
            "target_timerange": {
              "start": 654591000,
              "duration": 2112000
            }
          },
          {
            "id": "EA9CC3D2-3C50-4D12-B97B-EE151A7C67D5",
            "material_id": "403AD4DA-6FD5-4A04-B305-B2AE3F806E7A",
            "target_timerange": {
              "start": 656703000,
              "duration": 961000
            }
          },
          {
            "id": "590FFA09-8793-4D79-8A3E-AF46B4B6252F",
            "material_id": "55BABC8D-54D8-4FE4-80FA-CF4CAD21AAC6",
            "target_timerange": {
              "start": 657664000,
              "duration": 1408000
            }
          },
          {
            "id": "07C627D0-EBBF-4070-9262-46A924FA2EDD",
            "material_id": "F33FA601-885B-4F39-B95C-413EA2A06682",
            "target_timerange": {
              "start": 659072000,
              "duration": 1024000
            }
          },
          {
            "id": "60BB8928-031B-42D9-84D0-8C43C19EDD28",
            "material_id": "E8B02CEE-7640-43F1-B8BE-F8CF9A5D4ECA",
            "target_timerange": {
              "start": 660096000,
              "duration": 1216000
            }
          },
          {
            "id": "1ED29BB6-1BC8-4739-AC63-66703CFF7771",
            "material_id": "AEF7C79A-E2D8-4877-A658-C2A34B645441",
            "target_timerange": {
              "start": 661312000,
              "duration": 853000
            }
          },
          {
            "id": "7E62C897-CBE0-4957-BE0D-42BADA9799A9",
            "material_id": "0E306CAB-1791-42AC-8B9A-9868ADA8C0F0",
            "target_timerange": {
              "start": 662165000,
              "duration": 874000
            }
          },
          {
            "id": "820D53A9-FDCD-4FEE-BFCC-7838BFEA32EE",
            "material_id": "93C59C01-DA11-42BC-B604-196BEFB806D7",
            "target_timerange": {
              "start": 663039000,
              "duration": 2432000
            }
          },
          {
            "id": "B8E2FF91-EAF9-4FB4-A321-FD7689C0BC1D",
            "material_id": "6882B17C-9367-4D9E-861D-DE9F44D6C76F",
            "target_timerange": {
              "start": 665471000,
              "duration": 896000
            }
          },
          {
            "id": "543222B9-728A-490B-9DAA-0CA390E126B8",
            "material_id": "8B1D8943-7AEA-4A18-9987-D11ADB99C456",
            "target_timerange": {
              "start": 666367000,
              "duration": 768000
            }
          },
          {
            "id": "EFBCE354-4A3E-4107-94B3-3770FA9F71A1",
            "material_id": "CA9038C7-8EF0-4E40-9097-CE1AFD3ACFC8",
            "target_timerange": {
              "start": 667135000,
              "duration": 747000
            }
          },
          {
            "id": "CFB28B6A-FB95-4FB5-A7FE-590CB30E21C6",
            "material_id": "F312B88F-470F-4E1A-9FE5-69F2CA87749F",
            "target_timerange": {
              "start": 667882000,
              "duration": 1131000
            }
          },
          {
            "id": "97A0F4D7-1B33-4D53-B6AC-7CADFC3C1E84",
            "material_id": "0F39B100-CAFB-4182-8F55-11A1597815BB",
            "target_timerange": {
              "start": 669013000,
              "duration": 917000
            }
          },
          {
            "id": "BD4BCE3B-EBB1-4EE2-8D17-735AF51A39B2",
            "material_id": "B084CB15-D67F-450C-AC31-C2F32C5323C6",
            "target_timerange": {
              "start": 669930000,
              "duration": 875000
            }
          },
          {
            "id": "B7114607-D802-46A1-A666-5A7DB11A9165",
            "material_id": "A4C760B8-62CA-4FBC-84BB-6E5A4A7E2392",
            "target_timerange": {
              "start": 670805000,
              "duration": 1195000
            }
          },
          {
            "id": "8E35FF7D-9A8D-4A3A-A338-966CAEDA1704",
            "material_id": "9AA15EB1-C133-4AB8-9212-8A4E232D0A44",
            "target_timerange": {
              "start": 672000000,
              "duration": 1045000
            }
          },
          {
            "id": "984D2BA3-5DE8-4EE9-9C7C-A85312AF9A4C",
            "material_id": "495DA6D5-CF40-4A23-8AD4-606B01FF363C",
            "target_timerange": {
              "start": 673045000,
              "duration": 1770000
            }
          },
          {
            "id": "795FA640-D831-4107-9191-31A284AED33C",
            "material_id": "9053288A-9ECB-4A10-A74A-23EF35D416BC",
            "target_timerange": {
              "start": 674815000,
              "duration": 1387000
            }
          },
          {
            "id": "02B8C4C3-2A03-462B-B11F-82C7C66A9623",
            "material_id": "3A3615CC-8E82-4813-9A41-31E325E7C52B",
            "target_timerange": {
              "start": 676202000,
              "duration": 1558000
            }
          },
          {
            "id": "CD91E1BD-4B1C-4146-B98A-3558AEB98A46",
            "material_id": "C2FFBD25-FC54-46FC-ACE2-3450660F9389",
            "target_timerange": {
              "start": 677760000,
              "duration": 1109000
            }
          },
          {
            "id": "E9286C17-1AE5-4528-BD6B-0C584A6B8B9E",
            "material_id": "E48819AE-4738-4B8D-B625-AC2BF6EF9A8B",
            "target_timerange": {
              "start": 678869000,
              "duration": 2197000
            }
          },
          {
            "id": "60553B4F-19DC-446A-AA38-5BF98F21D3CA",
            "material_id": "2F25EF25-2D08-4F0D-8DA7-0F17217F942E",
            "target_timerange": {
              "start": 681066000,
              "duration": 2454000
            }
          },
          {
            "id": "4C82C096-839D-4AFC-9F1A-FF653143FF73",
            "material_id": "031D6883-BE37-4A4B-9E21-5140919CFD90",
            "target_timerange": {
              "start": 683520000,
              "duration": 1002000
            }
          },
          {
            "id": "4DAF685C-7D96-49DF-AC1E-2EC580168B95",
            "material_id": "D905EDD5-08D0-4A6A-80E6-CECF395C6D6E",
            "target_timerange": {
              "start": 684522000,
              "duration": 640000
            }
          },
          {
            "id": "D1AF2392-CF02-40D3-B175-54166FE5A311",
            "material_id": "8654C296-0436-4B1F-A37F-626ABE68EC6C",
            "target_timerange": {
              "start": 685162000,
              "duration": 1109000
            }
          },
          {
            "id": "7EDF4DB0-86FE-4C0E-BEBB-70520BFBCEE1",
            "material_id": "302892C8-5C39-4D92-B1A9-9415E7011306",
            "target_timerange": {
              "start": 686271000,
              "duration": 982000
            }
          },
          {
            "id": "AF3939E6-71DE-4A8E-850A-57177008A24C",
            "material_id": "A4C6291F-42D5-4F61-82FF-AF1D4C47C915",
            "target_timerange": {
              "start": 687253000,
              "duration": 1259000
            }
          },
          {
            "id": "F16363B9-AB0A-4EEF-98B2-AAAA0CA80C6C",
            "material_id": "D2E23099-6E05-4F99-A3FE-43DAC903DCD6",
            "target_timerange": {
              "start": 688512000,
              "duration": 554000
            }
          },
          {
            "id": "2D79F3A7-165F-4849-B0BD-1B8F75E0C1DB",
            "material_id": "48D114FC-DB97-4487-BB84-8DCB853BF0D5",
            "target_timerange": {
              "start": 689066000,
              "duration": 1664000
            }
          },
          {
            "id": "AD522C22-BAE2-4C02-8652-625E2D82C7B2",
            "material_id": "2DB065AE-7ABB-4B0B-A4E9-C18DAFAF52B4",
            "target_timerange": {
              "start": 690730000,
              "duration": 1585000
            }
          },
          {
            "id": "D1AC10A0-72ED-457B-92C8-7B9A82F709B5",
            "material_id": "C44539AD-7AB8-4712-B274-4EF05C70AEDD",
            "target_timerange": {
              "start": 692315000,
              "duration": 1338000
            }
          },
          {
            "id": "45866F45-F67F-4E64-8182-43098129D2BA",
            "material_id": "B0A8A824-7D73-41EE-9283-6757C47421A6",
            "target_timerange": {
              "start": 693653000,
              "duration": 1109000
            }
          },
          {
            "id": "E3249385-E0A8-4E97-9C93-DF932B5D49EE",
            "material_id": "0DCC0187-CDD1-4221-AF23-25B992EC19CB",
            "target_timerange": {
              "start": 694762000,
              "duration": 1195000
            }
          },
          {
            "id": "ACDFA7E9-D294-450B-A5F6-ACF18419AF35",
            "material_id": "D4B4FB70-45FD-46E3-AFFC-1AC49A333265",
            "target_timerange": {
              "start": 695957000,
              "duration": 832000
            }
          },
          {
            "id": "B9661EEB-FF4A-4485-B9F4-115C9987D137",
            "material_id": "B4937CBE-C9C5-4385-B1E2-867851D4862A",
            "target_timerange": {
              "start": 696789000,
              "duration": 1600000
            }
          },
          {
            "id": "97960A86-0FDE-4488-87C5-716F81C15401",
            "material_id": "694C14D7-F7B5-4DCD-A2C2-26A88D2D112E",
            "target_timerange": {
              "start": 698389000,
              "duration": 1109000
            }
          },
          {
            "id": "DA7747A9-0998-4D44-AFCD-F2B9BE85D03D",
            "material_id": "45425DC8-9316-486A-A2E5-8488D3B73E72",
            "target_timerange": {
              "start": 699498000,
              "duration": 1417000
            }
          },
          {
            "id": "E49B805F-3AB7-494D-9F41-350D1290B1DD",
            "material_id": "681BE902-7BBC-48CD-87CD-6F9642273F49",
            "target_timerange": {
              "start": 700915000,
              "duration": 1143000
            }
          },
          {
            "id": "77754BAE-00B1-4411-B52B-6373D1A8C359",
            "material_id": "88949CD1-00B1-4811-B434-F4352CF17C42",
            "target_timerange": {
              "start": 702058000,
              "duration": 598000
            }
          },
          {
            "id": "A22A1463-6132-417D-BBD7-A76B11CFE4AB",
            "material_id": "604B3283-67FA-4737-93C6-849256AB063C",
            "target_timerange": {
              "start": 702656000,
              "duration": 768000
            }
          },
          {
            "id": "2D70BDC1-A663-43C4-BA38-6E01E799FF85",
            "material_id": "56416DEC-4822-4A35-BF6E-DC6524F7B3DF",
            "target_timerange": {
              "start": 703424000,
              "duration": 1109000
            }
          },
          {
            "id": "013F3F12-43D9-46BB-8A95-61079498910A",
            "material_id": "84E5EEBE-6CDA-4D8E-AD90-333D54DC8610",
            "target_timerange": {
              "start": 704533000,
              "duration": 1429000
            }
          },
          {
            "id": "6C1F28DF-AE90-4814-B953-14424F0666E0",
            "material_id": "7A494796-CDD3-4CB7-82C1-25AA150291D2",
            "target_timerange": {
              "start": 705962000,
              "duration": 1408000
            }
          },
          {
            "id": "D7E75E34-E3DF-42CE-89F2-1D34EFA46F4E",
            "material_id": "F035E9D4-DD03-424E-BFAA-8CBAEF6D1CF7",
            "target_timerange": {
              "start": 707370000,
              "duration": 1494000
            }
          },
          {
            "id": "3FD32B72-7C42-4AD5-947F-70EC14286060",
            "material_id": "D3771540-3083-4C5A-A313-496E022D09A1",
            "target_timerange": {
              "start": 708864000,
              "duration": 1066000
            }
          },
          {
            "id": "091316DA-09F3-41DA-BF2C-FF82ACA6F492",
            "material_id": "E3F8759B-3CDD-4C53-8A72-8EE1414ABE25",
            "target_timerange": {
              "start": 709930000,
              "duration": 1707000
            }
          },
          {
            "id": "1D1DF12E-5A9B-4A35-94EE-1861583649B9",
            "material_id": "7EB03C99-B8CE-461E-ADB9-229C8F5B90E6",
            "target_timerange": {
              "start": 711637000,
              "duration": 1003000
            }
          },
          {
            "id": "1EF80BD1-B6B2-45FB-8E83-955757179C47",
            "material_id": "196FBAFA-7905-48B7-B248-09D3D7035868",
            "target_timerange": {
              "start": 712640000,
              "duration": 2026000
            }
          },
          {
            "id": "1AE045BE-1453-424E-A01C-EE9666A62810",
            "material_id": "E6B2F7A6-30D6-44D2-879F-76E4B40A16BF",
            "target_timerange": {
              "start": 714666000,
              "duration": 1472000
            }
          },
          {
            "id": "F7210D52-329E-402C-A48B-9A045647B9B1",
            "material_id": "3E9B57DE-CA0A-44DA-919D-5063A7EC284D",
            "target_timerange": {
              "start": 716138000,
              "duration": 2027000
            }
          },
          {
            "id": "450F7F4A-BD9D-4508-9A49-AF553F40E797",
            "material_id": "F2DE60D4-3A47-4883-A66A-3377C2CED4B2",
            "target_timerange": {
              "start": 718165000,
              "duration": 1045000
            }
          },
          {
            "id": "C1CCC8EB-4264-4BF5-8BAA-A43EB9E13551",
            "material_id": "C6BFB060-22CF-454A-AC49-CE0F089294EC",
            "target_timerange": {
              "start": 719210000,
              "duration": 1750000
            }
          },
          {
            "id": "AE684834-80A7-4DD4-A75B-9371C09FCA8D",
            "material_id": "F5C8869E-B1C7-4136-BF3B-C573911ADA5C",
            "target_timerange": {
              "start": 720960000,
              "duration": 1685000
            }
          },
          {
            "id": "CAD267B7-E3A8-4DC2-88B3-22BE8278D290",
            "material_id": "70ACA604-5B0E-4D4C-BA38-ADFA3B7DD525",
            "target_timerange": {
              "start": 722645000,
              "duration": 1258000
            }
          },
          {
            "id": "FB3DB206-EA41-4A1D-9DCC-986A7000A250",
            "material_id": "831E9905-84F3-4A12-BB4F-C0D730BEE8D0",
            "target_timerange": {
              "start": 723903000,
              "duration": 1302000
            }
          },
          {
            "id": "2F76142B-6E44-40D3-91FF-1320EDFB4225",
            "material_id": "67C57F3C-954E-47DF-840B-258D0648909E",
            "target_timerange": {
              "start": 725205000,
              "duration": 1237000
            }
          },
          {
            "id": "545BED92-28CD-4D34-A876-5324777301EB",
            "material_id": "716D036C-4910-4FAC-B386-571471317C55",
            "target_timerange": {
              "start": 726442000,
              "duration": 875000
            }
          },
          {
            "id": "BE1314E7-B978-41E4-A50B-E83B534848CB",
            "material_id": "E416AAC2-6BBC-42E4-94E6-60BA6A404628",
            "target_timerange": {
              "start": 727317000,
              "duration": 555000
            }
          },
          {
            "id": "6FC94C7E-E8C5-4B79-8BE5-0591147B2412",
            "material_id": "A470AE48-8D53-45AD-A83B-FE820960CFA3",
            "target_timerange": {
              "start": 727872000,
              "duration": 959000
            }
          },
          {
            "id": "3865C23A-8AF0-4E3B-957E-DD57D5DB614B",
            "material_id": "5933AADE-69AE-4490-B62E-8A6A9EE2DE72",
            "target_timerange": {
              "start": 728831000,
              "duration": 2049000
            }
          },
          {
            "id": "0F1B1162-F2D0-4B31-B53F-F3BC15980CFF",
            "material_id": "732C0C3F-D421-452B-8D77-FDB56858E0FB",
            "target_timerange": {
              "start": 730880000,
              "duration": 1109000
            }
          },
          {
            "id": "2434A920-F83F-47EA-AB41-1F0CAA0ADF3E",
            "material_id": "DCFF65A8-84DA-4DA3-ADD6-3DA96C4EE503",
            "target_timerange": {
              "start": 731989000,
              "duration": 1621000
            }
          },
          {
            "id": "C331184A-F100-4E40-8DED-0A9065866E39",
            "material_id": "F82B852A-7F83-4EE1-8603-50041819DD79",
            "target_timerange": {
              "start": 733610000,
              "duration": 1173000
            }
          },
          {
            "id": "C590F3CD-734C-4DB3-B05A-30F1F2C21C3D",
            "material_id": "3AD3ADDE-EE44-48E3-9193-233355E47426",
            "target_timerange": {
              "start": 734783000,
              "duration": 918000
            }
          },
          {
            "id": "09F873A9-A02A-4311-B881-C487E0FAB46D",
            "material_id": "96C5983F-2345-4F8B-B98B-F056FF2F579D",
            "target_timerange": {
              "start": 735701000,
              "duration": 811000
            }
          },
          {
            "id": "B643B7A7-F029-490A-BC97-391AAA28F064",
            "material_id": "243C87CB-0626-4DDC-9D90-201A5E9B899A",
            "target_timerange": {
              "start": 736512000,
              "duration": 1365000
            }
          },
          {
            "id": "F0498E97-4DAC-4FC6-AA00-2A429A0E9D5E",
            "material_id": "2F8F530A-CC5E-48FF-89D0-B05FEB2FD7A6",
            "target_timerange": {
              "start": 737877000,
              "duration": 2026000
            }
          },
          {
            "id": "7E4D5EF3-1A37-471C-A145-7ADB5E09909E",
            "material_id": "3D95CFF2-AA93-42EA-9545-BC60701F3EBA",
            "target_timerange": {
              "start": 739903000,
              "duration": 875000
            }
          },
          {
            "id": "873849EE-0461-4894-A1C8-DFE47500AF38",
            "material_id": "0EF34054-0C8A-4D67-8D63-13EC31CB5E63",
            "target_timerange": {
              "start": 740778000,
              "duration": 1131000
            }
          },
          {
            "id": "53BA878B-829B-424E-A59B-C94B7F098AE4",
            "material_id": "56F8AACA-FB0C-43E4-B994-6CB97D4CF766",
            "target_timerange": {
              "start": 741909000,
              "duration": 1002000
            }
          },
          {
            "id": "D03A66A3-2A47-41AD-928E-0B53E6A35110",
            "material_id": "135DFD97-77A4-4A63-A83A-0EE54E174422",
            "target_timerange": {
              "start": 742911000,
              "duration": 1536000
            }
          },
          {
            "id": "F09FF9BE-1C8E-4198-A656-8722BB0677E4",
            "material_id": "8B884249-0797-44FF-9C30-567052ED4B13",
            "target_timerange": {
              "start": 744447000,
              "duration": 769000
            }
          },
          {
            "id": "CFAF1EA0-2449-4EF4-8A62-84711A74A607",
            "material_id": "10D892FD-612D-4C65-8CAC-6CCA7ED70B06",
            "target_timerange": {
              "start": 745216000,
              "duration": 597000
            }
          },
          {
            "id": "160D95D8-3F94-49B4-805D-20515AB4F6AC",
            "material_id": "2DD500E0-A312-45D4-9D9D-34202E9DF424",
            "target_timerange": {
              "start": 745813000,
              "duration": 1067000
            }
          },
          {
            "id": "052603C3-B70F-4A44-8040-FA7C57E89908",
            "material_id": "D131FCB4-6BD1-41BF-B9E6-32FE19AE2C75",
            "target_timerange": {
              "start": 746880000,
              "duration": 1343000
            }
          },
          {
            "id": "D253CFA6-A67C-4FE1-8BCA-383D880BC357",
            "material_id": "0AEAADA9-7ECD-441A-AAA0-87583DB2ECBE",
            "target_timerange": {
              "start": 748223000,
              "duration": 769000
            }
          },
          {
            "id": "9926B6F6-CD47-4CD7-8ED6-9C001799B102",
            "material_id": "D0345E68-C659-415D-BBB5-B4165E42915F",
            "target_timerange": {
              "start": 748992000,
              "duration": 853000
            }
          },
          {
            "id": "1ABFF2B1-9A08-475C-A59A-045E6DA33496",
            "material_id": "EB2E2A81-C347-4393-A5AC-9C2D49232DE3",
            "target_timerange": {
              "start": 749845000,
              "duration": 1579000
            }
          },
          {
            "id": "80698719-E8E6-44DF-80F6-460588A3FA7B",
            "material_id": "1E56B12B-E1AC-4088-AE19-3615DF05E0F0",
            "target_timerange": {
              "start": 751424000,
              "duration": 1813000
            }
          },
          {
            "id": "1A1C6E16-B1DA-4ACF-AD4F-59F09F975E83",
            "material_id": "A084486D-E9DF-46C7-88D0-71F4ED3E6C0B",
            "target_timerange": {
              "start": 753237000,
              "duration": 1301000
            }
          },
          {
            "id": "86873418-5C8A-46F9-A21E-65B59BC8EA4A",
            "material_id": "AE1682E5-D357-4926-AA40-AC28CF0D424B",
            "target_timerange": {
              "start": 754538000,
              "duration": 854000
            }
          },
          {
            "id": "66DB50AD-76C3-4A30-923E-CF5034EC1D5D",
            "material_id": "8AA4B41C-5C71-4722-B65C-08A02C6B713C",
            "target_timerange": {
              "start": 755392000,
              "duration": 981000
            }
          },
          {
            "id": "00972563-54A3-443D-ACA1-18BC6FF22B1E",
            "material_id": "CBFEA3F7-DCD5-4268-99BA-84F580B552AF",
            "target_timerange": {
              "start": 756373000,
              "duration": 1194000
            }
          },
          {
            "id": "C3C03451-9A08-4DDA-A393-B70611CF3478",
            "material_id": "EDBDC4E0-3CD4-4EBC-BBED-960CC92B46DE",
            "target_timerange": {
              "start": 757567000,
              "duration": 1259000
            }
          },
          {
            "id": "D394CD4E-6BD2-4C6E-B21F-586F28964E57",
            "material_id": "535656C0-1925-417F-AFBB-6E00D4C230D9",
            "target_timerange": {
              "start": 758826000,
              "duration": 1643000
            }
          },
          {
            "id": "33EC89C8-3A0C-4AC3-8F3E-589353165B45",
            "material_id": "56828D97-B293-4A65-9872-77C1C399D78B",
            "target_timerange": {
              "start": 760469000,
              "duration": 1536000
            }
          },
          {
            "id": "14734E66-7BCA-4FAA-852A-FD8DB2149744",
            "material_id": "5463C954-C0D4-460E-8D69-E636713D46D0",
            "target_timerange": {
              "start": 762005000,
              "duration": 768000
            }
          },
          {
            "id": "711D03D4-22F7-419D-B917-6098CA75803C",
            "material_id": "413E1330-CCCA-4569-A6FA-C0F3F898E975",
            "target_timerange": {
              "start": 762773000,
              "duration": 704000
            }
          },
          {
            "id": "8AEC554C-4DFC-48CA-8FE8-0D35BF90C053",
            "material_id": "497B7D01-6748-4C77-8A9F-6A4FBE655276",
            "target_timerange": {
              "start": 763477000,
              "duration": 874000
            }
          },
          {
            "id": "09D00463-E33A-4280-BE76-739E49E88A95",
            "material_id": "C37273EE-5769-44CB-AAB1-2CEA0A864874",
            "target_timerange": {
              "start": 764351000,
              "duration": 1131000
            }
          },
          {
            "id": "D458F6C1-33F6-460F-B513-417DEBF8CC26",
            "material_id": "47E07EB1-E7AC-4DC6-B22F-B8790D20463E",
            "target_timerange": {
              "start": 765482000,
              "duration": 1174000
            }
          },
          {
            "id": "9E12F045-1651-4E7B-92CD-90DDCBEFF987",
            "material_id": "ACECE183-5603-4206-9270-E00768B358B4",
            "target_timerange": {
              "start": 766656000,
              "duration": 1322000
            }
          },
          {
            "id": "198558E6-4CE2-47B4-A1E0-B44553ABBB2F",
            "material_id": "0A96F065-C4B9-4CAF-8DCE-86FBF8FCB969",
            "target_timerange": {
              "start": 767978000,
              "duration": 405000
            }
          },
          {
            "id": "23B3E97D-CC1B-486B-AA67-0AD4A3015147",
            "material_id": "AE54DB96-CCFD-41ED-8FBD-B7FA2D940BAC",
            "target_timerange": {
              "start": 768383000,
              "duration": 1327000
            }
          },
          {
            "id": "2DC190DB-06AC-4C8B-A9CF-A32DCEF8829A",
            "material_id": "80140AC6-2F5A-40D4-B9B6-E8318E2768C1",
            "target_timerange": {
              "start": 769710000,
              "duration": 1084000
            }
          },
          {
            "id": "57E6CEB7-4E28-469A-AF60-D1E5390D0081",
            "material_id": "255E3175-CBE5-496D-9DE3-A36A015DBD0B",
            "target_timerange": {
              "start": 770794000,
              "duration": 1259000
            }
          },
          {
            "id": "1601EF01-D0BD-45EA-94BD-BAF572D9606D",
            "material_id": "11C1BA7A-8F0A-4EF3-83BC-061A853FB433",
            "target_timerange": {
              "start": 772053000,
              "duration": 746000
            }
          },
          {
            "id": "C0EE64BD-6BD6-420B-A3ED-680FB46390F5",
            "material_id": "9E6A0200-F513-41E3-8711-AE68642D85AA",
            "target_timerange": {
              "start": 772799000,
              "duration": 683000
            }
          },
          {
            "id": "6FD58F98-8EA1-4389-9BAB-0772EDC2BCB7",
            "material_id": "22BC3C3C-5D24-47F9-9363-2AD6B2B73149",
            "target_timerange": {
              "start": 773482000,
              "duration": 1877000
            }
          },
          {
            "id": "7D5EDE98-0403-4F26-BF27-DC5B281F1FFB",
            "material_id": "F0B5FB1F-0FC2-4EB6-952A-649F6D770134",
            "target_timerange": {
              "start": 775359000,
              "duration": 1494000
            }
          },
          {
            "id": "8C7FBEBF-356C-4A8C-8F49-32508FDDBC2B",
            "material_id": "32D4FBC3-AEA7-40F1-B7E4-89D61E4EE17D",
            "target_timerange": {
              "start": 776853000,
              "duration": 1109000
            }
          },
          {
            "id": "81E35BD1-4F54-4438-ABDB-2CB31162977F",
            "material_id": "5FBC4D2E-998F-4DD3-B212-941D49ABF167",
            "target_timerange": {
              "start": 777962000,
              "duration": 1298000
            }
          },
          {
            "id": "9757E33D-53B3-4EFB-8CCA-3C1BF1B11303",
            "material_id": "75887366-D6BC-4861-A4A0-468DF9C6D079",
            "target_timerange": {
              "start": 779260000,
              "duration": 1219000
            }
          },
          {
            "id": "2048FA50-FA49-4214-8FF9-C608BDA2CBCC",
            "material_id": "7F43E49C-9410-4878-B20D-F00D797AB12A",
            "target_timerange": {
              "start": 780479000,
              "duration": 747000
            }
          },
          {
            "id": "FF07FEFC-0BEC-4767-A6B6-C4C3DF78C8F5",
            "material_id": "DE9CD64F-C113-47CE-8C9C-E267E99348E3",
            "target_timerange": {
              "start": 781226000,
              "duration": 832000
            }
          },
          {
            "id": "40C6B942-D0F6-48C6-8396-E4E0F99B047B",
            "material_id": "1FAD9061-0706-4474-AA83-E3774B2E49A5",
            "target_timerange": {
              "start": 782058000,
              "duration": 1259000
            }
          },
          {
            "id": "09FC8F1C-F245-4616-B6B2-123F99BD6165",
            "material_id": "7057E33A-595F-4983-8086-54338DAB5079",
            "target_timerange": {
              "start": 783317000,
              "duration": 1963000
            }
          },
          {
            "id": "0B442BD7-A111-45FC-B3F9-2BD3C3EA83F9",
            "material_id": "CDB9E648-4D53-4837-8B4F-7AB00C4AF0F7",
            "target_timerange": {
              "start": 785280000,
              "duration": 810000
            }
          },
          {
            "id": "8304708E-6B36-4790-A60E-2F7A950B9532",
            "material_id": "D6D5ED36-4246-4EBE-9B29-AF41E19E00A1",
            "target_timerange": {
              "start": 786090000,
              "duration": 917000
            }
          },
          {
            "id": "3E5F80A7-3B97-4149-833C-E2871EEF96DE",
            "material_id": "C093F74D-D3BD-4FD5-88D4-D4F775AF68DA",
            "target_timerange": {
              "start": 787007000,
              "duration": 1750000
            }
          },
          {
            "id": "BE927CD4-A980-4371-878E-819A44672829",
            "material_id": "B85AE6C4-4E06-41BE-9C22-2C05147E4FFF",
            "target_timerange": {
              "start": 788757000,
              "duration": 1771000
            }
          },
          {
            "id": "8C35739A-8A2F-44E4-9AE4-17C3C5608E87",
            "material_id": "76984201-2FE7-4B5B-A1E3-BC82EEA5C5D4",
            "target_timerange": {
              "start": 790528000,
              "duration": 831000
            }
          },
          {
            "id": "74F9C939-D5F0-4BF7-BBDD-21F57A376DC9",
            "material_id": "81C7F801-2896-4300-BCB5-BD590240549B",
            "target_timerange": {
              "start": 791359000,
              "duration": 1686000
            }
          },
          {
            "id": "8C64D300-5618-4099-9B2C-FAAA3184D7B4",
            "material_id": "B7FFAD58-4743-467F-B54D-A57315C7B2F7",
            "target_timerange": {
              "start": 793045000,
              "duration": 1088000
            }
          },
          {
            "id": "1FF0DFBD-559B-46D7-A3E4-C3F3AEA3D4E9",
            "material_id": "E0920F40-5102-4FF9-95C0-8D631EADCD11",
            "target_timerange": {
              "start": 794133000,
              "duration": 981000
            }
          },
          {
            "id": "1D5EDF86-4C2E-4AA2-A6FD-B912551E83E5",
            "material_id": "E5E6178A-37F4-4D53-83C6-AE65A84102FE",
            "target_timerange": {
              "start": 795114000,
              "duration": 640000
            }
          },
          {
            "id": "E4092CDE-73EA-414B-BC35-E6B7C1674483",
            "material_id": "CBABC296-D14D-46BF-BC84-59DF7D5DD3C4",
            "target_timerange": {
              "start": 795754000,
              "duration": 1067000
            }
          },
          {
            "id": "A644047B-084B-4F25-94E5-AB7EBB837038",
            "material_id": "6D519944-AA18-42F7-91DC-7224058870D8",
            "target_timerange": {
              "start": 796821000,
              "duration": 554000
            }
          },
          {
            "id": "7AC67FF9-D1A6-47D7-AAAD-E9D3618B52B7",
            "material_id": "9CFDBB88-CD10-4037-9ABE-E17AC2E21B1D",
            "target_timerange": {
              "start": 797375000,
              "duration": 1067000
            }
          },
          {
            "id": "FEDEF04E-1FEA-410D-870D-72F1B82708F2",
            "material_id": "5844BBED-F95E-4758-9FF0-18CE4D73D422",
            "target_timerange": {
              "start": 798442000,
              "duration": 896000
            }
          },
          {
            "id": "CA0DABCB-DA77-4258-8691-CDA66D395D24",
            "material_id": "6142153A-44BD-4010-BA1F-9EC49DB8508B",
            "target_timerange": {
              "start": 799338000,
              "duration": 1109000
            }
          },
          {
            "id": "B509FBCD-72ED-463F-90A8-A921DE300DEE",
            "material_id": "F076CC90-CC51-408C-A3EA-FA1773DA85F1",
            "target_timerange": {
              "start": 800447000,
              "duration": 2134000
            }
          },
          {
            "id": "B1612AE9-43B2-4025-AC03-8ADBCE1910DF",
            "material_id": "0185D34D-D95D-4723-A2EA-07CED25A7EE8",
            "target_timerange": {
              "start": 802581000,
              "duration": 1515000
            }
          },
          {
            "id": "B82387CC-8C42-4765-BF8C-1842BCA168BF",
            "material_id": "33660831-DCDC-47F5-8B0C-E4CD5D2ADEBB",
            "target_timerange": {
              "start": 804096000,
              "duration": 1809000
            }
          },
          {
            "id": "227C3483-EF8A-4EC2-BA1C-C815B091742D",
            "material_id": "824DBBDB-3E03-4B5F-A895-5A08756F22E2",
            "target_timerange": {
              "start": 805905000,
              "duration": 1711000
            }
          },
          {
            "id": "6B1C0CE2-9D6A-4B1A-A192-C07B72386FA4",
            "material_id": "97FAC059-E865-4F4A-A237-5C24D4A2AD85",
            "target_timerange": {
              "start": 807616000,
              "duration": 1024000
            }
          },
          {
            "id": "80B8C653-9FDC-49F2-911F-70A0C787B06E",
            "material_id": "103C886C-B0CD-45DD-A9C7-5DB36999A721",
            "target_timerange": {
              "start": 808640000,
              "duration": 1130000
            }
          },
          {
            "id": "8B460142-37CA-4EF5-B442-51FCD9E614D3",
            "material_id": "7842B29F-9409-4190-8498-E6AA10711626",
            "target_timerange": {
              "start": 809770000,
              "duration": 1920000
            }
          },
          {
            "id": "25824989-43BA-431E-844A-B6807131FEAE",
            "material_id": "83FCCFC7-AA61-44B9-ACFA-490BB8DE1F48",
            "target_timerange": {
              "start": 811690000,
              "duration": 875000
            }
          },
          {
            "id": "4001BB18-F53E-4A10-BB79-08BB29572B34",
            "material_id": "FDEC99D6-56FE-4C90-9103-689E2645A2D9",
            "target_timerange": {
              "start": 812565000,
              "duration": 981000
            }
          },
          {
            "id": "860F9B5E-FEAF-41B3-B478-87A9683E83BF",
            "material_id": "405681EC-4AB4-46E7-9502-2F29A14F1AAE",
            "target_timerange": {
              "start": 813546000,
              "duration": 1131000
            }
          },
          {
            "id": "7A341285-A617-482C-851C-6042495287DF",
            "material_id": "DA940416-6F7A-41D7-844F-BEEC90FAF816",
            "target_timerange": {
              "start": 814677000,
              "duration": 1578000
            }
          },
          {
            "id": "FD236CBE-4166-4435-A4DA-FF184DCBC76E",
            "material_id": "75B7579F-D675-46E4-9F5C-3D2A1CA32A5F",
            "target_timerange": {
              "start": 816255000,
              "duration": 1110000
            }
          },
          {
            "id": "03D70F59-A6CB-4DF0-AF8E-D6FDE3EE9C00",
            "material_id": "15F0772E-946D-4B7F-A4E0-1B3D6B6635EB",
            "target_timerange": {
              "start": 817365000,
              "duration": 1045000
            }
          },
          {
            "id": "6CC851BD-9C11-4E23-B6F1-4B7BE8443D1E",
            "material_id": "99EE4D8B-F14E-4662-B65F-C00904B2D673",
            "target_timerange": {
              "start": 818410000,
              "duration": 662000
            }
          },
          {
            "id": "24AF9EF2-6CBF-451A-B0F2-B922BED85120",
            "material_id": "D7311FD0-8DEB-4EBE-A7D7-270E25547C1F",
            "target_timerange": {
              "start": 819072000,
              "duration": 1322000
            }
          },
          {
            "id": "B2251AEF-0384-42C3-BBC4-8E7C6345F34B",
            "material_id": "8DEF941A-8298-449E-8D2D-35E7A8D3D546",
            "target_timerange": {
              "start": 820394000,
              "duration": 1643000
            }
          },
          {
            "id": "0F38EA46-4CE7-4D56-82AC-FD5697E25556",
            "material_id": "30A07E40-4BE0-47D2-9908-9EBD92D11760",
            "target_timerange": {
              "start": 822037000,
              "duration": 1749000
            }
          },
          {
            "id": "C06D553E-DBB3-4467-8855-0CBF5E720EE4",
            "material_id": "1107314E-7404-46ED-A9AF-38A440FE5EC4",
            "target_timerange": {
              "start": 823786000,
              "duration": 1494000
            }
          },
          {
            "id": "A0028ECE-4548-4018-ABAF-2B5F3EFFE97E",
            "material_id": "97F8C9BC-EFB1-4248-B4DE-961F9E7C95F1",
            "target_timerange": {
              "start": 825280000,
              "duration": 1087000
            }
          },
          {
            "id": "6BDFE2EF-2B7A-4EBA-8B34-2CB0206A6F7C",
            "material_id": "E06C6E79-F947-4F13-A758-D7105E6A7DD3",
            "target_timerange": {
              "start": 826367000,
              "duration": 982000
            }
          },
          {
            "id": "87CE3ECB-C829-4E20-A6D4-575D1A521550",
            "material_id": "EA8A9853-F855-417C-B999-468934C828F6",
            "target_timerange": {
              "start": 827349000,
              "duration": 2261000
            }
          },
          {
            "id": "6F24361E-C86A-45EF-84DE-534D70BAF124",
            "material_id": "56D53D50-BE8D-4635-978D-B05CC83B0935",
            "target_timerange": {
              "start": 829610000,
              "duration": 1323000
            }
          },
          {
            "id": "8645CF46-D571-4246-BDE6-4B2475ED6D99",
            "material_id": "690D62BB-1797-4FC6-88B0-F320A462A882",
            "target_timerange": {
              "start": 830933000,
              "duration": 661000
            }
          },
          {
            "id": "04A062BD-1D52-4ACC-BE61-DA11BD246FCC",
            "material_id": "20A475DF-1F0D-4069-B002-38696662B5EC",
            "target_timerange": {
              "start": 831594000,
              "duration": 1600000
            }
          },
          {
            "id": "133742CA-41CA-4A86-A97B-75066E8826D5",
            "material_id": "C8DF55A9-61A4-478D-B326-B612DD9B209E",
            "target_timerange": {
              "start": 833194000,
              "duration": 448000
            }
          },
          {
            "id": "4861B0F0-3838-44A6-8C0B-876C9C9D9693",
            "material_id": "B5CE3C90-0D54-4AD7-A161-1CC9635079E6",
            "target_timerange": {
              "start": 833642000,
              "duration": 597000
            }
          },
          {
            "id": "6454FD5B-A860-4644-83CA-4A5DB99363D2",
            "material_id": "028185E7-9D0D-4B3D-BAB8-8A18657FE7ED",
            "target_timerange": {
              "start": 834239000,
              "duration": 1622000
            }
          },
          {
            "id": "51D48D8B-EBD8-4207-8DC0-38804D2A8B02",
            "material_id": "9832322C-9FF8-4756-8421-A00104EC312D",
            "target_timerange": {
              "start": 835861000,
              "duration": 1195000
            }
          },
          {
            "id": "FE564844-B5A8-414A-AF37-C264A87F2DDF",
            "material_id": "716DA99D-B473-4AE6-BF53-CC6E172FABE8",
            "target_timerange": {
              "start": 837056000,
              "duration": 597000
            }
          },
          {
            "id": "2BAC2630-3DB9-42B8-9377-9417F5712031",
            "material_id": "E4B5FE43-9BA5-40D0-AB04-EC97BA1C4018",
            "target_timerange": {
              "start": 837653000,
              "duration": 384000
            }
          },
          {
            "id": "2430579A-316D-45CA-BD1B-206E7B39E0DA",
            "material_id": "95F56C4A-BA0E-44D5-B3FD-0F7033A950D2",
            "target_timerange": {
              "start": 838037000,
              "duration": 1770000
            }
          },
          {
            "id": "01498B79-3466-491C-A0E4-B3CB0A8ECF98",
            "material_id": "269929AC-2BF8-4670-AA48-E8D37D2BCFBC",
            "target_timerange": {
              "start": 839807000,
              "duration": 747000
            }
          },
          {
            "id": "4886D066-E073-4D0D-B0D5-0F9743D00CAE",
            "material_id": "65E43840-5058-488A-BEC0-A46DF37CCA0C",
            "target_timerange": {
              "start": 840554000,
              "duration": 1365000
            }
          },
          {
            "id": "86981B90-E5A6-47E4-B357-88BA3CE7AD55",
            "material_id": "527C1237-E218-4F64-893F-4ABBD14ACA76",
            "target_timerange": {
              "start": 841919000,
              "duration": 1174000
            }
          },
          {
            "id": "EBEF3B7F-DAD9-41B1-AFF6-663B22747137",
            "material_id": "79432AE0-7501-40F2-BDD8-C2C393496673",
            "target_timerange": {
              "start": 843093000,
              "duration": 2091000
            }
          },
          {
            "id": "E3BE9299-620E-4322-803B-CAE0605D6E27",
            "material_id": "1CAF37F9-F600-44E6-9F6F-DBCD69E7867F",
            "target_timerange": {
              "start": 845184000,
              "duration": 1816000
            }
          },
          {
            "id": "A9901C62-41FF-4D4E-8E8B-FF420BF06DF7",
            "material_id": "85E1738E-C117-4D70-BCAC-FBEA3E0BD99C",
            "target_timerange": {
              "start": 847000000,
              "duration": 1533000
            }
          },
          {
            "id": "58925E2F-8D3A-4A37-B5E9-425F72F7A09F",
            "material_id": "EFB424F5-EAC9-4947-8F21-99E05ECE5CB2",
            "target_timerange": {
              "start": 848533000,
              "duration": 1258000
            }
          },
          {
            "id": "5795A1B8-B9F7-451D-8C06-AC2CC86C23D1",
            "material_id": "B7027E8F-3112-4D95-931F-7711A72C27E0",
            "target_timerange": {
              "start": 849791000,
              "duration": 1451000
            }
          },
          {
            "id": "43FB7BA9-9CDE-4B59-AAC6-CD9B837CFE33",
            "material_id": "C7192D7A-C604-43CB-AA16-5A35EA317B16",
            "target_timerange": {
              "start": 851242000,
              "duration": 1109000
            }
          },
          {
            "id": "DA299868-8917-46B9-9505-AF9A009EB866",
            "material_id": "EEB77884-4FA1-4F7F-A488-7EC1BE5F1B7B",
            "target_timerange": {
              "start": 852351000,
              "duration": 1174000
            }
          },
          {
            "id": "AD000EE5-0A2E-45C8-8060-1EB809A26C91",
            "material_id": "B71BDA49-DBEC-477C-80B5-15A09BBF78EC",
            "target_timerange": {
              "start": 853525000,
              "duration": 1301000
            }
          },
          {
            "id": "A8D9C8E6-F154-427C-84B2-696E7AA1C5CA",
            "material_id": "A344A957-4217-48AA-82AB-3AE09B061399",
            "target_timerange": {
              "start": 854826000,
              "duration": 2099000
            }
          },
          {
            "id": "EB5D5231-423E-4B1A-BBE7-F27C1476677F",
            "material_id": "3BDEE72B-A035-4935-91F6-960D55D9674F",
            "target_timerange": {
              "start": 856925000,
              "duration": 2050000
            }
          },
          {
            "id": "9C39B9C0-61EC-49BA-9867-106748A85057",
            "material_id": "63806ED7-E573-4B00-86D0-8042F65FB823",
            "target_timerange": {
              "start": 858975000,
              "duration": 2059000
            }
          },
          {
            "id": "BC140B9C-3990-46FB-A8CD-A31FFDCFDC25",
            "material_id": "D5BE7B45-ED9F-408D-A08C-C92330AA8AE9",
            "target_timerange": {
              "start": 861034000,
              "duration": 427000
            }
          },
          {
            "id": "B8DA79B7-F1D8-450E-902E-3DDF5A70FE71",
            "material_id": "6E01A119-2CA0-4E33-A8B4-384F3F967DC0",
            "target_timerange": {
              "start": 861461000,
              "duration": 853000
            }
          },
          {
            "id": "296E5947-1C7D-4A7C-AD14-2E3D4B05F1A5",
            "material_id": "00EE2191-17EC-4D74-A2DF-FC470678C345",
            "target_timerange": {
              "start": 862314000,
              "duration": 1558000
            }
          },
          {
            "id": "C48E8B75-736B-4BD3-8B1C-A8A0057C489D",
            "material_id": "482E490C-CF00-41E5-AD7A-C9D4470903E1",
            "target_timerange": {
              "start": 863872000,
              "duration": 1258000
            }
          },
          {
            "id": "FCD2A568-B83F-455D-B313-BEFAF5FC3DCB",
            "material_id": "227D3147-FFB0-4A0D-9491-7AEB456BFFFC",
            "target_timerange": {
              "start": 865130000,
              "duration": 1195000
            }
          },
          {
            "id": "E9A4ECE2-463B-496D-8D74-06879D0F4433",
            "material_id": "E535B493-8FE0-4225-A365-23C5575AC886",
            "target_timerange": {
              "start": 866325000,
              "duration": 1800000
            }
          },
          {
            "id": "A777A304-42C2-4090-AF77-7BD78575DACF",
            "material_id": "B0CA8210-9A30-4880-B996-875F98FE26F4",
            "target_timerange": {
              "start": 868125000,
              "duration": 2000000
            }
          },
          {
            "id": "1FEF2560-CC32-4DF3-B7C6-646135F5C6EE",
            "material_id": "EBD240E7-522E-4B20-A30C-C87186D6560E",
            "target_timerange": {
              "start": 870125000,
              "duration": 1704000
            }
          },
          {
            "id": "C1763559-B885-424A-8023-B3410EFE1C79",
            "material_id": "92814F5A-54F1-432C-ACCD-549DFDAC7BA1",
            "target_timerange": {
              "start": 871829000,
              "duration": 1896000
            }
          },
          {
            "id": "1A1346C5-3D15-40CB-A5B2-673E98445DBF",
            "material_id": "20B537BC-E44A-4101-B0CE-6DBDD7B4CE44",
            "target_timerange": {
              "start": 873725000,
              "duration": 1688000
            }
          },
          {
            "id": "98E767D8-0878-4183-AB60-AD811CEF435E",
            "material_id": "E54C2499-2AB4-4B82-8FBF-5491F1FEB4B6",
            "target_timerange": {
              "start": 875413000,
              "duration": 2581000
            }
          },
          {
            "id": "011B7030-A446-426E-A5C1-2B4B5AA882E2",
            "material_id": "AB7B0EB5-F8CC-483B-B516-6C8725FA8E24",
            "target_timerange": {
              "start": 877994000,
              "duration": 1344000
            }
          },
          {
            "id": "3FBE89CE-B7ED-4353-92E2-9A7531D3954B",
            "material_id": "DDD66D87-3551-4B61-909C-BB7B9D9F0B93",
            "target_timerange": {
              "start": 879338000,
              "duration": 768000
            }
          },
          {
            "id": "5EA3672D-A1BD-4DE8-9DD6-57AF8580528D",
            "material_id": "7802CEF3-F2DC-440A-BEED-BAA7CEFDCD77",
            "target_timerange": {
              "start": 880106000,
              "duration": 768000
            }
          },
          {
            "id": "8A8B4A03-7FC9-4AC3-A565-5CB942CFA4AA",
            "material_id": "37A77703-2A2A-413F-9D32-E17AEE99EBB1",
            "target_timerange": {
              "start": 880874000,
              "duration": 1259000
            }
          },
          {
            "id": "C1E6EF03-251C-4B79-AF7B-B9D661AA7F68",
            "material_id": "539CE6CC-8233-48CF-9997-22D8D1EA5AAF",
            "target_timerange": {
              "start": 882133000,
              "duration": 1088000
            }
          },
          {
            "id": "C4164288-CD1C-4B4A-9D81-9741ED4CDDD1",
            "material_id": "3963FB2D-F748-4DAF-8ACA-BCDAD3E81142",
            "target_timerange": {
              "start": 883221000,
              "duration": 938000
            }
          },
          {
            "id": "0A0B8355-976A-4F40-B161-C9979ECD4072",
            "material_id": "F59474CE-632A-4256-82C9-9E29833BE462",
            "target_timerange": {
              "start": 884159000,
              "duration": 1110000
            }
          },
          {
            "id": "0FF50EF8-FBE8-4BB5-BD5F-E19F958EAF44",
            "material_id": "349AE782-2A45-445D-81AB-DEC6760F5B84",
            "target_timerange": {
              "start": 885269000,
              "duration": 2197000
            }
          },
          {
            "id": "6E589B09-2E2B-42AC-9E62-4D1845D5A92D",
            "material_id": "690D9160-23E6-48A8-8D1A-BD4AA9B4E600",
            "target_timerange": {
              "start": 887466000,
              "duration": 1152000
            }
          },
          {
            "id": "2259CF5E-F7EA-4AEB-B478-5DEE7B4651C5",
            "material_id": "A755CCEB-F842-4FB6-87E1-05A4D4449BC2",
            "target_timerange": {
              "start": 888618000,
              "duration": 1387000
            }
          },
          {
            "id": "BE220787-0EE5-4442-8E10-7158CF5F942B",
            "material_id": "1864FEDD-CD2D-4107-8C09-4FCC985056BA",
            "target_timerange": {
              "start": 890005000,
              "duration": 789000
            }
          },
          {
            "id": "3DD4E322-FBAF-4421-80F0-445A3A64B285",
            "material_id": "5389B1ED-B1F3-49C0-AFCA-FD1AA7B236D7",
            "target_timerange": {
              "start": 890794000,
              "duration": 1728000
            }
          },
          {
            "id": "7E311F59-70E1-43FA-B772-2FE66428799D",
            "material_id": "CE9C11AC-A2F6-428A-9DB3-3DEEA9C975C2",
            "target_timerange": {
              "start": 892522000,
              "duration": 1088000
            }
          },
          {
            "id": "34789C17-117B-4EE4-AF94-1638A9AF5C06",
            "material_id": "67F5404A-575A-497B-B0C2-F99DB3E2CF7D",
            "target_timerange": {
              "start": 893610000,
              "duration": 640000
            }
          },
          {
            "id": "26D0035D-9840-492D-92CA-1C5B625112DB",
            "material_id": "49A155AE-912A-48DC-AFFF-24A84A0F970B",
            "target_timerange": {
              "start": 894250000,
              "duration": 981000
            }
          },
          {
            "id": "AD827BCB-1D95-4D95-B508-ABB6B6DD2970",
            "material_id": "0EAE3C47-467F-455A-B4B4-B0B29F75957B",
            "target_timerange": {
              "start": 895231000,
              "duration": 1323000
            }
          },
          {
            "id": "488ABD9E-0819-462B-848A-64F87097713B",
            "material_id": "65055FA2-3AA9-43BB-856A-ACBA6AE4B93F",
            "target_timerange": {
              "start": 896554000,
              "duration": 1323000
            }
          },
          {
            "id": "EDB4F1D2-940D-473B-A597-06B56635AD28",
            "material_id": "9AD1D264-BB2C-4631-A235-AC0B1A038592",
            "target_timerange": {
              "start": 897877000,
              "duration": 768000
            }
          },
          {
            "id": "472E5EA1-2B9E-42FB-B0FB-71F3F74FF5AD",
            "material_id": "004E9E9C-8A7C-4252-AA48-7B20C8D26677",
            "target_timerange": {
              "start": 898645000,
              "duration": 2496000
            }
          },
          {
            "id": "6DF33FF3-FFCC-45CD-910F-785F74E8EE98",
            "material_id": "C91A339D-8695-4045-BDD8-5B0B6C80E9F7",
            "target_timerange": {
              "start": 901141000,
              "duration": 1728000
            }
          },
          {
            "id": "C81A855B-EF52-4E02-B2AD-DE03E396CA85",
            "material_id": "A2D8F4F6-FB71-448A-8AD0-3A72A1F37D17",
            "target_timerange": {
              "start": 902869000,
              "duration": 1109000
            }
          },
          {
            "id": "DD95B27A-C762-4DB0-9793-62120B695DFB",
            "material_id": "C87CE1E9-F84F-4CF0-8D8D-0AE9472361F8",
            "target_timerange": {
              "start": 903978000,
              "duration": 704000
            }
          },
          {
            "id": "27B17EE2-DB85-4CAB-99EE-0F531ED1D8F3",
            "material_id": "11B5C6AB-5835-4C1A-9304-D76A1FE7A18C",
            "target_timerange": {
              "start": 904682000,
              "duration": 1750000
            }
          },
          {
            "id": "AC26E9D9-BE48-4479-A9A9-794D803FB17D",
            "material_id": "F158B6E1-7CEE-4634-90DF-AF351508F8BC",
            "target_timerange": {
              "start": 906432000,
              "duration": 1706000
            }
          },
          {
            "id": "8C59702E-3036-4E32-A3A8-05BF55A08AEB",
            "material_id": "3CDB8EB4-89EF-44B9-AB85-5AF5AFE25320",
            "target_timerange": {
              "start": 908138000,
              "duration": 1429000
            }
          },
          {
            "id": "EBF2A742-D8ED-480B-9F58-FF2D7EE1DA4F",
            "material_id": "C6F84D1F-609E-4CE5-8895-4F23888FE0F5",
            "target_timerange": {
              "start": 909567000,
              "duration": 1857000
            }
          },
          {
            "id": "88BC36EB-D7EA-408C-997B-370E21C99674",
            "material_id": "0DEB33BB-75B9-45D6-88B4-D17E4167B3CA",
            "target_timerange": {
              "start": 911424000,
              "duration": 1471000
            }
          },
          {
            "id": "732172B0-74E7-4274-AEDB-1AF20DB7A785",
            "material_id": "FCF9FD8D-37BB-4738-896A-B70379892389",
            "target_timerange": {
              "start": 912895000,
              "duration": 1451000
            }
          },
          {
            "id": "57EE202E-7089-422B-B691-89F6E95D0A13",
            "material_id": "3B612A43-5765-43D6-B6C3-50E383A25005",
            "target_timerange": {
              "start": 914346000,
              "duration": 1536000
            }
          },
          {
            "id": "B6D0EC3D-CEB3-4C60-941F-1F067CA063AE",
            "material_id": "0C40F32C-D638-452D-AC9A-C9C1AC0BD191",
            "target_timerange": {
              "start": 915882000,
              "duration": 1365000
            }
          },
          {
            "id": "CC0A0C12-3C90-45E0-9D67-3C0F6BB08149",
            "material_id": "90071B90-A1EB-4B26-A552-DFF3130C84D2",
            "target_timerange": {
              "start": 917247000,
              "duration": 1686000
            }
          },
          {
            "id": "1E7E40E4-70CA-4B51-835A-8C0858A2DF41",
            "material_id": "48CFCF00-9648-4CD1-9B35-A0A0DA7370F7",
            "target_timerange": {
              "start": 918933000,
              "duration": 1259000
            }
          },
          {
            "id": "34A43D12-1E78-406D-A478-C2219D83EF5C",
            "material_id": "2E2ABF4C-0B5F-40C4-8476-99278FD88CE8",
            "target_timerange": {
              "start": 920192000,
              "duration": 1216000
            }
          },
          {
            "id": "5424D9B3-F84E-492F-9543-0BBB052E29A9",
            "material_id": "4F099BD7-CA01-4B09-BAFA-A6A35E929393",
            "target_timerange": {
              "start": 921408000,
              "duration": 1066000
            }
          },
          {
            "id": "843254FB-CE37-4A7E-B7B9-05D40776D44E",
            "material_id": "571ED1EC-937D-42F7-9988-2B44C5C2C99B",
            "target_timerange": {
              "start": 922474000,
              "duration": 1003000
            }
          },
          {
            "id": "D1530CBB-83D2-4F01-91BA-649843A05DF7",
            "material_id": "2FD7EA00-A0BC-4F96-AC86-9FCAD5569C56",
            "target_timerange": {
              "start": 923477000,
              "duration": 1024000
            }
          },
          {
            "id": "C7051807-AE79-47EF-B8E3-BC5EBE53A5F3",
            "material_id": "F3666EB1-64F0-497C-A305-E2E1A9E968C9",
            "target_timerange": {
              "start": 924501000,
              "duration": 1280000
            }
          },
          {
            "id": "8CCB2202-97FD-4320-AC6E-4CA8D129E868",
            "material_id": "24BED43C-88DC-4B3D-9DC8-FC9767AE1348",
            "target_timerange": {
              "start": 925781000,
              "duration": 1664000
            }
          },
          {
            "id": "82100199-AC6A-48F6-A03E-2C3FD1389D9C",
            "material_id": "8AA36A49-6344-496C-A7D9-261F881137DB",
            "target_timerange": {
              "start": 927445000,
              "duration": 1408000
            }
          },
          {
            "id": "B6BD681C-8929-4969-A66B-B2260B434399",
            "material_id": "BCF6A744-1C4B-419B-A383-923D3B52E053",
            "target_timerange": {
              "start": 928853000,
              "duration": 1173000
            }
          },
          {
            "id": "B0324C52-B1A6-40B9-8FFA-3DE8D58492F6",
            "material_id": "9B1BE8DE-63E3-4EFB-8B34-25075FA715EE",
            "target_timerange": {
              "start": 930026000,
              "duration": 1237000
            }
          },
          {
            "id": "DA2F2145-495A-4C40-8C36-278C26594861",
            "material_id": "782BBBD8-4245-45AD-9FD6-219D931110E3",
            "target_timerange": {
              "start": 931263000,
              "duration": 833000
            }
          },
          {
            "id": "3A8B840B-D0E8-4958-A7F7-61FF95FA9268",
            "material_id": "3CC61661-0A3E-460B-B6C3-91FAAC75490F",
            "target_timerange": {
              "start": 932096000,
              "duration": 1322000
            }
          },
          {
            "id": "0F79D626-12A7-4344-B338-239FE32FD5BF",
            "material_id": "CE1C1BAB-8F65-4F7F-911E-30CCA185A6FB",
            "target_timerange": {
              "start": 933418000,
              "duration": 1045000
            }
          },
          {
            "id": "C42CE063-2BAC-4772-8A21-6F3519D88950",
            "material_id": "AB27C8A8-7B20-40C4-B713-FC1373D24D1C",
            "target_timerange": {
              "start": 934463000,
              "duration": 1515000
            }
          },
          {
            "id": "CC607299-EFC6-4D3D-B857-8652452D3DBE",
            "material_id": "5513B4E8-5016-4B6B-9F5B-2219BC562774",
            "target_timerange": {
              "start": 935978000,
              "duration": 2261000
            }
          },
          {
            "id": "1C71C086-E0A1-46BE-B7A5-65CB1A0847BB",
            "material_id": "2089A9A9-EC12-4B0E-AAF6-F902BF3BEE36",
            "target_timerange": {
              "start": 938239000,
              "duration": 1878000
            }
          },
          {
            "id": "D6C1EAE3-A955-48D2-963F-3DF1F4DC82A8",
            "material_id": "ACB96341-88FB-45E9-9D85-89244504B39D",
            "target_timerange": {
              "start": 940117000,
              "duration": 1216000
            }
          },
          {
            "id": "6EF08AC2-C941-4E9A-9985-CF146990BA42",
            "material_id": "240912B3-F035-499A-A2FD-1D72A6EF9309",
            "target_timerange": {
              "start": 941333000,
              "duration": 533000
            }
          },
          {
            "id": "121EAD1E-D4D6-496E-B9F9-8BA87C38B553",
            "material_id": "78430C1A-47F4-41F5-A261-F8541C9F43F5",
            "target_timerange": {
              "start": 941866000,
              "duration": 1430000
            }
          },
          {
            "id": "3CC48EE4-BBAF-48F0-B4ED-8E0EDB56845B",
            "material_id": "181821A5-1840-44A1-B422-22B61AB6B877",
            "target_timerange": {
              "start": 943296000,
              "duration": 1173000
            }
          },
          {
            "id": "EDF3B453-47E1-40C0-BFF6-6BFC50A19E16",
            "material_id": "0B922D84-C459-4D21-BCA4-E47BE116B69E",
            "target_timerange": {
              "start": 944469000,
              "duration": 917000
            }
          },
          {
            "id": "7C02B530-BD51-4EE1-A1D2-01E5EB43016C",
            "material_id": "7FAB1BD7-78EC-45CD-8452-EAEB78764494",
            "target_timerange": {
              "start": 945386000,
              "duration": 704000
            }
          },
          {
            "id": "CE26DEA5-D3E1-4673-A9EB-C8DD0B9EE5C7",
            "material_id": "4E62D6CE-40C9-4358-9FB9-1B0EFD188499",
            "target_timerange": {
              "start": 946090000,
              "duration": 1380000
            }
          },
          {
            "id": "BE8075D2-28C8-4D25-ABE6-94C2D76CAE37",
            "material_id": "A9921E1E-3FF5-4A33-A1DF-1D4F1F147DCB",
            "target_timerange": {
              "start": 947470000,
              "duration": 1394000
            }
          },
          {
            "id": "3F18F5D6-CCC1-4397-A7FA-925B668F7001",
            "material_id": "787120FA-F89F-4372-A4E0-4AF3E41FEA53",
            "target_timerange": {
              "start": 948864000,
              "duration": 1045000
            }
          },
          {
            "id": "38F2C6E0-38F6-46CA-9CDF-31CFC6CB7A50",
            "material_id": "C909DA1D-F76D-4251-9068-5F4267AE7820",
            "target_timerange": {
              "start": 949909000,
              "duration": 1237000
            }
          },
          {
            "id": "D442485A-64EC-46AD-9D17-2EDF0CEDB788",
            "material_id": "567E7924-5A86-40FF-A741-83B4A9381075",
            "target_timerange": {
              "start": 951146000,
              "duration": 1856000
            }
          },
          {
            "id": "6368B7A7-E1EA-41D1-8139-5FD1C99122B9",
            "material_id": "4F45F3F2-70AC-45EA-95EB-B2247D3E90BE",
            "target_timerange": {
              "start": 953002000,
              "duration": 704000
            }
          },
          {
            "id": "39F61395-25D7-41AC-A7CB-399B3BA02516",
            "material_id": "82E2309A-F8B1-4543-8BE8-CA0C98CDF66B",
            "target_timerange": {
              "start": 953706000,
              "duration": 896000
            }
          },
          {
            "id": "D7DC06A9-84BD-4A84-AEAA-D829A5004A38",
            "material_id": "B2B0780E-0E49-40ED-8799-F681E785AA2A",
            "target_timerange": {
              "start": 954602000,
              "duration": 832000
            }
          },
          {
            "id": "AE803742-E18F-4C98-96C4-6D71C0BA0569",
            "material_id": "098B9437-4186-47EA-A1D6-7056665519CC",
            "target_timerange": {
              "start": 955434000,
              "duration": 832000
            }
          },
          {
            "id": "C8FD67F0-C1DB-4A60-8E78-D33D4BEBD53C",
            "material_id": "28C69931-314A-492A-B4B0-54E076A31361",
            "target_timerange": {
              "start": 956266000,
              "duration": 1749000
            }
          },
          {
            "id": "FC273113-E11F-4185-B16D-14F407575CD8",
            "material_id": "1E38D958-2A44-4CE2-A0C4-0F380D03DB8E",
            "target_timerange": {
              "start": 958015000,
              "duration": 1664000
            }
          },
          {
            "id": "597C2BC8-A68E-4292-9F2C-A8D1E05CF6A4",
            "material_id": "3C551841-E39B-4F47-B171-47521DA1F5CA",
            "target_timerange": {
              "start": 959679000,
              "duration": 1686000
            }
          },
          {
            "id": "CD0CBE76-D26D-4DD7-8964-74F7D4DF9713",
            "material_id": "E60FC05E-37F8-4D04-8022-CA5EC4F2AB8B",
            "target_timerange": {
              "start": 961365000,
              "duration": 554000
            }
          },
          {
            "id": "249661E2-E435-4019-B016-311DA82631AE",
            "material_id": "0D7E8F5B-4FF0-4FD0-90D6-715C6EC29DD4",
            "target_timerange": {
              "start": 961919000,
              "duration": 1216000
            }
          },
          {
            "id": "564DD1A4-F62F-4D25-8904-97FB924A85A4",
            "material_id": "E61DF586-080A-4008-B4CD-E028A19F28DA",
            "target_timerange": {
              "start": 963135000,
              "duration": 768000
            }
          },
          {
            "id": "13077928-8D2A-44CA-802A-B8A5B40914CE",
            "material_id": "1FD35041-6474-4903-BD32-FB5E9A742EAC",
            "target_timerange": {
              "start": 963903000,
              "duration": 1937000
            }
          },
          {
            "id": "BEF32F4B-5962-4C01-ADC4-BEC09851DACB",
            "material_id": "2A10CFB0-979B-4B2F-B352-EAF2537C4A53",
            "target_timerange": {
              "start": 965840000,
              "duration": 1882000
            }
          },
          {
            "id": "53177299-CB59-480A-AC3B-A497B668CE6F",
            "material_id": "E6C48DE5-3D49-40A2-A844-9404C5EDC676",
            "target_timerange": {
              "start": 967722000,
              "duration": 896000
            }
          },
          {
            "id": "72A8C064-342B-41A6-AEA2-2EFC7B1A0FDB",
            "material_id": "6748DE4C-5D11-4959-A4FB-00E0EBD9827A",
            "target_timerange": {
              "start": 968618000,
              "duration": 960000
            }
          },
          {
            "id": "86E7D8AC-D5C0-4101-A95C-326D99BBD4B1",
            "material_id": "F5324D42-DDD8-4C07-A2BD-76D03F190B5E",
            "target_timerange": {
              "start": 969578000,
              "duration": 1046000
            }
          },
          {
            "id": "3B2A63FE-D034-48BA-93BC-DFE867C45F8C",
            "material_id": "403D9963-C578-4A77-B05E-11333AD6E09F",
            "target_timerange": {
              "start": 970624000,
              "duration": 1493000
            }
          },
          {
            "id": "F515DBFB-6780-4B42-909C-C09985FE7761",
            "material_id": "A391D9CB-BFA2-45D1-89EE-18FA8B473B4E",
            "target_timerange": {
              "start": 972117000,
              "duration": 1301000
            }
          },
          {
            "id": "7EAE97A5-C9D9-4B1F-B2CF-712C9B9F6BF5",
            "material_id": "D358117C-6A9C-4619-B66A-B1384FF10196",
            "target_timerange": {
              "start": 973418000,
              "duration": 947000
            }
          },
          {
            "id": "BC755595-A36E-40EF-9C29-935C76F97D3C",
            "material_id": "0C785199-4CC0-4117-B0CD-860E873ABBA4",
            "target_timerange": {
              "start": 974365000,
              "duration": 1925000
            }
          }
        ]
      }
    ],
    "version": "3.6.0"
  },
  "segment_animation_params": {}
}